<?xml version="1.0" encoding="utf-8" standalone="no"?>
<!DOCTYPE svg PUBLIC "-//W3C//DTD SVG 1.1//EN"
  "http://www.w3.org/Graphics/SVG/1.1/DTD/svg11.dtd">
<svg xmlns:xlink="http://www.w3.org/1999/xlink" width="201.259843pt" height="394.015748pt" viewBox="0 0 201.259843 394.015748" xmlns="http://www.w3.org/2000/svg" version="1.1">
 <metadata>
  <rdf:RDF xmlns:dc="http://purl.org/dc/elements/1.1/" xmlns:cc="http://creativecommons.org/ns#" xmlns:rdf="http://www.w3.org/1999/02/22-rdf-syntax-ns#">
   <cc:Work>
    <dc:type rdf:resource="http://purl.org/dc/dcmitype/StillImage"/>
    <dc:date>2024-12-29T21:39:32.540547</dc:date>
    <dc:format>image/svg+xml</dc:format>
    <dc:creator>
     <cc:Agent>
      <dc:title>Matplotlib v3.8.4, https://matplotlib.org/</dc:title>
     </cc:Agent>
    </dc:creator>
   </cc:Work>
  </rdf:RDF>
 </metadata>
 <defs>
  <style type="text/css">*{stroke-linejoin: round; stroke-linecap: butt}</style>
 </defs>
 <g id="figure_1">
  <g id="axes_1">
   <g id="patch_1">
    <path d="M 18.566929 370.771654 
L 43.228346 370.771654 
Q 46.062992 370.771654 46.062992 367.937008 
L 46.062992 354.897638 
Q 46.062992 352.062992 43.228346 352.062992 
L 18.566929 352.062992 
Q 15.732283 352.062992 15.732283 354.897638 
L 15.732283 367.937008 
Q 15.732283 370.771654 18.566929 370.771654 
L 18.566929 370.771654 
z
" clip-path="url(#p74d4caba3e)" style="fill: none; stroke: #000000; stroke-width: 0.1; stroke-linejoin: miter"/>
   </g>
   <g id="patch_2">
    <path d="M 53.433071 370.771654 
L 78.094488 370.771654 
Q 80.929134 370.771654 80.929134 367.937008 
L 80.929134 354.897638 
Q 80.929134 352.062992 78.094488 352.062992 
L 53.433071 352.062992 
Q 50.598425 352.062992 50.598425 354.897638 
L 50.598425 367.937008 
Q 50.598425 370.771654 53.433071 370.771654 
L 53.433071 370.771654 
z
" clip-path="url(#p74d4caba3e)" style="fill: none; stroke: #000000; stroke-width: 0.1; stroke-linejoin: miter"/>
   </g>
   <g id="patch_3">
    <path d="M 88.299213 370.771654 
L 112.96063 370.771654 
Q 115.795276 370.771654 115.795276 367.937008 
L 115.795276 354.897638 
Q 115.795276 352.062992 112.96063 352.062992 
L 88.299213 352.062992 
Q 85.464567 352.062992 85.464567 354.897638 
L 85.464567 367.937008 
Q 85.464567 370.771654 88.299213 370.771654 
L 88.299213 370.771654 
z
" clip-path="url(#p74d4caba3e)" style="fill: none; stroke: #000000; stroke-width: 0.1; stroke-linejoin: miter"/>
   </g>
   <g id="patch_4">
    <path d="M 123.165354 370.771654 
L 147.826772 370.771654 
Q 150.661417 370.771654 150.661417 367.937008 
L 150.661417 354.897638 
Q 150.661417 352.062992 147.826772 352.062992 
L 123.165354 352.062992 
Q 120.330709 352.062992 120.330709 354.897638 
L 120.330709 367.937008 
Q 120.330709 370.771654 123.165354 370.771654 
L 123.165354 370.771654 
z
" clip-path="url(#p74d4caba3e)" style="fill: none; stroke: #000000; stroke-width: 0.1; stroke-linejoin: miter"/>
   </g>
   <g id="patch_5">
    <path d="M 158.031496 370.771654 
L 182.692913 370.771654 
Q 185.527559 370.771654 185.527559 367.937008 
L 185.527559 354.897638 
Q 185.527559 352.062992 182.692913 352.062992 
L 158.031496 352.062992 
Q 155.19685 352.062992 155.19685 354.897638 
L 155.19685 367.937008 
Q 155.19685 370.771654 158.031496 370.771654 
L 158.031496 370.771654 
z
" clip-path="url(#p74d4caba3e)" style="fill: none; stroke: #000000; stroke-width: 0.1; stroke-linejoin: miter"/>
   </g>
   <g id="patch_6">
    <path d="M 18.566929 342.425197 
L 43.228346 342.425197 
Q 46.062992 342.425197 46.062992 339.590551 
L 46.062992 326.551181 
Q 46.062992 323.716535 43.228346 323.716535 
L 18.566929 323.716535 
Q 15.732283 323.716535 15.732283 326.551181 
L 15.732283 339.590551 
Q 15.732283 342.425197 18.566929 342.425197 
L 18.566929 342.425197 
z
" clip-path="url(#p74d4caba3e)" style="fill: none; stroke: #000000; stroke-width: 0.1; stroke-linejoin: miter"/>
   </g>
   <g id="patch_7">
    <path d="M 53.433071 342.425197 
L 78.094488 342.425197 
Q 80.929134 342.425197 80.929134 339.590551 
L 80.929134 326.551181 
Q 80.929134 323.716535 78.094488 323.716535 
L 53.433071 323.716535 
Q 50.598425 323.716535 50.598425 326.551181 
L 50.598425 339.590551 
Q 50.598425 342.425197 53.433071 342.425197 
L 53.433071 342.425197 
z
" clip-path="url(#p74d4caba3e)" style="fill: none; stroke: #000000; stroke-width: 0.1; stroke-linejoin: miter"/>
   </g>
   <g id="patch_8">
    <path d="M 88.299213 342.425197 
L 112.96063 342.425197 
Q 115.795276 342.425197 115.795276 339.590551 
L 115.795276 326.551181 
Q 115.795276 323.716535 112.96063 323.716535 
L 88.299213 323.716535 
Q 85.464567 323.716535 85.464567 326.551181 
L 85.464567 339.590551 
Q 85.464567 342.425197 88.299213 342.425197 
L 88.299213 342.425197 
z
" clip-path="url(#p74d4caba3e)" style="fill: none; stroke: #000000; stroke-width: 0.1; stroke-linejoin: miter"/>
   </g>
   <g id="patch_9">
    <path d="M 123.165354 342.425197 
L 147.826772 342.425197 
Q 150.661417 342.425197 150.661417 339.590551 
L 150.661417 326.551181 
Q 150.661417 323.716535 147.826772 323.716535 
L 123.165354 323.716535 
Q 120.330709 323.716535 120.330709 326.551181 
L 120.330709 339.590551 
Q 120.330709 342.425197 123.165354 342.425197 
L 123.165354 342.425197 
z
" clip-path="url(#p74d4caba3e)" style="fill: none; stroke: #000000; stroke-width: 0.1; stroke-linejoin: miter"/>
   </g>
   <g id="patch_10">
    <path d="M 158.031496 342.425197 
L 182.692913 342.425197 
Q 185.527559 342.425197 185.527559 339.590551 
L 185.527559 326.551181 
Q 185.527559 323.716535 182.692913 323.716535 
L 158.031496 323.716535 
Q 155.19685 323.716535 155.19685 326.551181 
L 155.19685 339.590551 
Q 155.19685 342.425197 158.031496 342.425197 
L 158.031496 342.425197 
z
" clip-path="url(#p74d4caba3e)" style="fill: none; stroke: #000000; stroke-width: 0.1; stroke-linejoin: miter"/>
   </g>
   <g id="patch_11">
    <path d="M 18.566929 314.07874 
L 43.228346 314.07874 
Q 46.062992 314.07874 46.062992 311.244094 
L 46.062992 298.204724 
Q 46.062992 295.370079 43.228346 295.370079 
L 18.566929 295.370079 
Q 15.732283 295.370079 15.732283 298.204724 
L 15.732283 311.244094 
Q 15.732283 314.07874 18.566929 314.07874 
L 18.566929 314.07874 
z
" clip-path="url(#p74d4caba3e)" style="fill: none; stroke: #000000; stroke-width: 0.1; stroke-linejoin: miter"/>
   </g>
   <g id="patch_12">
    <path d="M 53.433071 314.07874 
L 78.094488 314.07874 
Q 80.929134 314.07874 80.929134 311.244094 
L 80.929134 298.204724 
Q 80.929134 295.370079 78.094488 295.370079 
L 53.433071 295.370079 
Q 50.598425 295.370079 50.598425 298.204724 
L 50.598425 311.244094 
Q 50.598425 314.07874 53.433071 314.07874 
L 53.433071 314.07874 
z
" clip-path="url(#p74d4caba3e)" style="fill: none; stroke: #000000; stroke-width: 0.1; stroke-linejoin: miter"/>
   </g>
   <g id="patch_13">
    <path d="M 88.299213 314.07874 
L 112.96063 314.07874 
Q 115.795276 314.07874 115.795276 311.244094 
L 115.795276 298.204724 
Q 115.795276 295.370079 112.96063 295.370079 
L 88.299213 295.370079 
Q 85.464567 295.370079 85.464567 298.204724 
L 85.464567 311.244094 
Q 85.464567 314.07874 88.299213 314.07874 
L 88.299213 314.07874 
z
" clip-path="url(#p74d4caba3e)" style="fill: none; stroke: #000000; stroke-width: 0.1; stroke-linejoin: miter"/>
   </g>
   <g id="patch_14">
    <path d="M 123.165354 314.07874 
L 147.826772 314.07874 
Q 150.661417 314.07874 150.661417 311.244094 
L 150.661417 298.204724 
Q 150.661417 295.370079 147.826772 295.370079 
L 123.165354 295.370079 
Q 120.330709 295.370079 120.330709 298.204724 
L 120.330709 311.244094 
Q 120.330709 314.07874 123.165354 314.07874 
L 123.165354 314.07874 
z
" clip-path="url(#p74d4caba3e)" style="fill: none; stroke: #000000; stroke-width: 0.1; stroke-linejoin: miter"/>
   </g>
   <g id="patch_15">
    <path d="M 158.031496 314.07874 
L 182.692913 314.07874 
Q 185.527559 314.07874 185.527559 311.244094 
L 185.527559 298.204724 
Q 185.527559 295.370079 182.692913 295.370079 
L 158.031496 295.370079 
Q 155.19685 295.370079 155.19685 298.204724 
L 155.19685 311.244094 
Q 155.19685 314.07874 158.031496 314.07874 
L 158.031496 314.07874 
z
" clip-path="url(#p74d4caba3e)" style="fill: none; stroke: #000000; stroke-width: 0.1; stroke-linejoin: miter"/>
   </g>
   <g id="patch_16">
    <path d="M 18.566929 285.732283 
L 43.228346 285.732283 
Q 46.062992 285.732283 46.062992 282.897638 
L 46.062992 269.858268 
Q 46.062992 267.023622 43.228346 267.023622 
L 18.566929 267.023622 
Q 15.732283 267.023622 15.732283 269.858268 
L 15.732283 282.897638 
Q 15.732283 285.732283 18.566929 285.732283 
L 18.566929 285.732283 
z
" clip-path="url(#p74d4caba3e)" style="fill: none; stroke: #000000; stroke-width: 0.1; stroke-linejoin: miter"/>
   </g>
   <g id="patch_17">
    <path d="M 53.433071 285.732283 
L 78.094488 285.732283 
Q 80.929134 285.732283 80.929134 282.897638 
L 80.929134 269.858268 
Q 80.929134 267.023622 78.094488 267.023622 
L 53.433071 267.023622 
Q 50.598425 267.023622 50.598425 269.858268 
L 50.598425 282.897638 
Q 50.598425 285.732283 53.433071 285.732283 
L 53.433071 285.732283 
z
" clip-path="url(#p74d4caba3e)" style="fill: none; stroke: #000000; stroke-width: 0.1; stroke-linejoin: miter"/>
   </g>
   <g id="patch_18">
    <path d="M 88.299213 285.732283 
L 112.96063 285.732283 
Q 115.795276 285.732283 115.795276 282.897638 
L 115.795276 269.858268 
Q 115.795276 267.023622 112.96063 267.023622 
L 88.299213 267.023622 
Q 85.464567 267.023622 85.464567 269.858268 
L 85.464567 282.897638 
Q 85.464567 285.732283 88.299213 285.732283 
L 88.299213 285.732283 
z
" clip-path="url(#p74d4caba3e)" style="fill: none; stroke: #000000; stroke-width: 0.1; stroke-linejoin: miter"/>
   </g>
   <g id="patch_19">
    <path d="M 123.165354 285.732283 
L 147.826772 285.732283 
Q 150.661417 285.732283 150.661417 282.897638 
L 150.661417 269.858268 
Q 150.661417 267.023622 147.826772 267.023622 
L 123.165354 267.023622 
Q 120.330709 267.023622 120.330709 269.858268 
L 120.330709 282.897638 
Q 120.330709 285.732283 123.165354 285.732283 
L 123.165354 285.732283 
z
" clip-path="url(#p74d4caba3e)" style="fill: none; stroke: #000000; stroke-width: 0.1; stroke-linejoin: miter"/>
   </g>
   <g id="patch_20">
    <path d="M 158.031496 285.732283 
L 182.692913 285.732283 
Q 185.527559 285.732283 185.527559 282.897638 
L 185.527559 269.858268 
Q 185.527559 267.023622 182.692913 267.023622 
L 158.031496 267.023622 
Q 155.19685 267.023622 155.19685 269.858268 
L 155.19685 282.897638 
Q 155.19685 285.732283 158.031496 285.732283 
L 158.031496 285.732283 
z
" clip-path="url(#p74d4caba3e)" style="fill: none; stroke: #000000; stroke-width: 0.1; stroke-linejoin: miter"/>
   </g>
   <g id="patch_21">
    <path d="M 18.708661 256.251969 
L 37.984252 256.251969 
Q 40.818898 256.251969 40.818898 253.417323 
L 40.818898 242.645669 
Q 40.818898 239.811024 37.984252 239.811024 
L 18.708661 239.811024 
Q 15.874016 239.811024 15.874016 242.645669 
L 15.874016 253.417323 
Q 15.874016 256.251969 18.708661 256.251969 
L 18.708661 256.251969 
z
" clip-path="url(#p74d4caba3e)" style="fill: none; stroke: #000000; stroke-width: 0.1; stroke-linejoin: miter"/>
   </g>
   <g id="patch_22">
    <path d="M 47.622047 256.251969 
L 66.897638 256.251969 
Q 69.732283 256.251969 69.732283 253.417323 
L 69.732283 242.645669 
Q 69.732283 239.811024 66.897638 239.811024 
L 47.622047 239.811024 
Q 44.787402 239.811024 44.787402 242.645669 
L 44.787402 253.417323 
Q 44.787402 256.251969 47.622047 256.251969 
L 47.622047 256.251969 
z
" clip-path="url(#p74d4caba3e)" style="fill: none; stroke: #000000; stroke-width: 0.1; stroke-linejoin: miter"/>
   </g>
   <g id="patch_23">
    <path d="M 76.535433 256.251969 
L 95.811024 256.251969 
Q 98.645669 256.251969 98.645669 253.417323 
L 98.645669 242.645669 
Q 98.645669 239.811024 95.811024 239.811024 
L 76.535433 239.811024 
Q 73.700787 239.811024 73.700787 242.645669 
L 73.700787 253.417323 
Q 73.700787 256.251969 76.535433 256.251969 
L 76.535433 256.251969 
z
" clip-path="url(#p74d4caba3e)" style="fill: none; stroke: #000000; stroke-width: 0.1; stroke-linejoin: miter"/>
   </g>
   <g id="patch_24">
    <path d="M 105.448819 256.251969 
L 124.724409 256.251969 
Q 127.559055 256.251969 127.559055 253.417323 
L 127.559055 242.645669 
Q 127.559055 239.811024 124.724409 239.811024 
L 105.448819 239.811024 
Q 102.614173 239.811024 102.614173 242.645669 
L 102.614173 253.417323 
Q 102.614173 256.251969 105.448819 256.251969 
L 105.448819 256.251969 
z
" clip-path="url(#p74d4caba3e)" style="fill: none; stroke: #000000; stroke-width: 0.1; stroke-linejoin: miter"/>
   </g>
   <g id="patch_25">
    <path d="M 134.362205 256.251969 
L 153.637795 256.251969 
Q 156.472441 256.251969 156.472441 253.417323 
L 156.472441 242.645669 
Q 156.472441 239.811024 153.637795 239.811024 
L 134.362205 239.811024 
Q 131.527559 239.811024 131.527559 242.645669 
L 131.527559 253.417323 
Q 131.527559 256.251969 134.362205 256.251969 
L 134.362205 256.251969 
z
" clip-path="url(#p74d4caba3e)" style="fill: none; stroke: #000000; stroke-width: 0.1; stroke-linejoin: miter"/>
   </g>
   <g id="patch_26">
    <path d="M 163.275591 256.251969 
L 182.551181 256.251969 
Q 185.385827 256.251969 185.385827 253.417323 
L 185.385827 242.645669 
Q 185.385827 239.811024 182.551181 239.811024 
L 163.275591 239.811024 
Q 160.440945 239.811024 160.440945 242.645669 
L 160.440945 253.417323 
Q 160.440945 256.251969 163.275591 256.251969 
L 163.275591 256.251969 
z
" clip-path="url(#p74d4caba3e)" style="fill: none; stroke: #000000; stroke-width: 0.1; stroke-linejoin: miter"/>
   </g>
   <g id="patch_27">
    <path d="M 18.708661 230.173228 
L 37.984252 230.173228 
Q 40.818898 230.173228 40.818898 227.338583 
L 40.818898 216.566929 
Q 40.818898 213.732283 37.984252 213.732283 
L 18.708661 213.732283 
Q 15.874016 213.732283 15.874016 216.566929 
L 15.874016 227.338583 
Q 15.874016 230.173228 18.708661 230.173228 
L 18.708661 230.173228 
z
" clip-path="url(#p74d4caba3e)" style="fill: none; stroke: #000000; stroke-width: 0.1; stroke-linejoin: miter"/>
   </g>
   <g id="patch_28">
    <path d="M 47.622047 230.173228 
L 66.897638 230.173228 
Q 69.732283 230.173228 69.732283 227.338583 
L 69.732283 216.566929 
Q 69.732283 213.732283 66.897638 213.732283 
L 47.622047 213.732283 
Q 44.787402 213.732283 44.787402 216.566929 
L 44.787402 227.338583 
Q 44.787402 230.173228 47.622047 230.173228 
L 47.622047 230.173228 
z
" clip-path="url(#p74d4caba3e)" style="fill: none; stroke: #000000; stroke-width: 0.1; stroke-linejoin: miter"/>
   </g>
   <g id="patch_29">
    <path d="M 76.535433 230.173228 
L 95.811024 230.173228 
Q 98.645669 230.173228 98.645669 227.338583 
L 98.645669 216.566929 
Q 98.645669 213.732283 95.811024 213.732283 
L 76.535433 213.732283 
Q 73.700787 213.732283 73.700787 216.566929 
L 73.700787 227.338583 
Q 73.700787 230.173228 76.535433 230.173228 
L 76.535433 230.173228 
z
" clip-path="url(#p74d4caba3e)" style="fill: none; stroke: #000000; stroke-width: 0.1; stroke-linejoin: miter"/>
   </g>
   <g id="patch_30">
    <path d="M 105.448819 230.173228 
L 124.724409 230.173228 
Q 127.559055 230.173228 127.559055 227.338583 
L 127.559055 216.566929 
Q 127.559055 213.732283 124.724409 213.732283 
L 105.448819 213.732283 
Q 102.614173 213.732283 102.614173 216.566929 
L 102.614173 227.338583 
Q 102.614173 230.173228 105.448819 230.173228 
L 105.448819 230.173228 
z
" clip-path="url(#p74d4caba3e)" style="fill: none; stroke: #000000; stroke-width: 0.1; stroke-linejoin: miter"/>
   </g>
   <g id="patch_31">
    <path d="M 134.362205 230.173228 
L 153.637795 230.173228 
Q 156.472441 230.173228 156.472441 227.338583 
L 156.472441 216.566929 
Q 156.472441 213.732283 153.637795 213.732283 
L 134.362205 213.732283 
Q 131.527559 213.732283 131.527559 216.566929 
L 131.527559 227.338583 
Q 131.527559 230.173228 134.362205 230.173228 
L 134.362205 230.173228 
z
" clip-path="url(#p74d4caba3e)" style="fill: none; stroke: #000000; stroke-width: 0.1; stroke-linejoin: miter"/>
   </g>
   <g id="patch_32">
    <path d="M 163.275591 230.173228 
L 182.551181 230.173228 
Q 185.385827 230.173228 185.385827 227.338583 
L 185.385827 216.566929 
Q 185.385827 213.732283 182.551181 213.732283 
L 163.275591 213.732283 
Q 160.440945 213.732283 160.440945 216.566929 
L 160.440945 227.338583 
Q 160.440945 230.173228 163.275591 230.173228 
L 163.275591 230.173228 
z
" clip-path="url(#p74d4caba3e)" style="fill: none; stroke: #000000; stroke-width: 0.1; stroke-linejoin: miter"/>
   </g>
   <g id="patch_33">
    <path d="M 18.708661 204.094488 
L 37.984252 204.094488 
Q 40.818898 204.094488 40.818898 201.259843 
L 40.818898 190.488189 
Q 40.818898 187.653543 37.984252 187.653543 
L 18.708661 187.653543 
Q 15.874016 187.653543 15.874016 190.488189 
L 15.874016 201.259843 
Q 15.874016 204.094488 18.708661 204.094488 
L 18.708661 204.094488 
z
" clip-path="url(#p74d4caba3e)" style="fill: none; stroke: #000000; stroke-width: 0.1; stroke-linejoin: miter"/>
   </g>
   <g id="patch_34">
    <path d="M 47.622047 204.094488 
L 66.897638 204.094488 
Q 69.732283 204.094488 69.732283 201.259843 
L 69.732283 190.488189 
Q 69.732283 187.653543 66.897638 187.653543 
L 47.622047 187.653543 
Q 44.787402 187.653543 44.787402 190.488189 
L 44.787402 201.259843 
Q 44.787402 204.094488 47.622047 204.094488 
L 47.622047 204.094488 
z
" clip-path="url(#p74d4caba3e)" style="fill: none; stroke: #000000; stroke-width: 0.1; stroke-linejoin: miter"/>
   </g>
   <g id="patch_35">
    <path d="M 76.535433 204.094488 
L 95.811024 204.094488 
Q 98.645669 204.094488 98.645669 201.259843 
L 98.645669 190.488189 
Q 98.645669 187.653543 95.811024 187.653543 
L 76.535433 187.653543 
Q 73.700787 187.653543 73.700787 190.488189 
L 73.700787 201.259843 
Q 73.700787 204.094488 76.535433 204.094488 
L 76.535433 204.094488 
z
" clip-path="url(#p74d4caba3e)" style="fill: none; stroke: #000000; stroke-width: 0.1; stroke-linejoin: miter"/>
   </g>
   <g id="patch_36">
    <path d="M 105.448819 204.094488 
L 124.724409 204.094488 
Q 127.559055 204.094488 127.559055 201.259843 
L 127.559055 190.488189 
Q 127.559055 187.653543 124.724409 187.653543 
L 105.448819 187.653543 
Q 102.614173 187.653543 102.614173 190.488189 
L 102.614173 201.259843 
Q 102.614173 204.094488 105.448819 204.094488 
L 105.448819 204.094488 
z
" clip-path="url(#p74d4caba3e)" style="fill: none; stroke: #000000; stroke-width: 0.1; stroke-linejoin: miter"/>
   </g>
   <g id="patch_37">
    <path d="M 134.362205 204.094488 
L 153.637795 204.094488 
Q 156.472441 204.094488 156.472441 201.259843 
L 156.472441 190.488189 
Q 156.472441 187.653543 153.637795 187.653543 
L 134.362205 187.653543 
Q 131.527559 187.653543 131.527559 190.488189 
L 131.527559 201.259843 
Q 131.527559 204.094488 134.362205 204.094488 
L 134.362205 204.094488 
z
" clip-path="url(#p74d4caba3e)" style="fill: none; stroke: #000000; stroke-width: 0.1; stroke-linejoin: miter"/>
   </g>
   <g id="patch_38">
    <path d="M 163.275591 204.094488 
L 182.551181 204.094488 
Q 185.385827 204.094488 185.385827 201.259843 
L 185.385827 190.488189 
Q 185.385827 187.653543 182.551181 187.653543 
L 163.275591 187.653543 
Q 160.440945 187.653543 160.440945 190.488189 
L 160.440945 201.259843 
Q 160.440945 204.094488 163.275591 204.094488 
L 163.275591 204.094488 
z
" clip-path="url(#p74d4caba3e)" style="fill: none; stroke: #000000; stroke-width: 0.1; stroke-linejoin: miter"/>
   </g>
   <g id="patch_39">
    <path d="M 18.708661 178.015748 
L 37.984252 178.015748 
Q 40.818898 178.015748 40.818898 175.181102 
L 40.818898 164.409449 
Q 40.818898 161.574803 37.984252 161.574803 
L 18.708661 161.574803 
Q 15.874016 161.574803 15.874016 164.409449 
L 15.874016 175.181102 
Q 15.874016 178.015748 18.708661 178.015748 
L 18.708661 178.015748 
z
" clip-path="url(#p74d4caba3e)" style="fill: none; stroke: #000000; stroke-width: 0.1; stroke-linejoin: miter"/>
   </g>
   <g id="patch_40">
    <path d="M 47.622047 178.015748 
L 66.897638 178.015748 
Q 69.732283 178.015748 69.732283 175.181102 
L 69.732283 164.409449 
Q 69.732283 161.574803 66.897638 161.574803 
L 47.622047 161.574803 
Q 44.787402 161.574803 44.787402 164.409449 
L 44.787402 175.181102 
Q 44.787402 178.015748 47.622047 178.015748 
L 47.622047 178.015748 
z
" clip-path="url(#p74d4caba3e)" style="fill: none; stroke: #000000; stroke-width: 0.1; stroke-linejoin: miter"/>
   </g>
   <g id="patch_41">
    <path d="M 76.535433 178.015748 
L 95.811024 178.015748 
Q 98.645669 178.015748 98.645669 175.181102 
L 98.645669 164.409449 
Q 98.645669 161.574803 95.811024 161.574803 
L 76.535433 161.574803 
Q 73.700787 161.574803 73.700787 164.409449 
L 73.700787 175.181102 
Q 73.700787 178.015748 76.535433 178.015748 
L 76.535433 178.015748 
z
" clip-path="url(#p74d4caba3e)" style="fill: none; stroke: #000000; stroke-width: 0.1; stroke-linejoin: miter"/>
   </g>
   <g id="patch_42">
    <path d="M 105.448819 178.015748 
L 124.724409 178.015748 
Q 127.559055 178.015748 127.559055 175.181102 
L 127.559055 164.409449 
Q 127.559055 161.574803 124.724409 161.574803 
L 105.448819 161.574803 
Q 102.614173 161.574803 102.614173 164.409449 
L 102.614173 175.181102 
Q 102.614173 178.015748 105.448819 178.015748 
L 105.448819 178.015748 
z
" clip-path="url(#p74d4caba3e)" style="fill: none; stroke: #000000; stroke-width: 0.1; stroke-linejoin: miter"/>
   </g>
   <g id="patch_43">
    <path d="M 134.362205 178.015748 
L 153.637795 178.015748 
Q 156.472441 178.015748 156.472441 175.181102 
L 156.472441 164.409449 
Q 156.472441 161.574803 153.637795 161.574803 
L 134.362205 161.574803 
Q 131.527559 161.574803 131.527559 164.409449 
L 131.527559 175.181102 
Q 131.527559 178.015748 134.362205 178.015748 
L 134.362205 178.015748 
z
" clip-path="url(#p74d4caba3e)" style="fill: none; stroke: #000000; stroke-width: 0.1; stroke-linejoin: miter"/>
   </g>
   <g id="patch_44">
    <path d="M 163.275591 178.015748 
L 182.551181 178.015748 
Q 185.385827 178.015748 185.385827 175.181102 
L 185.385827 164.409449 
Q 185.385827 161.574803 182.551181 161.574803 
L 163.275591 161.574803 
Q 160.440945 161.574803 160.440945 164.409449 
L 160.440945 175.181102 
Q 160.440945 178.015748 163.275591 178.015748 
L 163.275591 178.015748 
z
" clip-path="url(#p74d4caba3e)" style="fill: none; stroke: #000000; stroke-width: 0.1; stroke-linejoin: miter"/>
   </g>
   <g id="patch_45">
    <path d="M 5.669291 394.015748 
L 195.590551 394.015748 
Q 201.259843 394.015748 201.259843 388.346457 
L 201.259843 5.669291 
Q 201.259843 -0 195.590551 -0 
L 5.669291 -0 
Q 0 -0 0 5.669291 
L 0 388.346457 
Q 0 394.015748 5.669291 394.015748 
L 5.669291 394.015748 
z
" clip-path="url(#p74d4caba3e)" style="fill: none; stroke: #000000; stroke-width: 0.1; stroke-linejoin: miter"/>
   </g>
   <g id="patch_46">
    <path d="M 12.755906 150.23622 
L 188.503937 150.23622 
Q 191.338583 150.23622 191.338583 147.401575 
L 191.338583 28.346457 
Q 191.338583 25.511811 188.503937 25.511811 
L 12.755906 25.511811 
Q 9.92126 25.511811 9.92126 28.346457 
L 9.92126 147.401575 
Q 9.92126 150.23622 12.755906 150.23622 
L 12.755906 150.23622 
z
" clip-path="url(#p74d4caba3e)" style="fill: none; stroke: #000000; stroke-width: 0.1; stroke-linejoin: miter"/>
   </g>
   <g id="patch_47">
    <path d="M 11.622047 386.929134 
C 11.622047 386.333546 11.504729 385.74375 11.276808 385.193499 
C 11.048886 384.643248 10.714794 384.143242 10.29365 383.722098 
C 9.872506 383.300954 9.3725 382.966862 8.822249 382.73894 
C 8.271998 382.511019 7.682202 382.393701 7.086614 382.393701 
C 6.491027 382.393701 5.90123 382.511019 5.350979 382.73894 
C 4.800728 382.966862 4.300723 383.300954 3.879579 383.722098 
C 3.458435 384.143242 3.124342 384.643248 2.89642 385.193499 
C 2.668499 385.74375 2.551181 386.333546 2.551181 386.929134 
C 2.551181 387.524721 2.668499 388.114518 2.89642 388.664769 
C 3.124342 389.21502 3.458435 389.715025 3.879579 390.136169 
C 4.300723 390.557313 4.800728 390.891406 5.350979 391.119328 
C 5.90123 391.347249 6.491027 391.464567 7.086614 391.464567 
C 7.682202 391.464567 8.271998 391.347249 8.822249 391.119328 
C 9.3725 390.891406 9.872506 390.557313 10.29365 390.136169 
C 10.714794 389.715025 11.048886 389.21502 11.276808 388.664769 
C 11.504729 388.114518 11.622047 387.524721 11.622047 386.929134 
" clip-path="url(#p74d4caba3e)" style="fill: none; stroke: #000000; stroke-width: 0.1; stroke-linejoin: miter"/>
   </g>
   <g id="patch_48">
    <path d="M 198.708661 386.929134 
C 198.708661 386.333546 198.591344 385.74375 198.363422 385.193499 
C 198.135501 384.643248 197.801408 384.143242 197.380264 383.722098 
C 196.95912 383.300954 196.459115 382.966862 195.908863 382.73894 
C 195.358612 382.511019 194.768816 382.393701 194.173228 382.393701 
C 193.577641 382.393701 192.987844 382.511019 192.437593 382.73894 
C 191.887342 382.966862 191.387337 383.300954 190.966193 383.722098 
C 190.545049 384.143242 190.210956 384.643248 189.983035 385.193499 
C 189.755113 385.74375 189.637795 386.333546 189.637795 386.929134 
C 189.637795 387.524721 189.755113 388.114518 189.983035 388.664769 
C 190.210956 389.21502 190.545049 389.715025 190.966193 390.136169 
C 191.387337 390.557313 191.887342 390.891406 192.437593 391.119328 
C 192.987844 391.347249 193.577641 391.464567 194.173228 391.464567 
C 194.768816 391.464567 195.358612 391.347249 195.908863 391.119328 
C 196.459115 390.891406 196.95912 390.557313 197.380264 390.136169 
C 197.801408 389.715025 198.135501 389.21502 198.363422 388.664769 
C 198.591344 388.114518 198.708661 387.524721 198.708661 386.929134 
" clip-path="url(#p74d4caba3e)" style="fill: none; stroke: #000000; stroke-width: 0.1; stroke-linejoin: miter"/>
   </g>
   <g id="patch_49">
    <path d="M 11.622047 7.086614 
C 11.622047 6.491027 11.504729 5.90123 11.276808 5.350979 
C 11.048886 4.800728 10.714794 4.300723 10.29365 3.879579 
C 9.872506 3.458435 9.3725 3.124342 8.822249 2.89642 
C 8.271998 2.668499 7.682202 2.551181 7.086614 2.551181 
C 6.491027 2.551181 5.90123 2.668499 5.350979 2.89642 
C 4.800728 3.124342 4.300723 3.458435 3.879579 3.879579 
C 3.458435 4.300723 3.124342 4.800728 2.89642 5.350979 
C 2.668499 5.90123 2.551181 6.491027 2.551181 7.086614 
C 2.551181 7.682202 2.668499 8.271998 2.89642 8.822249 
C 3.124342 9.3725 3.458435 9.872506 3.879579 10.29365 
C 4.300723 10.714794 4.800728 11.048886 5.350979 11.276808 
C 5.90123 11.504729 6.491027 11.622047 7.086614 11.622047 
C 7.682202 11.622047 8.271998 11.504729 8.822249 11.276808 
C 9.3725 11.048886 9.872506 10.714794 10.29365 10.29365 
C 10.714794 9.872506 11.048886 9.3725 11.276808 8.822249 
C 11.504729 8.271998 11.622047 7.682202 11.622047 7.086614 
" clip-path="url(#p74d4caba3e)" style="fill: none; stroke: #000000; stroke-width: 0.1; stroke-linejoin: miter"/>
   </g>
   <g id="patch_50">
    <path d="M 198.708661 7.086614 
C 198.708661 6.491027 198.591344 5.90123 198.363422 5.350979 
C 198.135501 4.800728 197.801408 4.300723 197.380264 3.879579 
C 196.95912 3.458435 196.459115 3.124342 195.908863 2.89642 
C 195.358612 2.668499 194.768816 2.551181 194.173228 2.551181 
C 193.577641 2.551181 192.987844 2.668499 192.437593 2.89642 
C 191.887342 3.124342 191.387337 3.458435 190.966193 3.879579 
C 190.545049 4.300723 190.210956 4.800728 189.983035 5.350979 
C 189.755113 5.90123 189.637795 6.491027 189.637795 7.086614 
C 189.637795 7.682202 189.755113 8.271998 189.983035 8.822249 
C 190.210956 9.3725 190.545049 9.872506 190.966193 10.29365 
C 191.387337 10.714794 191.887342 11.048886 192.437593 11.276808 
C 192.987844 11.504729 193.577641 11.622047 194.173228 11.622047 
C 194.768816 11.622047 195.358612 11.504729 195.908863 11.276808 
C 196.459115 11.048886 196.95912 10.714794 197.380264 10.29365 
C 197.801408 9.872506 198.135501 9.3725 198.363422 8.822249 
C 198.591344 8.271998 198.708661 7.682202 198.708661 7.086614 
" clip-path="url(#p74d4caba3e)" style="fill: none; stroke: #000000; stroke-width: 0.1; stroke-linejoin: miter"/>
   </g>
   <g id="patch_51">
    <path d="M 11.622047 197.007874 
C 11.622047 196.412286 11.504729 195.82249 11.276808 195.272239 
C 11.048886 194.721988 10.714794 194.221983 10.29365 193.800839 
C 9.872506 193.379694 9.3725 193.045602 8.822249 192.81768 
C 8.271998 192.589759 7.682202 192.472441 7.086614 192.472441 
C 6.491027 192.472441 5.90123 192.589759 5.350979 192.81768 
C 4.800728 193.045602 4.300723 193.379694 3.879579 193.800839 
C 3.458435 194.221983 3.124342 194.721988 2.89642 195.272239 
C 2.668499 195.82249 2.551181 196.412286 2.551181 197.007874 
C 2.551181 197.603462 2.668499 198.193258 2.89642 198.743509 
C 3.124342 199.29376 3.458435 199.793765 3.879579 200.214909 
C 4.300723 200.636054 4.800728 200.970146 5.350979 201.198068 
C 5.90123 201.425989 6.491027 201.543307 7.086614 201.543307 
C 7.682202 201.543307 8.271998 201.425989 8.822249 201.198068 
C 9.3725 200.970146 9.872506 200.636054 10.29365 200.214909 
C 10.714794 199.793765 11.048886 199.29376 11.276808 198.743509 
C 11.504729 198.193258 11.622047 197.603462 11.622047 197.007874 
" clip-path="url(#p74d4caba3e)" style="fill: none; stroke: #000000; stroke-width: 0.1; stroke-linejoin: miter"/>
   </g>
   <g id="patch_52">
    <path d="M 198.708661 197.007874 
C 198.708661 196.412286 198.591344 195.82249 198.363422 195.272239 
C 198.135501 194.721988 197.801408 194.221983 197.380264 193.800839 
C 196.95912 193.379694 196.459115 193.045602 195.908863 192.81768 
C 195.358612 192.589759 194.768816 192.472441 194.173228 192.472441 
C 193.577641 192.472441 192.987844 192.589759 192.437593 192.81768 
C 191.887342 193.045602 191.387337 193.379694 190.966193 193.800839 
C 190.545049 194.221983 190.210956 194.721988 189.983035 195.272239 
C 189.755113 195.82249 189.637795 196.412286 189.637795 197.007874 
C 189.637795 197.603462 189.755113 198.193258 189.983035 198.743509 
C 190.210956 199.29376 190.545049 199.793765 190.966193 200.214909 
C 191.387337 200.636054 191.887342 200.970146 192.437593 201.198068 
C 192.987844 201.425989 193.577641 201.543307 194.173228 201.543307 
C 194.768816 201.543307 195.358612 201.425989 195.908863 201.198068 
C 196.459115 200.970146 196.95912 200.636054 197.380264 200.214909 
C 197.801408 199.793765 198.135501 199.29376 198.363422 198.743509 
C 198.591344 198.193258 198.708661 197.603462 198.708661 197.007874 
" clip-path="url(#p74d4caba3e)" style="fill: none; stroke: #000000; stroke-width: 0.1; stroke-linejoin: miter"/>
   </g>
  </g>
 </g>
 <defs>
  <clipPath id="p74d4caba3e">
   <rect x="0" y="0" width="201.259843" height="394.015748"/>
  </clipPath>
 </defs>
</svg>
