<?xml version="1.0" encoding="utf-8" standalone="no"?>
<!DOCTYPE svg PUBLIC "-//W3C//DTD SVG 1.1//EN"
  "http://www.w3.org/Graphics/SVG/1.1/DTD/svg11.dtd">
<svg xmlns:xlink="http://www.w3.org/1999/xlink" width="201.259843pt" height="394.015748pt" viewBox="0 0 201.259843 394.015748" xmlns="http://www.w3.org/2000/svg" version="1.1">
 <metadata>
  <rdf:RDF xmlns:dc="http://purl.org/dc/elements/1.1/" xmlns:cc="http://creativecommons.org/ns#" xmlns:rdf="http://www.w3.org/1999/02/22-rdf-syntax-ns#">
   <cc:Work>
    <dc:type rdf:resource="http://purl.org/dc/dcmitype/StillImage"/>
    <dc:date>2024-12-29T21:39:32.633007</dc:date>
    <dc:format>image/svg+xml</dc:format>
    <dc:creator>
     <cc:Agent>
      <dc:title>Matplotlib v3.8.4, https://matplotlib.org/</dc:title>
     </cc:Agent>
    </dc:creator>
   </cc:Work>
  </rdf:RDF>
 </metadata>
 <defs>
  <style type="text/css">*{stroke-linejoin: round; stroke-linecap: butt}</style>
 </defs>
 <g id="figure_1">
  <g id="axes_1">
   <g id="text_1">
    <!-- $\pi$ -->
    <g transform="translate(28.097638 321.396129) scale(0.07 -0.07)">
     <defs>
      <path id="DejaVuSans-BoldOblique-3c0" d="M 622 3500 
L 5038 3500 
L 4881 2700 
L 4269 2700 
L 3963 1131 
Q 3919 900 3919 784 
Q 3919 672 3944 631 
Q 4000 531 4175 531 
Q 4353 531 4456 544 
L 4341 -44 
Q 4134 -122 3469 -122 
Q 3259 -122 3069 -63 
Q 2725 47 2725 388 
Q 2725 516 2766 728 
L 3150 2700 
L 2197 2700 
L 1672 0 
L 553 0 
L 1078 2700 
L 466 2700 
L 622 3500 
z
" transform="scale(0.015625)"/>
     </defs>
     <use xlink:href="#DejaVuSans-BoldOblique-3c0" transform="translate(0 0.3125)"/>
    </g>
   </g>
   <g id="text_2">
    <!-- $N\sigma(x)$ -->
    <g transform="translate(124.366063 321.396129) scale(0.07 -0.07)">
     <defs>
      <path id="DejaVuSans-BoldOblique-4e" d="M 1044 4666 
L 2388 4666 
L 3456 1434 
L 4084 4666 
L 5222 4666 
L 4313 0 
L 2969 0 
L 1900 3231 
L 1275 0 
L 134 0 
L 1044 4666 
z
" transform="scale(0.015625)"/>
      <path id="DejaVuSans-BoldOblique-3c3" d="M 3003 2119 
Q 3003 2784 2409 2784 
Q 2041 2784 1794 2519 
Q 1547 2250 1450 1747 
Q 1409 1544 1409 1378 
Q 1409 709 2006 709 
Q 2375 709 2622 975 
Q 2866 1244 2966 1747 
Q 3003 1953 3003 2119 
z
M 4844 2700 
L 4109 2700 
Q 4178 2478 4178 2234 
Q 4178 1994 4131 1747 
Q 3963 884 3359 396 
Q 2756 -91 1853 -91 
Q 947 -91 531 397 
Q 234 744 234 1281 
Q 234 1500 284 1747 
Q 450 2609 1056 3097 
Q 1556 3500 2553 3500 
L 5000 3500 
L 4844 2700 
z
" transform="scale(0.015625)"/>
      <path id="DejaVuSans-Bold-28" d="M 2413 -844 
L 1484 -844 
Q 1006 -72 778 623 
Q 550 1319 550 2003 
Q 550 2688 779 3389 
Q 1009 4091 1484 4856 
L 2413 4856 
Q 2013 4116 1813 3408 
Q 1613 2700 1613 2009 
Q 1613 1319 1811 609 
Q 2009 -100 2413 -844 
z
" transform="scale(0.015625)"/>
      <path id="DejaVuSans-BoldOblique-78" d="M 1416 1791 
L 488 3500 
L 1650 3500 
L 2169 2463 
L 3078 3500 
L 4294 3500 
L 2700 1797 
L 3675 0 
L 2509 0 
L 1959 1106 
L 953 0 
L -263 0 
L 1416 1791 
z
" transform="scale(0.015625)"/>
      <path id="DejaVuSans-Bold-29" d="M 513 -844 
Q 913 -100 1113 609 
Q 1313 1319 1313 2009 
Q 1313 2700 1113 3408 
Q 913 4116 513 4856 
L 1441 4856 
Q 1916 4091 2145 3389 
Q 2375 2688 2375 2003 
Q 2375 1319 2147 623 
Q 1919 -72 1441 -844 
L 513 -844 
z
" transform="scale(0.015625)"/>
     </defs>
     <use xlink:href="#DejaVuSans-BoldOblique-4e" transform="translate(0 0.125)"/>
     <use xlink:href="#DejaVuSans-BoldOblique-3c3" transform="translate(83.691406 0.125)"/>
     <use xlink:href="#DejaVuSans-Bold-28" transform="translate(161.572266 0.125)"/>
     <use xlink:href="#DejaVuSans-BoldOblique-78" transform="translate(207.275391 0.125)"/>
     <use xlink:href="#DejaVuSans-Bold-29" transform="translate(271.777344 0.125)"/>
    </g>
   </g>
   <g id="text_3">
    <!-- $N\sigma(x-y)$ -->
    <g transform="translate(152.547205 321.354567) scale(0.07 -0.07)">
     <defs>
      <path id="DejaVuSans-Bold-2212" d="M 678 2375 
L 4684 2375 
L 4684 1638 
L 678 1638 
L 678 2375 
z
" transform="scale(0.015625)"/>
      <path id="DejaVuSans-BoldOblique-79" d="M 422 3500 
L 1478 3500 
L 1959 1075 
L 3200 3500 
L 4397 3500 
L 2181 -331 
Q 1809 -978 1493 -1179 
Q 1178 -1381 678 -1381 
L 0 -1381 
L 116 -647 
L 469 -647 
Q 744 -647 895 -555 
Q 1047 -463 1166 -231 
L 1269 -44 
L 422 3500 
z
" transform="scale(0.015625)"/>
     </defs>
     <use xlink:href="#DejaVuSans-BoldOblique-4e" transform="translate(0 0.125)"/>
     <use xlink:href="#DejaVuSans-BoldOblique-3c3" transform="translate(83.691406 0.125)"/>
     <use xlink:href="#DejaVuSans-Bold-28" transform="translate(161.572266 0.125)"/>
     <use xlink:href="#DejaVuSans-BoldOblique-78" transform="translate(207.275391 0.125)"/>
     <use xlink:href="#DejaVuSans-Bold-2212" transform="translate(292.617188 0.125)"/>
     <use xlink:href="#DejaVuSans-BoldOblique-79" transform="translate(397.246094 0.125)"/>
     <use xlink:href="#DejaVuSans-Bold-29" transform="translate(462.431641 0.125)"/>
    </g>
   </g>
   <g id="text_4">
    <!-- Pois$(\!k_{x}|\lambda_{y}\!)$ -->
    <g transform="translate(14.217638 292.46811) scale(0.06 -0.06)">
     <defs>
      <path id="DejaVuSans-Bold-50" d="M 588 4666 
L 2584 4666 
Q 3475 4666 3951 4270 
Q 4428 3875 4428 3144 
Q 4428 2409 3951 2014 
Q 3475 1619 2584 1619 
L 1791 1619 
L 1791 0 
L 588 0 
L 588 4666 
z
M 1791 3794 
L 1791 2491 
L 2456 2491 
Q 2806 2491 2997 2661 
Q 3188 2831 3188 3144 
Q 3188 3456 2997 3625 
Q 2806 3794 2456 3794 
L 1791 3794 
z
" transform="scale(0.015625)"/>
      <path id="DejaVuSans-Bold-6f" d="M 2203 2784 
Q 1831 2784 1636 2517 
Q 1441 2250 1441 1747 
Q 1441 1244 1636 976 
Q 1831 709 2203 709 
Q 2569 709 2762 976 
Q 2956 1244 2956 1747 
Q 2956 2250 2762 2517 
Q 2569 2784 2203 2784 
z
M 2203 3584 
Q 3106 3584 3614 3096 
Q 4122 2609 4122 1747 
Q 4122 884 3614 396 
Q 3106 -91 2203 -91 
Q 1297 -91 786 396 
Q 275 884 275 1747 
Q 275 2609 786 3096 
Q 1297 3584 2203 3584 
z
" transform="scale(0.015625)"/>
      <path id="DejaVuSans-Bold-69" d="M 538 3500 
L 1656 3500 
L 1656 0 
L 538 0 
L 538 3500 
z
M 538 4863 
L 1656 4863 
L 1656 3950 
L 538 3950 
L 538 4863 
z
" transform="scale(0.015625)"/>
      <path id="DejaVuSans-Bold-73" d="M 3272 3391 
L 3272 2541 
Q 2913 2691 2578 2766 
Q 2244 2841 1947 2841 
Q 1628 2841 1473 2761 
Q 1319 2681 1319 2516 
Q 1319 2381 1436 2309 
Q 1553 2238 1856 2203 
L 2053 2175 
Q 2913 2066 3209 1816 
Q 3506 1566 3506 1031 
Q 3506 472 3093 190 
Q 2681 -91 1863 -91 
Q 1516 -91 1145 -36 
Q 775 19 384 128 
L 384 978 
Q 719 816 1070 734 
Q 1422 653 1784 653 
Q 2113 653 2278 743 
Q 2444 834 2444 1013 
Q 2444 1163 2330 1236 
Q 2216 1309 1875 1350 
L 1678 1375 
Q 931 1469 631 1722 
Q 331 1975 331 2491 
Q 331 3047 712 3315 
Q 1094 3584 1881 3584 
Q 2191 3584 2531 3537 
Q 2872 3491 3272 3391 
z
" transform="scale(0.015625)"/>
      <path id="DejaVuSans-BoldOblique-6b" d="M 1141 4863 
L 2266 4863 
L 1753 2228 
L 3263 3500 
L 4581 3500 
L 2547 1881 
L 4025 0 
L 2747 0 
L 1613 1509 
L 1319 0 
L 197 0 
L 1141 4863 
z
" transform="scale(0.015625)"/>
      <path id="DejaVuSans-Bold-7c" d="M 1522 4891 
L 1522 -1509 
L 813 -1509 
L 813 4891 
L 1522 4891 
z
" transform="scale(0.015625)"/>
      <path id="DejaVuSans-BoldOblique-3bb" d="M 1691 3188 
L 1600 3713 
Q 1556 3953 1459 4038 
Q 1359 4128 1066 4128 
L 716 4128 
L 856 4863 
L 1503 4863 
Q 2072 4863 2322 4631 
Q 2594 4381 2697 3813 
L 3388 0 
L 2269 0 
L 1928 1838 
L 838 0 
L -281 0 
L 1691 3188 
z
" transform="scale(0.015625)"/>
     </defs>
     <use xlink:href="#DejaVuSans-Bold-50" transform="translate(0 0.578125)"/>
     <use xlink:href="#DejaVuSans-Bold-6f" transform="translate(73.291016 0.578125)"/>
     <use xlink:href="#DejaVuSans-Bold-69" transform="translate(141.992188 0.578125)"/>
     <use xlink:href="#DejaVuSans-Bold-73" transform="translate(176.269531 0.578125)"/>
     <use xlink:href="#DejaVuSans-Bold-28" transform="translate(235.791016 0.578125)"/>
     <use xlink:href="#DejaVuSans-BoldOblique-6b" transform="translate(264.127257 0.578125)"/>
     <use xlink:href="#DejaVuSans-BoldOblique-78" transform="translate(330.631163 -15.828125) scale(0.7)"/>
     <use xlink:href="#DejaVuSans-Bold-7c" transform="translate(378.516905 0.578125)"/>
     <use xlink:href="#DejaVuSans-BoldOblique-3bb" transform="translate(415.040343 0.578125)"/>
     <use xlink:href="#DejaVuSans-BoldOblique-79" transform="translate(478.321593 -15.828125) scale(0.7)"/>
     <use xlink:href="#DejaVuSans-Bold-29" transform="translate(509.318967 0.578125)"/>
    </g>
   </g>
   <g id="text_5">
    <!-- $p(\chi^2(y)\!\!&gt;\!\!x)$ -->
    <g transform="translate(48.93378 293.18811) scale(0.06 -0.06)">
     <defs>
      <path id="DejaVuSans-BoldOblique-70" d="M 1422 506 
L 1063 -1331 
L -63 -1331 
L 878 3500 
L 2003 3500 
L 1900 2988 
Q 2156 3294 2437 3439 
Q 2719 3584 3053 3584 
Q 3644 3584 3987 3209 
Q 4331 2834 4331 2188 
Q 4331 1784 4211 1403 
Q 4091 1022 3866 709 
Q 3581 316 3223 112 
Q 2866 -91 2456 -91 
Q 2097 -91 1845 54 
Q 1594 200 1422 506 
z
M 2597 2772 
Q 2166 2772 1892 2373 
Q 1619 1975 1619 1338 
Q 1619 1050 1773 886 
Q 1928 722 2203 722 
Q 2625 722 2900 1114 
Q 3175 1506 3175 2119 
Q 3175 2438 3026 2605 
Q 2878 2772 2597 2772 
z
" transform="scale(0.015625)"/>
      <path id="DejaVuSans-BoldOblique-3c7" d="M 2372 2303 
L 3253 3500 
L 4438 3500 
L 2628 1047 
L 2881 -181 
Q 2934 -428 3028 -512 
Q 3122 -597 3291 -597 
L 3641 -597 
L 3500 -1331 
L 2978 -1331 
Q 2409 -1331 2156 -1100 
Q 1906 -866 1784 -281 
L 1756 -141 
L 878 -1331 
L -306 -1331 
L 1497 1116 
L 1244 2350 
Q 1191 2606 1091 2688 
Q 991 2766 841 2766 
L 491 2766 
L 631 3500 
L 1278 3500 
Q 1688 3500 1950 3281 
Q 2216 3059 2341 2450 
L 2372 2303 
z
" transform="scale(0.015625)"/>
      <path id="DejaVuSans-Bold-32" d="M 1844 884 
L 3897 884 
L 3897 0 
L 506 0 
L 506 884 
L 2209 2388 
Q 2438 2594 2547 2791 
Q 2656 2988 2656 3200 
Q 2656 3528 2436 3728 
Q 2216 3928 1850 3928 
Q 1569 3928 1234 3808 
Q 900 3688 519 3450 
L 519 4475 
Q 925 4609 1322 4679 
Q 1719 4750 2100 4750 
Q 2938 4750 3402 4381 
Q 3866 4013 3866 3353 
Q 3866 2972 3669 2642 
Q 3472 2313 2841 1759 
L 1844 884 
z
" transform="scale(0.015625)"/>
      <path id="DejaVuSans-Bold-3e" d="M 678 3041 
L 678 3822 
L 4684 2375 
L 4684 1638 
L 678 191 
L 678 972 
L 3694 2003 
L 678 3041 
z
" transform="scale(0.015625)"/>
     </defs>
     <use xlink:href="#DejaVuSans-BoldOblique-70" transform="translate(0 0.765625)"/>
     <use xlink:href="#DejaVuSans-Bold-28" transform="translate(71.582031 0.765625)"/>
     <use xlink:href="#DejaVuSans-BoldOblique-3c7" transform="translate(117.285156 0.765625)"/>
     <use xlink:href="#DejaVuSans-Bold-32" transform="translate(186.253255 39.046875) scale(0.7)"/>
     <use xlink:href="#DejaVuSans-Bold-28" transform="translate(237.693685 0.765625)"/>
     <use xlink:href="#DejaVuSans-BoldOblique-79" transform="translate(283.39681 0.765625)"/>
     <use xlink:href="#DejaVuSans-Bold-29" transform="translate(348.582357 0.765625)"/>
     <use xlink:href="#DejaVuSans-Bold-3e" transform="translate(380.391558 0.765625)"/>
     <use xlink:href="#DejaVuSans-BoldOblique-78" transform="translate(450.286697 0.765625)"/>
     <use xlink:href="#DejaVuSans-Bold-29" transform="translate(514.78865 0.765625)"/>
    </g>
   </g>
   <g id="text_6">
    <!-- $\eta(\theta)$ -->
    <g transform="translate(22.777638 264.731654) scale(0.07 -0.07)">
     <defs>
      <path id="DejaVuSans-BoldOblique-3b7" d="M 4250 2131 
L 3578 -1331 
L 2453 -1331 
L 2781 347 
L 3028 1631 
Q 3119 2084 3131 2256 
Q 3144 2428 3109 2509 
Q 3066 2619 2966 2681 
Q 2863 2741 2719 2741 
Q 2369 2741 2119 2469 
Q 1866 2200 1772 1722 
L 1438 0 
L 319 0 
L 1000 3500 
L 2119 3500 
L 2019 2988 
Q 2331 3294 2644 3438 
Q 2956 3584 3300 3584 
Q 3906 3584 4147 3213 
Q 4391 2841 4250 2131 
z
" transform="scale(0.015625)"/>
      <path id="DejaVuSans-BoldOblique-3b8" d="M 1381 2081 
Q 1334 1788 1334 1553 
Q 1334 1322 1397 1181 
Q 1594 725 1872 725 
Q 2147 725 2522 1181 
Q 2744 1453 2888 2081 
L 1381 2081 
z
M 3041 2881 
Q 3063 3081 3063 3297 
Q 3063 3509 3006 3688 
Q 2856 4144 2534 4144 
Q 2209 4144 1888 3688 
Q 1672 3384 1541 2881 
L 3041 2881 
z
M 1066 4231 
Q 1638 4913 2684 4913 
Q 3731 4913 4038 4231 
Q 4216 3838 4216 3363 
Q 4216 2884 4122 2403 
Q 3900 1256 3319 594 
Q 2738 -72 1716 -72 
Q 694 -72 372 594 
Q 181 984 181 1459 
Q 181 1934 272 2403 
Q 494 3550 1066 4231 
z
" transform="scale(0.015625)"/>
     </defs>
     <use xlink:href="#DejaVuSans-BoldOblique-3b7" transform="translate(0 0.234375)"/>
     <use xlink:href="#DejaVuSans-Bold-28" transform="translate(71.191406 0.234375)"/>
     <use xlink:href="#DejaVuSans-BoldOblique-3b8" transform="translate(116.894531 0.234375)"/>
     <use xlink:href="#DejaVuSans-Bold-29" transform="translate(185.595703 0.234375)"/>
    </g>
   </g>
   <g id="text_7">
    <!-- $\gamma(\beta)$ -->
    <g transform="translate(57.64378 264.766654) scale(0.07 -0.07)">
     <defs>
      <path id="DejaVuSans-BoldOblique-3b3" d="M 2034 2450 
L 2278 1100 
L 3613 3500 
L 4734 3500 
L 2625 0 
L 2366 -1331 
L 1247 -1331 
L 1506 0 
L 1041 2350 
Q 984 2625 900 2675 
Q 750 2766 638 2766 
L 425 2766 
L 566 3500 
L 1075 3500 
Q 1288 3500 1719 3269 
Q 1903 3169 2034 2450 
z
" transform="scale(0.015625)"/>
      <path id="DejaVuSans-BoldOblique-3b2" d="M 3119 3691 
Q 3119 4128 2691 4128 
Q 2350 4128 2178 3866 
Q 2003 3600 1909 3103 
L 1644 1747 
Q 1606 1544 1606 1344 
Q 1606 1144 1688 988 
Q 1828 722 2188 722 
Q 2588 722 2784 934 
Q 2978 1147 3003 1275 
Q 3022 1372 3022 1459 
Q 3022 1778 2772 1988 
Q 2600 2122 2050 2134 
L 2191 2847 
Q 2716 2925 2813 3038 
Q 3063 3309 3100 3503 
Q 3119 3603 3119 3691 
z
M -72 -1331 
L 778 3044 
Q 947 3922 1466 4369 
Q 1897 4741 2259 4844 
Q 2625 4950 2863 4950 
L 3147 4941 
Q 3766 4841 4050 4438 
Q 4175 4259 4175 4031 
Q 4175 3803 4134 3600 
Q 4078 3313 3831 3025 
Q 3588 2734 3269 2709 
Q 3706 2584 3966 2300 
Q 4222 2019 4222 1588 
Q 4222 850 3613 319 
Q 3141 -91 2441 -91 
Q 1738 -91 1403 506 
L 1047 -1331 
L -72 -1331 
z
" transform="scale(0.015625)"/>
     </defs>
     <use xlink:href="#DejaVuSans-BoldOblique-3b3" transform="translate(0 0.65625)"/>
     <use xlink:href="#DejaVuSans-Bold-28" transform="translate(68.115234 0.65625)"/>
     <use xlink:href="#DejaVuSans-BoldOblique-3b2" transform="translate(113.818359 0.65625)"/>
     <use xlink:href="#DejaVuSans-Bold-29" transform="translate(185.400391 0.65625)"/>
    </g>
   </g>
   <g id="text_8">
    <!-- $p(z\to xy)$ -->
    <g transform="translate(83.934921 264.661654) scale(0.07 -0.07)">
     <defs>
      <path id="DejaVuSans-BoldOblique-7a" d="M 697 3500 
L 3750 3500 
L 3597 2719 
L 1416 800 
L 3225 800 
L 3072 0 
L -56 0 
L 91 781 
L 2278 2700 
L 544 2700 
L 697 3500 
z
" transform="scale(0.015625)"/>
      <path id="DejaVuSans-Bold-2192" d="M 5050 2225 
L 5050 1788 
L 3822 559 
L 3369 1013 
L 3988 1631 
L 366 1631 
L 366 2381 
L 3988 2381 
L 3369 3000 
L 3822 3453 
L 5050 2225 
z
" transform="scale(0.015625)"/>
     </defs>
     <use xlink:href="#DejaVuSans-BoldOblique-70" transform="translate(0 0.125)"/>
     <use xlink:href="#DejaVuSans-Bold-28" transform="translate(71.582031 0.125)"/>
     <use xlink:href="#DejaVuSans-BoldOblique-7a" transform="translate(117.285156 0.125)"/>
     <use xlink:href="#DejaVuSans-Bold-2192" transform="translate(196.328125 0.125)"/>
     <use xlink:href="#DejaVuSans-BoldOblique-78" transform="translate(300.957031 0.125)"/>
     <use xlink:href="#DejaVuSans-BoldOblique-79" transform="translate(365.458984 0.125)"/>
     <use xlink:href="#DejaVuSans-Bold-29" transform="translate(430.644531 0.125)"/>
    </g>
   </g>
   <g id="text_9">
    <!-- CST -->
    <g transform="translate(163.897205 264.427279) scale(0.06 -0.06)">
     <defs>
      <path id="DejaVuSans-Bold-43" d="M 4288 256 
Q 3956 84 3597 -3 
Q 3238 -91 2847 -91 
Q 1681 -91 1000 561 
Q 319 1213 319 2328 
Q 319 3447 1000 4098 
Q 1681 4750 2847 4750 
Q 3238 4750 3597 4662 
Q 3956 4575 4288 4403 
L 4288 3438 
Q 3953 3666 3628 3772 
Q 3303 3878 2944 3878 
Q 2300 3878 1931 3465 
Q 1563 3053 1563 2328 
Q 1563 1606 1931 1193 
Q 2300 781 2944 781 
Q 3303 781 3628 887 
Q 3953 994 4288 1222 
L 4288 256 
z
" transform="scale(0.015625)"/>
      <path id="DejaVuSans-Bold-53" d="M 3834 4519 
L 3834 3531 
Q 3450 3703 3084 3790 
Q 2719 3878 2394 3878 
Q 1963 3878 1756 3759 
Q 1550 3641 1550 3391 
Q 1550 3203 1689 3098 
Q 1828 2994 2194 2919 
L 2706 2816 
Q 3484 2659 3812 2340 
Q 4141 2022 4141 1434 
Q 4141 663 3683 286 
Q 3225 -91 2284 -91 
Q 1841 -91 1394 -6 
Q 947 78 500 244 
L 500 1259 
Q 947 1022 1364 901 
Q 1781 781 2169 781 
Q 2563 781 2772 912 
Q 2981 1044 2981 1288 
Q 2981 1506 2839 1625 
Q 2697 1744 2272 1838 
L 1806 1941 
Q 1106 2091 782 2419 
Q 459 2747 459 3303 
Q 459 4000 909 4375 
Q 1359 4750 2203 4750 
Q 2588 4750 2994 4692 
Q 3400 4634 3834 4519 
z
" transform="scale(0.015625)"/>
      <path id="DejaVuSans-Bold-54" d="M 31 4666 
L 4331 4666 
L 4331 3756 
L 2784 3756 
L 2784 0 
L 1581 0 
L 1581 3756 
L 31 3756 
L 31 4666 
z
" transform="scale(0.015625)"/>
     </defs>
     <use xlink:href="#DejaVuSans-Bold-43"/>
     <use xlink:href="#DejaVuSans-Bold-53" x="75.263672"/>
     <use xlink:href="#DejaVuSans-Bold-54" x="147.285156"/>
    </g>
   </g>
   <g id="text_10">
    <!-- $x^{2}$ -->
    <g transform="translate(24.716457 237.21468) scale(0.06 -0.06)">
     <use xlink:href="#DejaVuSans-BoldOblique-78" transform="translate(0 0.765625)"/>
     <use xlink:href="#DejaVuSans-Bold-32" transform="translate(68.968099 39.046875) scale(0.7)"/>
    </g>
   </g>
   <g id="text_11">
    <!-- erf${}^{-1}$ -->
    <g transform="translate(78.013228 237.21468) scale(0.06 -0.06)">
     <defs>
      <path id="DejaVuSans-Bold-65" d="M 4031 1759 
L 4031 1441 
L 1416 1441 
Q 1456 1047 1700 850 
Q 1944 653 2381 653 
Q 2734 653 3104 758 
Q 3475 863 3866 1075 
L 3866 213 
Q 3469 63 3072 -14 
Q 2675 -91 2278 -91 
Q 1328 -91 801 392 
Q 275 875 275 1747 
Q 275 2603 792 3093 
Q 1309 3584 2216 3584 
Q 3041 3584 3536 3087 
Q 4031 2591 4031 1759 
z
M 2881 2131 
Q 2881 2450 2695 2645 
Q 2509 2841 2209 2841 
Q 1884 2841 1681 2658 
Q 1478 2475 1428 2131 
L 2881 2131 
z
" transform="scale(0.015625)"/>
      <path id="DejaVuSans-Bold-72" d="M 3138 2547 
Q 2991 2616 2845 2648 
Q 2700 2681 2553 2681 
Q 2122 2681 1889 2404 
Q 1656 2128 1656 1613 
L 1656 0 
L 538 0 
L 538 3500 
L 1656 3500 
L 1656 2925 
Q 1872 3269 2151 3426 
Q 2431 3584 2822 3584 
Q 2878 3584 2943 3579 
Q 3009 3575 3134 3559 
L 3138 2547 
z
" transform="scale(0.015625)"/>
      <path id="DejaVuSans-Bold-66" d="M 2841 4863 
L 2841 4128 
L 2222 4128 
Q 1984 4128 1890 4042 
Q 1797 3956 1797 3744 
L 1797 3500 
L 2753 3500 
L 2753 2700 
L 1797 2700 
L 1797 0 
L 678 0 
L 678 2700 
L 122 2700 
L 122 3500 
L 678 3500 
L 678 3744 
Q 678 4316 997 4589 
Q 1316 4863 1984 4863 
L 2841 4863 
z
" transform="scale(0.015625)"/>
      <path id="DejaVuSans-Bold-31" d="M 750 831 
L 1813 831 
L 1813 3847 
L 722 3622 
L 722 4441 
L 1806 4666 
L 2950 4666 
L 2950 831 
L 4013 831 
L 4013 0 
L 750 0 
L 750 831 
z
" transform="scale(0.015625)"/>
     </defs>
     <use xlink:href="#DejaVuSans-Bold-65" transform="translate(0 0.684375)"/>
     <use xlink:href="#DejaVuSans-Bold-72" transform="translate(67.822266 0.684375)"/>
     <use xlink:href="#DejaVuSans-Bold-66" transform="translate(117.138672 0.684375)"/>
     <use xlink:href="#DejaVuSans-Bold-2212" transform="translate(161.601562 38.965625) scale(0.7)"/>
     <use xlink:href="#DejaVuSans-Bold-31" transform="translate(220.253906 38.965625) scale(0.7)"/>
    </g>
   </g>
   <g id="text_12">
    <!-- P$\rightarrow$R -->
    <g transform="translate(106.806614 237.21468) scale(0.06 -0.06)">
     <defs>
      <path id="DejaVuSans-Bold-52" d="M 2297 2597 
Q 2675 2597 2839 2737 
Q 3003 2878 3003 3200 
Q 3003 3519 2839 3656 
Q 2675 3794 2297 3794 
L 1791 3794 
L 1791 2597 
L 2297 2597 
z
M 1791 1766 
L 1791 0 
L 588 0 
L 588 4666 
L 2425 4666 
Q 3347 4666 3776 4356 
Q 4206 4047 4206 3378 
Q 4206 2916 3982 2619 
Q 3759 2322 3309 2181 
Q 3556 2125 3751 1926 
Q 3947 1728 4147 1325 
L 4800 0 
L 3519 0 
L 2950 1159 
Q 2778 1509 2601 1637 
Q 2425 1766 2131 1766 
L 1791 1766 
z
" transform="scale(0.015625)"/>
     </defs>
     <use xlink:href="#DejaVuSans-Bold-50" transform="translate(0 0.09375)"/>
     <use xlink:href="#DejaVuSans-Bold-2192" transform="translate(94.130859 0.09375)"/>
     <use xlink:href="#DejaVuSans-Bold-52" transform="translate(198.759766 0.09375)"/>
    </g>
   </g>
   <g id="text_13">
    <!-- $\ln\Gamma(x)$ -->
    <g transform="translate(133.71 237.21468) scale(0.06 -0.06)">
     <defs>
      <path id="DejaVuSans-Bold-6c" d="M 538 4863 
L 1656 4863 
L 1656 0 
L 538 0 
L 538 4863 
z
" transform="scale(0.015625)"/>
      <path id="DejaVuSans-Bold-6e" d="M 4056 2131 
L 4056 0 
L 2931 0 
L 2931 347 
L 2931 1631 
Q 2931 2084 2911 2256 
Q 2891 2428 2841 2509 
Q 2775 2619 2662 2680 
Q 2550 2741 2406 2741 
Q 2056 2741 1856 2470 
Q 1656 2200 1656 1722 
L 1656 0 
L 538 0 
L 538 3500 
L 1656 3500 
L 1656 2988 
Q 1909 3294 2193 3439 
Q 2478 3584 2822 3584 
Q 3428 3584 3742 3212 
Q 4056 2841 4056 2131 
z
" transform="scale(0.015625)"/>
      <path id="DejaVuSans-Bold-393" d="M 588 0 
L 588 4666 
L 3903 4666 
L 3903 3756 
L 1791 3756 
L 1791 0 
L 588 0 
z
" transform="scale(0.015625)"/>
     </defs>
     <use xlink:href="#DejaVuSans-Bold-6c" transform="translate(0 0.015625)"/>
     <use xlink:href="#DejaVuSans-Bold-6e" transform="translate(34.277344 0.015625)"/>
     <use xlink:href="#DejaVuSans-Bold-393" transform="translate(122.835634 0.015625)"/>
     <use xlink:href="#DejaVuSans-Bold-28" transform="translate(186.556337 0.015625)"/>
     <use xlink:href="#DejaVuSans-BoldOblique-78" transform="translate(232.259462 0.015625)"/>
     <use xlink:href="#DejaVuSans-Bold-29" transform="translate(296.761415 0.015625)"/>
    </g>
   </g>
   <g id="text_14">
    <!-- $P_{y}^{x}$ -->
    <g transform="translate(169.043386 236.579055) scale(0.06 -0.06)">
     <defs>
      <path id="DejaVuSans-BoldOblique-50" d="M 1044 4666 
L 3041 4666 
Q 3775 4666 4189 4330 
Q 4603 3994 4603 3397 
Q 4603 3031 4465 2701 
Q 4328 2372 4072 2125 
Q 3794 1859 3409 1739 
Q 3025 1619 2444 1619 
L 1650 1619 
L 1338 0 
L 134 0 
L 1044 4666 
z
M 2081 3794 
L 1825 2491 
L 2491 2491 
Q 2916 2491 3141 2691 
Q 3366 2891 3366 3272 
Q 3366 3525 3205 3659 
Q 3044 3794 2741 3794 
L 2081 3794 
z
" transform="scale(0.015625)"/>
     </defs>
     <use xlink:href="#DejaVuSans-BoldOblique-50" transform="translate(0 0.4375)"/>
     <use xlink:href="#DejaVuSans-BoldOblique-78" transform="translate(80.307786 38.71875) scale(0.7)"/>
     <use xlink:href="#DejaVuSans-BoldOblique-79" transform="translate(73.291016 -26.90625) scale(0.7)"/>
    </g>
   </g>
   <g id="text_15">
    <!-- $\sqrt[x]{y}$ -->
    <g transform="translate(23.756457 211.580315) scale(0.06 -0.06)">
     <defs>
      <path id="STIXSizeOneSym-Bold-221a" d="M 7162 10163 
L 3565 -1542 
L 3072 -1542 
L 1594 3130 
Q 1517 3386 1459 3466 
Q 1402 3546 1318 3546 
Q 1171 3546 845 3283 
L 698 3526 
L 1786 4365 
L 2131 4365 
L 3456 147 
L 3482 147 
L 6554 10163 
L 7162 10163 
z
" transform="scale(0.015625)"/>
     </defs>
     <use xlink:href="#DejaVuSans-BoldOblique-78" transform="translate(0 51.625) scale(0.49)"/>
     <use xlink:href="#STIXSizeOneSym-Bold-221a" transform="translate(0.422516 -7.34375) scale(0.587868)"/>
     <use xlink:href="#DejaVuSans-BoldOblique-79" transform="translate(75.289398 0.0625)"/>
     <path d="M 62.789398 79.5 
L 62.789398 85.75 
L 152.974945 85.75 
L 152.974945 79.5 
L 62.789398 79.5 
z
"/>
    </g>
   </g>
   <g id="text_16">
    <!-- $e^{x}$ -->
    <g transform="translate(53.629843 211.13594) scale(0.06 -0.06)">
     <defs>
      <path id="DejaVuSans-BoldOblique-65" d="M 4025 1619 
L 3988 1441 
L 1369 1441 
Q 1369 1422 1366 1386 
Q 1363 1350 1363 1331 
Q 1363 991 1567 822 
Q 1772 653 2181 653 
Q 2534 653 2926 759 
Q 3319 866 3750 1075 
L 3578 206 
Q 3169 56 2764 -17 
Q 2359 -91 1941 -91 
Q 1122 -91 676 287 
Q 231 666 231 1356 
Q 231 1756 373 2132 
Q 516 2509 788 2822 
Q 1109 3197 1557 3390 
Q 2006 3584 2553 3584 
Q 3263 3584 3680 3206 
Q 4097 2828 4097 2188 
Q 4097 2063 4080 1923 
Q 4063 1784 4025 1619 
z
M 2969 2131 
Q 2978 2172 2983 2214 
Q 2988 2256 2988 2297 
Q 2988 2547 2838 2694 
Q 2688 2841 2431 2841 
Q 2103 2841 1873 2661 
Q 1644 2481 1522 2131 
L 2969 2131 
z
" transform="scale(0.015625)"/>
     </defs>
     <use xlink:href="#DejaVuSans-BoldOblique-65" transform="translate(0 0.4375)"/>
     <use xlink:href="#DejaVuSans-BoldOblique-78" transform="translate(72.472161 38.71875) scale(0.7)"/>
    </g>
   </g>
   <g id="text_17">
    <!-- $10^{x}$ -->
    <g transform="translate(80.503228 211.13594) scale(0.06 -0.06)">
     <defs>
      <path id="DejaVuSans-Bold-30" d="M 2944 2338 
Q 2944 3213 2780 3570 
Q 2616 3928 2228 3928 
Q 1841 3928 1675 3570 
Q 1509 3213 1509 2338 
Q 1509 1453 1675 1090 
Q 1841 728 2228 728 
Q 2613 728 2778 1090 
Q 2944 1453 2944 2338 
z
M 4147 2328 
Q 4147 1169 3647 539 
Q 3147 -91 2228 -91 
Q 1306 -91 806 539 
Q 306 1169 306 2328 
Q 306 3491 806 4120 
Q 1306 4750 2228 4750 
Q 3147 4750 3647 4120 
Q 4147 3491 4147 2328 
z
" transform="scale(0.015625)"/>
     </defs>
     <use xlink:href="#DejaVuSans-Bold-31" transform="translate(0 0.4375)"/>
     <use xlink:href="#DejaVuSans-Bold-30" transform="translate(69.580078 0.4375)"/>
     <use xlink:href="#DejaVuSans-BoldOblique-78" transform="translate(140.117188 38.71875) scale(0.7)"/>
    </g>
   </g>
   <g id="text_18">
    <!-- $\sin^{-1}$ -->
    <g transform="translate(106.266614 211.13594) scale(0.06 -0.06)">
     <use xlink:href="#DejaVuSans-Bold-73" transform="translate(0 0.684375)"/>
     <use xlink:href="#DejaVuSans-Bold-69" transform="translate(59.521484 0.684375)"/>
     <use xlink:href="#DejaVuSans-Bold-6e" transform="translate(93.798828 0.684375)"/>
     <use xlink:href="#DejaVuSans-Bold-2212" transform="translate(165.947266 38.965625) scale(0.7)"/>
     <use xlink:href="#DejaVuSans-Bold-31" transform="translate(224.599609 38.965625) scale(0.7)"/>
    </g>
   </g>
   <g id="text_19">
    <!-- $\cos^{-1}$ -->
    <g transform="translate(134.52 211.13594) scale(0.06 -0.06)">
     <defs>
      <path id="DejaVuSans-Bold-63" d="M 3366 3391 
L 3366 2478 
Q 3138 2634 2908 2709 
Q 2678 2784 2431 2784 
Q 1963 2784 1702 2511 
Q 1441 2238 1441 1747 
Q 1441 1256 1702 982 
Q 1963 709 2431 709 
Q 2694 709 2930 787 
Q 3166 866 3366 1019 
L 3366 103 
Q 3103 6 2833 -42 
Q 2563 -91 2291 -91 
Q 1344 -91 809 395 
Q 275 881 275 1747 
Q 275 2613 809 3098 
Q 1344 3584 2291 3584 
Q 2566 3584 2833 3536 
Q 3100 3488 3366 3391 
z
" transform="scale(0.015625)"/>
     </defs>
     <use xlink:href="#DejaVuSans-Bold-63" transform="translate(0 0.684375)"/>
     <use xlink:href="#DejaVuSans-Bold-6f" transform="translate(59.277344 0.684375)"/>
     <use xlink:href="#DejaVuSans-Bold-73" transform="translate(127.978516 0.684375)"/>
     <use xlink:href="#DejaVuSans-Bold-2212" transform="translate(188.457031 38.965625) scale(0.7)"/>
     <use xlink:href="#DejaVuSans-Bold-31" transform="translate(247.109375 38.965625) scale(0.7)"/>
    </g>
   </g>
   <g id="text_20">
    <!-- $\tan^{-1}$ -->
    <g transform="translate(163.463386 211.13594) scale(0.06 -0.06)">
     <defs>
      <path id="DejaVuSans-Bold-74" d="M 1759 4494 
L 1759 3500 
L 2913 3500 
L 2913 2700 
L 1759 2700 
L 1759 1216 
Q 1759 972 1856 886 
Q 1953 800 2241 800 
L 2816 800 
L 2816 0 
L 1856 0 
Q 1194 0 917 276 
Q 641 553 641 1216 
L 641 2700 
L 84 2700 
L 84 3500 
L 641 3500 
L 641 4494 
L 1759 4494 
z
" transform="scale(0.015625)"/>
      <path id="DejaVuSans-Bold-61" d="M 2106 1575 
Q 1756 1575 1579 1456 
Q 1403 1338 1403 1106 
Q 1403 894 1545 773 
Q 1688 653 1941 653 
Q 2256 653 2472 879 
Q 2688 1106 2688 1447 
L 2688 1575 
L 2106 1575 
z
M 3816 1997 
L 3816 0 
L 2688 0 
L 2688 519 
Q 2463 200 2181 54 
Q 1900 -91 1497 -91 
Q 953 -91 614 226 
Q 275 544 275 1050 
Q 275 1666 698 1953 
Q 1122 2241 2028 2241 
L 2688 2241 
L 2688 2328 
Q 2688 2594 2478 2717 
Q 2269 2841 1825 2841 
Q 1466 2841 1156 2769 
Q 847 2697 581 2553 
L 581 3406 
Q 941 3494 1303 3539 
Q 1666 3584 2028 3584 
Q 2975 3584 3395 3211 
Q 3816 2838 3816 1997 
z
" transform="scale(0.015625)"/>
     </defs>
     <use xlink:href="#DejaVuSans-Bold-74" transform="translate(0 0.684375)"/>
     <use xlink:href="#DejaVuSans-Bold-61" transform="translate(47.802734 0.684375)"/>
     <use xlink:href="#DejaVuSans-Bold-6e" transform="translate(115.283203 0.684375)"/>
     <use xlink:href="#DejaVuSans-Bold-2212" transform="translate(187.431641 38.965625) scale(0.7)"/>
     <use xlink:href="#DejaVuSans-Bold-31" transform="translate(246.083984 38.965625) scale(0.7)"/>
    </g>
   </g>
   <g id="text_21">
    <!-- Rot$\uparrow$ -->
    <g transform="translate(18.776457 185.0572) scale(0.06 -0.06)">
     <defs>
      <path id="DejaVuSans-Bold-2191" d="M 2466 4688 
L 2903 4688 
L 4131 3459 
L 3678 3006 
L 3059 3625 
L 3059 0 
L 2309 0 
L 2309 3625 
L 1691 3006 
L 1238 3459 
L 2466 4688 
z
" transform="scale(0.015625)"/>
     </defs>
     <use xlink:href="#DejaVuSans-Bold-52" transform="translate(0 0.75)"/>
     <use xlink:href="#DejaVuSans-Bold-6f" transform="translate(77.001953 0.75)"/>
     <use xlink:href="#DejaVuSans-Bold-74" transform="translate(145.703125 0.75)"/>
     <use xlink:href="#DejaVuSans-Bold-2191" transform="translate(214.345703 0.75)"/>
    </g>
   </g>
   <g id="text_22">
    <!-- LAST$x$ -->
    <g transform="translate(46.879843 185.0572) scale(0.06 -0.06)">
     <defs>
      <path id="DejaVuSans-Bold-4c" d="M 588 4666 
L 1791 4666 
L 1791 909 
L 3903 909 
L 3903 0 
L 588 0 
L 588 4666 
z
" transform="scale(0.015625)"/>
      <path id="DejaVuSans-Bold-41" d="M 3419 850 
L 1538 850 
L 1241 0 
L 31 0 
L 1759 4666 
L 3194 4666 
L 4922 0 
L 3713 0 
L 3419 850 
z
M 1838 1716 
L 3116 1716 
L 2478 3572 
L 1838 1716 
z
" transform="scale(0.015625)"/>
     </defs>
     <use xlink:href="#DejaVuSans-Bold-4c" transform="translate(0 0.78125)"/>
     <use xlink:href="#DejaVuSans-Bold-41" transform="translate(63.720703 0.78125)"/>
     <use xlink:href="#DejaVuSans-Bold-53" transform="translate(141.113281 0.78125)"/>
     <use xlink:href="#DejaVuSans-Bold-54" transform="translate(213.134766 0.78125)"/>
     <use xlink:href="#DejaVuSans-BoldOblique-78" transform="translate(281.347656 0.78125)"/>
    </g>
   </g>
   <g id="text_23">
    <!-- D$\leftrightarrow$R -->
    <g transform="translate(77.593228 185.0572) scale(0.06 -0.06)">
     <defs>
      <path id="DejaVuSans-Bold-44" d="M 1791 3756 
L 1791 909 
L 2222 909 
Q 2959 909 3348 1275 
Q 3738 1641 3738 2338 
Q 3738 3031 3350 3393 
Q 2963 3756 2222 3756 
L 1791 3756 
z
M 588 4666 
L 1856 4666 
Q 2919 4666 3439 4514 
Q 3959 4363 4331 4000 
Q 4659 3684 4818 3271 
Q 4978 2859 4978 2338 
Q 4978 1809 4818 1395 
Q 4659 981 4331 666 
Q 3956 303 3431 151 
Q 2906 0 1856 0 
L 588 0 
L 588 4666 
z
" transform="scale(0.015625)"/>
      <path id="DejaVuSans-Bold-2194" d="M 313 1788 
L 313 2225 
L 1541 3453 
L 1994 3000 
L 1375 2381 
L 3988 2381 
L 3369 3000 
L 3822 3453 
L 5050 2225 
L 5050 1788 
L 3822 559 
L 3369 1013 
L 3988 1631 
L 1375 1631 
L 1994 1013 
L 1541 559 
L 313 1788 
z
" transform="scale(0.015625)"/>
     </defs>
     <use xlink:href="#DejaVuSans-Bold-44" transform="translate(0 0.09375)"/>
     <use xlink:href="#DejaVuSans-Bold-2194" transform="translate(103.847656 0.09375)"/>
     <use xlink:href="#DejaVuSans-Bold-52" transform="translate(208.476562 0.09375)"/>
    </g>
   </g>
   <g id="text_24">
    <!-- M$-$ -->
    <g transform="translate(109.566614 185.0572) scale(0.06 -0.06)">
     <defs>
      <path id="DejaVuSans-Bold-4d" d="M 588 4666 
L 2119 4666 
L 3181 2169 
L 4250 4666 
L 5778 4666 
L 5778 0 
L 4641 0 
L 4641 3413 
L 3566 897 
L 2803 897 
L 1728 3413 
L 1728 0 
L 588 0 
L 588 4666 
z
" transform="scale(0.015625)"/>
     </defs>
     <use xlink:href="#DejaVuSans-Bold-4d" transform="translate(0 0.09375)"/>
     <use xlink:href="#DejaVuSans-Bold-2212" transform="translate(99.511719 0.09375)"/>
    </g>
   </g>
   <g id="text_25">
    <!-- Off -->
    <g transform="translate(167.752917 158.97846) scale(0.06 -0.06)">
     <defs>
      <path id="DejaVuSans-Bold-4f" d="M 2719 3878 
Q 2169 3878 1866 3472 
Q 1563 3066 1563 2328 
Q 1563 1594 1866 1187 
Q 2169 781 2719 781 
Q 3272 781 3575 1187 
Q 3878 1594 3878 2328 
Q 3878 3066 3575 3472 
Q 3272 3878 2719 3878 
z
M 2719 4750 
Q 3844 4750 4481 4106 
Q 5119 3463 5119 2328 
Q 5119 1197 4481 553 
Q 3844 -91 2719 -91 
Q 1597 -91 958 553 
Q 319 1197 319 2328 
Q 319 3463 958 4106 
Q 1597 4750 2719 4750 
z
" transform="scale(0.015625)"/>
     </defs>
     <use xlink:href="#DejaVuSans-Bold-4f"/>
     <use xlink:href="#DejaVuSans-Bold-66" x="85.009766"/>
     <use xlink:href="#DejaVuSans-Bold-66" x="128.515625"/>
    </g>
   </g>
  </g>
 </g>
</svg>
