<?xml version="1.0" encoding="utf-8" standalone="no"?>
<!DOCTYPE svg PUBLIC "-//W3C//DTD SVG 1.1//EN"
  "http://www.w3.org/Graphics/SVG/1.1/DTD/svg11.dtd">
<svg xmlns:xlink="http://www.w3.org/1999/xlink" width="255.11811pt" height="317.480315pt" viewBox="0 0 255.11811 317.480315" xmlns="http://www.w3.org/2000/svg" version="1.1">
 <metadata>
  <rdf:RDF xmlns:dc="http://purl.org/dc/elements/1.1/" xmlns:cc="http://creativecommons.org/ns#" xmlns:rdf="http://www.w3.org/1999/02/22-rdf-syntax-ns#">
   <cc:Work>
    <dc:type rdf:resource="http://purl.org/dc/dcmitype/StillImage"/>
    <dc:date>2024-12-29T21:39:33.025038</dc:date>
    <dc:format>image/svg+xml</dc:format>
    <dc:creator>
     <cc:Agent>
      <dc:title>Matplotlib v3.8.4, https://matplotlib.org/</dc:title>
     </cc:Agent>
    </dc:creator>
   </cc:Work>
  </rdf:RDF>
 </metadata>
 <defs>
  <style type="text/css">*{stroke-linejoin: round; stroke-linecap: butt}</style>
 </defs>
 <g id="figure_1">
  <g id="axes_1">
   <g id="patch_1">
    <path d="M 39.826772 281.055118 
L 58.818898 281.055118 
Q 61.653543 281.055118 61.653543 278.220472 
L 61.653543 270.850394 
Q 61.653543 268.015748 58.818898 268.015748 
L 39.826772 268.015748 
Q 36.992126 268.015748 36.992126 270.850394 
L 36.992126 278.220472 
Q 36.992126 281.055118 39.826772 281.055118 
z
" clip-path="url(#pe9a3b69f0e)" style="stroke: #000000; stroke-width: 0.5; stroke-linejoin: miter"/>
   </g>
   <g id="patch_2">
    <path d="M 78.944882 281.055118 
L 97.937008 281.055118 
Q 100.771654 281.055118 100.771654 278.220472 
L 100.771654 270.850394 
Q 100.771654 268.015748 97.937008 268.015748 
L 78.944882 268.015748 
Q 76.110236 268.015748 76.110236 270.850394 
L 76.110236 278.220472 
Q 76.110236 281.055118 78.944882 281.055118 
z
" clip-path="url(#pe9a3b69f0e)" style="stroke: #000000; stroke-width: 0.5; stroke-linejoin: miter"/>
   </g>
   <g id="patch_3">
    <path d="M 118.062992 281.055118 
L 137.055118 281.055118 
Q 139.889764 281.055118 139.889764 278.220472 
L 139.889764 270.850394 
Q 139.889764 268.015748 137.055118 268.015748 
L 118.062992 268.015748 
Q 115.228346 268.015748 115.228346 270.850394 
L 115.228346 278.220472 
Q 115.228346 281.055118 118.062992 281.055118 
z
" clip-path="url(#pe9a3b69f0e)" style="stroke: #000000; stroke-width: 0.5; stroke-linejoin: miter"/>
   </g>
   <g id="patch_4">
    <path d="M 157.181102 281.055118 
L 176.173228 281.055118 
Q 179.007874 281.055118 179.007874 278.220472 
L 179.007874 270.850394 
Q 179.007874 268.015748 176.173228 268.015748 
L 157.181102 268.015748 
Q 154.346457 268.015748 154.346457 270.850394 
L 154.346457 278.220472 
Q 154.346457 281.055118 157.181102 281.055118 
z
" clip-path="url(#pe9a3b69f0e)" style="stroke: #000000; stroke-width: 0.5; stroke-linejoin: miter"/>
   </g>
   <g id="patch_5">
    <path d="M 196.299213 281.055118 
L 215.291339 281.055118 
Q 218.125984 281.055118 218.125984 278.220472 
L 218.125984 270.850394 
Q 218.125984 268.015748 215.291339 268.015748 
L 196.299213 268.015748 
Q 193.464567 268.015748 193.464567 270.850394 
L 193.464567 278.220472 
Q 193.464567 281.055118 196.299213 281.055118 
z
" clip-path="url(#pe9a3b69f0e)" style="stroke: #000000; stroke-width: 0.5; stroke-linejoin: miter"/>
   </g>
   <g id="patch_6">
    <path d="M 39.826772 248.456693 
L 58.818898 248.456693 
Q 61.653543 248.456693 61.653543 245.622047 
L 61.653543 238.251969 
Q 61.653543 235.417323 58.818898 235.417323 
L 39.826772 235.417323 
Q 36.992126 235.417323 36.992126 238.251969 
L 36.992126 245.622047 
Q 36.992126 248.456693 39.826772 248.456693 
z
" clip-path="url(#pe9a3b69f0e)" style="stroke: #000000; stroke-width: 0.5; stroke-linejoin: miter"/>
   </g>
   <g id="patch_7">
    <path d="M 78.944882 248.456693 
L 97.937008 248.456693 
Q 100.771654 248.456693 100.771654 245.622047 
L 100.771654 238.251969 
Q 100.771654 235.417323 97.937008 235.417323 
L 78.944882 235.417323 
Q 76.110236 235.417323 76.110236 238.251969 
L 76.110236 245.622047 
Q 76.110236 248.456693 78.944882 248.456693 
z
" clip-path="url(#pe9a3b69f0e)" style="stroke: #000000; stroke-width: 0.5; stroke-linejoin: miter"/>
   </g>
   <g id="patch_8">
    <path d="M 118.062992 248.456693 
L 137.055118 248.456693 
Q 139.889764 248.456693 139.889764 245.622047 
L 139.889764 238.251969 
Q 139.889764 235.417323 137.055118 235.417323 
L 118.062992 235.417323 
Q 115.228346 235.417323 115.228346 238.251969 
L 115.228346 245.622047 
Q 115.228346 248.456693 118.062992 248.456693 
z
" clip-path="url(#pe9a3b69f0e)" style="stroke: #000000; stroke-width: 0.5; stroke-linejoin: miter"/>
   </g>
   <g id="patch_9">
    <path d="M 157.181102 248.456693 
L 176.173228 248.456693 
Q 179.007874 248.456693 179.007874 245.622047 
L 179.007874 238.251969 
Q 179.007874 235.417323 176.173228 235.417323 
L 157.181102 235.417323 
Q 154.346457 235.417323 154.346457 238.251969 
L 154.346457 245.622047 
Q 154.346457 248.456693 157.181102 248.456693 
z
" clip-path="url(#pe9a3b69f0e)" style="stroke: #000000; stroke-width: 0.5; stroke-linejoin: miter"/>
   </g>
   <g id="patch_10">
    <path d="M 196.299213 248.456693 
L 215.291339 248.456693 
Q 218.125984 248.456693 218.125984 245.622047 
L 218.125984 238.251969 
Q 218.125984 235.417323 215.291339 235.417323 
L 196.299213 235.417323 
Q 193.464567 235.417323 193.464567 238.251969 
L 193.464567 245.622047 
Q 193.464567 248.456693 196.299213 248.456693 
z
" clip-path="url(#pe9a3b69f0e)" style="stroke: #000000; stroke-width: 0.5; stroke-linejoin: miter"/>
   </g>
   <g id="patch_11">
    <path d="M 39.826772 215.858268 
L 58.818898 215.858268 
Q 61.653543 215.858268 61.653543 213.023622 
L 61.653543 205.653543 
Q 61.653543 202.818898 58.818898 202.818898 
L 39.826772 202.818898 
Q 36.992126 202.818898 36.992126 205.653543 
L 36.992126 213.023622 
Q 36.992126 215.858268 39.826772 215.858268 
z
" clip-path="url(#pe9a3b69f0e)" style="stroke: #000000; stroke-width: 0.5; stroke-linejoin: miter"/>
   </g>
   <g id="patch_12">
    <path d="M 78.944882 215.858268 
L 97.937008 215.858268 
Q 100.771654 215.858268 100.771654 213.023622 
L 100.771654 205.653543 
Q 100.771654 202.818898 97.937008 202.818898 
L 78.944882 202.818898 
Q 76.110236 202.818898 76.110236 205.653543 
L 76.110236 213.023622 
Q 76.110236 215.858268 78.944882 215.858268 
z
" clip-path="url(#pe9a3b69f0e)" style="stroke: #000000; stroke-width: 0.5; stroke-linejoin: miter"/>
   </g>
   <g id="patch_13">
    <path d="M 118.062992 215.858268 
L 137.055118 215.858268 
Q 139.889764 215.858268 139.889764 213.023622 
L 139.889764 205.653543 
Q 139.889764 202.818898 137.055118 202.818898 
L 118.062992 202.818898 
Q 115.228346 202.818898 115.228346 205.653543 
L 115.228346 213.023622 
Q 115.228346 215.858268 118.062992 215.858268 
z
" clip-path="url(#pe9a3b69f0e)" style="stroke: #000000; stroke-width: 0.5; stroke-linejoin: miter"/>
   </g>
   <g id="patch_14">
    <path d="M 157.181102 215.858268 
L 176.173228 215.858268 
Q 179.007874 215.858268 179.007874 213.023622 
L 179.007874 205.653543 
Q 179.007874 202.818898 176.173228 202.818898 
L 157.181102 202.818898 
Q 154.346457 202.818898 154.346457 205.653543 
L 154.346457 213.023622 
Q 154.346457 215.858268 157.181102 215.858268 
z
" clip-path="url(#pe9a3b69f0e)" style="stroke: #000000; stroke-width: 0.5; stroke-linejoin: miter"/>
   </g>
   <g id="patch_15">
    <path d="M 196.299213 215.858268 
L 215.291339 215.858268 
Q 218.125984 215.858268 218.125984 213.023622 
L 218.125984 205.653543 
Q 218.125984 202.818898 215.291339 202.818898 
L 196.299213 202.818898 
Q 193.464567 202.818898 193.464567 205.653543 
L 193.464567 213.023622 
Q 193.464567 215.858268 196.299213 215.858268 
z
" clip-path="url(#pe9a3b69f0e)" style="stroke: #000000; stroke-width: 0.5; stroke-linejoin: miter"/>
   </g>
   <g id="patch_16">
    <path d="M 39.826772 183.259843 
L 58.818898 183.259843 
Q 61.653543 183.259843 61.653543 180.425197 
L 61.653543 173.055118 
Q 61.653543 170.220472 58.818898 170.220472 
L 39.826772 170.220472 
Q 36.992126 170.220472 36.992126 173.055118 
L 36.992126 180.425197 
Q 36.992126 183.259843 39.826772 183.259843 
z
" clip-path="url(#pe9a3b69f0e)" style="stroke: #000000; stroke-width: 0.5; stroke-linejoin: miter"/>
   </g>
   <g id="patch_17">
    <path d="M 78.944882 183.259843 
L 97.937008 183.259843 
Q 100.771654 183.259843 100.771654 180.425197 
L 100.771654 173.055118 
Q 100.771654 170.220472 97.937008 170.220472 
L 78.944882 170.220472 
Q 76.110236 170.220472 76.110236 173.055118 
L 76.110236 180.425197 
Q 76.110236 183.259843 78.944882 183.259843 
z
" clip-path="url(#pe9a3b69f0e)" style="stroke: #000000; stroke-width: 0.5; stroke-linejoin: miter"/>
   </g>
   <g id="patch_18">
    <path d="M 118.062992 183.259843 
L 137.055118 183.259843 
Q 139.889764 183.259843 139.889764 180.425197 
L 139.889764 173.055118 
Q 139.889764 170.220472 137.055118 170.220472 
L 118.062992 170.220472 
Q 115.228346 170.220472 115.228346 173.055118 
L 115.228346 180.425197 
Q 115.228346 183.259843 118.062992 183.259843 
z
" clip-path="url(#pe9a3b69f0e)" style="stroke: #000000; stroke-width: 0.5; stroke-linejoin: miter"/>
   </g>
   <g id="patch_19">
    <path d="M 157.181102 183.259843 
L 176.173228 183.259843 
Q 179.007874 183.259843 179.007874 180.425197 
L 179.007874 173.055118 
Q 179.007874 170.220472 176.173228 170.220472 
L 157.181102 170.220472 
Q 154.346457 170.220472 154.346457 173.055118 
L 154.346457 180.425197 
Q 154.346457 183.259843 157.181102 183.259843 
z
" clip-path="url(#pe9a3b69f0e)" style="stroke: #000000; stroke-width: 0.5; stroke-linejoin: miter"/>
   </g>
   <g id="patch_20">
    <path d="M 196.299213 183.259843 
L 215.291339 183.259843 
Q 218.125984 183.259843 218.125984 180.425197 
L 218.125984 173.055118 
Q 218.125984 170.220472 215.291339 170.220472 
L 196.299213 170.220472 
Q 193.464567 170.220472 193.464567 173.055118 
L 193.464567 180.425197 
Q 193.464567 183.259843 196.299213 183.259843 
z
" clip-path="url(#pe9a3b69f0e)" style="stroke: #000000; stroke-width: 0.5; stroke-linejoin: miter"/>
   </g>
   <g id="patch_21">
    <path d="M 37.84252 129.685039 
L 51.448819 129.685039 
Q 54.283465 129.685039 54.283465 126.850394 
L 54.283465 121.748031 
Q 54.283465 118.913386 51.448819 118.913386 
L 37.84252 118.913386 
Q 35.007874 118.913386 35.007874 121.748031 
L 35.007874 126.850394 
Q 35.007874 129.685039 37.84252 129.685039 
z
" clip-path="url(#pe9a3b69f0e)" style="stroke: #000000; stroke-width: 0.5; stroke-linejoin: miter"/>
   </g>
   <g id="patch_22">
    <path d="M 71.007874 129.685039 
L 84.614173 129.685039 
Q 87.448819 129.685039 87.448819 126.850394 
L 87.448819 121.748031 
Q 87.448819 118.913386 84.614173 118.913386 
L 71.007874 118.913386 
Q 68.173228 118.913386 68.173228 121.748031 
L 68.173228 126.850394 
Q 68.173228 129.685039 71.007874 129.685039 
z
" clip-path="url(#pe9a3b69f0e)" style="stroke: #000000; stroke-width: 0.5; stroke-linejoin: miter"/>
   </g>
   <g id="patch_23">
    <path d="M 104.173228 129.685039 
L 117.779528 129.685039 
Q 120.614173 129.685039 120.614173 126.850394 
L 120.614173 121.748031 
Q 120.614173 118.913386 117.779528 118.913386 
L 104.173228 118.913386 
Q 101.338583 118.913386 101.338583 121.748031 
L 101.338583 126.850394 
Q 101.338583 129.685039 104.173228 129.685039 
z
" clip-path="url(#pe9a3b69f0e)" style="stroke: #000000; stroke-width: 0.5; stroke-linejoin: miter"/>
   </g>
   <g id="patch_24">
    <path d="M 137.338583 129.685039 
L 150.944882 129.685039 
Q 153.779528 129.685039 153.779528 126.850394 
L 153.779528 121.748031 
Q 153.779528 118.913386 150.944882 118.913386 
L 137.338583 118.913386 
Q 134.503937 118.913386 134.503937 121.748031 
L 134.503937 126.850394 
Q 134.503937 129.685039 137.338583 129.685039 
z
" clip-path="url(#pe9a3b69f0e)" style="stroke: #000000; stroke-width: 0.5; stroke-linejoin: miter"/>
   </g>
   <g id="patch_25">
    <path d="M 170.503937 129.685039 
L 184.110236 129.685039 
Q 186.944882 129.685039 186.944882 126.850394 
L 186.944882 121.748031 
Q 186.944882 118.913386 184.110236 118.913386 
L 170.503937 118.913386 
Q 167.669291 118.913386 167.669291 121.748031 
L 167.669291 126.850394 
Q 167.669291 129.685039 170.503937 129.685039 
z
" clip-path="url(#pe9a3b69f0e)" style="stroke: #000000; stroke-width: 0.5; stroke-linejoin: miter"/>
   </g>
   <g id="patch_26">
    <path d="M 203.669291 129.685039 
L 217.275591 129.685039 
Q 220.110236 129.685039 220.110236 126.850394 
L 220.110236 121.748031 
Q 220.110236 118.913386 217.275591 118.913386 
L 203.669291 118.913386 
Q 200.834646 118.913386 200.834646 121.748031 
L 200.834646 126.850394 
Q 200.834646 129.685039 203.669291 129.685039 
z
" clip-path="url(#pe9a3b69f0e)" style="stroke: #000000; stroke-width: 0.5; stroke-linejoin: miter"/>
   </g>
   <g id="patch_27">
    <path d="M 37.84252 99.354331 
L 51.448819 99.354331 
Q 54.283465 99.354331 54.283465 96.519685 
L 54.283465 91.417323 
Q 54.283465 88.582677 51.448819 88.582677 
L 37.84252 88.582677 
Q 35.007874 88.582677 35.007874 91.417323 
L 35.007874 96.519685 
Q 35.007874 99.354331 37.84252 99.354331 
z
" clip-path="url(#pe9a3b69f0e)" style="stroke: #000000; stroke-width: 0.5; stroke-linejoin: miter"/>
   </g>
   <g id="patch_28">
    <path d="M 71.007874 99.354331 
L 84.614173 99.354331 
Q 87.448819 99.354331 87.448819 96.519685 
L 87.448819 91.417323 
Q 87.448819 88.582677 84.614173 88.582677 
L 71.007874 88.582677 
Q 68.173228 88.582677 68.173228 91.417323 
L 68.173228 96.519685 
Q 68.173228 99.354331 71.007874 99.354331 
z
" clip-path="url(#pe9a3b69f0e)" style="stroke: #000000; stroke-width: 0.5; stroke-linejoin: miter"/>
   </g>
   <g id="patch_29">
    <path d="M 104.173228 99.354331 
L 117.779528 99.354331 
Q 120.614173 99.354331 120.614173 96.519685 
L 120.614173 91.417323 
Q 120.614173 88.582677 117.779528 88.582677 
L 104.173228 88.582677 
Q 101.338583 88.582677 101.338583 91.417323 
L 101.338583 96.519685 
Q 101.338583 99.354331 104.173228 99.354331 
z
" clip-path="url(#pe9a3b69f0e)" style="stroke: #000000; stroke-width: 0.5; stroke-linejoin: miter"/>
   </g>
   <g id="patch_30">
    <path d="M 137.338583 99.354331 
L 150.944882 99.354331 
Q 153.779528 99.354331 153.779528 96.519685 
L 153.779528 91.417323 
Q 153.779528 88.582677 150.944882 88.582677 
L 137.338583 88.582677 
Q 134.503937 88.582677 134.503937 91.417323 
L 134.503937 96.519685 
Q 134.503937 99.354331 137.338583 99.354331 
z
" clip-path="url(#pe9a3b69f0e)" style="stroke: #000000; stroke-width: 0.5; stroke-linejoin: miter"/>
   </g>
   <g id="patch_31">
    <path d="M 170.503937 99.354331 
L 184.110236 99.354331 
Q 186.944882 99.354331 186.944882 96.519685 
L 186.944882 91.417323 
Q 186.944882 88.582677 184.110236 88.582677 
L 170.503937 88.582677 
Q 167.669291 88.582677 167.669291 91.417323 
L 167.669291 96.519685 
Q 167.669291 99.354331 170.503937 99.354331 
z
" clip-path="url(#pe9a3b69f0e)" style="stroke: #000000; stroke-width: 0.5; stroke-linejoin: miter"/>
   </g>
   <g id="patch_32">
    <path d="M 203.669291 99.354331 
L 217.275591 99.354331 
Q 220.110236 99.354331 220.110236 96.519685 
L 220.110236 91.417323 
Q 220.110236 88.582677 217.275591 88.582677 
L 203.669291 88.582677 
Q 200.834646 88.582677 200.834646 91.417323 
L 200.834646 96.519685 
Q 200.834646 99.354331 203.669291 99.354331 
z
" clip-path="url(#pe9a3b69f0e)" style="stroke: #000000; stroke-width: 0.5; stroke-linejoin: miter"/>
   </g>
   <g id="patch_33">
    <path d="M 37.84252 69.023622 
L 51.448819 69.023622 
Q 54.283465 69.023622 54.283465 66.188976 
L 54.283465 61.086614 
Q 54.283465 58.251969 51.448819 58.251969 
L 37.84252 58.251969 
Q 35.007874 58.251969 35.007874 61.086614 
L 35.007874 66.188976 
Q 35.007874 69.023622 37.84252 69.023622 
z
" clip-path="url(#pe9a3b69f0e)" style="stroke: #000000; stroke-width: 0.5; stroke-linejoin: miter"/>
   </g>
   <g id="patch_34">
    <path d="M 71.007874 69.023622 
L 84.614173 69.023622 
Q 87.448819 69.023622 87.448819 66.188976 
L 87.448819 61.086614 
Q 87.448819 58.251969 84.614173 58.251969 
L 71.007874 58.251969 
Q 68.173228 58.251969 68.173228 61.086614 
L 68.173228 66.188976 
Q 68.173228 69.023622 71.007874 69.023622 
z
" clip-path="url(#pe9a3b69f0e)" style="stroke: #000000; stroke-width: 0.5; stroke-linejoin: miter"/>
   </g>
   <g id="patch_35">
    <path d="M 104.173228 69.023622 
L 117.779528 69.023622 
Q 120.614173 69.023622 120.614173 66.188976 
L 120.614173 61.086614 
Q 120.614173 58.251969 117.779528 58.251969 
L 104.173228 58.251969 
Q 101.338583 58.251969 101.338583 61.086614 
L 101.338583 66.188976 
Q 101.338583 69.023622 104.173228 69.023622 
z
" clip-path="url(#pe9a3b69f0e)" style="stroke: #000000; stroke-width: 0.5; stroke-linejoin: miter"/>
   </g>
   <g id="patch_36">
    <path d="M 137.338583 69.023622 
L 150.944882 69.023622 
Q 153.779528 69.023622 153.779528 66.188976 
L 153.779528 61.086614 
Q 153.779528 58.251969 150.944882 58.251969 
L 137.338583 58.251969 
Q 134.503937 58.251969 134.503937 61.086614 
L 134.503937 66.188976 
Q 134.503937 69.023622 137.338583 69.023622 
z
" clip-path="url(#pe9a3b69f0e)" style="stroke: #000000; stroke-width: 0.5; stroke-linejoin: miter"/>
   </g>
   <g id="patch_37">
    <path d="M 170.503937 69.023622 
L 184.110236 69.023622 
Q 186.944882 69.023622 186.944882 66.188976 
L 186.944882 61.086614 
Q 186.944882 58.251969 184.110236 58.251969 
L 170.503937 58.251969 
Q 167.669291 58.251969 167.669291 61.086614 
L 167.669291 66.188976 
Q 167.669291 69.023622 170.503937 69.023622 
z
" clip-path="url(#pe9a3b69f0e)" style="stroke: #000000; stroke-width: 0.5; stroke-linejoin: miter"/>
   </g>
   <g id="patch_38">
    <path d="M 203.669291 69.023622 
L 217.275591 69.023622 
Q 220.110236 69.023622 220.110236 66.188976 
L 220.110236 61.086614 
Q 220.110236 58.251969 217.275591 58.251969 
L 203.669291 58.251969 
Q 200.834646 58.251969 200.834646 61.086614 
L 200.834646 66.188976 
Q 200.834646 69.023622 203.669291 69.023622 
z
" clip-path="url(#pe9a3b69f0e)" style="stroke: #000000; stroke-width: 0.5; stroke-linejoin: miter"/>
   </g>
   <g id="patch_39">
    <path d="M 37.84252 38.692913 
L 51.448819 38.692913 
Q 54.283465 38.692913 54.283465 35.858268 
L 54.283465 30.755906 
Q 54.283465 27.92126 51.448819 27.92126 
L 37.84252 27.92126 
Q 35.007874 27.92126 35.007874 30.755906 
L 35.007874 35.858268 
Q 35.007874 38.692913 37.84252 38.692913 
z
" clip-path="url(#pe9a3b69f0e)" style="stroke: #000000; stroke-width: 0.5; stroke-linejoin: miter"/>
   </g>
   <g id="patch_40">
    <path d="M 71.007874 38.692913 
L 84.614173 38.692913 
Q 87.448819 38.692913 87.448819 35.858268 
L 87.448819 30.755906 
Q 87.448819 27.92126 84.614173 27.92126 
L 71.007874 27.92126 
Q 68.173228 27.92126 68.173228 30.755906 
L 68.173228 35.858268 
Q 68.173228 38.692913 71.007874 38.692913 
z
" clip-path="url(#pe9a3b69f0e)" style="stroke: #000000; stroke-width: 0.5; stroke-linejoin: miter"/>
   </g>
   <g id="patch_41">
    <path d="M 104.173228 38.692913 
L 117.779528 38.692913 
Q 120.614173 38.692913 120.614173 35.858268 
L 120.614173 30.755906 
Q 120.614173 27.92126 117.779528 27.92126 
L 104.173228 27.92126 
Q 101.338583 27.92126 101.338583 30.755906 
L 101.338583 35.858268 
Q 101.338583 38.692913 104.173228 38.692913 
z
" clip-path="url(#pe9a3b69f0e)" style="stroke: #000000; stroke-width: 0.5; stroke-linejoin: miter"/>
   </g>
   <g id="patch_42">
    <path d="M 137.338583 38.692913 
L 150.944882 38.692913 
Q 153.779528 38.692913 153.779528 35.858268 
L 153.779528 30.755906 
Q 153.779528 27.92126 150.944882 27.92126 
L 137.338583 27.92126 
Q 134.503937 27.92126 134.503937 30.755906 
L 134.503937 35.858268 
Q 134.503937 38.692913 137.338583 38.692913 
z
" clip-path="url(#pe9a3b69f0e)" style="stroke: #000000; stroke-width: 0.5; stroke-linejoin: miter"/>
   </g>
   <g id="patch_43">
    <path d="M 170.503937 38.692913 
L 184.110236 38.692913 
Q 186.944882 38.692913 186.944882 35.858268 
L 186.944882 30.755906 
Q 186.944882 27.92126 184.110236 27.92126 
L 170.503937 27.92126 
Q 167.669291 27.92126 167.669291 30.755906 
L 167.669291 35.858268 
Q 167.669291 38.692913 170.503937 38.692913 
z
" clip-path="url(#pe9a3b69f0e)" style="stroke: #000000; stroke-width: 0.5; stroke-linejoin: miter"/>
   </g>
   <g id="patch_44">
    <path d="M 203.669291 38.692913 
L 217.275591 38.692913 
Q 220.110236 38.692913 220.110236 35.858268 
L 220.110236 30.755906 
Q 220.110236 27.92126 217.275591 27.92126 
L 203.669291 27.92126 
Q 200.834646 27.92126 200.834646 30.755906 
L 200.834646 35.858268 
Q 200.834646 38.692913 203.669291 38.692913 
z
" clip-path="url(#pe9a3b69f0e)" style="stroke: #000000; stroke-width: 0.5; stroke-linejoin: miter"/>
   </g>
  </g>
 </g>
 <defs>
  <clipPath id="pe9a3b69f0e">
   <rect x="0" y="0" width="255.11811" height="317.480315"/>
  </clipPath>
 </defs>
</svg>
