solid OpenSCAD_Model
  facet normal 0 0 1
    outer loop
      vertex 38 66.5 0
      vertex 36.625 65.125 0
      vertex 38 -66.5 0
    endloop
  endfacet
  facet normal 0 0 1
    outer loop
      vertex 38 66.5 0
      vertex -36.625 65.125 0
      vertex 36.625 65.125 0
    endloop
  endfacet
  facet normal 0 0 1
    outer loop
      vertex -36.625 65.125 0
      vertex -38 66.5 0
      vertex -36.625 -65.125 0
    endloop
  endfacet
  facet normal -0 0 1
    outer loop
      vertex -38 66.5 0
      vertex -36.625 65.125 0
      vertex 38 66.5 0
    endloop
  endfacet
  facet normal -0 0 1
    outer loop
      vertex 36.625 -65.125 0
      vertex 38 -66.5 0
      vertex 36.625 65.125 0
    endloop
  endfacet
  facet normal -0 0 1
    outer loop
      vertex -36.625 -65.125 0
      vertex 38 -66.5 0
      vertex 36.625 -65.125 0
    endloop
  endfacet
  facet normal 0 0 1
    outer loop
      vertex -36.625 -65.125 0
      vertex -38 -66.5 0
      vertex 38 -66.5 0
    endloop
  endfacet
  facet normal 0 0 1
    outer loop
      vertex -38 -66.5 0
      vertex -36.625 -65.125 0
      vertex -38 66.5 0
    endloop
  endfacet
  facet normal -1 0 0
    outer loop
      vertex -38 -66.5 -3.8
      vertex -38 66.5 0
      vertex -38 66.5 -3.8
    endloop
  endfacet
  facet normal -1 -0 0
    outer loop
      vertex -38 66.5 0
      vertex -38 -66.5 -3.8
      vertex -38 -66.5 0
    endloop
  endfacet
  facet normal 0 1 -0
    outer loop
      vertex 38 66.5 -3.8
      vertex -38 66.5 0
      vertex 38 66.5 0
    endloop
  endfacet
  facet normal 0 1 0
    outer loop
      vertex -38 66.5 0
      vertex 38 66.5 -3.8
      vertex -38 66.5 -3.8
    endloop
  endfacet
  facet normal 1 -0 0
    outer loop
      vertex 38 -66.5 0
      vertex 38 66.5 -3.8
      vertex 38 66.5 0
    endloop
  endfacet
  facet normal 1 0 0
    outer loop
      vertex 38 66.5 -3.8
      vertex 38 -66.5 0
      vertex 38 -66.5 -3.8
    endloop
  endfacet
  facet normal 0 -1 0
    outer loop
      vertex -38 -66.5 -3.8
      vertex 38 -66.5 0
      vertex -38 -66.5 0
    endloop
  endfacet
  facet normal 0 -1 -0
    outer loop
      vertex 38 -66.5 0
      vertex -38 -66.5 -3.8
      vertex 38 -66.5 -3.8
    endloop
  endfacet
  facet normal -0.909867 0 -0.414899
    outer loop
      vertex -36.86 -64.505 -6.3
      vertex -38 66.5 -3.8
      vertex -36.86 64.505 -6.3
    endloop
  endfacet
  facet normal -0.909867 -0 -0.414899
    outer loop
      vertex -38 66.5 -3.8
      vertex -36.86 -64.505 -6.3
      vertex -38 -66.5 -3.8
    endloop
  endfacet
  facet normal 0 0 -1
    outer loop
      vertex -36.86 -64.505 -6.3
      vertex 36.86 64.505 -6.3
      vertex 36.86 -64.505 -6.3
    endloop
  endfacet
  facet normal -0 0 -1
    outer loop
      vertex 36.86 64.505 -6.3
      vertex -36.86 -64.505 -6.3
      vertex -36.86 64.505 -6.3
    endloop
  endfacet
  facet normal 0.909867 0 -0.414899
    outer loop
      vertex 38 66.5 -3.8
      vertex 36.86 -64.505 -6.3
      vertex 36.86 64.505 -6.3
    endloop
  endfacet
  facet normal 0.909867 0 -0.414899
    outer loop
      vertex 36.86 -64.505 -6.3
      vertex 38 66.5 -3.8
      vertex 38 -66.5 -3.8
    endloop
  endfacet
  facet normal 0 0.781631 -0.623741
    outer loop
      vertex 36.86 64.505 -6.3
      vertex -38 66.5 -3.8
      vertex 38 66.5 -3.8
    endloop
  endfacet
  facet normal 0 0.781631 -0.623741
    outer loop
      vertex -38 66.5 -3.8
      vertex 36.86 64.505 -6.3
      vertex -36.86 64.505 -6.3
    endloop
  endfacet
  facet normal 0 -0.781631 -0.623741
    outer loop
      vertex -36.86 -64.505 -6.3
      vertex 38 -66.5 -3.8
      vertex -38 -66.5 -3.8
    endloop
  endfacet
  facet normal 0 -0.781631 -0.623741
    outer loop
      vertex 38 -66.5 -3.8
      vertex -36.86 -64.505 -6.3
      vertex 36.86 -64.505 -6.3
    endloop
  endfacet
  facet normal 1 -0 0
    outer loop
      vertex 35 8.5 0
      vertex 35 11.5 -5.5
      vertex 35 11.5 0
    endloop
  endfacet
  facet normal 1 0 0
    outer loop
      vertex 35 11.5 -5.5
      vertex 35 8.5 0
      vertex 35 8.5 -5.5
    endloop
  endfacet
  facet normal -0 0 1
    outer loop
      vertex -35 -34.8333 -5.5
      vertex 35 -53.5 -5.5
      vertex 35 -34.8333 -5.5
    endloop
  endfacet
  facet normal 0 0 1
    outer loop
      vertex 35 -53.5 -5.5
      vertex -35 -34.8333 -5.5
      vertex -35 -53.5 -5.5
    endloop
  endfacet
  facet normal -0 0 1
    outer loop
      vertex -35 -13.1667 -5.5
      vertex 35 -31.8333 -5.5
      vertex 35 -13.1667 -5.5
    endloop
  endfacet
  facet normal 0 0 1
    outer loop
      vertex 35 -31.8333 -5.5
      vertex -35 -13.1667 -5.5
      vertex -35 -31.8333 -5.5
    endloop
  endfacet
  facet normal -0 0 1
    outer loop
      vertex -35 8.5 -5.5
      vertex 35 -10.1667 -5.5
      vertex 35 8.5 -5.5
    endloop
  endfacet
  facet normal 0 0 1
    outer loop
      vertex 35 -10.1667 -5.5
      vertex -35 8.5 -5.5
      vertex -35 -10.1667 -5.5
    endloop
  endfacet
  facet normal 0 0 1
    outer loop
      vertex 35.2 63.7 -5.5
      vertex 35 11.5 -5.5
      vertex 35.2 -63.7 -5.5
    endloop
  endfacet
  facet normal 0 0 1
    outer loop
      vertex 35.2 63.7 -5.5
      vertex -32 52.9167 -5.5
      vertex 35 11.5 -5.5
    endloop
  endfacet
  facet normal -0 0 1
    outer loop
      vertex -35.2 63.7 -5.5
      vertex -32 52.9167 -5.5
      vertex 35.2 63.7 -5.5
    endloop
  endfacet
  facet normal 0 0 1
    outer loop
      vertex -35.2 63.7 -5.5
      vertex -35 8.5 -5.5
      vertex -35 52.9167 -5.5
    endloop
  endfacet
  facet normal 0 0 1
    outer loop
      vertex -35 8.5 -5.5
      vertex -35.2 63.7 -5.5
      vertex -35 -10.1667 -5.5
    endloop
  endfacet
  facet normal 0 0 1
    outer loop
      vertex -35 -10.1667 -5.5
      vertex -35.2 63.7 -5.5
      vertex -35 -13.1667 -5.5
    endloop
  endfacet
  facet normal 0 0 1
    outer loop
      vertex -35 -13.1667 -5.5
      vertex -35.2 63.7 -5.5
      vertex -35 -31.8333 -5.5
    endloop
  endfacet
  facet normal 0 0 1
    outer loop
      vertex -35 -31.8333 -5.5
      vertex -35.2 63.7 -5.5
      vertex -35 -34.8333 -5.5
    endloop
  endfacet
  facet normal 0 0 1
    outer loop
      vertex -35.2 -63.7 -5.5
      vertex -35 -34.8333 -5.5
      vertex -35.2 63.7 -5.5
    endloop
  endfacet
  facet normal 0 0 1
    outer loop
      vertex -35 -34.8333 -5.5
      vertex -35.2 -63.7 -5.5
      vertex -35 -53.5 -5.5
    endloop
  endfacet
  facet normal 0 0 1
    outer loop
      vertex -32 52.9167 -5.5
      vertex -35.2 63.7 -5.5
      vertex -35 52.9167 -5.5
    endloop
  endfacet
  facet normal -0 0 1
    outer loop
      vertex 35 8.5 -5.5
      vertex 35.2 -63.7 -5.5
      vertex 35 11.5 -5.5
    endloop
  endfacet
  facet normal -0 0 1
    outer loop
      vertex 35 -10.1667 -5.5
      vertex 35.2 -63.7 -5.5
      vertex 35 8.5 -5.5
    endloop
  endfacet
  facet normal -0 0 1
    outer loop
      vertex 35 -13.1667 -5.5
      vertex 35.2 -63.7 -5.5
      vertex 35 -10.1667 -5.5
    endloop
  endfacet
  facet normal -0 0 1
    outer loop
      vertex 35 -31.8333 -5.5
      vertex 35.2 -63.7 -5.5
      vertex 35 -13.1667 -5.5
    endloop
  endfacet
  facet normal -0 0 1
    outer loop
      vertex 35 -34.8333 -5.5
      vertex 35.2 -63.7 -5.5
      vertex 35 -31.8333 -5.5
    endloop
  endfacet
  facet normal -0 0 1
    outer loop
      vertex 35 -53.5 -5.5
      vertex 35.2 -63.7 -5.5
      vertex 35 -34.8333 -5.5
    endloop
  endfacet
  facet normal -0 0 1
    outer loop
      vertex 35 -56.5 -5.5
      vertex 35.2 -63.7 -5.5
      vertex 35 -53.5 -5.5
    endloop
  endfacet
  facet normal -0 0 1
    outer loop
      vertex -35 -56.5 -5.5
      vertex 35.2 -63.7 -5.5
      vertex 35 -56.5 -5.5
    endloop
  endfacet
  facet normal 0 0 1
    outer loop
      vertex -35 -56.5 -5.5
      vertex -35.2 -63.7 -5.5
      vertex 35.2 -63.7 -5.5
    endloop
  endfacet
  facet normal 0 0 1
    outer loop
      vertex -35 -53.5 -5.5
      vertex -35.2 -63.7 -5.5
      vertex -35 -56.5 -5.5
    endloop
  endfacet
  facet normal 0 0 1
    outer loop
      vertex 35 11.5 -5.5
      vertex -32 52.9167 -5.5
      vertex -32 11.5 -5.5
    endloop
  endfacet
  facet normal 0 0 1
    outer loop
      vertex -32 52.9167 0
      vertex -35 52.9167 0
      vertex -32 11.5 0
    endloop
  endfacet
  facet normal -0 0 1
    outer loop
      vertex -32 11.5 0
      vertex 35 8.5 0
      vertex 35 11.5 0
    endloop
  endfacet
  facet normal 0 0 1
    outer loop
      vertex -32 11.5 0
      vertex -35 8.5 0
      vertex 35 8.5 0
    endloop
  endfacet
  facet normal 0 0 1
    outer loop
      vertex -35 8.5 0
      vertex -32 11.5 0
      vertex -35 52.9167 0
    endloop
  endfacet
  facet normal -1 0 0
    outer loop
      vertex -35 8.5 -5.5
      vertex -35 52.9167 0
      vertex -35 52.9167 -5.5
    endloop
  endfacet
  facet normal -1 -0 0
    outer loop
      vertex -35 52.9167 0
      vertex -35 8.5 -5.5
      vertex -35 8.5 0
    endloop
  endfacet
  facet normal 0 1 -0
    outer loop
      vertex 35 11.5 -5.5
      vertex -32 11.5 0
      vertex 35 11.5 0
    endloop
  endfacet
  facet normal 0 1 0
    outer loop
      vertex -32 11.5 0
      vertex 35 11.5 -5.5
      vertex -32 11.5 -5.5
    endloop
  endfacet
  facet normal 0 -1 0
    outer loop
      vertex -35 8.5 -5.5
      vertex 35 8.5 0
      vertex -35 8.5 0
    endloop
  endfacet
  facet normal 0 -1 -0
    outer loop
      vertex 35 8.5 0
      vertex -35 8.5 -5.5
      vertex 35 8.5 -5.5
    endloop
  endfacet
  facet normal 1 -0 0
    outer loop
      vertex 35 -13.1667 0
      vertex 35 -10.1667 -5.5
      vertex 35 -10.1667 0
    endloop
  endfacet
  facet normal 1 0 0
    outer loop
      vertex 35 -10.1667 -5.5
      vertex 35 -13.1667 0
      vertex 35 -13.1667 -5.5
    endloop
  endfacet
  facet normal -0 0 1
    outer loop
      vertex -35 -10.1667 0
      vertex 35 -13.1667 0
      vertex 35 -10.1667 0
    endloop
  endfacet
  facet normal 0 0 1
    outer loop
      vertex 35 -13.1667 0
      vertex -35 -10.1667 0
      vertex -35 -13.1667 0
    endloop
  endfacet
  facet normal -1 0 0
    outer loop
      vertex -35 -13.1667 -5.5
      vertex -35 -10.1667 0
      vertex -35 -10.1667 -5.5
    endloop
  endfacet
  facet normal -1 -0 0
    outer loop
      vertex -35 -10.1667 0
      vertex -35 -13.1667 -5.5
      vertex -35 -13.1667 0
    endloop
  endfacet
  facet normal 0 1 -0
    outer loop
      vertex 35 -10.1667 -5.5
      vertex -35 -10.1667 0
      vertex 35 -10.1667 0
    endloop
  endfacet
  facet normal 0 1 0
    outer loop
      vertex -35 -10.1667 0
      vertex 35 -10.1667 -5.5
      vertex -35 -10.1667 -5.5
    endloop
  endfacet
  facet normal 0 -1 0
    outer loop
      vertex -35 -13.1667 -5.5
      vertex 35 -13.1667 0
      vertex -35 -13.1667 0
    endloop
  endfacet
  facet normal 0 -1 -0
    outer loop
      vertex 35 -13.1667 0
      vertex -35 -13.1667 -5.5
      vertex 35 -13.1667 -5.5
    endloop
  endfacet
  facet normal 1 -0 0
    outer loop
      vertex 35 -34.8333 0
      vertex 35 -31.8333 -5.5
      vertex 35 -31.8333 0
    endloop
  endfacet
  facet normal 1 0 0
    outer loop
      vertex 35 -31.8333 -5.5
      vertex 35 -34.8333 0
      vertex 35 -34.8333 -5.5
    endloop
  endfacet
  facet normal -0 0 1
    outer loop
      vertex -35 -31.8333 0
      vertex 35 -34.8333 0
      vertex 35 -31.8333 0
    endloop
  endfacet
  facet normal 0 0 1
    outer loop
      vertex 35 -34.8333 0
      vertex -35 -31.8333 0
      vertex -35 -34.8333 0
    endloop
  endfacet
  facet normal -1 0 0
    outer loop
      vertex -35 -34.8333 -5.5
      vertex -35 -31.8333 0
      vertex -35 -31.8333 -5.5
    endloop
  endfacet
  facet normal -1 -0 0
    outer loop
      vertex -35 -31.8333 0
      vertex -35 -34.8333 -5.5
      vertex -35 -34.8333 0
    endloop
  endfacet
  facet normal 0 1 -0
    outer loop
      vertex 35 -31.8333 -5.5
      vertex -35 -31.8333 0
      vertex 35 -31.8333 0
    endloop
  endfacet
  facet normal 0 1 0
    outer loop
      vertex -35 -31.8333 0
      vertex 35 -31.8333 -5.5
      vertex -35 -31.8333 -5.5
    endloop
  endfacet
  facet normal 0 -1 0
    outer loop
      vertex -35 -34.8333 -5.5
      vertex 35 -34.8333 0
      vertex -35 -34.8333 0
    endloop
  endfacet
  facet normal 0 -1 -0
    outer loop
      vertex 35 -34.8333 0
      vertex -35 -34.8333 -5.5
      vertex 35 -34.8333 -5.5
    endloop
  endfacet
  facet normal 1 -0 0
    outer loop
      vertex 35 -56.5 0
      vertex 35 -53.5 -5.5
      vertex 35 -53.5 0
    endloop
  endfacet
  facet normal 1 0 0
    outer loop
      vertex 35 -53.5 -5.5
      vertex 35 -56.5 0
      vertex 35 -56.5 -5.5
    endloop
  endfacet
  facet normal -0 0 1
    outer loop
      vertex -35 -53.5 0
      vertex 35 -56.5 0
      vertex 35 -53.5 0
    endloop
  endfacet
  facet normal 0 0 1
    outer loop
      vertex 35 -56.5 0
      vertex -35 -53.5 0
      vertex -35 -56.5 0
    endloop
  endfacet
  facet normal -1 0 0
    outer loop
      vertex -35 -56.5 -5.5
      vertex -35 -53.5 0
      vertex -35 -53.5 -5.5
    endloop
  endfacet
  facet normal -1 -0 0
    outer loop
      vertex -35 -53.5 0
      vertex -35 -56.5 -5.5
      vertex -35 -56.5 0
    endloop
  endfacet
  facet normal 0 1 -0
    outer loop
      vertex 35 -53.5 -5.5
      vertex -35 -53.5 0
      vertex 35 -53.5 0
    endloop
  endfacet
  facet normal 0 1 0
    outer loop
      vertex -35 -53.5 0
      vertex 35 -53.5 -5.5
      vertex -35 -53.5 -5.5
    endloop
  endfacet
  facet normal 0 -1 0
    outer loop
      vertex -35 -56.5 -5.5
      vertex 35 -56.5 0
      vertex -35 -56.5 0
    endloop
  endfacet
  facet normal 0 -1 -0
    outer loop
      vertex 35 -56.5 0
      vertex -35 -56.5 -5.5
      vertex 35 -56.5 -5.5
    endloop
  endfacet
  facet normal 1 -0 0
    outer loop
      vertex -35.2 -63.7 -1.6
      vertex -35.2 63.7 -5.5
      vertex -35.2 63.7 -1.6
    endloop
  endfacet
  facet normal 1 0 0
    outer loop
      vertex -35.2 63.7 -5.5
      vertex -35.2 -63.7 -1.6
      vertex -35.2 -63.7 -5.5
    endloop
  endfacet
  facet normal 0 -1 0
    outer loop
      vertex -35.2 63.7 -5.5
      vertex 35.2 63.7 -1.6
      vertex -35.2 63.7 -1.6
    endloop
  endfacet
  facet normal 0 -1 -0
    outer loop
      vertex 35.2 63.7 -1.6
      vertex -35.2 63.7 -5.5
      vertex 35.2 63.7 -5.5
    endloop
  endfacet
  facet normal -1 0 0
    outer loop
      vertex 35.2 -63.7 -5.5
      vertex 35.2 63.7 -1.6
      vertex 35.2 63.7 -5.5
    endloop
  endfacet
  facet normal -1 -0 0
    outer loop
      vertex 35.2 63.7 -1.6
      vertex 35.2 -63.7 -5.5
      vertex 35.2 -63.7 -1.6
    endloop
  endfacet
  facet normal 0 1 -0
    outer loop
      vertex 35.2 -63.7 -5.5
      vertex -35.2 -63.7 -1.6
      vertex 35.2 -63.7 -1.6
    endloop
  endfacet
  facet normal 0 1 0
    outer loop
      vertex -35.2 -63.7 -1.6
      vertex 35.2 -63.7 -5.5
      vertex -35.2 -63.7 -5.5
    endloop
  endfacet
  facet normal 0 0 1
    outer loop
      vertex 36.625 65.125 -1.6
      vertex 35.2 63.7 -1.6
      vertex 36.625 -65.125 -1.6
    endloop
  endfacet
  facet normal 0 0 1
    outer loop
      vertex 36.625 65.125 -1.6
      vertex -35.2 63.7 -1.6
      vertex 35.2 63.7 -1.6
    endloop
  endfacet
  facet normal 0 0 1
    outer loop
      vertex -35.2 63.7 -1.6
      vertex -36.625 65.125 -1.6
      vertex -35.2 -63.7 -1.6
    endloop
  endfacet
  facet normal -0 0 1
    outer loop
      vertex -36.625 65.125 -1.6
      vertex -35.2 63.7 -1.6
      vertex 36.625 65.125 -1.6
    endloop
  endfacet
  facet normal -0 0 1
    outer loop
      vertex 35.2 -63.7 -1.6
      vertex 36.625 -65.125 -1.6
      vertex 35.2 63.7 -1.6
    endloop
  endfacet
  facet normal -0 0 1
    outer loop
      vertex -35.2 -63.7 -1.6
      vertex 36.625 -65.125 -1.6
      vertex 35.2 -63.7 -1.6
    endloop
  endfacet
  facet normal 0 0 1
    outer loop
      vertex -35.2 -63.7 -1.6
      vertex -36.625 -65.125 -1.6
      vertex 36.625 -65.125 -1.6
    endloop
  endfacet
  facet normal 0 0 1
    outer loop
      vertex -36.625 -65.125 -1.6
      vertex -35.2 -63.7 -1.6
      vertex -36.625 65.125 -1.6
    endloop
  endfacet
  facet normal 0 -1 0
    outer loop
      vertex -14.8333 65.125 -1.5549
      vertex 14.8333 65.125 -0.845099
      vertex -14.8333 65.125 -0.845099
    endloop
  endfacet
  facet normal 0 -1 -0
    outer loop
      vertex 14.8333 65.125 -0.845099
      vertex -14.8333 65.125 -1.5549
      vertex 14.8333 65.125 -1.5549
    endloop
  endfacet
  facet normal 0 -1 0
    outer loop
      vertex -14.8333 65.125 -0.845099
      vertex -36.625 65.125 0
      vertex -31.8333 65.125 -0.845099
    endloop
  endfacet
  facet normal 0 -1 0
    outer loop
      vertex -36.625 65.125 -1.6
      vertex -31.8333 65.125 -0.845099
      vertex -36.625 65.125 0
    endloop
  endfacet
  facet normal 0 0 0
    outer loop
      vertex -31.8333 65.125 -1.5549
      vertex 14.8333 65.125 -1.5549
      vertex -14.8333 65.125 -1.5549
    endloop
  endfacet
  facet normal 0 0 0
    outer loop
      vertex -31.8333 65.125 -1.5549
      vertex 31.8333 65.125 -1.5549
      vertex 14.8333 65.125 -1.5549
    endloop
  endfacet
  facet normal 0 -1 -0
    outer loop
      vertex -31.8333 65.125 -1.5549
      vertex -36.625 65.125 -1.6
      vertex 31.8333 65.125 -1.5549
    endloop
  endfacet
  facet normal 0 -1 -0
    outer loop
      vertex -31.8333 65.125 -0.845099
      vertex -36.625 65.125 -1.6
      vertex -31.8333 65.125 -1.5549
    endloop
  endfacet
  facet normal 0 -1 0
    outer loop
      vertex -36.625 65.125 0
      vertex -14.8333 65.125 -0.845099
      vertex 36.625 65.125 0
    endloop
  endfacet
  facet normal 0 -1 0
    outer loop
      vertex 14.8333 65.125 -0.845099
      vertex 36.625 65.125 0
      vertex -14.8333 65.125 -0.845099
    endloop
  endfacet
  facet normal 0 -1 0
    outer loop
      vertex 31.8333 65.125 -0.845099
      vertex 36.625 65.125 0
      vertex 14.8333 65.125 -0.845099
    endloop
  endfacet
  facet normal 0 -1 0
    outer loop
      vertex 36.625 65.125 -1.6
      vertex 31.8333 65.125 -0.845099
      vertex 31.8333 65.125 -1.5549
    endloop
  endfacet
  facet normal 0 -1 0
    outer loop
      vertex 31.8333 65.125 -0.845099
      vertex 36.625 65.125 -1.6
      vertex 36.625 65.125 0
    endloop
  endfacet
  facet normal 0 -1 0
    outer loop
      vertex 36.625 65.125 -1.6
      vertex 31.8333 65.125 -1.5549
      vertex -36.625 65.125 -1.6
    endloop
  endfacet
  facet normal 1 0 0
    outer loop
      vertex -36.625 65.125 0
      vertex -36.625 50.8333 -0.845099
      vertex -36.625 65.125 -1.6
    endloop
  endfacet
  facet normal 1 0 0
    outer loop
      vertex -36.625 65.125 0
      vertex -36.625 33.8333 -0.845099
      vertex -36.625 50.8333 -0.845099
    endloop
  endfacet
  facet normal 1 0 0
    outer loop
      vertex -36.625 33.8333 -0.845099
      vertex -36.625 8.5 -0.845099
      vertex -36.625 33.8333 -1.5549
    endloop
  endfacet
  facet normal 1 0 0
    outer loop
      vertex -36.625 65.125 0
      vertex -36.625 8.5 -0.845099
      vertex -36.625 33.8333 -0.845099
    endloop
  endfacet
  facet normal 1 0 0
    outer loop
      vertex -36.625 65.125 0
      vertex -36.625 -8.5 -0.845099
      vertex -36.625 8.5 -0.845099
    endloop
  endfacet
  facet normal 1 0 0
    outer loop
      vertex -36.625 -8.5 -0.845099
      vertex -36.625 -33.8333 -0.845099
      vertex -36.625 -8.5 -1.5549
    endloop
  endfacet
  facet normal 1 -0 0
    outer loop
      vertex -36.625 -65.125 0
      vertex -36.625 -8.5 -0.845099
      vertex -36.625 65.125 0
    endloop
  endfacet
  facet normal 1 0 0
    outer loop
      vertex -36.625 -8.5 -0.845099
      vertex -36.625 -65.125 0
      vertex -36.625 -33.8333 -0.845099
    endloop
  endfacet
  facet normal 1 0 0
    outer loop
      vertex -36.625 -65.125 -1.6
      vertex -36.625 -50.8333 -0.845099
      vertex -36.625 -65.125 0
    endloop
  endfacet
  facet normal 1 0 0
    outer loop
      vertex -36.625 -33.8333 -0.845099
      vertex -36.625 -65.125 0
      vertex -36.625 -50.8333 -0.845099
    endloop
  endfacet
  facet normal 1 -0 0
    outer loop
      vertex -36.625 50.8333 -1.5549
      vertex -36.625 65.125 -1.6
      vertex -36.625 50.8333 -0.845099
    endloop
  endfacet
  facet normal 1 -0 0
    outer loop
      vertex -36.625 33.8333 -1.5549
      vertex -36.625 65.125 -1.6
      vertex -36.625 50.8333 -1.5549
    endloop
  endfacet
  facet normal 1 0 0
    outer loop
      vertex -36.625 8.5 -1.5549
      vertex -36.625 33.8333 -1.5549
      vertex -36.625 8.5 -0.845099
    endloop
  endfacet
  facet normal 1 -0 0
    outer loop
      vertex -36.625 8.5 -1.5549
      vertex -36.625 65.125 -1.6
      vertex -36.625 33.8333 -1.5549
    endloop
  endfacet
  facet normal 1 -0 0
    outer loop
      vertex -36.625 -8.5 -1.5549
      vertex -36.625 65.125 -1.6
      vertex -36.625 8.5 -1.5549
    endloop
  endfacet
  facet normal 1 0 0
    outer loop
      vertex -36.625 -33.8333 -1.5549
      vertex -36.625 -8.5 -1.5549
      vertex -36.625 -33.8333 -0.845099
    endloop
  endfacet
  facet normal 1 -0 0
    outer loop
      vertex -36.625 -33.8333 -1.5549
      vertex -36.625 65.125 -1.6
      vertex -36.625 -8.5 -1.5549
    endloop
  endfacet
  facet normal 1 -0 0
    outer loop
      vertex -36.625 -50.8333 -1.5549
      vertex -36.625 65.125 -1.6
      vertex -36.625 -33.8333 -1.5549
    endloop
  endfacet
  facet normal 1 0 0
    outer loop
      vertex -36.625 -50.8333 -1.5549
      vertex -36.625 -65.125 -1.6
      vertex -36.625 65.125 -1.6
    endloop
  endfacet
  facet normal 1 0 0
    outer loop
      vertex -36.625 -50.8333 -0.845099
      vertex -36.625 -65.125 -1.6
      vertex -36.625 -50.8333 -1.5549
    endloop
  endfacet
  facet normal 0 1 -0
    outer loop
      vertex 14.8333 -65.125 -1.5549
      vertex -14.8333 -65.125 -0.845099
      vertex 14.8333 -65.125 -0.845099
    endloop
  endfacet
  facet normal 0 1 0
    outer loop
      vertex -14.8333 -65.125 -0.845099
      vertex 14.8333 -65.125 -1.5549
      vertex -14.8333 -65.125 -1.5549
    endloop
  endfacet
  facet normal 0 1 0
    outer loop
      vertex 14.8333 -65.125 -0.845099
      vertex 36.625 -65.125 0
      vertex 31.8333 -65.125 -0.845099
    endloop
  endfacet
  facet normal 0 1 -0
    outer loop
      vertex 36.625 -65.125 -1.6
      vertex 31.8333 -65.125 -0.845099
      vertex 36.625 -65.125 0
    endloop
  endfacet
  facet normal 0 0 0
    outer loop
      vertex 31.8333 -65.125 -1.5549
      vertex -14.8333 -65.125 -1.5549
      vertex 14.8333 -65.125 -1.5549
    endloop
  endfacet
  facet normal 0 0 0
    outer loop
      vertex 31.8333 -65.125 -1.5549
      vertex -31.8333 -65.125 -1.5549
      vertex -14.8333 -65.125 -1.5549
    endloop
  endfacet
  facet normal 0 1 0
    outer loop
      vertex 31.8333 -65.125 -1.5549
      vertex 36.625 -65.125 -1.6
      vertex -31.8333 -65.125 -1.5549
    endloop
  endfacet
  facet normal 0 1 0
    outer loop
      vertex 31.8333 -65.125 -0.845099
      vertex 36.625 -65.125 -1.6
      vertex 31.8333 -65.125 -1.5549
    endloop
  endfacet
  facet normal 0 1 0
    outer loop
      vertex 36.625 -65.125 0
      vertex 14.8333 -65.125 -0.845099
      vertex -36.625 -65.125 0
    endloop
  endfacet
  facet normal 0 1 -0
    outer loop
      vertex -14.8333 -65.125 -0.845099
      vertex -36.625 -65.125 0
      vertex 14.8333 -65.125 -0.845099
    endloop
  endfacet
  facet normal 0 1 -0
    outer loop
      vertex -31.8333 -65.125 -0.845099
      vertex -36.625 -65.125 0
      vertex -14.8333 -65.125 -0.845099
    endloop
  endfacet
  facet normal 0 1 0
    outer loop
      vertex -36.625 -65.125 -1.6
      vertex -31.8333 -65.125 -0.845099
      vertex -31.8333 -65.125 -1.5549
    endloop
  endfacet
  facet normal 0 1 0
    outer loop
      vertex -31.8333 -65.125 -0.845099
      vertex -36.625 -65.125 -1.6
      vertex -36.625 -65.125 0
    endloop
  endfacet
  facet normal 0 1 0
    outer loop
      vertex -36.625 -65.125 -1.6
      vertex -31.8333 -65.125 -1.5549
      vertex 36.625 -65.125 -1.6
    endloop
  endfacet
  facet normal -1 0 0
    outer loop
      vertex 36.625 50.8333 -0.845099
      vertex 36.625 65.125 -1.6
      vertex 36.625 50.8333 -1.5549
    endloop
  endfacet
  facet normal -1 0 0
    outer loop
      vertex 36.625 65.125 -1.6
      vertex 36.625 33.8333 -1.5549
      vertex 36.625 50.8333 -1.5549
    endloop
  endfacet
  facet normal -1 0 0
    outer loop
      vertex 36.625 33.8333 -1.5549
      vertex 36.625 8.5 -1.5549
      vertex 36.625 33.8333 -0.845099
    endloop
  endfacet
  facet normal -1 0 0
    outer loop
      vertex 36.625 65.125 -1.6
      vertex 36.625 8.5 -1.5549
      vertex 36.625 33.8333 -1.5549
    endloop
  endfacet
  facet normal -1 0 0
    outer loop
      vertex 36.625 65.125 -1.6
      vertex 36.625 -8.5 -1.5549
      vertex 36.625 8.5 -1.5549
    endloop
  endfacet
  facet normal -1 0 0
    outer loop
      vertex 36.625 -8.5 -1.5549
      vertex 36.625 -33.8333 -1.5549
      vertex 36.625 -8.5 -0.845099
    endloop
  endfacet
  facet normal -1 0 0
    outer loop
      vertex 36.625 65.125 -1.6
      vertex 36.625 -33.8333 -1.5549
      vertex 36.625 -8.5 -1.5549
    endloop
  endfacet
  facet normal -1 0 0
    outer loop
      vertex 36.625 65.125 -1.6
      vertex 36.625 -50.8333 -1.5549
      vertex 36.625 -33.8333 -1.5549
    endloop
  endfacet
  facet normal -1 -0 0
    outer loop
      vertex 36.625 -50.8333 -1.5549
      vertex 36.625 -65.125 -1.6
      vertex 36.625 -50.8333 -0.845099
    endloop
  endfacet
  facet normal -1 0 0
    outer loop
      vertex 36.625 -65.125 -1.6
      vertex 36.625 -50.8333 -1.5549
      vertex 36.625 65.125 -1.6
    endloop
  endfacet
  facet normal -1 0 0
    outer loop
      vertex 36.625 65.125 -1.6
      vertex 36.625 50.8333 -0.845099
      vertex 36.625 65.125 0
    endloop
  endfacet
  facet normal -1 0 0
    outer loop
      vertex 36.625 33.8333 -0.845099
      vertex 36.625 65.125 0
      vertex 36.625 50.8333 -0.845099
    endloop
  endfacet
  facet normal -1 0 0
    outer loop
      vertex 36.625 8.5 -0.845099
      vertex 36.625 33.8333 -0.845099
      vertex 36.625 8.5 -1.5549
    endloop
  endfacet
  facet normal -1 0 0
    outer loop
      vertex 36.625 8.5 -0.845099
      vertex 36.625 65.125 0
      vertex 36.625 33.8333 -0.845099
    endloop
  endfacet
  facet normal -1 0 0
    outer loop
      vertex 36.625 -8.5 -0.845099
      vertex 36.625 65.125 0
      vertex 36.625 8.5 -0.845099
    endloop
  endfacet
  facet normal -1 0 0
    outer loop
      vertex 36.625 -33.8333 -0.845099
      vertex 36.625 -8.5 -0.845099
      vertex 36.625 -33.8333 -1.5549
    endloop
  endfacet
  facet normal -1 0 0
    outer loop
      vertex 36.625 -65.125 0
      vertex 36.625 -8.5 -0.845099
      vertex 36.625 -33.8333 -0.845099
    endloop
  endfacet
  facet normal -1 0 0
    outer loop
      vertex 36.625 -65.125 0
      vertex 36.625 -33.8333 -0.845099
      vertex 36.625 -50.8333 -0.845099
    endloop
  endfacet
  facet normal -1 0 0
    outer loop
      vertex 36.625 -8.5 -0.845099
      vertex 36.625 -65.125 0
      vertex 36.625 65.125 0
    endloop
  endfacet
  facet normal -1 0 0
    outer loop
      vertex 36.625 -65.125 0
      vertex 36.625 -50.8333 -0.845099
      vertex 36.625 -65.125 -1.6
    endloop
  endfacet
  facet normal 1 0 0
    outer loop
      vertex -31.8333 65.3195 -1.04693
      vertex -31.8333 65.3195 -1.35307
      vertex -31.8333 65.35 -1.2
    endloop
  endfacet
  facet normal 1 0 0
    outer loop
      vertex -31.8333 65.125 -0.845099
      vertex -31.8333 65.3195 -1.04693
      vertex -31.8333 65.2328 -0.917157
    endloop
  endfacet
  facet normal 1 0 0
    outer loop
      vertex -31.8333 65.3195 -1.04693
      vertex -31.8333 65.125 -0.845099
      vertex -31.8333 65.3195 -1.35307
    endloop
  endfacet
  facet normal 1 0 0
    outer loop
      vertex -31.8333 65.125 -1.5549
      vertex -31.8333 65.3195 -1.35307
      vertex -31.8333 65.125 -0.845099
    endloop
  endfacet
  facet normal 1 0 0
    outer loop
      vertex -31.8333 65.3195 -1.35307
      vertex -31.8333 65.125 -1.5549
      vertex -31.8333 65.2328 -1.48284
    endloop
  endfacet
  facet normal -1 0 0
    outer loop
      vertex -14.8333 65.3195 -1.35307
      vertex -14.8333 65.3195 -1.04693
      vertex -14.8333 65.35 -1.2
    endloop
  endfacet
  facet normal -1 0 0
    outer loop
      vertex -14.8333 65.125 -1.5549
      vertex -14.8333 65.3195 -1.35307
      vertex -14.8333 65.2328 -1.48284
    endloop
  endfacet
  facet normal -1 -0 0
    outer loop
      vertex -14.8333 65.3195 -1.35307
      vertex -14.8333 65.125 -1.5549
      vertex -14.8333 65.3195 -1.04693
    endloop
  endfacet
  facet normal -1 0 0
    outer loop
      vertex -14.8333 65.125 -0.845099
      vertex -14.8333 65.3195 -1.04693
      vertex -14.8333 65.125 -1.5549
    endloop
  endfacet
  facet normal -1 0 0
    outer loop
      vertex -14.8333 65.3195 -1.04693
      vertex -14.8333 65.125 -0.845099
      vertex -14.8333 65.2328 -0.917157
    endloop
  endfacet
  facet normal 0 -0.555721 -0.831369
    outer loop
      vertex -31.8333 65.125 -0.845099
      vertex -14.8333 65.2328 -0.917157
      vertex -14.8333 65.125 -0.845099
    endloop
  endfacet
  facet normal -0 -0.555721 -0.831369
    outer loop
      vertex -14.8333 65.2328 -0.917157
      vertex -31.8333 65.125 -0.845099
      vertex -31.8333 65.2328 -0.917157
    endloop
  endfacet
  facet normal 0 -0.831504 -0.555519
    outer loop
      vertex -31.8333 65.3195 -1.04693
      vertex -14.8333 65.2328 -0.917157
      vertex -31.8333 65.2328 -0.917157
    endloop
  endfacet
  facet normal 0 -0.831504 -0.555519
    outer loop
      vertex -14.8333 65.2328 -0.917157
      vertex -31.8333 65.3195 -1.04693
      vertex -14.8333 65.3195 -1.04693
    endloop
  endfacet
  facet normal 0 -0.980721 -0.195414
    outer loop
      vertex -31.8333 65.35 -1.2
      vertex -14.8333 65.3195 -1.04693
      vertex -31.8333 65.3195 -1.04693
    endloop
  endfacet
  facet normal 0 -0.980721 -0.195414
    outer loop
      vertex -14.8333 65.3195 -1.04693
      vertex -31.8333 65.35 -1.2
      vertex -14.8333 65.35 -1.2
    endloop
  endfacet
  facet normal 0 -0.831498 0.555528
    outer loop
      vertex -31.8333 65.2328 -1.48284
      vertex -14.8333 65.3195 -1.35307
      vertex -31.8333 65.3195 -1.35307
    endloop
  endfacet
  facet normal 0 -0.831498 0.555528
    outer loop
      vertex -14.8333 65.3195 -1.35307
      vertex -31.8333 65.2328 -1.48284
      vertex -14.8333 65.2328 -1.48284
    endloop
  endfacet
  facet normal 0 -0.980721 0.195414
    outer loop
      vertex -31.8333 65.3195 -1.35307
      vertex -14.8333 65.35 -1.2
      vertex -31.8333 65.35 -1.2
    endloop
  endfacet
  facet normal 0 -0.980721 0.195414
    outer loop
      vertex -14.8333 65.35 -1.2
      vertex -31.8333 65.3195 -1.35307
      vertex -14.8333 65.3195 -1.35307
    endloop
  endfacet
  facet normal 0 -0.555732 0.831361
    outer loop
      vertex -31.8333 65.2328 -1.48284
      vertex -14.8333 65.125 -1.5549
      vertex -14.8333 65.2328 -1.48284
    endloop
  endfacet
  facet normal 0 -0.555732 0.831361
    outer loop
      vertex -14.8333 65.125 -1.5549
      vertex -31.8333 65.2328 -1.48284
      vertex -31.8333 65.125 -1.5549
    endloop
  endfacet
  facet normal 1 0 0
    outer loop
      vertex 14.8333 65.3195 -1.04693
      vertex 14.8333 65.3195 -1.35307
      vertex 14.8333 65.35 -1.2
    endloop
  endfacet
  facet normal 1 0 0
    outer loop
      vertex 14.8333 65.125 -0.845099
      vertex 14.8333 65.3195 -1.04693
      vertex 14.8333 65.2328 -0.917157
    endloop
  endfacet
  facet normal 1 0 0
    outer loop
      vertex 14.8333 65.3195 -1.04693
      vertex 14.8333 65.125 -0.845099
      vertex 14.8333 65.3195 -1.35307
    endloop
  endfacet
  facet normal 1 0 0
    outer loop
      vertex 14.8333 65.125 -1.5549
      vertex 14.8333 65.3195 -1.35307
      vertex 14.8333 65.125 -0.845099
    endloop
  endfacet
  facet normal 1 0 0
    outer loop
      vertex 14.8333 65.3195 -1.35307
      vertex 14.8333 65.125 -1.5549
      vertex 14.8333 65.2328 -1.48284
    endloop
  endfacet
  facet normal -1 0 0
    outer loop
      vertex 31.8333 65.3195 -1.35307
      vertex 31.8333 65.3195 -1.04693
      vertex 31.8333 65.35 -1.2
    endloop
  endfacet
  facet normal -1 0 0
    outer loop
      vertex 31.8333 65.125 -1.5549
      vertex 31.8333 65.3195 -1.35307
      vertex 31.8333 65.2328 -1.48284
    endloop
  endfacet
  facet normal -1 -0 0
    outer loop
      vertex 31.8333 65.3195 -1.35307
      vertex 31.8333 65.125 -1.5549
      vertex 31.8333 65.3195 -1.04693
    endloop
  endfacet
  facet normal -1 0 0
    outer loop
      vertex 31.8333 65.125 -0.845099
      vertex 31.8333 65.3195 -1.04693
      vertex 31.8333 65.125 -1.5549
    endloop
  endfacet
  facet normal -1 0 0
    outer loop
      vertex 31.8333 65.3195 -1.04693
      vertex 31.8333 65.125 -0.845099
      vertex 31.8333 65.2328 -0.917157
    endloop
  endfacet
  facet normal 0 -0.555721 -0.831369
    outer loop
      vertex 14.8333 65.125 -0.845099
      vertex 31.8333 65.2328 -0.917157
      vertex 31.8333 65.125 -0.845099
    endloop
  endfacet
  facet normal -0 -0.555721 -0.831369
    outer loop
      vertex 31.8333 65.2328 -0.917157
      vertex 14.8333 65.125 -0.845099
      vertex 14.8333 65.2328 -0.917157
    endloop
  endfacet
  facet normal 0 -0.831504 -0.555519
    outer loop
      vertex 14.8333 65.3195 -1.04693
      vertex 31.8333 65.2328 -0.917157
      vertex 14.8333 65.2328 -0.917157
    endloop
  endfacet
  facet normal 0 -0.831504 -0.555519
    outer loop
      vertex 31.8333 65.2328 -0.917157
      vertex 14.8333 65.3195 -1.04693
      vertex 31.8333 65.3195 -1.04693
    endloop
  endfacet
  facet normal 0 -0.980721 -0.195414
    outer loop
      vertex 14.8333 65.35 -1.2
      vertex 31.8333 65.3195 -1.04693
      vertex 14.8333 65.3195 -1.04693
    endloop
  endfacet
  facet normal 0 -0.980721 -0.195414
    outer loop
      vertex 31.8333 65.3195 -1.04693
      vertex 14.8333 65.35 -1.2
      vertex 31.8333 65.35 -1.2
    endloop
  endfacet
  facet normal 0 -0.831498 0.555528
    outer loop
      vertex 14.8333 65.2328 -1.48284
      vertex 31.8333 65.3195 -1.35307
      vertex 14.8333 65.3195 -1.35307
    endloop
  endfacet
  facet normal 0 -0.831498 0.555528
    outer loop
      vertex 31.8333 65.3195 -1.35307
      vertex 14.8333 65.2328 -1.48284
      vertex 31.8333 65.2328 -1.48284
    endloop
  endfacet
  facet normal 0 -0.980721 0.195414
    outer loop
      vertex 14.8333 65.3195 -1.35307
      vertex 31.8333 65.35 -1.2
      vertex 14.8333 65.35 -1.2
    endloop
  endfacet
  facet normal 0 -0.980721 0.195414
    outer loop
      vertex 31.8333 65.35 -1.2
      vertex 14.8333 65.3195 -1.35307
      vertex 31.8333 65.3195 -1.35307
    endloop
  endfacet
  facet normal 0 -0.555732 0.831361
    outer loop
      vertex 14.8333 65.2328 -1.48284
      vertex 31.8333 65.125 -1.5549
      vertex 31.8333 65.2328 -1.48284
    endloop
  endfacet
  facet normal 0 -0.555732 0.831361
    outer loop
      vertex 31.8333 65.125 -1.5549
      vertex 14.8333 65.2328 -1.48284
      vertex 14.8333 65.125 -1.5549
    endloop
  endfacet
  facet normal 0 0.831504 -0.555519
    outer loop
      vertex -14.8333 -65.3195 -1.04693
      vertex -31.8333 -65.2328 -0.917157
      vertex -14.8333 -65.2328 -0.917157
    endloop
  endfacet
  facet normal 0 0.831504 -0.555519
    outer loop
      vertex -31.8333 -65.2328 -0.917157
      vertex -14.8333 -65.3195 -1.04693
      vertex -31.8333 -65.3195 -1.04693
    endloop
  endfacet
  facet normal 0 0.831498 0.555528
    outer loop
      vertex -14.8333 -65.2328 -1.48284
      vertex -31.8333 -65.3195 -1.35307
      vertex -14.8333 -65.3195 -1.35307
    endloop
  endfacet
  facet normal 0 0.831498 0.555528
    outer loop
      vertex -31.8333 -65.3195 -1.35307
      vertex -14.8333 -65.2328 -1.48284
      vertex -31.8333 -65.2328 -1.48284
    endloop
  endfacet
  facet normal -1 0 0
    outer loop
      vertex -14.8333 -65.3195 -1.35307
      vertex -14.8333 -65.125 -1.5549
      vertex -14.8333 -65.2328 -1.48284
    endloop
  endfacet
  facet normal -1 0 0
    outer loop
      vertex -14.8333 -65.125 -1.5549
      vertex -14.8333 -65.3195 -1.35307
      vertex -14.8333 -65.125 -0.845099
    endloop
  endfacet
  facet normal -1 0 0
    outer loop
      vertex -14.8333 -65.3195 -1.04693
      vertex -14.8333 -65.125 -0.845099
      vertex -14.8333 -65.3195 -1.35307
    endloop
  endfacet
  facet normal -1 0 0
    outer loop
      vertex -14.8333 -65.125 -0.845099
      vertex -14.8333 -65.3195 -1.04693
      vertex -14.8333 -65.2328 -0.917157
    endloop
  endfacet
  facet normal -1 0 -0
    outer loop
      vertex -14.8333 -65.3195 -1.04693
      vertex -14.8333 -65.3195 -1.35307
      vertex -14.8333 -65.35 -1.2
    endloop
  endfacet
  facet normal -0 0.555732 0.831361
    outer loop
      vertex -31.8333 -65.125 -1.5549
      vertex -14.8333 -65.2328 -1.48284
      vertex -14.8333 -65.125 -1.5549
    endloop
  endfacet
  facet normal 0 0.555732 0.831361
    outer loop
      vertex -14.8333 -65.2328 -1.48284
      vertex -31.8333 -65.125 -1.5549
      vertex -31.8333 -65.2328 -1.48284
    endloop
  endfacet
  facet normal 1 0 0
    outer loop
      vertex -31.8333 -65.3195 -1.04693
      vertex -31.8333 -65.125 -0.845099
      vertex -31.8333 -65.2328 -0.917157
    endloop
  endfacet
  facet normal 1 0 0
    outer loop
      vertex -31.8333 -65.125 -0.845099
      vertex -31.8333 -65.3195 -1.04693
      vertex -31.8333 -65.125 -1.5549
    endloop
  endfacet
  facet normal 1 -0 0
    outer loop
      vertex -31.8333 -65.3195 -1.35307
      vertex -31.8333 -65.125 -1.5549
      vertex -31.8333 -65.3195 -1.04693
    endloop
  endfacet
  facet normal 1 0 0
    outer loop
      vertex -31.8333 -65.125 -1.5549
      vertex -31.8333 -65.3195 -1.35307
      vertex -31.8333 -65.2328 -1.48284
    endloop
  endfacet
  facet normal 1 0 -0
    outer loop
      vertex -31.8333 -65.3195 -1.35307
      vertex -31.8333 -65.3195 -1.04693
      vertex -31.8333 -65.35 -1.2
    endloop
  endfacet
  facet normal 0 0.555721 -0.831369
    outer loop
      vertex -31.8333 -65.2328 -0.917157
      vertex -14.8333 -65.125 -0.845099
      vertex -14.8333 -65.2328 -0.917157
    endloop
  endfacet
  facet normal 0 0.555721 -0.831369
    outer loop
      vertex -14.8333 -65.125 -0.845099
      vertex -31.8333 -65.2328 -0.917157
      vertex -31.8333 -65.125 -0.845099
    endloop
  endfacet
  facet normal 0 0.980721 0.195414
    outer loop
      vertex -14.8333 -65.3195 -1.35307
      vertex -31.8333 -65.35 -1.2
      vertex -14.8333 -65.35 -1.2
    endloop
  endfacet
  facet normal 0 0.980721 0.195414
    outer loop
      vertex -31.8333 -65.35 -1.2
      vertex -14.8333 -65.3195 -1.35307
      vertex -31.8333 -65.3195 -1.35307
    endloop
  endfacet
  facet normal 0 0.980721 -0.195414
    outer loop
      vertex -14.8333 -65.35 -1.2
      vertex -31.8333 -65.3195 -1.04693
      vertex -14.8333 -65.3195 -1.04693
    endloop
  endfacet
  facet normal 0 0.980721 -0.195414
    outer loop
      vertex -31.8333 -65.3195 -1.04693
      vertex -14.8333 -65.35 -1.2
      vertex -31.8333 -65.35 -1.2
    endloop
  endfacet
  facet normal 0 0.831504 -0.555519
    outer loop
      vertex 31.8333 -65.3195 -1.04693
      vertex 14.8333 -65.2328 -0.917157
      vertex 31.8333 -65.2328 -0.917157
    endloop
  endfacet
  facet normal 0 0.831504 -0.555519
    outer loop
      vertex 14.8333 -65.2328 -0.917157
      vertex 31.8333 -65.3195 -1.04693
      vertex 14.8333 -65.3195 -1.04693
    endloop
  endfacet
  facet normal -1 0 0
    outer loop
      vertex 31.8333 -65.3195 -1.35307
      vertex 31.8333 -65.125 -1.5549
      vertex 31.8333 -65.2328 -1.48284
    endloop
  endfacet
  facet normal -1 0 0
    outer loop
      vertex 31.8333 -65.125 -1.5549
      vertex 31.8333 -65.3195 -1.35307
      vertex 31.8333 -65.125 -0.845099
    endloop
  endfacet
  facet normal -1 0 0
    outer loop
      vertex 31.8333 -65.3195 -1.04693
      vertex 31.8333 -65.125 -0.845099
      vertex 31.8333 -65.3195 -1.35307
    endloop
  endfacet
  facet normal -1 0 0
    outer loop
      vertex 31.8333 -65.125 -0.845099
      vertex 31.8333 -65.3195 -1.04693
      vertex 31.8333 -65.2328 -0.917157
    endloop
  endfacet
  facet normal -1 0 -0
    outer loop
      vertex 31.8333 -65.3195 -1.04693
      vertex 31.8333 -65.3195 -1.35307
      vertex 31.8333 -65.35 -1.2
    endloop
  endfacet
  facet normal 0 0.831498 0.555528
    outer loop
      vertex 31.8333 -65.2328 -1.48284
      vertex 14.8333 -65.3195 -1.35307
      vertex 31.8333 -65.3195 -1.35307
    endloop
  endfacet
  facet normal 0 0.831498 0.555528
    outer loop
      vertex 14.8333 -65.3195 -1.35307
      vertex 31.8333 -65.2328 -1.48284
      vertex 14.8333 -65.2328 -1.48284
    endloop
  endfacet
  facet normal -0 0.555732 0.831361
    outer loop
      vertex 14.8333 -65.125 -1.5549
      vertex 31.8333 -65.2328 -1.48284
      vertex 31.8333 -65.125 -1.5549
    endloop
  endfacet
  facet normal 0 0.555732 0.831361
    outer loop
      vertex 31.8333 -65.2328 -1.48284
      vertex 14.8333 -65.125 -1.5549
      vertex 14.8333 -65.2328 -1.48284
    endloop
  endfacet
  facet normal 1 0 0
    outer loop
      vertex 14.8333 -65.3195 -1.04693
      vertex 14.8333 -65.125 -0.845099
      vertex 14.8333 -65.2328 -0.917157
    endloop
  endfacet
  facet normal 1 0 0
    outer loop
      vertex 14.8333 -65.125 -0.845099
      vertex 14.8333 -65.3195 -1.04693
      vertex 14.8333 -65.125 -1.5549
    endloop
  endfacet
  facet normal 1 -0 0
    outer loop
      vertex 14.8333 -65.3195 -1.35307
      vertex 14.8333 -65.125 -1.5549
      vertex 14.8333 -65.3195 -1.04693
    endloop
  endfacet
  facet normal 1 0 0
    outer loop
      vertex 14.8333 -65.125 -1.5549
      vertex 14.8333 -65.3195 -1.35307
      vertex 14.8333 -65.2328 -1.48284
    endloop
  endfacet
  facet normal 1 0 -0
    outer loop
      vertex 14.8333 -65.3195 -1.35307
      vertex 14.8333 -65.3195 -1.04693
      vertex 14.8333 -65.35 -1.2
    endloop
  endfacet
  facet normal 0 0.555721 -0.831369
    outer loop
      vertex 14.8333 -65.2328 -0.917157
      vertex 31.8333 -65.125 -0.845099
      vertex 31.8333 -65.2328 -0.917157
    endloop
  endfacet
  facet normal 0 0.555721 -0.831369
    outer loop
      vertex 31.8333 -65.125 -0.845099
      vertex 14.8333 -65.2328 -0.917157
      vertex 14.8333 -65.125 -0.845099
    endloop
  endfacet
  facet normal 0 0.980721 0.195414
    outer loop
      vertex 31.8333 -65.3195 -1.35307
      vertex 14.8333 -65.35 -1.2
      vertex 31.8333 -65.35 -1.2
    endloop
  endfacet
  facet normal 0 0.980721 0.195414
    outer loop
      vertex 14.8333 -65.35 -1.2
      vertex 31.8333 -65.3195 -1.35307
      vertex 14.8333 -65.3195 -1.35307
    endloop
  endfacet
  facet normal 0 0.980721 -0.195414
    outer loop
      vertex 31.8333 -65.35 -1.2
      vertex 14.8333 -65.3195 -1.04693
      vertex 31.8333 -65.3195 -1.04693
    endloop
  endfacet
  facet normal 0 0.980721 -0.195414
    outer loop
      vertex 14.8333 -65.3195 -1.04693
      vertex 31.8333 -65.35 -1.2
      vertex 14.8333 -65.35 -1.2
    endloop
  endfacet
  facet normal 0 -1 0
    outer loop
      vertex -36.8195 50.8333 -1.04693
      vertex -36.625 50.8333 -0.845099
      vertex -36.7328 50.8333 -0.917157
    endloop
  endfacet
  facet normal 0 -1 0
    outer loop
      vertex -36.85 50.8333 -1.2
      vertex -36.625 50.8333 -0.845099
      vertex -36.8195 50.8333 -1.04693
    endloop
  endfacet
  facet normal 0 -1 0
    outer loop
      vertex -36.8195 50.8333 -1.35307
      vertex -36.625 50.8333 -0.845099
      vertex -36.85 50.8333 -1.2
    endloop
  endfacet
  facet normal 0 -1 0
    outer loop
      vertex -36.625 50.8333 -1.5549
      vertex -36.8195 50.8333 -1.35307
      vertex -36.7328 50.8333 -1.48284
    endloop
  endfacet
  facet normal 0 -1 0
    outer loop
      vertex -36.8195 50.8333 -1.35307
      vertex -36.625 50.8333 -1.5549
      vertex -36.625 50.8333 -0.845099
    endloop
  endfacet
  facet normal 0.555721 0 -0.831369
    outer loop
      vertex -36.7328 33.8333 -0.917157
      vertex -36.625 50.8333 -0.845099
      vertex -36.625 33.8333 -0.845099
    endloop
  endfacet
  facet normal 0.555721 0 -0.831369
    outer loop
      vertex -36.625 50.8333 -0.845099
      vertex -36.7328 33.8333 -0.917157
      vertex -36.7328 50.8333 -0.917157
    endloop
  endfacet
  facet normal 0 1 0
    outer loop
      vertex -36.625 33.8333 -0.845099
      vertex -36.8195 33.8333 -1.04693
      vertex -36.7328 33.8333 -0.917157
    endloop
  endfacet
  facet normal 0 1 0
    outer loop
      vertex -36.625 33.8333 -0.845099
      vertex -36.85 33.8333 -1.2
      vertex -36.8195 33.8333 -1.04693
    endloop
  endfacet
  facet normal 0 1 0
    outer loop
      vertex -36.625 33.8333 -0.845099
      vertex -36.8195 33.8333 -1.35307
      vertex -36.85 33.8333 -1.2
    endloop
  endfacet
  facet normal 0 1 -0
    outer loop
      vertex -36.625 33.8333 -1.5549
      vertex -36.8195 33.8333 -1.35307
      vertex -36.625 33.8333 -0.845099
    endloop
  endfacet
  facet normal 0 1 0
    outer loop
      vertex -36.8195 33.8333 -1.35307
      vertex -36.625 33.8333 -1.5549
      vertex -36.7328 33.8333 -1.48284
    endloop
  endfacet
  facet normal 0.831504 0 -0.555519
    outer loop
      vertex -36.7328 33.8333 -0.917157
      vertex -36.8195 50.8333 -1.04693
      vertex -36.7328 50.8333 -0.917157
    endloop
  endfacet
  facet normal 0.831504 0 -0.555519
    outer loop
      vertex -36.8195 50.8333 -1.04693
      vertex -36.7328 33.8333 -0.917157
      vertex -36.8195 33.8333 -1.04693
    endloop
  endfacet
  facet normal 0.555732 0 0.831361
    outer loop
      vertex -36.7328 50.8333 -1.48284
      vertex -36.625 33.8333 -1.5549
      vertex -36.625 50.8333 -1.5549
    endloop
  endfacet
  facet normal 0.555732 0 0.831361
    outer loop
      vertex -36.625 33.8333 -1.5549
      vertex -36.7328 50.8333 -1.48284
      vertex -36.7328 33.8333 -1.48284
    endloop
  endfacet
  facet normal 0.980721 -0 0.195414
    outer loop
      vertex -36.85 33.8333 -1.2
      vertex -36.8195 50.8333 -1.35307
      vertex -36.85 50.8333 -1.2
    endloop
  endfacet
  facet normal 0.980721 0 0.195414
    outer loop
      vertex -36.8195 50.8333 -1.35307
      vertex -36.85 33.8333 -1.2
      vertex -36.8195 33.8333 -1.35307
    endloop
  endfacet
  facet normal 0.980721 0 -0.195414
    outer loop
      vertex -36.8195 33.8333 -1.04693
      vertex -36.85 50.8333 -1.2
      vertex -36.8195 50.8333 -1.04693
    endloop
  endfacet
  facet normal 0.980721 0 -0.195414
    outer loop
      vertex -36.85 50.8333 -1.2
      vertex -36.8195 33.8333 -1.04693
      vertex -36.85 33.8333 -1.2
    endloop
  endfacet
  facet normal 0.831498 -0 0.555528
    outer loop
      vertex -36.8195 33.8333 -1.35307
      vertex -36.7328 50.8333 -1.48284
      vertex -36.8195 50.8333 -1.35307
    endloop
  endfacet
  facet normal 0.831498 0 0.555528
    outer loop
      vertex -36.7328 50.8333 -1.48284
      vertex -36.8195 33.8333 -1.35307
      vertex -36.7328 33.8333 -1.48284
    endloop
  endfacet
  facet normal 0 -1 0
    outer loop
      vertex -36.8195 -33.8333 -1.04693
      vertex -36.625 -33.8333 -0.845099
      vertex -36.7328 -33.8333 -0.917157
    endloop
  endfacet
  facet normal 0 -1 0
    outer loop
      vertex -36.85 -33.8333 -1.2
      vertex -36.625 -33.8333 -0.845099
      vertex -36.8195 -33.8333 -1.04693
    endloop
  endfacet
  facet normal 0 -1 0
    outer loop
      vertex -36.8195 -33.8333 -1.35307
      vertex -36.625 -33.8333 -0.845099
      vertex -36.85 -33.8333 -1.2
    endloop
  endfacet
  facet normal 0 -1 0
    outer loop
      vertex -36.625 -33.8333 -1.5549
      vertex -36.8195 -33.8333 -1.35307
      vertex -36.7328 -33.8333 -1.48284
    endloop
  endfacet
  facet normal 0 -1 0
    outer loop
      vertex -36.8195 -33.8333 -1.35307
      vertex -36.625 -33.8333 -1.5549
      vertex -36.625 -33.8333 -0.845099
    endloop
  endfacet
  facet normal 0.555721 0 -0.831369
    outer loop
      vertex -36.7328 -50.8333 -0.917157
      vertex -36.625 -33.8333 -0.845099
      vertex -36.625 -50.8333 -0.845099
    endloop
  endfacet
  facet normal 0.555721 0 -0.831369
    outer loop
      vertex -36.625 -33.8333 -0.845099
      vertex -36.7328 -50.8333 -0.917157
      vertex -36.7328 -33.8333 -0.917157
    endloop
  endfacet
  facet normal 0 1 0
    outer loop
      vertex -36.625 -50.8333 -0.845099
      vertex -36.8195 -50.8333 -1.04693
      vertex -36.7328 -50.8333 -0.917157
    endloop
  endfacet
  facet normal 0 1 0
    outer loop
      vertex -36.625 -50.8333 -0.845099
      vertex -36.85 -50.8333 -1.2
      vertex -36.8195 -50.8333 -1.04693
    endloop
  endfacet
  facet normal 0 1 0
    outer loop
      vertex -36.625 -50.8333 -0.845099
      vertex -36.8195 -50.8333 -1.35307
      vertex -36.85 -50.8333 -1.2
    endloop
  endfacet
  facet normal 0 1 -0
    outer loop
      vertex -36.625 -50.8333 -1.5549
      vertex -36.8195 -50.8333 -1.35307
      vertex -36.625 -50.8333 -0.845099
    endloop
  endfacet
  facet normal 0 1 0
    outer loop
      vertex -36.8195 -50.8333 -1.35307
      vertex -36.625 -50.8333 -1.5549
      vertex -36.7328 -50.8333 -1.48284
    endloop
  endfacet
  facet normal 0.831504 0 -0.555519
    outer loop
      vertex -36.7328 -50.8333 -0.917157
      vertex -36.8195 -33.8333 -1.04693
      vertex -36.7328 -33.8333 -0.917157
    endloop
  endfacet
  facet normal 0.831504 0 -0.555519
    outer loop
      vertex -36.8195 -33.8333 -1.04693
      vertex -36.7328 -50.8333 -0.917157
      vertex -36.8195 -50.8333 -1.04693
    endloop
  endfacet
  facet normal 0.555732 0 0.831361
    outer loop
      vertex -36.7328 -33.8333 -1.48284
      vertex -36.625 -50.8333 -1.5549
      vertex -36.625 -33.8333 -1.5549
    endloop
  endfacet
  facet normal 0.555732 0 0.831361
    outer loop
      vertex -36.625 -50.8333 -1.5549
      vertex -36.7328 -33.8333 -1.48284
      vertex -36.7328 -50.8333 -1.48284
    endloop
  endfacet
  facet normal 0.980721 -0 0.195414
    outer loop
      vertex -36.85 -50.8333 -1.2
      vertex -36.8195 -33.8333 -1.35307
      vertex -36.85 -33.8333 -1.2
    endloop
  endfacet
  facet normal 0.980721 0 0.195414
    outer loop
      vertex -36.8195 -33.8333 -1.35307
      vertex -36.85 -50.8333 -1.2
      vertex -36.8195 -50.8333 -1.35307
    endloop
  endfacet
  facet normal 0.831498 -0 0.555528
    outer loop
      vertex -36.8195 -50.8333 -1.35307
      vertex -36.7328 -33.8333 -1.48284
      vertex -36.8195 -33.8333 -1.35307
    endloop
  endfacet
  facet normal 0.831498 0 0.555528
    outer loop
      vertex -36.7328 -33.8333 -1.48284
      vertex -36.8195 -50.8333 -1.35307
      vertex -36.7328 -50.8333 -1.48284
    endloop
  endfacet
  facet normal 0.980721 0 -0.195414
    outer loop
      vertex -36.8195 -50.8333 -1.04693
      vertex -36.85 -33.8333 -1.2
      vertex -36.8195 -33.8333 -1.04693
    endloop
  endfacet
  facet normal 0.980721 0 -0.195414
    outer loop
      vertex -36.85 -33.8333 -1.2
      vertex -36.8195 -50.8333 -1.04693
      vertex -36.85 -50.8333 -1.2
    endloop
  endfacet
  facet normal -0.980721 0 0.195414
    outer loop
      vertex 36.8195 33.8333 -1.35307
      vertex 36.85 50.8333 -1.2
      vertex 36.8195 50.8333 -1.35307
    endloop
  endfacet
  facet normal -0.980721 0 0.195414
    outer loop
      vertex 36.85 50.8333 -1.2
      vertex 36.8195 33.8333 -1.35307
      vertex 36.85 33.8333 -1.2
    endloop
  endfacet
  facet normal -0.980721 0 -0.195414
    outer loop
      vertex 36.85 33.8333 -1.2
      vertex 36.8195 50.8333 -1.04693
      vertex 36.85 50.8333 -1.2
    endloop
  endfacet
  facet normal -0.980721 -0 -0.195414
    outer loop
      vertex 36.8195 50.8333 -1.04693
      vertex 36.85 33.8333 -1.2
      vertex 36.8195 33.8333 -1.04693
    endloop
  endfacet
  facet normal -0.831498 0 0.555528
    outer loop
      vertex 36.7328 33.8333 -1.48284
      vertex 36.8195 50.8333 -1.35307
      vertex 36.7328 50.8333 -1.48284
    endloop
  endfacet
  facet normal -0.831498 0 0.555528
    outer loop
      vertex 36.8195 50.8333 -1.35307
      vertex 36.7328 33.8333 -1.48284
      vertex 36.8195 33.8333 -1.35307
    endloop
  endfacet
  facet normal -0.831504 0 -0.555519
    outer loop
      vertex 36.8195 33.8333 -1.04693
      vertex 36.7328 50.8333 -0.917157
      vertex 36.8195 50.8333 -1.04693
    endloop
  endfacet
  facet normal -0.831504 -0 -0.555519
    outer loop
      vertex 36.7328 50.8333 -0.917157
      vertex 36.8195 33.8333 -1.04693
      vertex 36.7328 33.8333 -0.917157
    endloop
  endfacet
  facet normal -0.555721 0 -0.831369
    outer loop
      vertex 36.625 33.8333 -0.845099
      vertex 36.7328 50.8333 -0.917157
      vertex 36.7328 33.8333 -0.917157
    endloop
  endfacet
  facet normal -0.555721 0 -0.831369
    outer loop
      vertex 36.7328 50.8333 -0.917157
      vertex 36.625 33.8333 -0.845099
      vertex 36.625 50.8333 -0.845099
    endloop
  endfacet
  facet normal -0.555732 0 0.831361
    outer loop
      vertex 36.625 50.8333 -1.5549
      vertex 36.7328 33.8333 -1.48284
      vertex 36.7328 50.8333 -1.48284
    endloop
  endfacet
  facet normal -0.555732 0 0.831361
    outer loop
      vertex 36.7328 33.8333 -1.48284
      vertex 36.625 50.8333 -1.5549
      vertex 36.625 33.8333 -1.5549
    endloop
  endfacet
  facet normal 0 -1 0
    outer loop
      vertex 36.625 50.8333 -0.845099
      vertex 36.8195 50.8333 -1.04693
      vertex 36.7328 50.8333 -0.917157
    endloop
  endfacet
  facet normal 0 -1 0
    outer loop
      vertex 36.625 50.8333 -0.845099
      vertex 36.85 50.8333 -1.2
      vertex 36.8195 50.8333 -1.04693
    endloop
  endfacet
  facet normal 0 -1 0
    outer loop
      vertex 36.625 50.8333 -0.845099
      vertex 36.8195 50.8333 -1.35307
      vertex 36.85 50.8333 -1.2
    endloop
  endfacet
  facet normal 0 -1 0
    outer loop
      vertex 36.625 50.8333 -1.5549
      vertex 36.8195 50.8333 -1.35307
      vertex 36.625 50.8333 -0.845099
    endloop
  endfacet
  facet normal 0 -1 0
    outer loop
      vertex 36.8195 50.8333 -1.35307
      vertex 36.625 50.8333 -1.5549
      vertex 36.7328 50.8333 -1.48284
    endloop
  endfacet
  facet normal 0 1 0
    outer loop
      vertex 36.8195 33.8333 -1.04693
      vertex 36.625 33.8333 -0.845099
      vertex 36.7328 33.8333 -0.917157
    endloop
  endfacet
  facet normal 0 1 0
    outer loop
      vertex 36.85 33.8333 -1.2
      vertex 36.625 33.8333 -0.845099
      vertex 36.8195 33.8333 -1.04693
    endloop
  endfacet
  facet normal 0 1 -0
    outer loop
      vertex 36.8195 33.8333 -1.35307
      vertex 36.625 33.8333 -0.845099
      vertex 36.85 33.8333 -1.2
    endloop
  endfacet
  facet normal 0 1 0
    outer loop
      vertex 36.625 33.8333 -1.5549
      vertex 36.8195 33.8333 -1.35307
      vertex 36.7328 33.8333 -1.48284
    endloop
  endfacet
  facet normal 0 1 0
    outer loop
      vertex 36.8195 33.8333 -1.35307
      vertex 36.625 33.8333 -1.5549
      vertex 36.625 33.8333 -0.845099
    endloop
  endfacet
  facet normal -0.980721 0 0.195414
    outer loop
      vertex 36.8195 -50.8333 -1.35307
      vertex 36.85 -33.8333 -1.2
      vertex 36.8195 -33.8333 -1.35307
    endloop
  endfacet
  facet normal -0.980721 0 0.195414
    outer loop
      vertex 36.85 -33.8333 -1.2
      vertex 36.8195 -50.8333 -1.35307
      vertex 36.85 -50.8333 -1.2
    endloop
  endfacet
  facet normal -0.980721 0 -0.195414
    outer loop
      vertex 36.85 -50.8333 -1.2
      vertex 36.8195 -33.8333 -1.04693
      vertex 36.85 -33.8333 -1.2
    endloop
  endfacet
  facet normal -0.980721 -0 -0.195414
    outer loop
      vertex 36.8195 -33.8333 -1.04693
      vertex 36.85 -50.8333 -1.2
      vertex 36.8195 -50.8333 -1.04693
    endloop
  endfacet
  facet normal -0.831498 0 0.555528
    outer loop
      vertex 36.7328 -50.8333 -1.48284
      vertex 36.8195 -33.8333 -1.35307
      vertex 36.7328 -33.8333 -1.48284
    endloop
  endfacet
  facet normal -0.831498 0 0.555528
    outer loop
      vertex 36.8195 -33.8333 -1.35307
      vertex 36.7328 -50.8333 -1.48284
      vertex 36.8195 -50.8333 -1.35307
    endloop
  endfacet
  facet normal -0.831504 0 -0.555519
    outer loop
      vertex 36.8195 -50.8333 -1.04693
      vertex 36.7328 -33.8333 -0.917157
      vertex 36.8195 -33.8333 -1.04693
    endloop
  endfacet
  facet normal -0.831504 -0 -0.555519
    outer loop
      vertex 36.7328 -33.8333 -0.917157
      vertex 36.8195 -50.8333 -1.04693
      vertex 36.7328 -50.8333 -0.917157
    endloop
  endfacet
  facet normal -0.555721 0 -0.831369
    outer loop
      vertex 36.625 -50.8333 -0.845099
      vertex 36.7328 -33.8333 -0.917157
      vertex 36.7328 -50.8333 -0.917157
    endloop
  endfacet
  facet normal -0.555721 0 -0.831369
    outer loop
      vertex 36.7328 -33.8333 -0.917157
      vertex 36.625 -50.8333 -0.845099
      vertex 36.625 -33.8333 -0.845099
    endloop
  endfacet
  facet normal -0.555732 0 0.831361
    outer loop
      vertex 36.625 -33.8333 -1.5549
      vertex 36.7328 -50.8333 -1.48284
      vertex 36.7328 -33.8333 -1.48284
    endloop
  endfacet
  facet normal -0.555732 0 0.831361
    outer loop
      vertex 36.7328 -50.8333 -1.48284
      vertex 36.625 -33.8333 -1.5549
      vertex 36.625 -50.8333 -1.5549
    endloop
  endfacet
  facet normal 0 -1 0
    outer loop
      vertex 36.625 -33.8333 -0.845099
      vertex 36.8195 -33.8333 -1.04693
      vertex 36.7328 -33.8333 -0.917157
    endloop
  endfacet
  facet normal 0 -1 0
    outer loop
      vertex 36.625 -33.8333 -0.845099
      vertex 36.85 -33.8333 -1.2
      vertex 36.8195 -33.8333 -1.04693
    endloop
  endfacet
  facet normal 0 -1 0
    outer loop
      vertex 36.625 -33.8333 -0.845099
      vertex 36.8195 -33.8333 -1.35307
      vertex 36.85 -33.8333 -1.2
    endloop
  endfacet
  facet normal 0 -1 0
    outer loop
      vertex 36.625 -33.8333 -1.5549
      vertex 36.8195 -33.8333 -1.35307
      vertex 36.625 -33.8333 -0.845099
    endloop
  endfacet
  facet normal 0 -1 0
    outer loop
      vertex 36.8195 -33.8333 -1.35307
      vertex 36.625 -33.8333 -1.5549
      vertex 36.7328 -33.8333 -1.48284
    endloop
  endfacet
  facet normal 0 1 0
    outer loop
      vertex 36.8195 -50.8333 -1.04693
      vertex 36.625 -50.8333 -0.845099
      vertex 36.7328 -50.8333 -0.917157
    endloop
  endfacet
  facet normal 0 1 0
    outer loop
      vertex 36.85 -50.8333 -1.2
      vertex 36.625 -50.8333 -0.845099
      vertex 36.8195 -50.8333 -1.04693
    endloop
  endfacet
  facet normal 0 1 -0
    outer loop
      vertex 36.8195 -50.8333 -1.35307
      vertex 36.625 -50.8333 -0.845099
      vertex 36.85 -50.8333 -1.2
    endloop
  endfacet
  facet normal 0 1 0
    outer loop
      vertex 36.625 -50.8333 -1.5549
      vertex 36.8195 -50.8333 -1.35307
      vertex 36.7328 -50.8333 -1.48284
    endloop
  endfacet
  facet normal 0 1 0
    outer loop
      vertex 36.8195 -50.8333 -1.35307
      vertex 36.625 -50.8333 -1.5549
      vertex 36.625 -50.8333 -0.845099
    endloop
  endfacet
  facet normal 0 -1 0
    outer loop
      vertex -36.8195 8.5 -1.04693
      vertex -36.625 8.5 -0.845099
      vertex -36.7328 8.5 -0.917157
    endloop
  endfacet
  facet normal 0 -1 0
    outer loop
      vertex -36.85 8.5 -1.2
      vertex -36.625 8.5 -0.845099
      vertex -36.8195 8.5 -1.04693
    endloop
  endfacet
  facet normal 0 -1 0
    outer loop
      vertex -36.8195 8.5 -1.35307
      vertex -36.625 8.5 -0.845099
      vertex -36.85 8.5 -1.2
    endloop
  endfacet
  facet normal 0 -1 0
    outer loop
      vertex -36.625 8.5 -1.5549
      vertex -36.8195 8.5 -1.35307
      vertex -36.7328 8.5 -1.48284
    endloop
  endfacet
  facet normal 0 -1 0
    outer loop
      vertex -36.8195 8.5 -1.35307
      vertex -36.625 8.5 -1.5549
      vertex -36.625 8.5 -0.845099
    endloop
  endfacet
  facet normal 0.555721 0 -0.831369
    outer loop
      vertex -36.7328 -8.5 -0.917157
      vertex -36.625 8.5 -0.845099
      vertex -36.625 -8.5 -0.845099
    endloop
  endfacet
  facet normal 0.555721 0 -0.831369
    outer loop
      vertex -36.625 8.5 -0.845099
      vertex -36.7328 -8.5 -0.917157
      vertex -36.7328 8.5 -0.917157
    endloop
  endfacet
  facet normal 0 1 0
    outer loop
      vertex -36.625 -8.5 -0.845099
      vertex -36.8195 -8.5 -1.04693
      vertex -36.7328 -8.5 -0.917157
    endloop
  endfacet
  facet normal 0 1 0
    outer loop
      vertex -36.625 -8.5 -0.845099
      vertex -36.85 -8.5 -1.2
      vertex -36.8195 -8.5 -1.04693
    endloop
  endfacet
  facet normal 0 1 0
    outer loop
      vertex -36.625 -8.5 -0.845099
      vertex -36.8195 -8.5 -1.35307
      vertex -36.85 -8.5 -1.2
    endloop
  endfacet
  facet normal 0 1 -0
    outer loop
      vertex -36.625 -8.5 -1.5549
      vertex -36.8195 -8.5 -1.35307
      vertex -36.625 -8.5 -0.845099
    endloop
  endfacet
  facet normal 0 1 0
    outer loop
      vertex -36.8195 -8.5 -1.35307
      vertex -36.625 -8.5 -1.5549
      vertex -36.7328 -8.5 -1.48284
    endloop
  endfacet
  facet normal 0.831504 0 -0.555519
    outer loop
      vertex -36.7328 -8.5 -0.917157
      vertex -36.8195 8.5 -1.04693
      vertex -36.7328 8.5 -0.917157
    endloop
  endfacet
  facet normal 0.831504 0 -0.555519
    outer loop
      vertex -36.8195 8.5 -1.04693
      vertex -36.7328 -8.5 -0.917157
      vertex -36.8195 -8.5 -1.04693
    endloop
  endfacet
  facet normal 0.555732 0 0.831361
    outer loop
      vertex -36.7328 8.5 -1.48284
      vertex -36.625 -8.5 -1.5549
      vertex -36.625 8.5 -1.5549
    endloop
  endfacet
  facet normal 0.555732 0 0.831361
    outer loop
      vertex -36.625 -8.5 -1.5549
      vertex -36.7328 8.5 -1.48284
      vertex -36.7328 -8.5 -1.48284
    endloop
  endfacet
  facet normal 0.980721 -0 0.195414
    outer loop
      vertex -36.85 -8.5 -1.2
      vertex -36.8195 8.5 -1.35307
      vertex -36.85 8.5 -1.2
    endloop
  endfacet
  facet normal 0.980721 0 0.195414
    outer loop
      vertex -36.8195 8.5 -1.35307
      vertex -36.85 -8.5 -1.2
      vertex -36.8195 -8.5 -1.35307
    endloop
  endfacet
  facet normal 0.831498 -0 0.555528
    outer loop
      vertex -36.8195 -8.5 -1.35307
      vertex -36.7328 8.5 -1.48284
      vertex -36.8195 8.5 -1.35307
    endloop
  endfacet
  facet normal 0.831498 0 0.555528
    outer loop
      vertex -36.7328 8.5 -1.48284
      vertex -36.8195 -8.5 -1.35307
      vertex -36.7328 -8.5 -1.48284
    endloop
  endfacet
  facet normal 0.980721 0 -0.195414
    outer loop
      vertex -36.8195 -8.5 -1.04693
      vertex -36.85 8.5 -1.2
      vertex -36.8195 8.5 -1.04693
    endloop
  endfacet
  facet normal 0.980721 0 -0.195414
    outer loop
      vertex -36.85 8.5 -1.2
      vertex -36.8195 -8.5 -1.04693
      vertex -36.85 -8.5 -1.2
    endloop
  endfacet
  facet normal -0.831498 0 0.555528
    outer loop
      vertex 36.7328 -8.5 -1.48284
      vertex 36.8195 8.5 -1.35307
      vertex 36.7328 8.5 -1.48284
    endloop
  endfacet
  facet normal -0.831498 0 0.555528
    outer loop
      vertex 36.8195 8.5 -1.35307
      vertex 36.7328 -8.5 -1.48284
      vertex 36.8195 -8.5 -1.35307
    endloop
  endfacet
  facet normal -0.980721 0 0.195414
    outer loop
      vertex 36.8195 -8.5 -1.35307
      vertex 36.85 8.5 -1.2
      vertex 36.8195 8.5 -1.35307
    endloop
  endfacet
  facet normal -0.980721 0 0.195414
    outer loop
      vertex 36.85 8.5 -1.2
      vertex 36.8195 -8.5 -1.35307
      vertex 36.85 -8.5 -1.2
    endloop
  endfacet
  facet normal -0.555732 0 0.831361
    outer loop
      vertex 36.625 8.5 -1.5549
      vertex 36.7328 -8.5 -1.48284
      vertex 36.7328 8.5 -1.48284
    endloop
  endfacet
  facet normal -0.555732 0 0.831361
    outer loop
      vertex 36.7328 -8.5 -1.48284
      vertex 36.625 8.5 -1.5549
      vertex 36.625 -8.5 -1.5549
    endloop
  endfacet
  facet normal -0.980721 0 -0.195414
    outer loop
      vertex 36.85 -8.5 -1.2
      vertex 36.8195 8.5 -1.04693
      vertex 36.85 8.5 -1.2
    endloop
  endfacet
  facet normal -0.980721 -0 -0.195414
    outer loop
      vertex 36.8195 8.5 -1.04693
      vertex 36.85 -8.5 -1.2
      vertex 36.8195 -8.5 -1.04693
    endloop
  endfacet
  facet normal -0.831504 0 -0.555519
    outer loop
      vertex 36.8195 -8.5 -1.04693
      vertex 36.7328 8.5 -0.917157
      vertex 36.8195 8.5 -1.04693
    endloop
  endfacet
  facet normal -0.831504 -0 -0.555519
    outer loop
      vertex 36.7328 8.5 -0.917157
      vertex 36.8195 -8.5 -1.04693
      vertex 36.7328 -8.5 -0.917157
    endloop
  endfacet
  facet normal 0 1 0
    outer loop
      vertex 36.8195 -8.5 -1.04693
      vertex 36.625 -8.5 -0.845099
      vertex 36.7328 -8.5 -0.917157
    endloop
  endfacet
  facet normal 0 1 0
    outer loop
      vertex 36.85 -8.5 -1.2
      vertex 36.625 -8.5 -0.845099
      vertex 36.8195 -8.5 -1.04693
    endloop
  endfacet
  facet normal 0 1 -0
    outer loop
      vertex 36.8195 -8.5 -1.35307
      vertex 36.625 -8.5 -0.845099
      vertex 36.85 -8.5 -1.2
    endloop
  endfacet
  facet normal 0 1 0
    outer loop
      vertex 36.625 -8.5 -1.5549
      vertex 36.8195 -8.5 -1.35307
      vertex 36.7328 -8.5 -1.48284
    endloop
  endfacet
  facet normal 0 1 0
    outer loop
      vertex 36.8195 -8.5 -1.35307
      vertex 36.625 -8.5 -1.5549
      vertex 36.625 -8.5 -0.845099
    endloop
  endfacet
  facet normal -0.555721 0 -0.831369
    outer loop
      vertex 36.625 -8.5 -0.845099
      vertex 36.7328 8.5 -0.917157
      vertex 36.7328 -8.5 -0.917157
    endloop
  endfacet
  facet normal -0.555721 0 -0.831369
    outer loop
      vertex 36.7328 8.5 -0.917157
      vertex 36.625 -8.5 -0.845099
      vertex 36.625 8.5 -0.845099
    endloop
  endfacet
  facet normal 0 -1 0
    outer loop
      vertex 36.625 8.5 -0.845099
      vertex 36.8195 8.5 -1.04693
      vertex 36.7328 8.5 -0.917157
    endloop
  endfacet
  facet normal 0 -1 0
    outer loop
      vertex 36.625 8.5 -0.845099
      vertex 36.85 8.5 -1.2
      vertex 36.8195 8.5 -1.04693
    endloop
  endfacet
  facet normal 0 -1 0
    outer loop
      vertex 36.625 8.5 -0.845099
      vertex 36.8195 8.5 -1.35307
      vertex 36.85 8.5 -1.2
    endloop
  endfacet
  facet normal 0 -1 0
    outer loop
      vertex 36.625 8.5 -1.5549
      vertex 36.8195 8.5 -1.35307
      vertex 36.625 8.5 -0.845099
    endloop
  endfacet
  facet normal 0 -1 0
    outer loop
      vertex 36.8195 8.5 -1.35307
      vertex 36.625 8.5 -1.5549
      vertex 36.7328 8.5 -1.48284
    endloop
  endfacet
  facet normal 1 -0 0
    outer loop
      vertex -32 11.5 0
      vertex -32 52.9167 -5.5
      vertex -32 52.9167 0
    endloop
  endfacet
  facet normal 1 0 0
    outer loop
      vertex -32 52.9167 -5.5
      vertex -32 11.5 0
      vertex -32 11.5 -5.5
    endloop
  endfacet
  facet normal 0 1 -0
    outer loop
      vertex -32 52.9167 -5.5
      vertex -35 52.9167 0
      vertex -32 52.9167 0
    endloop
  endfacet
  facet normal 0 1 0
    outer loop
      vertex -35 52.9167 0
      vertex -32 52.9167 -5.5
      vertex -35 52.9167 -5.5
    endloop
  endfacet
endsolid OpenSCAD_Model
