G04 #@! TF.GenerationSoftware,KiCad,Pcbnew,5.1.5+dfsg1-2build2*
G04 #@! TF.CreationDate,2021-04-12T22:06:22+02:00*
G04 #@! TF.ProjectId,calc,63616c63-2e6b-4696-9361-645f70636258,rev?*
G04 #@! TF.SameCoordinates,Original*
G04 #@! TF.FileFunction,Paste,Bot*
G04 #@! TF.FilePolarity,Positive*
%FSLAX46Y46*%
G04 Gerber Fmt 4.6, Leading zero omitted, Abs format (unit mm)*
G04 Created by KiCad (PCBNEW 5.1.5+dfsg1-2build2) date 2021-04-12 22:06:22*
%MOMM*%
%LPD*%
G04 APERTURE LIST*
%ADD10C,0.100000*%
%ADD11R,3.200000X1.000000*%
%ADD12R,3.600000X2.600000*%
%ADD13R,0.900000X0.400000*%
%ADD14R,1.050000X1.100000*%
G04 APERTURE END LIST*
D10*
G36*
X94685779Y-71281144D02*
G01*
X94708834Y-71284563D01*
X94731443Y-71290227D01*
X94753387Y-71298079D01*
X94774457Y-71308044D01*
X94794448Y-71320026D01*
X94813168Y-71333910D01*
X94830438Y-71349562D01*
X94846090Y-71366832D01*
X94859974Y-71385552D01*
X94871956Y-71405543D01*
X94881921Y-71426613D01*
X94889773Y-71448557D01*
X94895437Y-71471166D01*
X94898856Y-71494221D01*
X94900000Y-71517500D01*
X94900000Y-71992500D01*
X94898856Y-72015779D01*
X94895437Y-72038834D01*
X94889773Y-72061443D01*
X94881921Y-72083387D01*
X94871956Y-72104457D01*
X94859974Y-72124448D01*
X94846090Y-72143168D01*
X94830438Y-72160438D01*
X94813168Y-72176090D01*
X94794448Y-72189974D01*
X94774457Y-72201956D01*
X94753387Y-72211921D01*
X94731443Y-72219773D01*
X94708834Y-72225437D01*
X94685779Y-72228856D01*
X94662500Y-72230000D01*
X94087500Y-72230000D01*
X94064221Y-72228856D01*
X94041166Y-72225437D01*
X94018557Y-72219773D01*
X93996613Y-72211921D01*
X93975543Y-72201956D01*
X93955552Y-72189974D01*
X93936832Y-72176090D01*
X93919562Y-72160438D01*
X93903910Y-72143168D01*
X93890026Y-72124448D01*
X93878044Y-72104457D01*
X93868079Y-72083387D01*
X93860227Y-72061443D01*
X93854563Y-72038834D01*
X93851144Y-72015779D01*
X93850000Y-71992500D01*
X93850000Y-71517500D01*
X93851144Y-71494221D01*
X93854563Y-71471166D01*
X93860227Y-71448557D01*
X93868079Y-71426613D01*
X93878044Y-71405543D01*
X93890026Y-71385552D01*
X93903910Y-71366832D01*
X93919562Y-71349562D01*
X93936832Y-71333910D01*
X93955552Y-71320026D01*
X93975543Y-71308044D01*
X93996613Y-71298079D01*
X94018557Y-71290227D01*
X94041166Y-71284563D01*
X94064221Y-71281144D01*
X94087500Y-71280000D01*
X94662500Y-71280000D01*
X94685779Y-71281144D01*
G37*
G36*
X96435779Y-71281144D02*
G01*
X96458834Y-71284563D01*
X96481443Y-71290227D01*
X96503387Y-71298079D01*
X96524457Y-71308044D01*
X96544448Y-71320026D01*
X96563168Y-71333910D01*
X96580438Y-71349562D01*
X96596090Y-71366832D01*
X96609974Y-71385552D01*
X96621956Y-71405543D01*
X96631921Y-71426613D01*
X96639773Y-71448557D01*
X96645437Y-71471166D01*
X96648856Y-71494221D01*
X96650000Y-71517500D01*
X96650000Y-71992500D01*
X96648856Y-72015779D01*
X96645437Y-72038834D01*
X96639773Y-72061443D01*
X96631921Y-72083387D01*
X96621956Y-72104457D01*
X96609974Y-72124448D01*
X96596090Y-72143168D01*
X96580438Y-72160438D01*
X96563168Y-72176090D01*
X96544448Y-72189974D01*
X96524457Y-72201956D01*
X96503387Y-72211921D01*
X96481443Y-72219773D01*
X96458834Y-72225437D01*
X96435779Y-72228856D01*
X96412500Y-72230000D01*
X95837500Y-72230000D01*
X95814221Y-72228856D01*
X95791166Y-72225437D01*
X95768557Y-72219773D01*
X95746613Y-72211921D01*
X95725543Y-72201956D01*
X95705552Y-72189974D01*
X95686832Y-72176090D01*
X95669562Y-72160438D01*
X95653910Y-72143168D01*
X95640026Y-72124448D01*
X95628044Y-72104457D01*
X95618079Y-72083387D01*
X95610227Y-72061443D01*
X95604563Y-72038834D01*
X95601144Y-72015779D01*
X95600000Y-71992500D01*
X95600000Y-71517500D01*
X95601144Y-71494221D01*
X95604563Y-71471166D01*
X95610227Y-71448557D01*
X95618079Y-71426613D01*
X95628044Y-71405543D01*
X95640026Y-71385552D01*
X95653910Y-71366832D01*
X95669562Y-71349562D01*
X95686832Y-71333910D01*
X95705552Y-71320026D01*
X95725543Y-71308044D01*
X95746613Y-71298079D01*
X95768557Y-71290227D01*
X95791166Y-71284563D01*
X95814221Y-71281144D01*
X95837500Y-71280000D01*
X96412500Y-71280000D01*
X96435779Y-71281144D01*
G37*
D11*
X80235000Y-37370000D03*
X73435000Y-37370000D03*
X73435000Y-41370000D03*
X80235000Y-41370000D03*
D10*
G36*
X79487351Y-63410361D02*
G01*
X79494632Y-63411441D01*
X79501771Y-63413229D01*
X79508701Y-63415709D01*
X79515355Y-63418856D01*
X79521668Y-63422640D01*
X79527579Y-63427024D01*
X79533033Y-63431967D01*
X79537976Y-63437421D01*
X79542360Y-63443332D01*
X79546144Y-63449645D01*
X79549291Y-63456299D01*
X79551771Y-63463229D01*
X79553559Y-63470368D01*
X79554639Y-63477649D01*
X79555000Y-63485000D01*
X79555000Y-63635000D01*
X79554639Y-63642351D01*
X79553559Y-63649632D01*
X79551771Y-63656771D01*
X79549291Y-63663701D01*
X79546144Y-63670355D01*
X79542360Y-63676668D01*
X79537976Y-63682579D01*
X79533033Y-63688033D01*
X79527579Y-63692976D01*
X79521668Y-63697360D01*
X79515355Y-63701144D01*
X79508701Y-63704291D01*
X79501771Y-63706771D01*
X79494632Y-63708559D01*
X79487351Y-63709639D01*
X79480000Y-63710000D01*
X78080000Y-63710000D01*
X78072649Y-63709639D01*
X78065368Y-63708559D01*
X78058229Y-63706771D01*
X78051299Y-63704291D01*
X78044645Y-63701144D01*
X78038332Y-63697360D01*
X78032421Y-63692976D01*
X78026967Y-63688033D01*
X78022024Y-63682579D01*
X78017640Y-63676668D01*
X78013856Y-63670355D01*
X78010709Y-63663701D01*
X78008229Y-63656771D01*
X78006441Y-63649632D01*
X78005361Y-63642351D01*
X78005000Y-63635000D01*
X78005000Y-63485000D01*
X78005361Y-63477649D01*
X78006441Y-63470368D01*
X78008229Y-63463229D01*
X78010709Y-63456299D01*
X78013856Y-63449645D01*
X78017640Y-63443332D01*
X78022024Y-63437421D01*
X78026967Y-63431967D01*
X78032421Y-63427024D01*
X78038332Y-63422640D01*
X78044645Y-63418856D01*
X78051299Y-63415709D01*
X78058229Y-63413229D01*
X78065368Y-63411441D01*
X78072649Y-63410361D01*
X78080000Y-63410000D01*
X79480000Y-63410000D01*
X79487351Y-63410361D01*
G37*
G36*
X79487351Y-63910361D02*
G01*
X79494632Y-63911441D01*
X79501771Y-63913229D01*
X79508701Y-63915709D01*
X79515355Y-63918856D01*
X79521668Y-63922640D01*
X79527579Y-63927024D01*
X79533033Y-63931967D01*
X79537976Y-63937421D01*
X79542360Y-63943332D01*
X79546144Y-63949645D01*
X79549291Y-63956299D01*
X79551771Y-63963229D01*
X79553559Y-63970368D01*
X79554639Y-63977649D01*
X79555000Y-63985000D01*
X79555000Y-64135000D01*
X79554639Y-64142351D01*
X79553559Y-64149632D01*
X79551771Y-64156771D01*
X79549291Y-64163701D01*
X79546144Y-64170355D01*
X79542360Y-64176668D01*
X79537976Y-64182579D01*
X79533033Y-64188033D01*
X79527579Y-64192976D01*
X79521668Y-64197360D01*
X79515355Y-64201144D01*
X79508701Y-64204291D01*
X79501771Y-64206771D01*
X79494632Y-64208559D01*
X79487351Y-64209639D01*
X79480000Y-64210000D01*
X78080000Y-64210000D01*
X78072649Y-64209639D01*
X78065368Y-64208559D01*
X78058229Y-64206771D01*
X78051299Y-64204291D01*
X78044645Y-64201144D01*
X78038332Y-64197360D01*
X78032421Y-64192976D01*
X78026967Y-64188033D01*
X78022024Y-64182579D01*
X78017640Y-64176668D01*
X78013856Y-64170355D01*
X78010709Y-64163701D01*
X78008229Y-64156771D01*
X78006441Y-64149632D01*
X78005361Y-64142351D01*
X78005000Y-64135000D01*
X78005000Y-63985000D01*
X78005361Y-63977649D01*
X78006441Y-63970368D01*
X78008229Y-63963229D01*
X78010709Y-63956299D01*
X78013856Y-63949645D01*
X78017640Y-63943332D01*
X78022024Y-63937421D01*
X78026967Y-63931967D01*
X78032421Y-63927024D01*
X78038332Y-63922640D01*
X78044645Y-63918856D01*
X78051299Y-63915709D01*
X78058229Y-63913229D01*
X78065368Y-63911441D01*
X78072649Y-63910361D01*
X78080000Y-63910000D01*
X79480000Y-63910000D01*
X79487351Y-63910361D01*
G37*
G36*
X79487351Y-64410361D02*
G01*
X79494632Y-64411441D01*
X79501771Y-64413229D01*
X79508701Y-64415709D01*
X79515355Y-64418856D01*
X79521668Y-64422640D01*
X79527579Y-64427024D01*
X79533033Y-64431967D01*
X79537976Y-64437421D01*
X79542360Y-64443332D01*
X79546144Y-64449645D01*
X79549291Y-64456299D01*
X79551771Y-64463229D01*
X79553559Y-64470368D01*
X79554639Y-64477649D01*
X79555000Y-64485000D01*
X79555000Y-64635000D01*
X79554639Y-64642351D01*
X79553559Y-64649632D01*
X79551771Y-64656771D01*
X79549291Y-64663701D01*
X79546144Y-64670355D01*
X79542360Y-64676668D01*
X79537976Y-64682579D01*
X79533033Y-64688033D01*
X79527579Y-64692976D01*
X79521668Y-64697360D01*
X79515355Y-64701144D01*
X79508701Y-64704291D01*
X79501771Y-64706771D01*
X79494632Y-64708559D01*
X79487351Y-64709639D01*
X79480000Y-64710000D01*
X78080000Y-64710000D01*
X78072649Y-64709639D01*
X78065368Y-64708559D01*
X78058229Y-64706771D01*
X78051299Y-64704291D01*
X78044645Y-64701144D01*
X78038332Y-64697360D01*
X78032421Y-64692976D01*
X78026967Y-64688033D01*
X78022024Y-64682579D01*
X78017640Y-64676668D01*
X78013856Y-64670355D01*
X78010709Y-64663701D01*
X78008229Y-64656771D01*
X78006441Y-64649632D01*
X78005361Y-64642351D01*
X78005000Y-64635000D01*
X78005000Y-64485000D01*
X78005361Y-64477649D01*
X78006441Y-64470368D01*
X78008229Y-64463229D01*
X78010709Y-64456299D01*
X78013856Y-64449645D01*
X78017640Y-64443332D01*
X78022024Y-64437421D01*
X78026967Y-64431967D01*
X78032421Y-64427024D01*
X78038332Y-64422640D01*
X78044645Y-64418856D01*
X78051299Y-64415709D01*
X78058229Y-64413229D01*
X78065368Y-64411441D01*
X78072649Y-64410361D01*
X78080000Y-64410000D01*
X79480000Y-64410000D01*
X79487351Y-64410361D01*
G37*
G36*
X79487351Y-64910361D02*
G01*
X79494632Y-64911441D01*
X79501771Y-64913229D01*
X79508701Y-64915709D01*
X79515355Y-64918856D01*
X79521668Y-64922640D01*
X79527579Y-64927024D01*
X79533033Y-64931967D01*
X79537976Y-64937421D01*
X79542360Y-64943332D01*
X79546144Y-64949645D01*
X79549291Y-64956299D01*
X79551771Y-64963229D01*
X79553559Y-64970368D01*
X79554639Y-64977649D01*
X79555000Y-64985000D01*
X79555000Y-65135000D01*
X79554639Y-65142351D01*
X79553559Y-65149632D01*
X79551771Y-65156771D01*
X79549291Y-65163701D01*
X79546144Y-65170355D01*
X79542360Y-65176668D01*
X79537976Y-65182579D01*
X79533033Y-65188033D01*
X79527579Y-65192976D01*
X79521668Y-65197360D01*
X79515355Y-65201144D01*
X79508701Y-65204291D01*
X79501771Y-65206771D01*
X79494632Y-65208559D01*
X79487351Y-65209639D01*
X79480000Y-65210000D01*
X78080000Y-65210000D01*
X78072649Y-65209639D01*
X78065368Y-65208559D01*
X78058229Y-65206771D01*
X78051299Y-65204291D01*
X78044645Y-65201144D01*
X78038332Y-65197360D01*
X78032421Y-65192976D01*
X78026967Y-65188033D01*
X78022024Y-65182579D01*
X78017640Y-65176668D01*
X78013856Y-65170355D01*
X78010709Y-65163701D01*
X78008229Y-65156771D01*
X78006441Y-65149632D01*
X78005361Y-65142351D01*
X78005000Y-65135000D01*
X78005000Y-64985000D01*
X78005361Y-64977649D01*
X78006441Y-64970368D01*
X78008229Y-64963229D01*
X78010709Y-64956299D01*
X78013856Y-64949645D01*
X78017640Y-64943332D01*
X78022024Y-64937421D01*
X78026967Y-64931967D01*
X78032421Y-64927024D01*
X78038332Y-64922640D01*
X78044645Y-64918856D01*
X78051299Y-64915709D01*
X78058229Y-64913229D01*
X78065368Y-64911441D01*
X78072649Y-64910361D01*
X78080000Y-64910000D01*
X79480000Y-64910000D01*
X79487351Y-64910361D01*
G37*
G36*
X79487351Y-65410361D02*
G01*
X79494632Y-65411441D01*
X79501771Y-65413229D01*
X79508701Y-65415709D01*
X79515355Y-65418856D01*
X79521668Y-65422640D01*
X79527579Y-65427024D01*
X79533033Y-65431967D01*
X79537976Y-65437421D01*
X79542360Y-65443332D01*
X79546144Y-65449645D01*
X79549291Y-65456299D01*
X79551771Y-65463229D01*
X79553559Y-65470368D01*
X79554639Y-65477649D01*
X79555000Y-65485000D01*
X79555000Y-65635000D01*
X79554639Y-65642351D01*
X79553559Y-65649632D01*
X79551771Y-65656771D01*
X79549291Y-65663701D01*
X79546144Y-65670355D01*
X79542360Y-65676668D01*
X79537976Y-65682579D01*
X79533033Y-65688033D01*
X79527579Y-65692976D01*
X79521668Y-65697360D01*
X79515355Y-65701144D01*
X79508701Y-65704291D01*
X79501771Y-65706771D01*
X79494632Y-65708559D01*
X79487351Y-65709639D01*
X79480000Y-65710000D01*
X78080000Y-65710000D01*
X78072649Y-65709639D01*
X78065368Y-65708559D01*
X78058229Y-65706771D01*
X78051299Y-65704291D01*
X78044645Y-65701144D01*
X78038332Y-65697360D01*
X78032421Y-65692976D01*
X78026967Y-65688033D01*
X78022024Y-65682579D01*
X78017640Y-65676668D01*
X78013856Y-65670355D01*
X78010709Y-65663701D01*
X78008229Y-65656771D01*
X78006441Y-65649632D01*
X78005361Y-65642351D01*
X78005000Y-65635000D01*
X78005000Y-65485000D01*
X78005361Y-65477649D01*
X78006441Y-65470368D01*
X78008229Y-65463229D01*
X78010709Y-65456299D01*
X78013856Y-65449645D01*
X78017640Y-65443332D01*
X78022024Y-65437421D01*
X78026967Y-65431967D01*
X78032421Y-65427024D01*
X78038332Y-65422640D01*
X78044645Y-65418856D01*
X78051299Y-65415709D01*
X78058229Y-65413229D01*
X78065368Y-65411441D01*
X78072649Y-65410361D01*
X78080000Y-65410000D01*
X79480000Y-65410000D01*
X79487351Y-65410361D01*
G37*
G36*
X79487351Y-65910361D02*
G01*
X79494632Y-65911441D01*
X79501771Y-65913229D01*
X79508701Y-65915709D01*
X79515355Y-65918856D01*
X79521668Y-65922640D01*
X79527579Y-65927024D01*
X79533033Y-65931967D01*
X79537976Y-65937421D01*
X79542360Y-65943332D01*
X79546144Y-65949645D01*
X79549291Y-65956299D01*
X79551771Y-65963229D01*
X79553559Y-65970368D01*
X79554639Y-65977649D01*
X79555000Y-65985000D01*
X79555000Y-66135000D01*
X79554639Y-66142351D01*
X79553559Y-66149632D01*
X79551771Y-66156771D01*
X79549291Y-66163701D01*
X79546144Y-66170355D01*
X79542360Y-66176668D01*
X79537976Y-66182579D01*
X79533033Y-66188033D01*
X79527579Y-66192976D01*
X79521668Y-66197360D01*
X79515355Y-66201144D01*
X79508701Y-66204291D01*
X79501771Y-66206771D01*
X79494632Y-66208559D01*
X79487351Y-66209639D01*
X79480000Y-66210000D01*
X78080000Y-66210000D01*
X78072649Y-66209639D01*
X78065368Y-66208559D01*
X78058229Y-66206771D01*
X78051299Y-66204291D01*
X78044645Y-66201144D01*
X78038332Y-66197360D01*
X78032421Y-66192976D01*
X78026967Y-66188033D01*
X78022024Y-66182579D01*
X78017640Y-66176668D01*
X78013856Y-66170355D01*
X78010709Y-66163701D01*
X78008229Y-66156771D01*
X78006441Y-66149632D01*
X78005361Y-66142351D01*
X78005000Y-66135000D01*
X78005000Y-65985000D01*
X78005361Y-65977649D01*
X78006441Y-65970368D01*
X78008229Y-65963229D01*
X78010709Y-65956299D01*
X78013856Y-65949645D01*
X78017640Y-65943332D01*
X78022024Y-65937421D01*
X78026967Y-65931967D01*
X78032421Y-65927024D01*
X78038332Y-65922640D01*
X78044645Y-65918856D01*
X78051299Y-65915709D01*
X78058229Y-65913229D01*
X78065368Y-65911441D01*
X78072649Y-65910361D01*
X78080000Y-65910000D01*
X79480000Y-65910000D01*
X79487351Y-65910361D01*
G37*
G36*
X79487351Y-66410361D02*
G01*
X79494632Y-66411441D01*
X79501771Y-66413229D01*
X79508701Y-66415709D01*
X79515355Y-66418856D01*
X79521668Y-66422640D01*
X79527579Y-66427024D01*
X79533033Y-66431967D01*
X79537976Y-66437421D01*
X79542360Y-66443332D01*
X79546144Y-66449645D01*
X79549291Y-66456299D01*
X79551771Y-66463229D01*
X79553559Y-66470368D01*
X79554639Y-66477649D01*
X79555000Y-66485000D01*
X79555000Y-66635000D01*
X79554639Y-66642351D01*
X79553559Y-66649632D01*
X79551771Y-66656771D01*
X79549291Y-66663701D01*
X79546144Y-66670355D01*
X79542360Y-66676668D01*
X79537976Y-66682579D01*
X79533033Y-66688033D01*
X79527579Y-66692976D01*
X79521668Y-66697360D01*
X79515355Y-66701144D01*
X79508701Y-66704291D01*
X79501771Y-66706771D01*
X79494632Y-66708559D01*
X79487351Y-66709639D01*
X79480000Y-66710000D01*
X78080000Y-66710000D01*
X78072649Y-66709639D01*
X78065368Y-66708559D01*
X78058229Y-66706771D01*
X78051299Y-66704291D01*
X78044645Y-66701144D01*
X78038332Y-66697360D01*
X78032421Y-66692976D01*
X78026967Y-66688033D01*
X78022024Y-66682579D01*
X78017640Y-66676668D01*
X78013856Y-66670355D01*
X78010709Y-66663701D01*
X78008229Y-66656771D01*
X78006441Y-66649632D01*
X78005361Y-66642351D01*
X78005000Y-66635000D01*
X78005000Y-66485000D01*
X78005361Y-66477649D01*
X78006441Y-66470368D01*
X78008229Y-66463229D01*
X78010709Y-66456299D01*
X78013856Y-66449645D01*
X78017640Y-66443332D01*
X78022024Y-66437421D01*
X78026967Y-66431967D01*
X78032421Y-66427024D01*
X78038332Y-66422640D01*
X78044645Y-66418856D01*
X78051299Y-66415709D01*
X78058229Y-66413229D01*
X78065368Y-66411441D01*
X78072649Y-66410361D01*
X78080000Y-66410000D01*
X79480000Y-66410000D01*
X79487351Y-66410361D01*
G37*
G36*
X79487351Y-66910361D02*
G01*
X79494632Y-66911441D01*
X79501771Y-66913229D01*
X79508701Y-66915709D01*
X79515355Y-66918856D01*
X79521668Y-66922640D01*
X79527579Y-66927024D01*
X79533033Y-66931967D01*
X79537976Y-66937421D01*
X79542360Y-66943332D01*
X79546144Y-66949645D01*
X79549291Y-66956299D01*
X79551771Y-66963229D01*
X79553559Y-66970368D01*
X79554639Y-66977649D01*
X79555000Y-66985000D01*
X79555000Y-67135000D01*
X79554639Y-67142351D01*
X79553559Y-67149632D01*
X79551771Y-67156771D01*
X79549291Y-67163701D01*
X79546144Y-67170355D01*
X79542360Y-67176668D01*
X79537976Y-67182579D01*
X79533033Y-67188033D01*
X79527579Y-67192976D01*
X79521668Y-67197360D01*
X79515355Y-67201144D01*
X79508701Y-67204291D01*
X79501771Y-67206771D01*
X79494632Y-67208559D01*
X79487351Y-67209639D01*
X79480000Y-67210000D01*
X78080000Y-67210000D01*
X78072649Y-67209639D01*
X78065368Y-67208559D01*
X78058229Y-67206771D01*
X78051299Y-67204291D01*
X78044645Y-67201144D01*
X78038332Y-67197360D01*
X78032421Y-67192976D01*
X78026967Y-67188033D01*
X78022024Y-67182579D01*
X78017640Y-67176668D01*
X78013856Y-67170355D01*
X78010709Y-67163701D01*
X78008229Y-67156771D01*
X78006441Y-67149632D01*
X78005361Y-67142351D01*
X78005000Y-67135000D01*
X78005000Y-66985000D01*
X78005361Y-66977649D01*
X78006441Y-66970368D01*
X78008229Y-66963229D01*
X78010709Y-66956299D01*
X78013856Y-66949645D01*
X78017640Y-66943332D01*
X78022024Y-66937421D01*
X78026967Y-66931967D01*
X78032421Y-66927024D01*
X78038332Y-66922640D01*
X78044645Y-66918856D01*
X78051299Y-66915709D01*
X78058229Y-66913229D01*
X78065368Y-66911441D01*
X78072649Y-66910361D01*
X78080000Y-66910000D01*
X79480000Y-66910000D01*
X79487351Y-66910361D01*
G37*
G36*
X79487351Y-67410361D02*
G01*
X79494632Y-67411441D01*
X79501771Y-67413229D01*
X79508701Y-67415709D01*
X79515355Y-67418856D01*
X79521668Y-67422640D01*
X79527579Y-67427024D01*
X79533033Y-67431967D01*
X79537976Y-67437421D01*
X79542360Y-67443332D01*
X79546144Y-67449645D01*
X79549291Y-67456299D01*
X79551771Y-67463229D01*
X79553559Y-67470368D01*
X79554639Y-67477649D01*
X79555000Y-67485000D01*
X79555000Y-67635000D01*
X79554639Y-67642351D01*
X79553559Y-67649632D01*
X79551771Y-67656771D01*
X79549291Y-67663701D01*
X79546144Y-67670355D01*
X79542360Y-67676668D01*
X79537976Y-67682579D01*
X79533033Y-67688033D01*
X79527579Y-67692976D01*
X79521668Y-67697360D01*
X79515355Y-67701144D01*
X79508701Y-67704291D01*
X79501771Y-67706771D01*
X79494632Y-67708559D01*
X79487351Y-67709639D01*
X79480000Y-67710000D01*
X78080000Y-67710000D01*
X78072649Y-67709639D01*
X78065368Y-67708559D01*
X78058229Y-67706771D01*
X78051299Y-67704291D01*
X78044645Y-67701144D01*
X78038332Y-67697360D01*
X78032421Y-67692976D01*
X78026967Y-67688033D01*
X78022024Y-67682579D01*
X78017640Y-67676668D01*
X78013856Y-67670355D01*
X78010709Y-67663701D01*
X78008229Y-67656771D01*
X78006441Y-67649632D01*
X78005361Y-67642351D01*
X78005000Y-67635000D01*
X78005000Y-67485000D01*
X78005361Y-67477649D01*
X78006441Y-67470368D01*
X78008229Y-67463229D01*
X78010709Y-67456299D01*
X78013856Y-67449645D01*
X78017640Y-67443332D01*
X78022024Y-67437421D01*
X78026967Y-67431967D01*
X78032421Y-67427024D01*
X78038332Y-67422640D01*
X78044645Y-67418856D01*
X78051299Y-67415709D01*
X78058229Y-67413229D01*
X78065368Y-67411441D01*
X78072649Y-67410361D01*
X78080000Y-67410000D01*
X79480000Y-67410000D01*
X79487351Y-67410361D01*
G37*
G36*
X79487351Y-67910361D02*
G01*
X79494632Y-67911441D01*
X79501771Y-67913229D01*
X79508701Y-67915709D01*
X79515355Y-67918856D01*
X79521668Y-67922640D01*
X79527579Y-67927024D01*
X79533033Y-67931967D01*
X79537976Y-67937421D01*
X79542360Y-67943332D01*
X79546144Y-67949645D01*
X79549291Y-67956299D01*
X79551771Y-67963229D01*
X79553559Y-67970368D01*
X79554639Y-67977649D01*
X79555000Y-67985000D01*
X79555000Y-68135000D01*
X79554639Y-68142351D01*
X79553559Y-68149632D01*
X79551771Y-68156771D01*
X79549291Y-68163701D01*
X79546144Y-68170355D01*
X79542360Y-68176668D01*
X79537976Y-68182579D01*
X79533033Y-68188033D01*
X79527579Y-68192976D01*
X79521668Y-68197360D01*
X79515355Y-68201144D01*
X79508701Y-68204291D01*
X79501771Y-68206771D01*
X79494632Y-68208559D01*
X79487351Y-68209639D01*
X79480000Y-68210000D01*
X78080000Y-68210000D01*
X78072649Y-68209639D01*
X78065368Y-68208559D01*
X78058229Y-68206771D01*
X78051299Y-68204291D01*
X78044645Y-68201144D01*
X78038332Y-68197360D01*
X78032421Y-68192976D01*
X78026967Y-68188033D01*
X78022024Y-68182579D01*
X78017640Y-68176668D01*
X78013856Y-68170355D01*
X78010709Y-68163701D01*
X78008229Y-68156771D01*
X78006441Y-68149632D01*
X78005361Y-68142351D01*
X78005000Y-68135000D01*
X78005000Y-67985000D01*
X78005361Y-67977649D01*
X78006441Y-67970368D01*
X78008229Y-67963229D01*
X78010709Y-67956299D01*
X78013856Y-67949645D01*
X78017640Y-67943332D01*
X78022024Y-67937421D01*
X78026967Y-67931967D01*
X78032421Y-67927024D01*
X78038332Y-67922640D01*
X78044645Y-67918856D01*
X78051299Y-67915709D01*
X78058229Y-67913229D01*
X78065368Y-67911441D01*
X78072649Y-67910361D01*
X78080000Y-67910000D01*
X79480000Y-67910000D01*
X79487351Y-67910361D01*
G37*
G36*
X79487351Y-68410361D02*
G01*
X79494632Y-68411441D01*
X79501771Y-68413229D01*
X79508701Y-68415709D01*
X79515355Y-68418856D01*
X79521668Y-68422640D01*
X79527579Y-68427024D01*
X79533033Y-68431967D01*
X79537976Y-68437421D01*
X79542360Y-68443332D01*
X79546144Y-68449645D01*
X79549291Y-68456299D01*
X79551771Y-68463229D01*
X79553559Y-68470368D01*
X79554639Y-68477649D01*
X79555000Y-68485000D01*
X79555000Y-68635000D01*
X79554639Y-68642351D01*
X79553559Y-68649632D01*
X79551771Y-68656771D01*
X79549291Y-68663701D01*
X79546144Y-68670355D01*
X79542360Y-68676668D01*
X79537976Y-68682579D01*
X79533033Y-68688033D01*
X79527579Y-68692976D01*
X79521668Y-68697360D01*
X79515355Y-68701144D01*
X79508701Y-68704291D01*
X79501771Y-68706771D01*
X79494632Y-68708559D01*
X79487351Y-68709639D01*
X79480000Y-68710000D01*
X78080000Y-68710000D01*
X78072649Y-68709639D01*
X78065368Y-68708559D01*
X78058229Y-68706771D01*
X78051299Y-68704291D01*
X78044645Y-68701144D01*
X78038332Y-68697360D01*
X78032421Y-68692976D01*
X78026967Y-68688033D01*
X78022024Y-68682579D01*
X78017640Y-68676668D01*
X78013856Y-68670355D01*
X78010709Y-68663701D01*
X78008229Y-68656771D01*
X78006441Y-68649632D01*
X78005361Y-68642351D01*
X78005000Y-68635000D01*
X78005000Y-68485000D01*
X78005361Y-68477649D01*
X78006441Y-68470368D01*
X78008229Y-68463229D01*
X78010709Y-68456299D01*
X78013856Y-68449645D01*
X78017640Y-68443332D01*
X78022024Y-68437421D01*
X78026967Y-68431967D01*
X78032421Y-68427024D01*
X78038332Y-68422640D01*
X78044645Y-68418856D01*
X78051299Y-68415709D01*
X78058229Y-68413229D01*
X78065368Y-68411441D01*
X78072649Y-68410361D01*
X78080000Y-68410000D01*
X79480000Y-68410000D01*
X79487351Y-68410361D01*
G37*
G36*
X79487351Y-68910361D02*
G01*
X79494632Y-68911441D01*
X79501771Y-68913229D01*
X79508701Y-68915709D01*
X79515355Y-68918856D01*
X79521668Y-68922640D01*
X79527579Y-68927024D01*
X79533033Y-68931967D01*
X79537976Y-68937421D01*
X79542360Y-68943332D01*
X79546144Y-68949645D01*
X79549291Y-68956299D01*
X79551771Y-68963229D01*
X79553559Y-68970368D01*
X79554639Y-68977649D01*
X79555000Y-68985000D01*
X79555000Y-69135000D01*
X79554639Y-69142351D01*
X79553559Y-69149632D01*
X79551771Y-69156771D01*
X79549291Y-69163701D01*
X79546144Y-69170355D01*
X79542360Y-69176668D01*
X79537976Y-69182579D01*
X79533033Y-69188033D01*
X79527579Y-69192976D01*
X79521668Y-69197360D01*
X79515355Y-69201144D01*
X79508701Y-69204291D01*
X79501771Y-69206771D01*
X79494632Y-69208559D01*
X79487351Y-69209639D01*
X79480000Y-69210000D01*
X78080000Y-69210000D01*
X78072649Y-69209639D01*
X78065368Y-69208559D01*
X78058229Y-69206771D01*
X78051299Y-69204291D01*
X78044645Y-69201144D01*
X78038332Y-69197360D01*
X78032421Y-69192976D01*
X78026967Y-69188033D01*
X78022024Y-69182579D01*
X78017640Y-69176668D01*
X78013856Y-69170355D01*
X78010709Y-69163701D01*
X78008229Y-69156771D01*
X78006441Y-69149632D01*
X78005361Y-69142351D01*
X78005000Y-69135000D01*
X78005000Y-68985000D01*
X78005361Y-68977649D01*
X78006441Y-68970368D01*
X78008229Y-68963229D01*
X78010709Y-68956299D01*
X78013856Y-68949645D01*
X78017640Y-68943332D01*
X78022024Y-68937421D01*
X78026967Y-68931967D01*
X78032421Y-68927024D01*
X78038332Y-68922640D01*
X78044645Y-68918856D01*
X78051299Y-68915709D01*
X78058229Y-68913229D01*
X78065368Y-68911441D01*
X78072649Y-68910361D01*
X78080000Y-68910000D01*
X79480000Y-68910000D01*
X79487351Y-68910361D01*
G37*
G36*
X79487351Y-69410361D02*
G01*
X79494632Y-69411441D01*
X79501771Y-69413229D01*
X79508701Y-69415709D01*
X79515355Y-69418856D01*
X79521668Y-69422640D01*
X79527579Y-69427024D01*
X79533033Y-69431967D01*
X79537976Y-69437421D01*
X79542360Y-69443332D01*
X79546144Y-69449645D01*
X79549291Y-69456299D01*
X79551771Y-69463229D01*
X79553559Y-69470368D01*
X79554639Y-69477649D01*
X79555000Y-69485000D01*
X79555000Y-69635000D01*
X79554639Y-69642351D01*
X79553559Y-69649632D01*
X79551771Y-69656771D01*
X79549291Y-69663701D01*
X79546144Y-69670355D01*
X79542360Y-69676668D01*
X79537976Y-69682579D01*
X79533033Y-69688033D01*
X79527579Y-69692976D01*
X79521668Y-69697360D01*
X79515355Y-69701144D01*
X79508701Y-69704291D01*
X79501771Y-69706771D01*
X79494632Y-69708559D01*
X79487351Y-69709639D01*
X79480000Y-69710000D01*
X78080000Y-69710000D01*
X78072649Y-69709639D01*
X78065368Y-69708559D01*
X78058229Y-69706771D01*
X78051299Y-69704291D01*
X78044645Y-69701144D01*
X78038332Y-69697360D01*
X78032421Y-69692976D01*
X78026967Y-69688033D01*
X78022024Y-69682579D01*
X78017640Y-69676668D01*
X78013856Y-69670355D01*
X78010709Y-69663701D01*
X78008229Y-69656771D01*
X78006441Y-69649632D01*
X78005361Y-69642351D01*
X78005000Y-69635000D01*
X78005000Y-69485000D01*
X78005361Y-69477649D01*
X78006441Y-69470368D01*
X78008229Y-69463229D01*
X78010709Y-69456299D01*
X78013856Y-69449645D01*
X78017640Y-69443332D01*
X78022024Y-69437421D01*
X78026967Y-69431967D01*
X78032421Y-69427024D01*
X78038332Y-69422640D01*
X78044645Y-69418856D01*
X78051299Y-69415709D01*
X78058229Y-69413229D01*
X78065368Y-69411441D01*
X78072649Y-69410361D01*
X78080000Y-69410000D01*
X79480000Y-69410000D01*
X79487351Y-69410361D01*
G37*
G36*
X79487351Y-69910361D02*
G01*
X79494632Y-69911441D01*
X79501771Y-69913229D01*
X79508701Y-69915709D01*
X79515355Y-69918856D01*
X79521668Y-69922640D01*
X79527579Y-69927024D01*
X79533033Y-69931967D01*
X79537976Y-69937421D01*
X79542360Y-69943332D01*
X79546144Y-69949645D01*
X79549291Y-69956299D01*
X79551771Y-69963229D01*
X79553559Y-69970368D01*
X79554639Y-69977649D01*
X79555000Y-69985000D01*
X79555000Y-70135000D01*
X79554639Y-70142351D01*
X79553559Y-70149632D01*
X79551771Y-70156771D01*
X79549291Y-70163701D01*
X79546144Y-70170355D01*
X79542360Y-70176668D01*
X79537976Y-70182579D01*
X79533033Y-70188033D01*
X79527579Y-70192976D01*
X79521668Y-70197360D01*
X79515355Y-70201144D01*
X79508701Y-70204291D01*
X79501771Y-70206771D01*
X79494632Y-70208559D01*
X79487351Y-70209639D01*
X79480000Y-70210000D01*
X78080000Y-70210000D01*
X78072649Y-70209639D01*
X78065368Y-70208559D01*
X78058229Y-70206771D01*
X78051299Y-70204291D01*
X78044645Y-70201144D01*
X78038332Y-70197360D01*
X78032421Y-70192976D01*
X78026967Y-70188033D01*
X78022024Y-70182579D01*
X78017640Y-70176668D01*
X78013856Y-70170355D01*
X78010709Y-70163701D01*
X78008229Y-70156771D01*
X78006441Y-70149632D01*
X78005361Y-70142351D01*
X78005000Y-70135000D01*
X78005000Y-69985000D01*
X78005361Y-69977649D01*
X78006441Y-69970368D01*
X78008229Y-69963229D01*
X78010709Y-69956299D01*
X78013856Y-69949645D01*
X78017640Y-69943332D01*
X78022024Y-69937421D01*
X78026967Y-69931967D01*
X78032421Y-69927024D01*
X78038332Y-69922640D01*
X78044645Y-69918856D01*
X78051299Y-69915709D01*
X78058229Y-69913229D01*
X78065368Y-69911441D01*
X78072649Y-69910361D01*
X78080000Y-69910000D01*
X79480000Y-69910000D01*
X79487351Y-69910361D01*
G37*
G36*
X79487351Y-70410361D02*
G01*
X79494632Y-70411441D01*
X79501771Y-70413229D01*
X79508701Y-70415709D01*
X79515355Y-70418856D01*
X79521668Y-70422640D01*
X79527579Y-70427024D01*
X79533033Y-70431967D01*
X79537976Y-70437421D01*
X79542360Y-70443332D01*
X79546144Y-70449645D01*
X79549291Y-70456299D01*
X79551771Y-70463229D01*
X79553559Y-70470368D01*
X79554639Y-70477649D01*
X79555000Y-70485000D01*
X79555000Y-70635000D01*
X79554639Y-70642351D01*
X79553559Y-70649632D01*
X79551771Y-70656771D01*
X79549291Y-70663701D01*
X79546144Y-70670355D01*
X79542360Y-70676668D01*
X79537976Y-70682579D01*
X79533033Y-70688033D01*
X79527579Y-70692976D01*
X79521668Y-70697360D01*
X79515355Y-70701144D01*
X79508701Y-70704291D01*
X79501771Y-70706771D01*
X79494632Y-70708559D01*
X79487351Y-70709639D01*
X79480000Y-70710000D01*
X78080000Y-70710000D01*
X78072649Y-70709639D01*
X78065368Y-70708559D01*
X78058229Y-70706771D01*
X78051299Y-70704291D01*
X78044645Y-70701144D01*
X78038332Y-70697360D01*
X78032421Y-70692976D01*
X78026967Y-70688033D01*
X78022024Y-70682579D01*
X78017640Y-70676668D01*
X78013856Y-70670355D01*
X78010709Y-70663701D01*
X78008229Y-70656771D01*
X78006441Y-70649632D01*
X78005361Y-70642351D01*
X78005000Y-70635000D01*
X78005000Y-70485000D01*
X78005361Y-70477649D01*
X78006441Y-70470368D01*
X78008229Y-70463229D01*
X78010709Y-70456299D01*
X78013856Y-70449645D01*
X78017640Y-70443332D01*
X78022024Y-70437421D01*
X78026967Y-70431967D01*
X78032421Y-70427024D01*
X78038332Y-70422640D01*
X78044645Y-70418856D01*
X78051299Y-70415709D01*
X78058229Y-70413229D01*
X78065368Y-70411441D01*
X78072649Y-70410361D01*
X78080000Y-70410000D01*
X79480000Y-70410000D01*
X79487351Y-70410361D01*
G37*
G36*
X79487351Y-70910361D02*
G01*
X79494632Y-70911441D01*
X79501771Y-70913229D01*
X79508701Y-70915709D01*
X79515355Y-70918856D01*
X79521668Y-70922640D01*
X79527579Y-70927024D01*
X79533033Y-70931967D01*
X79537976Y-70937421D01*
X79542360Y-70943332D01*
X79546144Y-70949645D01*
X79549291Y-70956299D01*
X79551771Y-70963229D01*
X79553559Y-70970368D01*
X79554639Y-70977649D01*
X79555000Y-70985000D01*
X79555000Y-71135000D01*
X79554639Y-71142351D01*
X79553559Y-71149632D01*
X79551771Y-71156771D01*
X79549291Y-71163701D01*
X79546144Y-71170355D01*
X79542360Y-71176668D01*
X79537976Y-71182579D01*
X79533033Y-71188033D01*
X79527579Y-71192976D01*
X79521668Y-71197360D01*
X79515355Y-71201144D01*
X79508701Y-71204291D01*
X79501771Y-71206771D01*
X79494632Y-71208559D01*
X79487351Y-71209639D01*
X79480000Y-71210000D01*
X78080000Y-71210000D01*
X78072649Y-71209639D01*
X78065368Y-71208559D01*
X78058229Y-71206771D01*
X78051299Y-71204291D01*
X78044645Y-71201144D01*
X78038332Y-71197360D01*
X78032421Y-71192976D01*
X78026967Y-71188033D01*
X78022024Y-71182579D01*
X78017640Y-71176668D01*
X78013856Y-71170355D01*
X78010709Y-71163701D01*
X78008229Y-71156771D01*
X78006441Y-71149632D01*
X78005361Y-71142351D01*
X78005000Y-71135000D01*
X78005000Y-70985000D01*
X78005361Y-70977649D01*
X78006441Y-70970368D01*
X78008229Y-70963229D01*
X78010709Y-70956299D01*
X78013856Y-70949645D01*
X78017640Y-70943332D01*
X78022024Y-70937421D01*
X78026967Y-70931967D01*
X78032421Y-70927024D01*
X78038332Y-70922640D01*
X78044645Y-70918856D01*
X78051299Y-70915709D01*
X78058229Y-70913229D01*
X78065368Y-70911441D01*
X78072649Y-70910361D01*
X78080000Y-70910000D01*
X79480000Y-70910000D01*
X79487351Y-70910361D01*
G37*
G36*
X80787351Y-72210361D02*
G01*
X80794632Y-72211441D01*
X80801771Y-72213229D01*
X80808701Y-72215709D01*
X80815355Y-72218856D01*
X80821668Y-72222640D01*
X80827579Y-72227024D01*
X80833033Y-72231967D01*
X80837976Y-72237421D01*
X80842360Y-72243332D01*
X80846144Y-72249645D01*
X80849291Y-72256299D01*
X80851771Y-72263229D01*
X80853559Y-72270368D01*
X80854639Y-72277649D01*
X80855000Y-72285000D01*
X80855000Y-73685000D01*
X80854639Y-73692351D01*
X80853559Y-73699632D01*
X80851771Y-73706771D01*
X80849291Y-73713701D01*
X80846144Y-73720355D01*
X80842360Y-73726668D01*
X80837976Y-73732579D01*
X80833033Y-73738033D01*
X80827579Y-73742976D01*
X80821668Y-73747360D01*
X80815355Y-73751144D01*
X80808701Y-73754291D01*
X80801771Y-73756771D01*
X80794632Y-73758559D01*
X80787351Y-73759639D01*
X80780000Y-73760000D01*
X80630000Y-73760000D01*
X80622649Y-73759639D01*
X80615368Y-73758559D01*
X80608229Y-73756771D01*
X80601299Y-73754291D01*
X80594645Y-73751144D01*
X80588332Y-73747360D01*
X80582421Y-73742976D01*
X80576967Y-73738033D01*
X80572024Y-73732579D01*
X80567640Y-73726668D01*
X80563856Y-73720355D01*
X80560709Y-73713701D01*
X80558229Y-73706771D01*
X80556441Y-73699632D01*
X80555361Y-73692351D01*
X80555000Y-73685000D01*
X80555000Y-72285000D01*
X80555361Y-72277649D01*
X80556441Y-72270368D01*
X80558229Y-72263229D01*
X80560709Y-72256299D01*
X80563856Y-72249645D01*
X80567640Y-72243332D01*
X80572024Y-72237421D01*
X80576967Y-72231967D01*
X80582421Y-72227024D01*
X80588332Y-72222640D01*
X80594645Y-72218856D01*
X80601299Y-72215709D01*
X80608229Y-72213229D01*
X80615368Y-72211441D01*
X80622649Y-72210361D01*
X80630000Y-72210000D01*
X80780000Y-72210000D01*
X80787351Y-72210361D01*
G37*
G36*
X81287351Y-72210361D02*
G01*
X81294632Y-72211441D01*
X81301771Y-72213229D01*
X81308701Y-72215709D01*
X81315355Y-72218856D01*
X81321668Y-72222640D01*
X81327579Y-72227024D01*
X81333033Y-72231967D01*
X81337976Y-72237421D01*
X81342360Y-72243332D01*
X81346144Y-72249645D01*
X81349291Y-72256299D01*
X81351771Y-72263229D01*
X81353559Y-72270368D01*
X81354639Y-72277649D01*
X81355000Y-72285000D01*
X81355000Y-73685000D01*
X81354639Y-73692351D01*
X81353559Y-73699632D01*
X81351771Y-73706771D01*
X81349291Y-73713701D01*
X81346144Y-73720355D01*
X81342360Y-73726668D01*
X81337976Y-73732579D01*
X81333033Y-73738033D01*
X81327579Y-73742976D01*
X81321668Y-73747360D01*
X81315355Y-73751144D01*
X81308701Y-73754291D01*
X81301771Y-73756771D01*
X81294632Y-73758559D01*
X81287351Y-73759639D01*
X81280000Y-73760000D01*
X81130000Y-73760000D01*
X81122649Y-73759639D01*
X81115368Y-73758559D01*
X81108229Y-73756771D01*
X81101299Y-73754291D01*
X81094645Y-73751144D01*
X81088332Y-73747360D01*
X81082421Y-73742976D01*
X81076967Y-73738033D01*
X81072024Y-73732579D01*
X81067640Y-73726668D01*
X81063856Y-73720355D01*
X81060709Y-73713701D01*
X81058229Y-73706771D01*
X81056441Y-73699632D01*
X81055361Y-73692351D01*
X81055000Y-73685000D01*
X81055000Y-72285000D01*
X81055361Y-72277649D01*
X81056441Y-72270368D01*
X81058229Y-72263229D01*
X81060709Y-72256299D01*
X81063856Y-72249645D01*
X81067640Y-72243332D01*
X81072024Y-72237421D01*
X81076967Y-72231967D01*
X81082421Y-72227024D01*
X81088332Y-72222640D01*
X81094645Y-72218856D01*
X81101299Y-72215709D01*
X81108229Y-72213229D01*
X81115368Y-72211441D01*
X81122649Y-72210361D01*
X81130000Y-72210000D01*
X81280000Y-72210000D01*
X81287351Y-72210361D01*
G37*
G36*
X81787351Y-72210361D02*
G01*
X81794632Y-72211441D01*
X81801771Y-72213229D01*
X81808701Y-72215709D01*
X81815355Y-72218856D01*
X81821668Y-72222640D01*
X81827579Y-72227024D01*
X81833033Y-72231967D01*
X81837976Y-72237421D01*
X81842360Y-72243332D01*
X81846144Y-72249645D01*
X81849291Y-72256299D01*
X81851771Y-72263229D01*
X81853559Y-72270368D01*
X81854639Y-72277649D01*
X81855000Y-72285000D01*
X81855000Y-73685000D01*
X81854639Y-73692351D01*
X81853559Y-73699632D01*
X81851771Y-73706771D01*
X81849291Y-73713701D01*
X81846144Y-73720355D01*
X81842360Y-73726668D01*
X81837976Y-73732579D01*
X81833033Y-73738033D01*
X81827579Y-73742976D01*
X81821668Y-73747360D01*
X81815355Y-73751144D01*
X81808701Y-73754291D01*
X81801771Y-73756771D01*
X81794632Y-73758559D01*
X81787351Y-73759639D01*
X81780000Y-73760000D01*
X81630000Y-73760000D01*
X81622649Y-73759639D01*
X81615368Y-73758559D01*
X81608229Y-73756771D01*
X81601299Y-73754291D01*
X81594645Y-73751144D01*
X81588332Y-73747360D01*
X81582421Y-73742976D01*
X81576967Y-73738033D01*
X81572024Y-73732579D01*
X81567640Y-73726668D01*
X81563856Y-73720355D01*
X81560709Y-73713701D01*
X81558229Y-73706771D01*
X81556441Y-73699632D01*
X81555361Y-73692351D01*
X81555000Y-73685000D01*
X81555000Y-72285000D01*
X81555361Y-72277649D01*
X81556441Y-72270368D01*
X81558229Y-72263229D01*
X81560709Y-72256299D01*
X81563856Y-72249645D01*
X81567640Y-72243332D01*
X81572024Y-72237421D01*
X81576967Y-72231967D01*
X81582421Y-72227024D01*
X81588332Y-72222640D01*
X81594645Y-72218856D01*
X81601299Y-72215709D01*
X81608229Y-72213229D01*
X81615368Y-72211441D01*
X81622649Y-72210361D01*
X81630000Y-72210000D01*
X81780000Y-72210000D01*
X81787351Y-72210361D01*
G37*
G36*
X82287351Y-72210361D02*
G01*
X82294632Y-72211441D01*
X82301771Y-72213229D01*
X82308701Y-72215709D01*
X82315355Y-72218856D01*
X82321668Y-72222640D01*
X82327579Y-72227024D01*
X82333033Y-72231967D01*
X82337976Y-72237421D01*
X82342360Y-72243332D01*
X82346144Y-72249645D01*
X82349291Y-72256299D01*
X82351771Y-72263229D01*
X82353559Y-72270368D01*
X82354639Y-72277649D01*
X82355000Y-72285000D01*
X82355000Y-73685000D01*
X82354639Y-73692351D01*
X82353559Y-73699632D01*
X82351771Y-73706771D01*
X82349291Y-73713701D01*
X82346144Y-73720355D01*
X82342360Y-73726668D01*
X82337976Y-73732579D01*
X82333033Y-73738033D01*
X82327579Y-73742976D01*
X82321668Y-73747360D01*
X82315355Y-73751144D01*
X82308701Y-73754291D01*
X82301771Y-73756771D01*
X82294632Y-73758559D01*
X82287351Y-73759639D01*
X82280000Y-73760000D01*
X82130000Y-73760000D01*
X82122649Y-73759639D01*
X82115368Y-73758559D01*
X82108229Y-73756771D01*
X82101299Y-73754291D01*
X82094645Y-73751144D01*
X82088332Y-73747360D01*
X82082421Y-73742976D01*
X82076967Y-73738033D01*
X82072024Y-73732579D01*
X82067640Y-73726668D01*
X82063856Y-73720355D01*
X82060709Y-73713701D01*
X82058229Y-73706771D01*
X82056441Y-73699632D01*
X82055361Y-73692351D01*
X82055000Y-73685000D01*
X82055000Y-72285000D01*
X82055361Y-72277649D01*
X82056441Y-72270368D01*
X82058229Y-72263229D01*
X82060709Y-72256299D01*
X82063856Y-72249645D01*
X82067640Y-72243332D01*
X82072024Y-72237421D01*
X82076967Y-72231967D01*
X82082421Y-72227024D01*
X82088332Y-72222640D01*
X82094645Y-72218856D01*
X82101299Y-72215709D01*
X82108229Y-72213229D01*
X82115368Y-72211441D01*
X82122649Y-72210361D01*
X82130000Y-72210000D01*
X82280000Y-72210000D01*
X82287351Y-72210361D01*
G37*
G36*
X82787351Y-72210361D02*
G01*
X82794632Y-72211441D01*
X82801771Y-72213229D01*
X82808701Y-72215709D01*
X82815355Y-72218856D01*
X82821668Y-72222640D01*
X82827579Y-72227024D01*
X82833033Y-72231967D01*
X82837976Y-72237421D01*
X82842360Y-72243332D01*
X82846144Y-72249645D01*
X82849291Y-72256299D01*
X82851771Y-72263229D01*
X82853559Y-72270368D01*
X82854639Y-72277649D01*
X82855000Y-72285000D01*
X82855000Y-73685000D01*
X82854639Y-73692351D01*
X82853559Y-73699632D01*
X82851771Y-73706771D01*
X82849291Y-73713701D01*
X82846144Y-73720355D01*
X82842360Y-73726668D01*
X82837976Y-73732579D01*
X82833033Y-73738033D01*
X82827579Y-73742976D01*
X82821668Y-73747360D01*
X82815355Y-73751144D01*
X82808701Y-73754291D01*
X82801771Y-73756771D01*
X82794632Y-73758559D01*
X82787351Y-73759639D01*
X82780000Y-73760000D01*
X82630000Y-73760000D01*
X82622649Y-73759639D01*
X82615368Y-73758559D01*
X82608229Y-73756771D01*
X82601299Y-73754291D01*
X82594645Y-73751144D01*
X82588332Y-73747360D01*
X82582421Y-73742976D01*
X82576967Y-73738033D01*
X82572024Y-73732579D01*
X82567640Y-73726668D01*
X82563856Y-73720355D01*
X82560709Y-73713701D01*
X82558229Y-73706771D01*
X82556441Y-73699632D01*
X82555361Y-73692351D01*
X82555000Y-73685000D01*
X82555000Y-72285000D01*
X82555361Y-72277649D01*
X82556441Y-72270368D01*
X82558229Y-72263229D01*
X82560709Y-72256299D01*
X82563856Y-72249645D01*
X82567640Y-72243332D01*
X82572024Y-72237421D01*
X82576967Y-72231967D01*
X82582421Y-72227024D01*
X82588332Y-72222640D01*
X82594645Y-72218856D01*
X82601299Y-72215709D01*
X82608229Y-72213229D01*
X82615368Y-72211441D01*
X82622649Y-72210361D01*
X82630000Y-72210000D01*
X82780000Y-72210000D01*
X82787351Y-72210361D01*
G37*
G36*
X83287351Y-72210361D02*
G01*
X83294632Y-72211441D01*
X83301771Y-72213229D01*
X83308701Y-72215709D01*
X83315355Y-72218856D01*
X83321668Y-72222640D01*
X83327579Y-72227024D01*
X83333033Y-72231967D01*
X83337976Y-72237421D01*
X83342360Y-72243332D01*
X83346144Y-72249645D01*
X83349291Y-72256299D01*
X83351771Y-72263229D01*
X83353559Y-72270368D01*
X83354639Y-72277649D01*
X83355000Y-72285000D01*
X83355000Y-73685000D01*
X83354639Y-73692351D01*
X83353559Y-73699632D01*
X83351771Y-73706771D01*
X83349291Y-73713701D01*
X83346144Y-73720355D01*
X83342360Y-73726668D01*
X83337976Y-73732579D01*
X83333033Y-73738033D01*
X83327579Y-73742976D01*
X83321668Y-73747360D01*
X83315355Y-73751144D01*
X83308701Y-73754291D01*
X83301771Y-73756771D01*
X83294632Y-73758559D01*
X83287351Y-73759639D01*
X83280000Y-73760000D01*
X83130000Y-73760000D01*
X83122649Y-73759639D01*
X83115368Y-73758559D01*
X83108229Y-73756771D01*
X83101299Y-73754291D01*
X83094645Y-73751144D01*
X83088332Y-73747360D01*
X83082421Y-73742976D01*
X83076967Y-73738033D01*
X83072024Y-73732579D01*
X83067640Y-73726668D01*
X83063856Y-73720355D01*
X83060709Y-73713701D01*
X83058229Y-73706771D01*
X83056441Y-73699632D01*
X83055361Y-73692351D01*
X83055000Y-73685000D01*
X83055000Y-72285000D01*
X83055361Y-72277649D01*
X83056441Y-72270368D01*
X83058229Y-72263229D01*
X83060709Y-72256299D01*
X83063856Y-72249645D01*
X83067640Y-72243332D01*
X83072024Y-72237421D01*
X83076967Y-72231967D01*
X83082421Y-72227024D01*
X83088332Y-72222640D01*
X83094645Y-72218856D01*
X83101299Y-72215709D01*
X83108229Y-72213229D01*
X83115368Y-72211441D01*
X83122649Y-72210361D01*
X83130000Y-72210000D01*
X83280000Y-72210000D01*
X83287351Y-72210361D01*
G37*
G36*
X83787351Y-72210361D02*
G01*
X83794632Y-72211441D01*
X83801771Y-72213229D01*
X83808701Y-72215709D01*
X83815355Y-72218856D01*
X83821668Y-72222640D01*
X83827579Y-72227024D01*
X83833033Y-72231967D01*
X83837976Y-72237421D01*
X83842360Y-72243332D01*
X83846144Y-72249645D01*
X83849291Y-72256299D01*
X83851771Y-72263229D01*
X83853559Y-72270368D01*
X83854639Y-72277649D01*
X83855000Y-72285000D01*
X83855000Y-73685000D01*
X83854639Y-73692351D01*
X83853559Y-73699632D01*
X83851771Y-73706771D01*
X83849291Y-73713701D01*
X83846144Y-73720355D01*
X83842360Y-73726668D01*
X83837976Y-73732579D01*
X83833033Y-73738033D01*
X83827579Y-73742976D01*
X83821668Y-73747360D01*
X83815355Y-73751144D01*
X83808701Y-73754291D01*
X83801771Y-73756771D01*
X83794632Y-73758559D01*
X83787351Y-73759639D01*
X83780000Y-73760000D01*
X83630000Y-73760000D01*
X83622649Y-73759639D01*
X83615368Y-73758559D01*
X83608229Y-73756771D01*
X83601299Y-73754291D01*
X83594645Y-73751144D01*
X83588332Y-73747360D01*
X83582421Y-73742976D01*
X83576967Y-73738033D01*
X83572024Y-73732579D01*
X83567640Y-73726668D01*
X83563856Y-73720355D01*
X83560709Y-73713701D01*
X83558229Y-73706771D01*
X83556441Y-73699632D01*
X83555361Y-73692351D01*
X83555000Y-73685000D01*
X83555000Y-72285000D01*
X83555361Y-72277649D01*
X83556441Y-72270368D01*
X83558229Y-72263229D01*
X83560709Y-72256299D01*
X83563856Y-72249645D01*
X83567640Y-72243332D01*
X83572024Y-72237421D01*
X83576967Y-72231967D01*
X83582421Y-72227024D01*
X83588332Y-72222640D01*
X83594645Y-72218856D01*
X83601299Y-72215709D01*
X83608229Y-72213229D01*
X83615368Y-72211441D01*
X83622649Y-72210361D01*
X83630000Y-72210000D01*
X83780000Y-72210000D01*
X83787351Y-72210361D01*
G37*
G36*
X84287351Y-72210361D02*
G01*
X84294632Y-72211441D01*
X84301771Y-72213229D01*
X84308701Y-72215709D01*
X84315355Y-72218856D01*
X84321668Y-72222640D01*
X84327579Y-72227024D01*
X84333033Y-72231967D01*
X84337976Y-72237421D01*
X84342360Y-72243332D01*
X84346144Y-72249645D01*
X84349291Y-72256299D01*
X84351771Y-72263229D01*
X84353559Y-72270368D01*
X84354639Y-72277649D01*
X84355000Y-72285000D01*
X84355000Y-73685000D01*
X84354639Y-73692351D01*
X84353559Y-73699632D01*
X84351771Y-73706771D01*
X84349291Y-73713701D01*
X84346144Y-73720355D01*
X84342360Y-73726668D01*
X84337976Y-73732579D01*
X84333033Y-73738033D01*
X84327579Y-73742976D01*
X84321668Y-73747360D01*
X84315355Y-73751144D01*
X84308701Y-73754291D01*
X84301771Y-73756771D01*
X84294632Y-73758559D01*
X84287351Y-73759639D01*
X84280000Y-73760000D01*
X84130000Y-73760000D01*
X84122649Y-73759639D01*
X84115368Y-73758559D01*
X84108229Y-73756771D01*
X84101299Y-73754291D01*
X84094645Y-73751144D01*
X84088332Y-73747360D01*
X84082421Y-73742976D01*
X84076967Y-73738033D01*
X84072024Y-73732579D01*
X84067640Y-73726668D01*
X84063856Y-73720355D01*
X84060709Y-73713701D01*
X84058229Y-73706771D01*
X84056441Y-73699632D01*
X84055361Y-73692351D01*
X84055000Y-73685000D01*
X84055000Y-72285000D01*
X84055361Y-72277649D01*
X84056441Y-72270368D01*
X84058229Y-72263229D01*
X84060709Y-72256299D01*
X84063856Y-72249645D01*
X84067640Y-72243332D01*
X84072024Y-72237421D01*
X84076967Y-72231967D01*
X84082421Y-72227024D01*
X84088332Y-72222640D01*
X84094645Y-72218856D01*
X84101299Y-72215709D01*
X84108229Y-72213229D01*
X84115368Y-72211441D01*
X84122649Y-72210361D01*
X84130000Y-72210000D01*
X84280000Y-72210000D01*
X84287351Y-72210361D01*
G37*
G36*
X84787351Y-72210361D02*
G01*
X84794632Y-72211441D01*
X84801771Y-72213229D01*
X84808701Y-72215709D01*
X84815355Y-72218856D01*
X84821668Y-72222640D01*
X84827579Y-72227024D01*
X84833033Y-72231967D01*
X84837976Y-72237421D01*
X84842360Y-72243332D01*
X84846144Y-72249645D01*
X84849291Y-72256299D01*
X84851771Y-72263229D01*
X84853559Y-72270368D01*
X84854639Y-72277649D01*
X84855000Y-72285000D01*
X84855000Y-73685000D01*
X84854639Y-73692351D01*
X84853559Y-73699632D01*
X84851771Y-73706771D01*
X84849291Y-73713701D01*
X84846144Y-73720355D01*
X84842360Y-73726668D01*
X84837976Y-73732579D01*
X84833033Y-73738033D01*
X84827579Y-73742976D01*
X84821668Y-73747360D01*
X84815355Y-73751144D01*
X84808701Y-73754291D01*
X84801771Y-73756771D01*
X84794632Y-73758559D01*
X84787351Y-73759639D01*
X84780000Y-73760000D01*
X84630000Y-73760000D01*
X84622649Y-73759639D01*
X84615368Y-73758559D01*
X84608229Y-73756771D01*
X84601299Y-73754291D01*
X84594645Y-73751144D01*
X84588332Y-73747360D01*
X84582421Y-73742976D01*
X84576967Y-73738033D01*
X84572024Y-73732579D01*
X84567640Y-73726668D01*
X84563856Y-73720355D01*
X84560709Y-73713701D01*
X84558229Y-73706771D01*
X84556441Y-73699632D01*
X84555361Y-73692351D01*
X84555000Y-73685000D01*
X84555000Y-72285000D01*
X84555361Y-72277649D01*
X84556441Y-72270368D01*
X84558229Y-72263229D01*
X84560709Y-72256299D01*
X84563856Y-72249645D01*
X84567640Y-72243332D01*
X84572024Y-72237421D01*
X84576967Y-72231967D01*
X84582421Y-72227024D01*
X84588332Y-72222640D01*
X84594645Y-72218856D01*
X84601299Y-72215709D01*
X84608229Y-72213229D01*
X84615368Y-72211441D01*
X84622649Y-72210361D01*
X84630000Y-72210000D01*
X84780000Y-72210000D01*
X84787351Y-72210361D01*
G37*
G36*
X85287351Y-72210361D02*
G01*
X85294632Y-72211441D01*
X85301771Y-72213229D01*
X85308701Y-72215709D01*
X85315355Y-72218856D01*
X85321668Y-72222640D01*
X85327579Y-72227024D01*
X85333033Y-72231967D01*
X85337976Y-72237421D01*
X85342360Y-72243332D01*
X85346144Y-72249645D01*
X85349291Y-72256299D01*
X85351771Y-72263229D01*
X85353559Y-72270368D01*
X85354639Y-72277649D01*
X85355000Y-72285000D01*
X85355000Y-73685000D01*
X85354639Y-73692351D01*
X85353559Y-73699632D01*
X85351771Y-73706771D01*
X85349291Y-73713701D01*
X85346144Y-73720355D01*
X85342360Y-73726668D01*
X85337976Y-73732579D01*
X85333033Y-73738033D01*
X85327579Y-73742976D01*
X85321668Y-73747360D01*
X85315355Y-73751144D01*
X85308701Y-73754291D01*
X85301771Y-73756771D01*
X85294632Y-73758559D01*
X85287351Y-73759639D01*
X85280000Y-73760000D01*
X85130000Y-73760000D01*
X85122649Y-73759639D01*
X85115368Y-73758559D01*
X85108229Y-73756771D01*
X85101299Y-73754291D01*
X85094645Y-73751144D01*
X85088332Y-73747360D01*
X85082421Y-73742976D01*
X85076967Y-73738033D01*
X85072024Y-73732579D01*
X85067640Y-73726668D01*
X85063856Y-73720355D01*
X85060709Y-73713701D01*
X85058229Y-73706771D01*
X85056441Y-73699632D01*
X85055361Y-73692351D01*
X85055000Y-73685000D01*
X85055000Y-72285000D01*
X85055361Y-72277649D01*
X85056441Y-72270368D01*
X85058229Y-72263229D01*
X85060709Y-72256299D01*
X85063856Y-72249645D01*
X85067640Y-72243332D01*
X85072024Y-72237421D01*
X85076967Y-72231967D01*
X85082421Y-72227024D01*
X85088332Y-72222640D01*
X85094645Y-72218856D01*
X85101299Y-72215709D01*
X85108229Y-72213229D01*
X85115368Y-72211441D01*
X85122649Y-72210361D01*
X85130000Y-72210000D01*
X85280000Y-72210000D01*
X85287351Y-72210361D01*
G37*
G36*
X85787351Y-72210361D02*
G01*
X85794632Y-72211441D01*
X85801771Y-72213229D01*
X85808701Y-72215709D01*
X85815355Y-72218856D01*
X85821668Y-72222640D01*
X85827579Y-72227024D01*
X85833033Y-72231967D01*
X85837976Y-72237421D01*
X85842360Y-72243332D01*
X85846144Y-72249645D01*
X85849291Y-72256299D01*
X85851771Y-72263229D01*
X85853559Y-72270368D01*
X85854639Y-72277649D01*
X85855000Y-72285000D01*
X85855000Y-73685000D01*
X85854639Y-73692351D01*
X85853559Y-73699632D01*
X85851771Y-73706771D01*
X85849291Y-73713701D01*
X85846144Y-73720355D01*
X85842360Y-73726668D01*
X85837976Y-73732579D01*
X85833033Y-73738033D01*
X85827579Y-73742976D01*
X85821668Y-73747360D01*
X85815355Y-73751144D01*
X85808701Y-73754291D01*
X85801771Y-73756771D01*
X85794632Y-73758559D01*
X85787351Y-73759639D01*
X85780000Y-73760000D01*
X85630000Y-73760000D01*
X85622649Y-73759639D01*
X85615368Y-73758559D01*
X85608229Y-73756771D01*
X85601299Y-73754291D01*
X85594645Y-73751144D01*
X85588332Y-73747360D01*
X85582421Y-73742976D01*
X85576967Y-73738033D01*
X85572024Y-73732579D01*
X85567640Y-73726668D01*
X85563856Y-73720355D01*
X85560709Y-73713701D01*
X85558229Y-73706771D01*
X85556441Y-73699632D01*
X85555361Y-73692351D01*
X85555000Y-73685000D01*
X85555000Y-72285000D01*
X85555361Y-72277649D01*
X85556441Y-72270368D01*
X85558229Y-72263229D01*
X85560709Y-72256299D01*
X85563856Y-72249645D01*
X85567640Y-72243332D01*
X85572024Y-72237421D01*
X85576967Y-72231967D01*
X85582421Y-72227024D01*
X85588332Y-72222640D01*
X85594645Y-72218856D01*
X85601299Y-72215709D01*
X85608229Y-72213229D01*
X85615368Y-72211441D01*
X85622649Y-72210361D01*
X85630000Y-72210000D01*
X85780000Y-72210000D01*
X85787351Y-72210361D01*
G37*
G36*
X86287351Y-72210361D02*
G01*
X86294632Y-72211441D01*
X86301771Y-72213229D01*
X86308701Y-72215709D01*
X86315355Y-72218856D01*
X86321668Y-72222640D01*
X86327579Y-72227024D01*
X86333033Y-72231967D01*
X86337976Y-72237421D01*
X86342360Y-72243332D01*
X86346144Y-72249645D01*
X86349291Y-72256299D01*
X86351771Y-72263229D01*
X86353559Y-72270368D01*
X86354639Y-72277649D01*
X86355000Y-72285000D01*
X86355000Y-73685000D01*
X86354639Y-73692351D01*
X86353559Y-73699632D01*
X86351771Y-73706771D01*
X86349291Y-73713701D01*
X86346144Y-73720355D01*
X86342360Y-73726668D01*
X86337976Y-73732579D01*
X86333033Y-73738033D01*
X86327579Y-73742976D01*
X86321668Y-73747360D01*
X86315355Y-73751144D01*
X86308701Y-73754291D01*
X86301771Y-73756771D01*
X86294632Y-73758559D01*
X86287351Y-73759639D01*
X86280000Y-73760000D01*
X86130000Y-73760000D01*
X86122649Y-73759639D01*
X86115368Y-73758559D01*
X86108229Y-73756771D01*
X86101299Y-73754291D01*
X86094645Y-73751144D01*
X86088332Y-73747360D01*
X86082421Y-73742976D01*
X86076967Y-73738033D01*
X86072024Y-73732579D01*
X86067640Y-73726668D01*
X86063856Y-73720355D01*
X86060709Y-73713701D01*
X86058229Y-73706771D01*
X86056441Y-73699632D01*
X86055361Y-73692351D01*
X86055000Y-73685000D01*
X86055000Y-72285000D01*
X86055361Y-72277649D01*
X86056441Y-72270368D01*
X86058229Y-72263229D01*
X86060709Y-72256299D01*
X86063856Y-72249645D01*
X86067640Y-72243332D01*
X86072024Y-72237421D01*
X86076967Y-72231967D01*
X86082421Y-72227024D01*
X86088332Y-72222640D01*
X86094645Y-72218856D01*
X86101299Y-72215709D01*
X86108229Y-72213229D01*
X86115368Y-72211441D01*
X86122649Y-72210361D01*
X86130000Y-72210000D01*
X86280000Y-72210000D01*
X86287351Y-72210361D01*
G37*
G36*
X86787351Y-72210361D02*
G01*
X86794632Y-72211441D01*
X86801771Y-72213229D01*
X86808701Y-72215709D01*
X86815355Y-72218856D01*
X86821668Y-72222640D01*
X86827579Y-72227024D01*
X86833033Y-72231967D01*
X86837976Y-72237421D01*
X86842360Y-72243332D01*
X86846144Y-72249645D01*
X86849291Y-72256299D01*
X86851771Y-72263229D01*
X86853559Y-72270368D01*
X86854639Y-72277649D01*
X86855000Y-72285000D01*
X86855000Y-73685000D01*
X86854639Y-73692351D01*
X86853559Y-73699632D01*
X86851771Y-73706771D01*
X86849291Y-73713701D01*
X86846144Y-73720355D01*
X86842360Y-73726668D01*
X86837976Y-73732579D01*
X86833033Y-73738033D01*
X86827579Y-73742976D01*
X86821668Y-73747360D01*
X86815355Y-73751144D01*
X86808701Y-73754291D01*
X86801771Y-73756771D01*
X86794632Y-73758559D01*
X86787351Y-73759639D01*
X86780000Y-73760000D01*
X86630000Y-73760000D01*
X86622649Y-73759639D01*
X86615368Y-73758559D01*
X86608229Y-73756771D01*
X86601299Y-73754291D01*
X86594645Y-73751144D01*
X86588332Y-73747360D01*
X86582421Y-73742976D01*
X86576967Y-73738033D01*
X86572024Y-73732579D01*
X86567640Y-73726668D01*
X86563856Y-73720355D01*
X86560709Y-73713701D01*
X86558229Y-73706771D01*
X86556441Y-73699632D01*
X86555361Y-73692351D01*
X86555000Y-73685000D01*
X86555000Y-72285000D01*
X86555361Y-72277649D01*
X86556441Y-72270368D01*
X86558229Y-72263229D01*
X86560709Y-72256299D01*
X86563856Y-72249645D01*
X86567640Y-72243332D01*
X86572024Y-72237421D01*
X86576967Y-72231967D01*
X86582421Y-72227024D01*
X86588332Y-72222640D01*
X86594645Y-72218856D01*
X86601299Y-72215709D01*
X86608229Y-72213229D01*
X86615368Y-72211441D01*
X86622649Y-72210361D01*
X86630000Y-72210000D01*
X86780000Y-72210000D01*
X86787351Y-72210361D01*
G37*
G36*
X87287351Y-72210361D02*
G01*
X87294632Y-72211441D01*
X87301771Y-72213229D01*
X87308701Y-72215709D01*
X87315355Y-72218856D01*
X87321668Y-72222640D01*
X87327579Y-72227024D01*
X87333033Y-72231967D01*
X87337976Y-72237421D01*
X87342360Y-72243332D01*
X87346144Y-72249645D01*
X87349291Y-72256299D01*
X87351771Y-72263229D01*
X87353559Y-72270368D01*
X87354639Y-72277649D01*
X87355000Y-72285000D01*
X87355000Y-73685000D01*
X87354639Y-73692351D01*
X87353559Y-73699632D01*
X87351771Y-73706771D01*
X87349291Y-73713701D01*
X87346144Y-73720355D01*
X87342360Y-73726668D01*
X87337976Y-73732579D01*
X87333033Y-73738033D01*
X87327579Y-73742976D01*
X87321668Y-73747360D01*
X87315355Y-73751144D01*
X87308701Y-73754291D01*
X87301771Y-73756771D01*
X87294632Y-73758559D01*
X87287351Y-73759639D01*
X87280000Y-73760000D01*
X87130000Y-73760000D01*
X87122649Y-73759639D01*
X87115368Y-73758559D01*
X87108229Y-73756771D01*
X87101299Y-73754291D01*
X87094645Y-73751144D01*
X87088332Y-73747360D01*
X87082421Y-73742976D01*
X87076967Y-73738033D01*
X87072024Y-73732579D01*
X87067640Y-73726668D01*
X87063856Y-73720355D01*
X87060709Y-73713701D01*
X87058229Y-73706771D01*
X87056441Y-73699632D01*
X87055361Y-73692351D01*
X87055000Y-73685000D01*
X87055000Y-72285000D01*
X87055361Y-72277649D01*
X87056441Y-72270368D01*
X87058229Y-72263229D01*
X87060709Y-72256299D01*
X87063856Y-72249645D01*
X87067640Y-72243332D01*
X87072024Y-72237421D01*
X87076967Y-72231967D01*
X87082421Y-72227024D01*
X87088332Y-72222640D01*
X87094645Y-72218856D01*
X87101299Y-72215709D01*
X87108229Y-72213229D01*
X87115368Y-72211441D01*
X87122649Y-72210361D01*
X87130000Y-72210000D01*
X87280000Y-72210000D01*
X87287351Y-72210361D01*
G37*
G36*
X87787351Y-72210361D02*
G01*
X87794632Y-72211441D01*
X87801771Y-72213229D01*
X87808701Y-72215709D01*
X87815355Y-72218856D01*
X87821668Y-72222640D01*
X87827579Y-72227024D01*
X87833033Y-72231967D01*
X87837976Y-72237421D01*
X87842360Y-72243332D01*
X87846144Y-72249645D01*
X87849291Y-72256299D01*
X87851771Y-72263229D01*
X87853559Y-72270368D01*
X87854639Y-72277649D01*
X87855000Y-72285000D01*
X87855000Y-73685000D01*
X87854639Y-73692351D01*
X87853559Y-73699632D01*
X87851771Y-73706771D01*
X87849291Y-73713701D01*
X87846144Y-73720355D01*
X87842360Y-73726668D01*
X87837976Y-73732579D01*
X87833033Y-73738033D01*
X87827579Y-73742976D01*
X87821668Y-73747360D01*
X87815355Y-73751144D01*
X87808701Y-73754291D01*
X87801771Y-73756771D01*
X87794632Y-73758559D01*
X87787351Y-73759639D01*
X87780000Y-73760000D01*
X87630000Y-73760000D01*
X87622649Y-73759639D01*
X87615368Y-73758559D01*
X87608229Y-73756771D01*
X87601299Y-73754291D01*
X87594645Y-73751144D01*
X87588332Y-73747360D01*
X87582421Y-73742976D01*
X87576967Y-73738033D01*
X87572024Y-73732579D01*
X87567640Y-73726668D01*
X87563856Y-73720355D01*
X87560709Y-73713701D01*
X87558229Y-73706771D01*
X87556441Y-73699632D01*
X87555361Y-73692351D01*
X87555000Y-73685000D01*
X87555000Y-72285000D01*
X87555361Y-72277649D01*
X87556441Y-72270368D01*
X87558229Y-72263229D01*
X87560709Y-72256299D01*
X87563856Y-72249645D01*
X87567640Y-72243332D01*
X87572024Y-72237421D01*
X87576967Y-72231967D01*
X87582421Y-72227024D01*
X87588332Y-72222640D01*
X87594645Y-72218856D01*
X87601299Y-72215709D01*
X87608229Y-72213229D01*
X87615368Y-72211441D01*
X87622649Y-72210361D01*
X87630000Y-72210000D01*
X87780000Y-72210000D01*
X87787351Y-72210361D01*
G37*
G36*
X88287351Y-72210361D02*
G01*
X88294632Y-72211441D01*
X88301771Y-72213229D01*
X88308701Y-72215709D01*
X88315355Y-72218856D01*
X88321668Y-72222640D01*
X88327579Y-72227024D01*
X88333033Y-72231967D01*
X88337976Y-72237421D01*
X88342360Y-72243332D01*
X88346144Y-72249645D01*
X88349291Y-72256299D01*
X88351771Y-72263229D01*
X88353559Y-72270368D01*
X88354639Y-72277649D01*
X88355000Y-72285000D01*
X88355000Y-73685000D01*
X88354639Y-73692351D01*
X88353559Y-73699632D01*
X88351771Y-73706771D01*
X88349291Y-73713701D01*
X88346144Y-73720355D01*
X88342360Y-73726668D01*
X88337976Y-73732579D01*
X88333033Y-73738033D01*
X88327579Y-73742976D01*
X88321668Y-73747360D01*
X88315355Y-73751144D01*
X88308701Y-73754291D01*
X88301771Y-73756771D01*
X88294632Y-73758559D01*
X88287351Y-73759639D01*
X88280000Y-73760000D01*
X88130000Y-73760000D01*
X88122649Y-73759639D01*
X88115368Y-73758559D01*
X88108229Y-73756771D01*
X88101299Y-73754291D01*
X88094645Y-73751144D01*
X88088332Y-73747360D01*
X88082421Y-73742976D01*
X88076967Y-73738033D01*
X88072024Y-73732579D01*
X88067640Y-73726668D01*
X88063856Y-73720355D01*
X88060709Y-73713701D01*
X88058229Y-73706771D01*
X88056441Y-73699632D01*
X88055361Y-73692351D01*
X88055000Y-73685000D01*
X88055000Y-72285000D01*
X88055361Y-72277649D01*
X88056441Y-72270368D01*
X88058229Y-72263229D01*
X88060709Y-72256299D01*
X88063856Y-72249645D01*
X88067640Y-72243332D01*
X88072024Y-72237421D01*
X88076967Y-72231967D01*
X88082421Y-72227024D01*
X88088332Y-72222640D01*
X88094645Y-72218856D01*
X88101299Y-72215709D01*
X88108229Y-72213229D01*
X88115368Y-72211441D01*
X88122649Y-72210361D01*
X88130000Y-72210000D01*
X88280000Y-72210000D01*
X88287351Y-72210361D01*
G37*
G36*
X90837351Y-70910361D02*
G01*
X90844632Y-70911441D01*
X90851771Y-70913229D01*
X90858701Y-70915709D01*
X90865355Y-70918856D01*
X90871668Y-70922640D01*
X90877579Y-70927024D01*
X90883033Y-70931967D01*
X90887976Y-70937421D01*
X90892360Y-70943332D01*
X90896144Y-70949645D01*
X90899291Y-70956299D01*
X90901771Y-70963229D01*
X90903559Y-70970368D01*
X90904639Y-70977649D01*
X90905000Y-70985000D01*
X90905000Y-71135000D01*
X90904639Y-71142351D01*
X90903559Y-71149632D01*
X90901771Y-71156771D01*
X90899291Y-71163701D01*
X90896144Y-71170355D01*
X90892360Y-71176668D01*
X90887976Y-71182579D01*
X90883033Y-71188033D01*
X90877579Y-71192976D01*
X90871668Y-71197360D01*
X90865355Y-71201144D01*
X90858701Y-71204291D01*
X90851771Y-71206771D01*
X90844632Y-71208559D01*
X90837351Y-71209639D01*
X90830000Y-71210000D01*
X89430000Y-71210000D01*
X89422649Y-71209639D01*
X89415368Y-71208559D01*
X89408229Y-71206771D01*
X89401299Y-71204291D01*
X89394645Y-71201144D01*
X89388332Y-71197360D01*
X89382421Y-71192976D01*
X89376967Y-71188033D01*
X89372024Y-71182579D01*
X89367640Y-71176668D01*
X89363856Y-71170355D01*
X89360709Y-71163701D01*
X89358229Y-71156771D01*
X89356441Y-71149632D01*
X89355361Y-71142351D01*
X89355000Y-71135000D01*
X89355000Y-70985000D01*
X89355361Y-70977649D01*
X89356441Y-70970368D01*
X89358229Y-70963229D01*
X89360709Y-70956299D01*
X89363856Y-70949645D01*
X89367640Y-70943332D01*
X89372024Y-70937421D01*
X89376967Y-70931967D01*
X89382421Y-70927024D01*
X89388332Y-70922640D01*
X89394645Y-70918856D01*
X89401299Y-70915709D01*
X89408229Y-70913229D01*
X89415368Y-70911441D01*
X89422649Y-70910361D01*
X89430000Y-70910000D01*
X90830000Y-70910000D01*
X90837351Y-70910361D01*
G37*
G36*
X90837351Y-70410361D02*
G01*
X90844632Y-70411441D01*
X90851771Y-70413229D01*
X90858701Y-70415709D01*
X90865355Y-70418856D01*
X90871668Y-70422640D01*
X90877579Y-70427024D01*
X90883033Y-70431967D01*
X90887976Y-70437421D01*
X90892360Y-70443332D01*
X90896144Y-70449645D01*
X90899291Y-70456299D01*
X90901771Y-70463229D01*
X90903559Y-70470368D01*
X90904639Y-70477649D01*
X90905000Y-70485000D01*
X90905000Y-70635000D01*
X90904639Y-70642351D01*
X90903559Y-70649632D01*
X90901771Y-70656771D01*
X90899291Y-70663701D01*
X90896144Y-70670355D01*
X90892360Y-70676668D01*
X90887976Y-70682579D01*
X90883033Y-70688033D01*
X90877579Y-70692976D01*
X90871668Y-70697360D01*
X90865355Y-70701144D01*
X90858701Y-70704291D01*
X90851771Y-70706771D01*
X90844632Y-70708559D01*
X90837351Y-70709639D01*
X90830000Y-70710000D01*
X89430000Y-70710000D01*
X89422649Y-70709639D01*
X89415368Y-70708559D01*
X89408229Y-70706771D01*
X89401299Y-70704291D01*
X89394645Y-70701144D01*
X89388332Y-70697360D01*
X89382421Y-70692976D01*
X89376967Y-70688033D01*
X89372024Y-70682579D01*
X89367640Y-70676668D01*
X89363856Y-70670355D01*
X89360709Y-70663701D01*
X89358229Y-70656771D01*
X89356441Y-70649632D01*
X89355361Y-70642351D01*
X89355000Y-70635000D01*
X89355000Y-70485000D01*
X89355361Y-70477649D01*
X89356441Y-70470368D01*
X89358229Y-70463229D01*
X89360709Y-70456299D01*
X89363856Y-70449645D01*
X89367640Y-70443332D01*
X89372024Y-70437421D01*
X89376967Y-70431967D01*
X89382421Y-70427024D01*
X89388332Y-70422640D01*
X89394645Y-70418856D01*
X89401299Y-70415709D01*
X89408229Y-70413229D01*
X89415368Y-70411441D01*
X89422649Y-70410361D01*
X89430000Y-70410000D01*
X90830000Y-70410000D01*
X90837351Y-70410361D01*
G37*
G36*
X90837351Y-69910361D02*
G01*
X90844632Y-69911441D01*
X90851771Y-69913229D01*
X90858701Y-69915709D01*
X90865355Y-69918856D01*
X90871668Y-69922640D01*
X90877579Y-69927024D01*
X90883033Y-69931967D01*
X90887976Y-69937421D01*
X90892360Y-69943332D01*
X90896144Y-69949645D01*
X90899291Y-69956299D01*
X90901771Y-69963229D01*
X90903559Y-69970368D01*
X90904639Y-69977649D01*
X90905000Y-69985000D01*
X90905000Y-70135000D01*
X90904639Y-70142351D01*
X90903559Y-70149632D01*
X90901771Y-70156771D01*
X90899291Y-70163701D01*
X90896144Y-70170355D01*
X90892360Y-70176668D01*
X90887976Y-70182579D01*
X90883033Y-70188033D01*
X90877579Y-70192976D01*
X90871668Y-70197360D01*
X90865355Y-70201144D01*
X90858701Y-70204291D01*
X90851771Y-70206771D01*
X90844632Y-70208559D01*
X90837351Y-70209639D01*
X90830000Y-70210000D01*
X89430000Y-70210000D01*
X89422649Y-70209639D01*
X89415368Y-70208559D01*
X89408229Y-70206771D01*
X89401299Y-70204291D01*
X89394645Y-70201144D01*
X89388332Y-70197360D01*
X89382421Y-70192976D01*
X89376967Y-70188033D01*
X89372024Y-70182579D01*
X89367640Y-70176668D01*
X89363856Y-70170355D01*
X89360709Y-70163701D01*
X89358229Y-70156771D01*
X89356441Y-70149632D01*
X89355361Y-70142351D01*
X89355000Y-70135000D01*
X89355000Y-69985000D01*
X89355361Y-69977649D01*
X89356441Y-69970368D01*
X89358229Y-69963229D01*
X89360709Y-69956299D01*
X89363856Y-69949645D01*
X89367640Y-69943332D01*
X89372024Y-69937421D01*
X89376967Y-69931967D01*
X89382421Y-69927024D01*
X89388332Y-69922640D01*
X89394645Y-69918856D01*
X89401299Y-69915709D01*
X89408229Y-69913229D01*
X89415368Y-69911441D01*
X89422649Y-69910361D01*
X89430000Y-69910000D01*
X90830000Y-69910000D01*
X90837351Y-69910361D01*
G37*
G36*
X90837351Y-69410361D02*
G01*
X90844632Y-69411441D01*
X90851771Y-69413229D01*
X90858701Y-69415709D01*
X90865355Y-69418856D01*
X90871668Y-69422640D01*
X90877579Y-69427024D01*
X90883033Y-69431967D01*
X90887976Y-69437421D01*
X90892360Y-69443332D01*
X90896144Y-69449645D01*
X90899291Y-69456299D01*
X90901771Y-69463229D01*
X90903559Y-69470368D01*
X90904639Y-69477649D01*
X90905000Y-69485000D01*
X90905000Y-69635000D01*
X90904639Y-69642351D01*
X90903559Y-69649632D01*
X90901771Y-69656771D01*
X90899291Y-69663701D01*
X90896144Y-69670355D01*
X90892360Y-69676668D01*
X90887976Y-69682579D01*
X90883033Y-69688033D01*
X90877579Y-69692976D01*
X90871668Y-69697360D01*
X90865355Y-69701144D01*
X90858701Y-69704291D01*
X90851771Y-69706771D01*
X90844632Y-69708559D01*
X90837351Y-69709639D01*
X90830000Y-69710000D01*
X89430000Y-69710000D01*
X89422649Y-69709639D01*
X89415368Y-69708559D01*
X89408229Y-69706771D01*
X89401299Y-69704291D01*
X89394645Y-69701144D01*
X89388332Y-69697360D01*
X89382421Y-69692976D01*
X89376967Y-69688033D01*
X89372024Y-69682579D01*
X89367640Y-69676668D01*
X89363856Y-69670355D01*
X89360709Y-69663701D01*
X89358229Y-69656771D01*
X89356441Y-69649632D01*
X89355361Y-69642351D01*
X89355000Y-69635000D01*
X89355000Y-69485000D01*
X89355361Y-69477649D01*
X89356441Y-69470368D01*
X89358229Y-69463229D01*
X89360709Y-69456299D01*
X89363856Y-69449645D01*
X89367640Y-69443332D01*
X89372024Y-69437421D01*
X89376967Y-69431967D01*
X89382421Y-69427024D01*
X89388332Y-69422640D01*
X89394645Y-69418856D01*
X89401299Y-69415709D01*
X89408229Y-69413229D01*
X89415368Y-69411441D01*
X89422649Y-69410361D01*
X89430000Y-69410000D01*
X90830000Y-69410000D01*
X90837351Y-69410361D01*
G37*
G36*
X90837351Y-68910361D02*
G01*
X90844632Y-68911441D01*
X90851771Y-68913229D01*
X90858701Y-68915709D01*
X90865355Y-68918856D01*
X90871668Y-68922640D01*
X90877579Y-68927024D01*
X90883033Y-68931967D01*
X90887976Y-68937421D01*
X90892360Y-68943332D01*
X90896144Y-68949645D01*
X90899291Y-68956299D01*
X90901771Y-68963229D01*
X90903559Y-68970368D01*
X90904639Y-68977649D01*
X90905000Y-68985000D01*
X90905000Y-69135000D01*
X90904639Y-69142351D01*
X90903559Y-69149632D01*
X90901771Y-69156771D01*
X90899291Y-69163701D01*
X90896144Y-69170355D01*
X90892360Y-69176668D01*
X90887976Y-69182579D01*
X90883033Y-69188033D01*
X90877579Y-69192976D01*
X90871668Y-69197360D01*
X90865355Y-69201144D01*
X90858701Y-69204291D01*
X90851771Y-69206771D01*
X90844632Y-69208559D01*
X90837351Y-69209639D01*
X90830000Y-69210000D01*
X89430000Y-69210000D01*
X89422649Y-69209639D01*
X89415368Y-69208559D01*
X89408229Y-69206771D01*
X89401299Y-69204291D01*
X89394645Y-69201144D01*
X89388332Y-69197360D01*
X89382421Y-69192976D01*
X89376967Y-69188033D01*
X89372024Y-69182579D01*
X89367640Y-69176668D01*
X89363856Y-69170355D01*
X89360709Y-69163701D01*
X89358229Y-69156771D01*
X89356441Y-69149632D01*
X89355361Y-69142351D01*
X89355000Y-69135000D01*
X89355000Y-68985000D01*
X89355361Y-68977649D01*
X89356441Y-68970368D01*
X89358229Y-68963229D01*
X89360709Y-68956299D01*
X89363856Y-68949645D01*
X89367640Y-68943332D01*
X89372024Y-68937421D01*
X89376967Y-68931967D01*
X89382421Y-68927024D01*
X89388332Y-68922640D01*
X89394645Y-68918856D01*
X89401299Y-68915709D01*
X89408229Y-68913229D01*
X89415368Y-68911441D01*
X89422649Y-68910361D01*
X89430000Y-68910000D01*
X90830000Y-68910000D01*
X90837351Y-68910361D01*
G37*
G36*
X90837351Y-68410361D02*
G01*
X90844632Y-68411441D01*
X90851771Y-68413229D01*
X90858701Y-68415709D01*
X90865355Y-68418856D01*
X90871668Y-68422640D01*
X90877579Y-68427024D01*
X90883033Y-68431967D01*
X90887976Y-68437421D01*
X90892360Y-68443332D01*
X90896144Y-68449645D01*
X90899291Y-68456299D01*
X90901771Y-68463229D01*
X90903559Y-68470368D01*
X90904639Y-68477649D01*
X90905000Y-68485000D01*
X90905000Y-68635000D01*
X90904639Y-68642351D01*
X90903559Y-68649632D01*
X90901771Y-68656771D01*
X90899291Y-68663701D01*
X90896144Y-68670355D01*
X90892360Y-68676668D01*
X90887976Y-68682579D01*
X90883033Y-68688033D01*
X90877579Y-68692976D01*
X90871668Y-68697360D01*
X90865355Y-68701144D01*
X90858701Y-68704291D01*
X90851771Y-68706771D01*
X90844632Y-68708559D01*
X90837351Y-68709639D01*
X90830000Y-68710000D01*
X89430000Y-68710000D01*
X89422649Y-68709639D01*
X89415368Y-68708559D01*
X89408229Y-68706771D01*
X89401299Y-68704291D01*
X89394645Y-68701144D01*
X89388332Y-68697360D01*
X89382421Y-68692976D01*
X89376967Y-68688033D01*
X89372024Y-68682579D01*
X89367640Y-68676668D01*
X89363856Y-68670355D01*
X89360709Y-68663701D01*
X89358229Y-68656771D01*
X89356441Y-68649632D01*
X89355361Y-68642351D01*
X89355000Y-68635000D01*
X89355000Y-68485000D01*
X89355361Y-68477649D01*
X89356441Y-68470368D01*
X89358229Y-68463229D01*
X89360709Y-68456299D01*
X89363856Y-68449645D01*
X89367640Y-68443332D01*
X89372024Y-68437421D01*
X89376967Y-68431967D01*
X89382421Y-68427024D01*
X89388332Y-68422640D01*
X89394645Y-68418856D01*
X89401299Y-68415709D01*
X89408229Y-68413229D01*
X89415368Y-68411441D01*
X89422649Y-68410361D01*
X89430000Y-68410000D01*
X90830000Y-68410000D01*
X90837351Y-68410361D01*
G37*
G36*
X90837351Y-67910361D02*
G01*
X90844632Y-67911441D01*
X90851771Y-67913229D01*
X90858701Y-67915709D01*
X90865355Y-67918856D01*
X90871668Y-67922640D01*
X90877579Y-67927024D01*
X90883033Y-67931967D01*
X90887976Y-67937421D01*
X90892360Y-67943332D01*
X90896144Y-67949645D01*
X90899291Y-67956299D01*
X90901771Y-67963229D01*
X90903559Y-67970368D01*
X90904639Y-67977649D01*
X90905000Y-67985000D01*
X90905000Y-68135000D01*
X90904639Y-68142351D01*
X90903559Y-68149632D01*
X90901771Y-68156771D01*
X90899291Y-68163701D01*
X90896144Y-68170355D01*
X90892360Y-68176668D01*
X90887976Y-68182579D01*
X90883033Y-68188033D01*
X90877579Y-68192976D01*
X90871668Y-68197360D01*
X90865355Y-68201144D01*
X90858701Y-68204291D01*
X90851771Y-68206771D01*
X90844632Y-68208559D01*
X90837351Y-68209639D01*
X90830000Y-68210000D01*
X89430000Y-68210000D01*
X89422649Y-68209639D01*
X89415368Y-68208559D01*
X89408229Y-68206771D01*
X89401299Y-68204291D01*
X89394645Y-68201144D01*
X89388332Y-68197360D01*
X89382421Y-68192976D01*
X89376967Y-68188033D01*
X89372024Y-68182579D01*
X89367640Y-68176668D01*
X89363856Y-68170355D01*
X89360709Y-68163701D01*
X89358229Y-68156771D01*
X89356441Y-68149632D01*
X89355361Y-68142351D01*
X89355000Y-68135000D01*
X89355000Y-67985000D01*
X89355361Y-67977649D01*
X89356441Y-67970368D01*
X89358229Y-67963229D01*
X89360709Y-67956299D01*
X89363856Y-67949645D01*
X89367640Y-67943332D01*
X89372024Y-67937421D01*
X89376967Y-67931967D01*
X89382421Y-67927024D01*
X89388332Y-67922640D01*
X89394645Y-67918856D01*
X89401299Y-67915709D01*
X89408229Y-67913229D01*
X89415368Y-67911441D01*
X89422649Y-67910361D01*
X89430000Y-67910000D01*
X90830000Y-67910000D01*
X90837351Y-67910361D01*
G37*
G36*
X90837351Y-67410361D02*
G01*
X90844632Y-67411441D01*
X90851771Y-67413229D01*
X90858701Y-67415709D01*
X90865355Y-67418856D01*
X90871668Y-67422640D01*
X90877579Y-67427024D01*
X90883033Y-67431967D01*
X90887976Y-67437421D01*
X90892360Y-67443332D01*
X90896144Y-67449645D01*
X90899291Y-67456299D01*
X90901771Y-67463229D01*
X90903559Y-67470368D01*
X90904639Y-67477649D01*
X90905000Y-67485000D01*
X90905000Y-67635000D01*
X90904639Y-67642351D01*
X90903559Y-67649632D01*
X90901771Y-67656771D01*
X90899291Y-67663701D01*
X90896144Y-67670355D01*
X90892360Y-67676668D01*
X90887976Y-67682579D01*
X90883033Y-67688033D01*
X90877579Y-67692976D01*
X90871668Y-67697360D01*
X90865355Y-67701144D01*
X90858701Y-67704291D01*
X90851771Y-67706771D01*
X90844632Y-67708559D01*
X90837351Y-67709639D01*
X90830000Y-67710000D01*
X89430000Y-67710000D01*
X89422649Y-67709639D01*
X89415368Y-67708559D01*
X89408229Y-67706771D01*
X89401299Y-67704291D01*
X89394645Y-67701144D01*
X89388332Y-67697360D01*
X89382421Y-67692976D01*
X89376967Y-67688033D01*
X89372024Y-67682579D01*
X89367640Y-67676668D01*
X89363856Y-67670355D01*
X89360709Y-67663701D01*
X89358229Y-67656771D01*
X89356441Y-67649632D01*
X89355361Y-67642351D01*
X89355000Y-67635000D01*
X89355000Y-67485000D01*
X89355361Y-67477649D01*
X89356441Y-67470368D01*
X89358229Y-67463229D01*
X89360709Y-67456299D01*
X89363856Y-67449645D01*
X89367640Y-67443332D01*
X89372024Y-67437421D01*
X89376967Y-67431967D01*
X89382421Y-67427024D01*
X89388332Y-67422640D01*
X89394645Y-67418856D01*
X89401299Y-67415709D01*
X89408229Y-67413229D01*
X89415368Y-67411441D01*
X89422649Y-67410361D01*
X89430000Y-67410000D01*
X90830000Y-67410000D01*
X90837351Y-67410361D01*
G37*
G36*
X90837351Y-66910361D02*
G01*
X90844632Y-66911441D01*
X90851771Y-66913229D01*
X90858701Y-66915709D01*
X90865355Y-66918856D01*
X90871668Y-66922640D01*
X90877579Y-66927024D01*
X90883033Y-66931967D01*
X90887976Y-66937421D01*
X90892360Y-66943332D01*
X90896144Y-66949645D01*
X90899291Y-66956299D01*
X90901771Y-66963229D01*
X90903559Y-66970368D01*
X90904639Y-66977649D01*
X90905000Y-66985000D01*
X90905000Y-67135000D01*
X90904639Y-67142351D01*
X90903559Y-67149632D01*
X90901771Y-67156771D01*
X90899291Y-67163701D01*
X90896144Y-67170355D01*
X90892360Y-67176668D01*
X90887976Y-67182579D01*
X90883033Y-67188033D01*
X90877579Y-67192976D01*
X90871668Y-67197360D01*
X90865355Y-67201144D01*
X90858701Y-67204291D01*
X90851771Y-67206771D01*
X90844632Y-67208559D01*
X90837351Y-67209639D01*
X90830000Y-67210000D01*
X89430000Y-67210000D01*
X89422649Y-67209639D01*
X89415368Y-67208559D01*
X89408229Y-67206771D01*
X89401299Y-67204291D01*
X89394645Y-67201144D01*
X89388332Y-67197360D01*
X89382421Y-67192976D01*
X89376967Y-67188033D01*
X89372024Y-67182579D01*
X89367640Y-67176668D01*
X89363856Y-67170355D01*
X89360709Y-67163701D01*
X89358229Y-67156771D01*
X89356441Y-67149632D01*
X89355361Y-67142351D01*
X89355000Y-67135000D01*
X89355000Y-66985000D01*
X89355361Y-66977649D01*
X89356441Y-66970368D01*
X89358229Y-66963229D01*
X89360709Y-66956299D01*
X89363856Y-66949645D01*
X89367640Y-66943332D01*
X89372024Y-66937421D01*
X89376967Y-66931967D01*
X89382421Y-66927024D01*
X89388332Y-66922640D01*
X89394645Y-66918856D01*
X89401299Y-66915709D01*
X89408229Y-66913229D01*
X89415368Y-66911441D01*
X89422649Y-66910361D01*
X89430000Y-66910000D01*
X90830000Y-66910000D01*
X90837351Y-66910361D01*
G37*
G36*
X90837351Y-66410361D02*
G01*
X90844632Y-66411441D01*
X90851771Y-66413229D01*
X90858701Y-66415709D01*
X90865355Y-66418856D01*
X90871668Y-66422640D01*
X90877579Y-66427024D01*
X90883033Y-66431967D01*
X90887976Y-66437421D01*
X90892360Y-66443332D01*
X90896144Y-66449645D01*
X90899291Y-66456299D01*
X90901771Y-66463229D01*
X90903559Y-66470368D01*
X90904639Y-66477649D01*
X90905000Y-66485000D01*
X90905000Y-66635000D01*
X90904639Y-66642351D01*
X90903559Y-66649632D01*
X90901771Y-66656771D01*
X90899291Y-66663701D01*
X90896144Y-66670355D01*
X90892360Y-66676668D01*
X90887976Y-66682579D01*
X90883033Y-66688033D01*
X90877579Y-66692976D01*
X90871668Y-66697360D01*
X90865355Y-66701144D01*
X90858701Y-66704291D01*
X90851771Y-66706771D01*
X90844632Y-66708559D01*
X90837351Y-66709639D01*
X90830000Y-66710000D01*
X89430000Y-66710000D01*
X89422649Y-66709639D01*
X89415368Y-66708559D01*
X89408229Y-66706771D01*
X89401299Y-66704291D01*
X89394645Y-66701144D01*
X89388332Y-66697360D01*
X89382421Y-66692976D01*
X89376967Y-66688033D01*
X89372024Y-66682579D01*
X89367640Y-66676668D01*
X89363856Y-66670355D01*
X89360709Y-66663701D01*
X89358229Y-66656771D01*
X89356441Y-66649632D01*
X89355361Y-66642351D01*
X89355000Y-66635000D01*
X89355000Y-66485000D01*
X89355361Y-66477649D01*
X89356441Y-66470368D01*
X89358229Y-66463229D01*
X89360709Y-66456299D01*
X89363856Y-66449645D01*
X89367640Y-66443332D01*
X89372024Y-66437421D01*
X89376967Y-66431967D01*
X89382421Y-66427024D01*
X89388332Y-66422640D01*
X89394645Y-66418856D01*
X89401299Y-66415709D01*
X89408229Y-66413229D01*
X89415368Y-66411441D01*
X89422649Y-66410361D01*
X89430000Y-66410000D01*
X90830000Y-66410000D01*
X90837351Y-66410361D01*
G37*
G36*
X90837351Y-65910361D02*
G01*
X90844632Y-65911441D01*
X90851771Y-65913229D01*
X90858701Y-65915709D01*
X90865355Y-65918856D01*
X90871668Y-65922640D01*
X90877579Y-65927024D01*
X90883033Y-65931967D01*
X90887976Y-65937421D01*
X90892360Y-65943332D01*
X90896144Y-65949645D01*
X90899291Y-65956299D01*
X90901771Y-65963229D01*
X90903559Y-65970368D01*
X90904639Y-65977649D01*
X90905000Y-65985000D01*
X90905000Y-66135000D01*
X90904639Y-66142351D01*
X90903559Y-66149632D01*
X90901771Y-66156771D01*
X90899291Y-66163701D01*
X90896144Y-66170355D01*
X90892360Y-66176668D01*
X90887976Y-66182579D01*
X90883033Y-66188033D01*
X90877579Y-66192976D01*
X90871668Y-66197360D01*
X90865355Y-66201144D01*
X90858701Y-66204291D01*
X90851771Y-66206771D01*
X90844632Y-66208559D01*
X90837351Y-66209639D01*
X90830000Y-66210000D01*
X89430000Y-66210000D01*
X89422649Y-66209639D01*
X89415368Y-66208559D01*
X89408229Y-66206771D01*
X89401299Y-66204291D01*
X89394645Y-66201144D01*
X89388332Y-66197360D01*
X89382421Y-66192976D01*
X89376967Y-66188033D01*
X89372024Y-66182579D01*
X89367640Y-66176668D01*
X89363856Y-66170355D01*
X89360709Y-66163701D01*
X89358229Y-66156771D01*
X89356441Y-66149632D01*
X89355361Y-66142351D01*
X89355000Y-66135000D01*
X89355000Y-65985000D01*
X89355361Y-65977649D01*
X89356441Y-65970368D01*
X89358229Y-65963229D01*
X89360709Y-65956299D01*
X89363856Y-65949645D01*
X89367640Y-65943332D01*
X89372024Y-65937421D01*
X89376967Y-65931967D01*
X89382421Y-65927024D01*
X89388332Y-65922640D01*
X89394645Y-65918856D01*
X89401299Y-65915709D01*
X89408229Y-65913229D01*
X89415368Y-65911441D01*
X89422649Y-65910361D01*
X89430000Y-65910000D01*
X90830000Y-65910000D01*
X90837351Y-65910361D01*
G37*
G36*
X90837351Y-65410361D02*
G01*
X90844632Y-65411441D01*
X90851771Y-65413229D01*
X90858701Y-65415709D01*
X90865355Y-65418856D01*
X90871668Y-65422640D01*
X90877579Y-65427024D01*
X90883033Y-65431967D01*
X90887976Y-65437421D01*
X90892360Y-65443332D01*
X90896144Y-65449645D01*
X90899291Y-65456299D01*
X90901771Y-65463229D01*
X90903559Y-65470368D01*
X90904639Y-65477649D01*
X90905000Y-65485000D01*
X90905000Y-65635000D01*
X90904639Y-65642351D01*
X90903559Y-65649632D01*
X90901771Y-65656771D01*
X90899291Y-65663701D01*
X90896144Y-65670355D01*
X90892360Y-65676668D01*
X90887976Y-65682579D01*
X90883033Y-65688033D01*
X90877579Y-65692976D01*
X90871668Y-65697360D01*
X90865355Y-65701144D01*
X90858701Y-65704291D01*
X90851771Y-65706771D01*
X90844632Y-65708559D01*
X90837351Y-65709639D01*
X90830000Y-65710000D01*
X89430000Y-65710000D01*
X89422649Y-65709639D01*
X89415368Y-65708559D01*
X89408229Y-65706771D01*
X89401299Y-65704291D01*
X89394645Y-65701144D01*
X89388332Y-65697360D01*
X89382421Y-65692976D01*
X89376967Y-65688033D01*
X89372024Y-65682579D01*
X89367640Y-65676668D01*
X89363856Y-65670355D01*
X89360709Y-65663701D01*
X89358229Y-65656771D01*
X89356441Y-65649632D01*
X89355361Y-65642351D01*
X89355000Y-65635000D01*
X89355000Y-65485000D01*
X89355361Y-65477649D01*
X89356441Y-65470368D01*
X89358229Y-65463229D01*
X89360709Y-65456299D01*
X89363856Y-65449645D01*
X89367640Y-65443332D01*
X89372024Y-65437421D01*
X89376967Y-65431967D01*
X89382421Y-65427024D01*
X89388332Y-65422640D01*
X89394645Y-65418856D01*
X89401299Y-65415709D01*
X89408229Y-65413229D01*
X89415368Y-65411441D01*
X89422649Y-65410361D01*
X89430000Y-65410000D01*
X90830000Y-65410000D01*
X90837351Y-65410361D01*
G37*
G36*
X90837351Y-64910361D02*
G01*
X90844632Y-64911441D01*
X90851771Y-64913229D01*
X90858701Y-64915709D01*
X90865355Y-64918856D01*
X90871668Y-64922640D01*
X90877579Y-64927024D01*
X90883033Y-64931967D01*
X90887976Y-64937421D01*
X90892360Y-64943332D01*
X90896144Y-64949645D01*
X90899291Y-64956299D01*
X90901771Y-64963229D01*
X90903559Y-64970368D01*
X90904639Y-64977649D01*
X90905000Y-64985000D01*
X90905000Y-65135000D01*
X90904639Y-65142351D01*
X90903559Y-65149632D01*
X90901771Y-65156771D01*
X90899291Y-65163701D01*
X90896144Y-65170355D01*
X90892360Y-65176668D01*
X90887976Y-65182579D01*
X90883033Y-65188033D01*
X90877579Y-65192976D01*
X90871668Y-65197360D01*
X90865355Y-65201144D01*
X90858701Y-65204291D01*
X90851771Y-65206771D01*
X90844632Y-65208559D01*
X90837351Y-65209639D01*
X90830000Y-65210000D01*
X89430000Y-65210000D01*
X89422649Y-65209639D01*
X89415368Y-65208559D01*
X89408229Y-65206771D01*
X89401299Y-65204291D01*
X89394645Y-65201144D01*
X89388332Y-65197360D01*
X89382421Y-65192976D01*
X89376967Y-65188033D01*
X89372024Y-65182579D01*
X89367640Y-65176668D01*
X89363856Y-65170355D01*
X89360709Y-65163701D01*
X89358229Y-65156771D01*
X89356441Y-65149632D01*
X89355361Y-65142351D01*
X89355000Y-65135000D01*
X89355000Y-64985000D01*
X89355361Y-64977649D01*
X89356441Y-64970368D01*
X89358229Y-64963229D01*
X89360709Y-64956299D01*
X89363856Y-64949645D01*
X89367640Y-64943332D01*
X89372024Y-64937421D01*
X89376967Y-64931967D01*
X89382421Y-64927024D01*
X89388332Y-64922640D01*
X89394645Y-64918856D01*
X89401299Y-64915709D01*
X89408229Y-64913229D01*
X89415368Y-64911441D01*
X89422649Y-64910361D01*
X89430000Y-64910000D01*
X90830000Y-64910000D01*
X90837351Y-64910361D01*
G37*
G36*
X90837351Y-64410361D02*
G01*
X90844632Y-64411441D01*
X90851771Y-64413229D01*
X90858701Y-64415709D01*
X90865355Y-64418856D01*
X90871668Y-64422640D01*
X90877579Y-64427024D01*
X90883033Y-64431967D01*
X90887976Y-64437421D01*
X90892360Y-64443332D01*
X90896144Y-64449645D01*
X90899291Y-64456299D01*
X90901771Y-64463229D01*
X90903559Y-64470368D01*
X90904639Y-64477649D01*
X90905000Y-64485000D01*
X90905000Y-64635000D01*
X90904639Y-64642351D01*
X90903559Y-64649632D01*
X90901771Y-64656771D01*
X90899291Y-64663701D01*
X90896144Y-64670355D01*
X90892360Y-64676668D01*
X90887976Y-64682579D01*
X90883033Y-64688033D01*
X90877579Y-64692976D01*
X90871668Y-64697360D01*
X90865355Y-64701144D01*
X90858701Y-64704291D01*
X90851771Y-64706771D01*
X90844632Y-64708559D01*
X90837351Y-64709639D01*
X90830000Y-64710000D01*
X89430000Y-64710000D01*
X89422649Y-64709639D01*
X89415368Y-64708559D01*
X89408229Y-64706771D01*
X89401299Y-64704291D01*
X89394645Y-64701144D01*
X89388332Y-64697360D01*
X89382421Y-64692976D01*
X89376967Y-64688033D01*
X89372024Y-64682579D01*
X89367640Y-64676668D01*
X89363856Y-64670355D01*
X89360709Y-64663701D01*
X89358229Y-64656771D01*
X89356441Y-64649632D01*
X89355361Y-64642351D01*
X89355000Y-64635000D01*
X89355000Y-64485000D01*
X89355361Y-64477649D01*
X89356441Y-64470368D01*
X89358229Y-64463229D01*
X89360709Y-64456299D01*
X89363856Y-64449645D01*
X89367640Y-64443332D01*
X89372024Y-64437421D01*
X89376967Y-64431967D01*
X89382421Y-64427024D01*
X89388332Y-64422640D01*
X89394645Y-64418856D01*
X89401299Y-64415709D01*
X89408229Y-64413229D01*
X89415368Y-64411441D01*
X89422649Y-64410361D01*
X89430000Y-64410000D01*
X90830000Y-64410000D01*
X90837351Y-64410361D01*
G37*
G36*
X90837351Y-63910361D02*
G01*
X90844632Y-63911441D01*
X90851771Y-63913229D01*
X90858701Y-63915709D01*
X90865355Y-63918856D01*
X90871668Y-63922640D01*
X90877579Y-63927024D01*
X90883033Y-63931967D01*
X90887976Y-63937421D01*
X90892360Y-63943332D01*
X90896144Y-63949645D01*
X90899291Y-63956299D01*
X90901771Y-63963229D01*
X90903559Y-63970368D01*
X90904639Y-63977649D01*
X90905000Y-63985000D01*
X90905000Y-64135000D01*
X90904639Y-64142351D01*
X90903559Y-64149632D01*
X90901771Y-64156771D01*
X90899291Y-64163701D01*
X90896144Y-64170355D01*
X90892360Y-64176668D01*
X90887976Y-64182579D01*
X90883033Y-64188033D01*
X90877579Y-64192976D01*
X90871668Y-64197360D01*
X90865355Y-64201144D01*
X90858701Y-64204291D01*
X90851771Y-64206771D01*
X90844632Y-64208559D01*
X90837351Y-64209639D01*
X90830000Y-64210000D01*
X89430000Y-64210000D01*
X89422649Y-64209639D01*
X89415368Y-64208559D01*
X89408229Y-64206771D01*
X89401299Y-64204291D01*
X89394645Y-64201144D01*
X89388332Y-64197360D01*
X89382421Y-64192976D01*
X89376967Y-64188033D01*
X89372024Y-64182579D01*
X89367640Y-64176668D01*
X89363856Y-64170355D01*
X89360709Y-64163701D01*
X89358229Y-64156771D01*
X89356441Y-64149632D01*
X89355361Y-64142351D01*
X89355000Y-64135000D01*
X89355000Y-63985000D01*
X89355361Y-63977649D01*
X89356441Y-63970368D01*
X89358229Y-63963229D01*
X89360709Y-63956299D01*
X89363856Y-63949645D01*
X89367640Y-63943332D01*
X89372024Y-63937421D01*
X89376967Y-63931967D01*
X89382421Y-63927024D01*
X89388332Y-63922640D01*
X89394645Y-63918856D01*
X89401299Y-63915709D01*
X89408229Y-63913229D01*
X89415368Y-63911441D01*
X89422649Y-63910361D01*
X89430000Y-63910000D01*
X90830000Y-63910000D01*
X90837351Y-63910361D01*
G37*
G36*
X90837351Y-63410361D02*
G01*
X90844632Y-63411441D01*
X90851771Y-63413229D01*
X90858701Y-63415709D01*
X90865355Y-63418856D01*
X90871668Y-63422640D01*
X90877579Y-63427024D01*
X90883033Y-63431967D01*
X90887976Y-63437421D01*
X90892360Y-63443332D01*
X90896144Y-63449645D01*
X90899291Y-63456299D01*
X90901771Y-63463229D01*
X90903559Y-63470368D01*
X90904639Y-63477649D01*
X90905000Y-63485000D01*
X90905000Y-63635000D01*
X90904639Y-63642351D01*
X90903559Y-63649632D01*
X90901771Y-63656771D01*
X90899291Y-63663701D01*
X90896144Y-63670355D01*
X90892360Y-63676668D01*
X90887976Y-63682579D01*
X90883033Y-63688033D01*
X90877579Y-63692976D01*
X90871668Y-63697360D01*
X90865355Y-63701144D01*
X90858701Y-63704291D01*
X90851771Y-63706771D01*
X90844632Y-63708559D01*
X90837351Y-63709639D01*
X90830000Y-63710000D01*
X89430000Y-63710000D01*
X89422649Y-63709639D01*
X89415368Y-63708559D01*
X89408229Y-63706771D01*
X89401299Y-63704291D01*
X89394645Y-63701144D01*
X89388332Y-63697360D01*
X89382421Y-63692976D01*
X89376967Y-63688033D01*
X89372024Y-63682579D01*
X89367640Y-63676668D01*
X89363856Y-63670355D01*
X89360709Y-63663701D01*
X89358229Y-63656771D01*
X89356441Y-63649632D01*
X89355361Y-63642351D01*
X89355000Y-63635000D01*
X89355000Y-63485000D01*
X89355361Y-63477649D01*
X89356441Y-63470368D01*
X89358229Y-63463229D01*
X89360709Y-63456299D01*
X89363856Y-63449645D01*
X89367640Y-63443332D01*
X89372024Y-63437421D01*
X89376967Y-63431967D01*
X89382421Y-63427024D01*
X89388332Y-63422640D01*
X89394645Y-63418856D01*
X89401299Y-63415709D01*
X89408229Y-63413229D01*
X89415368Y-63411441D01*
X89422649Y-63410361D01*
X89430000Y-63410000D01*
X90830000Y-63410000D01*
X90837351Y-63410361D01*
G37*
G36*
X88287351Y-60860361D02*
G01*
X88294632Y-60861441D01*
X88301771Y-60863229D01*
X88308701Y-60865709D01*
X88315355Y-60868856D01*
X88321668Y-60872640D01*
X88327579Y-60877024D01*
X88333033Y-60881967D01*
X88337976Y-60887421D01*
X88342360Y-60893332D01*
X88346144Y-60899645D01*
X88349291Y-60906299D01*
X88351771Y-60913229D01*
X88353559Y-60920368D01*
X88354639Y-60927649D01*
X88355000Y-60935000D01*
X88355000Y-62335000D01*
X88354639Y-62342351D01*
X88353559Y-62349632D01*
X88351771Y-62356771D01*
X88349291Y-62363701D01*
X88346144Y-62370355D01*
X88342360Y-62376668D01*
X88337976Y-62382579D01*
X88333033Y-62388033D01*
X88327579Y-62392976D01*
X88321668Y-62397360D01*
X88315355Y-62401144D01*
X88308701Y-62404291D01*
X88301771Y-62406771D01*
X88294632Y-62408559D01*
X88287351Y-62409639D01*
X88280000Y-62410000D01*
X88130000Y-62410000D01*
X88122649Y-62409639D01*
X88115368Y-62408559D01*
X88108229Y-62406771D01*
X88101299Y-62404291D01*
X88094645Y-62401144D01*
X88088332Y-62397360D01*
X88082421Y-62392976D01*
X88076967Y-62388033D01*
X88072024Y-62382579D01*
X88067640Y-62376668D01*
X88063856Y-62370355D01*
X88060709Y-62363701D01*
X88058229Y-62356771D01*
X88056441Y-62349632D01*
X88055361Y-62342351D01*
X88055000Y-62335000D01*
X88055000Y-60935000D01*
X88055361Y-60927649D01*
X88056441Y-60920368D01*
X88058229Y-60913229D01*
X88060709Y-60906299D01*
X88063856Y-60899645D01*
X88067640Y-60893332D01*
X88072024Y-60887421D01*
X88076967Y-60881967D01*
X88082421Y-60877024D01*
X88088332Y-60872640D01*
X88094645Y-60868856D01*
X88101299Y-60865709D01*
X88108229Y-60863229D01*
X88115368Y-60861441D01*
X88122649Y-60860361D01*
X88130000Y-60860000D01*
X88280000Y-60860000D01*
X88287351Y-60860361D01*
G37*
G36*
X87787351Y-60860361D02*
G01*
X87794632Y-60861441D01*
X87801771Y-60863229D01*
X87808701Y-60865709D01*
X87815355Y-60868856D01*
X87821668Y-60872640D01*
X87827579Y-60877024D01*
X87833033Y-60881967D01*
X87837976Y-60887421D01*
X87842360Y-60893332D01*
X87846144Y-60899645D01*
X87849291Y-60906299D01*
X87851771Y-60913229D01*
X87853559Y-60920368D01*
X87854639Y-60927649D01*
X87855000Y-60935000D01*
X87855000Y-62335000D01*
X87854639Y-62342351D01*
X87853559Y-62349632D01*
X87851771Y-62356771D01*
X87849291Y-62363701D01*
X87846144Y-62370355D01*
X87842360Y-62376668D01*
X87837976Y-62382579D01*
X87833033Y-62388033D01*
X87827579Y-62392976D01*
X87821668Y-62397360D01*
X87815355Y-62401144D01*
X87808701Y-62404291D01*
X87801771Y-62406771D01*
X87794632Y-62408559D01*
X87787351Y-62409639D01*
X87780000Y-62410000D01*
X87630000Y-62410000D01*
X87622649Y-62409639D01*
X87615368Y-62408559D01*
X87608229Y-62406771D01*
X87601299Y-62404291D01*
X87594645Y-62401144D01*
X87588332Y-62397360D01*
X87582421Y-62392976D01*
X87576967Y-62388033D01*
X87572024Y-62382579D01*
X87567640Y-62376668D01*
X87563856Y-62370355D01*
X87560709Y-62363701D01*
X87558229Y-62356771D01*
X87556441Y-62349632D01*
X87555361Y-62342351D01*
X87555000Y-62335000D01*
X87555000Y-60935000D01*
X87555361Y-60927649D01*
X87556441Y-60920368D01*
X87558229Y-60913229D01*
X87560709Y-60906299D01*
X87563856Y-60899645D01*
X87567640Y-60893332D01*
X87572024Y-60887421D01*
X87576967Y-60881967D01*
X87582421Y-60877024D01*
X87588332Y-60872640D01*
X87594645Y-60868856D01*
X87601299Y-60865709D01*
X87608229Y-60863229D01*
X87615368Y-60861441D01*
X87622649Y-60860361D01*
X87630000Y-60860000D01*
X87780000Y-60860000D01*
X87787351Y-60860361D01*
G37*
G36*
X87287351Y-60860361D02*
G01*
X87294632Y-60861441D01*
X87301771Y-60863229D01*
X87308701Y-60865709D01*
X87315355Y-60868856D01*
X87321668Y-60872640D01*
X87327579Y-60877024D01*
X87333033Y-60881967D01*
X87337976Y-60887421D01*
X87342360Y-60893332D01*
X87346144Y-60899645D01*
X87349291Y-60906299D01*
X87351771Y-60913229D01*
X87353559Y-60920368D01*
X87354639Y-60927649D01*
X87355000Y-60935000D01*
X87355000Y-62335000D01*
X87354639Y-62342351D01*
X87353559Y-62349632D01*
X87351771Y-62356771D01*
X87349291Y-62363701D01*
X87346144Y-62370355D01*
X87342360Y-62376668D01*
X87337976Y-62382579D01*
X87333033Y-62388033D01*
X87327579Y-62392976D01*
X87321668Y-62397360D01*
X87315355Y-62401144D01*
X87308701Y-62404291D01*
X87301771Y-62406771D01*
X87294632Y-62408559D01*
X87287351Y-62409639D01*
X87280000Y-62410000D01*
X87130000Y-62410000D01*
X87122649Y-62409639D01*
X87115368Y-62408559D01*
X87108229Y-62406771D01*
X87101299Y-62404291D01*
X87094645Y-62401144D01*
X87088332Y-62397360D01*
X87082421Y-62392976D01*
X87076967Y-62388033D01*
X87072024Y-62382579D01*
X87067640Y-62376668D01*
X87063856Y-62370355D01*
X87060709Y-62363701D01*
X87058229Y-62356771D01*
X87056441Y-62349632D01*
X87055361Y-62342351D01*
X87055000Y-62335000D01*
X87055000Y-60935000D01*
X87055361Y-60927649D01*
X87056441Y-60920368D01*
X87058229Y-60913229D01*
X87060709Y-60906299D01*
X87063856Y-60899645D01*
X87067640Y-60893332D01*
X87072024Y-60887421D01*
X87076967Y-60881967D01*
X87082421Y-60877024D01*
X87088332Y-60872640D01*
X87094645Y-60868856D01*
X87101299Y-60865709D01*
X87108229Y-60863229D01*
X87115368Y-60861441D01*
X87122649Y-60860361D01*
X87130000Y-60860000D01*
X87280000Y-60860000D01*
X87287351Y-60860361D01*
G37*
G36*
X86787351Y-60860361D02*
G01*
X86794632Y-60861441D01*
X86801771Y-60863229D01*
X86808701Y-60865709D01*
X86815355Y-60868856D01*
X86821668Y-60872640D01*
X86827579Y-60877024D01*
X86833033Y-60881967D01*
X86837976Y-60887421D01*
X86842360Y-60893332D01*
X86846144Y-60899645D01*
X86849291Y-60906299D01*
X86851771Y-60913229D01*
X86853559Y-60920368D01*
X86854639Y-60927649D01*
X86855000Y-60935000D01*
X86855000Y-62335000D01*
X86854639Y-62342351D01*
X86853559Y-62349632D01*
X86851771Y-62356771D01*
X86849291Y-62363701D01*
X86846144Y-62370355D01*
X86842360Y-62376668D01*
X86837976Y-62382579D01*
X86833033Y-62388033D01*
X86827579Y-62392976D01*
X86821668Y-62397360D01*
X86815355Y-62401144D01*
X86808701Y-62404291D01*
X86801771Y-62406771D01*
X86794632Y-62408559D01*
X86787351Y-62409639D01*
X86780000Y-62410000D01*
X86630000Y-62410000D01*
X86622649Y-62409639D01*
X86615368Y-62408559D01*
X86608229Y-62406771D01*
X86601299Y-62404291D01*
X86594645Y-62401144D01*
X86588332Y-62397360D01*
X86582421Y-62392976D01*
X86576967Y-62388033D01*
X86572024Y-62382579D01*
X86567640Y-62376668D01*
X86563856Y-62370355D01*
X86560709Y-62363701D01*
X86558229Y-62356771D01*
X86556441Y-62349632D01*
X86555361Y-62342351D01*
X86555000Y-62335000D01*
X86555000Y-60935000D01*
X86555361Y-60927649D01*
X86556441Y-60920368D01*
X86558229Y-60913229D01*
X86560709Y-60906299D01*
X86563856Y-60899645D01*
X86567640Y-60893332D01*
X86572024Y-60887421D01*
X86576967Y-60881967D01*
X86582421Y-60877024D01*
X86588332Y-60872640D01*
X86594645Y-60868856D01*
X86601299Y-60865709D01*
X86608229Y-60863229D01*
X86615368Y-60861441D01*
X86622649Y-60860361D01*
X86630000Y-60860000D01*
X86780000Y-60860000D01*
X86787351Y-60860361D01*
G37*
G36*
X86287351Y-60860361D02*
G01*
X86294632Y-60861441D01*
X86301771Y-60863229D01*
X86308701Y-60865709D01*
X86315355Y-60868856D01*
X86321668Y-60872640D01*
X86327579Y-60877024D01*
X86333033Y-60881967D01*
X86337976Y-60887421D01*
X86342360Y-60893332D01*
X86346144Y-60899645D01*
X86349291Y-60906299D01*
X86351771Y-60913229D01*
X86353559Y-60920368D01*
X86354639Y-60927649D01*
X86355000Y-60935000D01*
X86355000Y-62335000D01*
X86354639Y-62342351D01*
X86353559Y-62349632D01*
X86351771Y-62356771D01*
X86349291Y-62363701D01*
X86346144Y-62370355D01*
X86342360Y-62376668D01*
X86337976Y-62382579D01*
X86333033Y-62388033D01*
X86327579Y-62392976D01*
X86321668Y-62397360D01*
X86315355Y-62401144D01*
X86308701Y-62404291D01*
X86301771Y-62406771D01*
X86294632Y-62408559D01*
X86287351Y-62409639D01*
X86280000Y-62410000D01*
X86130000Y-62410000D01*
X86122649Y-62409639D01*
X86115368Y-62408559D01*
X86108229Y-62406771D01*
X86101299Y-62404291D01*
X86094645Y-62401144D01*
X86088332Y-62397360D01*
X86082421Y-62392976D01*
X86076967Y-62388033D01*
X86072024Y-62382579D01*
X86067640Y-62376668D01*
X86063856Y-62370355D01*
X86060709Y-62363701D01*
X86058229Y-62356771D01*
X86056441Y-62349632D01*
X86055361Y-62342351D01*
X86055000Y-62335000D01*
X86055000Y-60935000D01*
X86055361Y-60927649D01*
X86056441Y-60920368D01*
X86058229Y-60913229D01*
X86060709Y-60906299D01*
X86063856Y-60899645D01*
X86067640Y-60893332D01*
X86072024Y-60887421D01*
X86076967Y-60881967D01*
X86082421Y-60877024D01*
X86088332Y-60872640D01*
X86094645Y-60868856D01*
X86101299Y-60865709D01*
X86108229Y-60863229D01*
X86115368Y-60861441D01*
X86122649Y-60860361D01*
X86130000Y-60860000D01*
X86280000Y-60860000D01*
X86287351Y-60860361D01*
G37*
G36*
X85787351Y-60860361D02*
G01*
X85794632Y-60861441D01*
X85801771Y-60863229D01*
X85808701Y-60865709D01*
X85815355Y-60868856D01*
X85821668Y-60872640D01*
X85827579Y-60877024D01*
X85833033Y-60881967D01*
X85837976Y-60887421D01*
X85842360Y-60893332D01*
X85846144Y-60899645D01*
X85849291Y-60906299D01*
X85851771Y-60913229D01*
X85853559Y-60920368D01*
X85854639Y-60927649D01*
X85855000Y-60935000D01*
X85855000Y-62335000D01*
X85854639Y-62342351D01*
X85853559Y-62349632D01*
X85851771Y-62356771D01*
X85849291Y-62363701D01*
X85846144Y-62370355D01*
X85842360Y-62376668D01*
X85837976Y-62382579D01*
X85833033Y-62388033D01*
X85827579Y-62392976D01*
X85821668Y-62397360D01*
X85815355Y-62401144D01*
X85808701Y-62404291D01*
X85801771Y-62406771D01*
X85794632Y-62408559D01*
X85787351Y-62409639D01*
X85780000Y-62410000D01*
X85630000Y-62410000D01*
X85622649Y-62409639D01*
X85615368Y-62408559D01*
X85608229Y-62406771D01*
X85601299Y-62404291D01*
X85594645Y-62401144D01*
X85588332Y-62397360D01*
X85582421Y-62392976D01*
X85576967Y-62388033D01*
X85572024Y-62382579D01*
X85567640Y-62376668D01*
X85563856Y-62370355D01*
X85560709Y-62363701D01*
X85558229Y-62356771D01*
X85556441Y-62349632D01*
X85555361Y-62342351D01*
X85555000Y-62335000D01*
X85555000Y-60935000D01*
X85555361Y-60927649D01*
X85556441Y-60920368D01*
X85558229Y-60913229D01*
X85560709Y-60906299D01*
X85563856Y-60899645D01*
X85567640Y-60893332D01*
X85572024Y-60887421D01*
X85576967Y-60881967D01*
X85582421Y-60877024D01*
X85588332Y-60872640D01*
X85594645Y-60868856D01*
X85601299Y-60865709D01*
X85608229Y-60863229D01*
X85615368Y-60861441D01*
X85622649Y-60860361D01*
X85630000Y-60860000D01*
X85780000Y-60860000D01*
X85787351Y-60860361D01*
G37*
G36*
X85287351Y-60860361D02*
G01*
X85294632Y-60861441D01*
X85301771Y-60863229D01*
X85308701Y-60865709D01*
X85315355Y-60868856D01*
X85321668Y-60872640D01*
X85327579Y-60877024D01*
X85333033Y-60881967D01*
X85337976Y-60887421D01*
X85342360Y-60893332D01*
X85346144Y-60899645D01*
X85349291Y-60906299D01*
X85351771Y-60913229D01*
X85353559Y-60920368D01*
X85354639Y-60927649D01*
X85355000Y-60935000D01*
X85355000Y-62335000D01*
X85354639Y-62342351D01*
X85353559Y-62349632D01*
X85351771Y-62356771D01*
X85349291Y-62363701D01*
X85346144Y-62370355D01*
X85342360Y-62376668D01*
X85337976Y-62382579D01*
X85333033Y-62388033D01*
X85327579Y-62392976D01*
X85321668Y-62397360D01*
X85315355Y-62401144D01*
X85308701Y-62404291D01*
X85301771Y-62406771D01*
X85294632Y-62408559D01*
X85287351Y-62409639D01*
X85280000Y-62410000D01*
X85130000Y-62410000D01*
X85122649Y-62409639D01*
X85115368Y-62408559D01*
X85108229Y-62406771D01*
X85101299Y-62404291D01*
X85094645Y-62401144D01*
X85088332Y-62397360D01*
X85082421Y-62392976D01*
X85076967Y-62388033D01*
X85072024Y-62382579D01*
X85067640Y-62376668D01*
X85063856Y-62370355D01*
X85060709Y-62363701D01*
X85058229Y-62356771D01*
X85056441Y-62349632D01*
X85055361Y-62342351D01*
X85055000Y-62335000D01*
X85055000Y-60935000D01*
X85055361Y-60927649D01*
X85056441Y-60920368D01*
X85058229Y-60913229D01*
X85060709Y-60906299D01*
X85063856Y-60899645D01*
X85067640Y-60893332D01*
X85072024Y-60887421D01*
X85076967Y-60881967D01*
X85082421Y-60877024D01*
X85088332Y-60872640D01*
X85094645Y-60868856D01*
X85101299Y-60865709D01*
X85108229Y-60863229D01*
X85115368Y-60861441D01*
X85122649Y-60860361D01*
X85130000Y-60860000D01*
X85280000Y-60860000D01*
X85287351Y-60860361D01*
G37*
G36*
X84787351Y-60860361D02*
G01*
X84794632Y-60861441D01*
X84801771Y-60863229D01*
X84808701Y-60865709D01*
X84815355Y-60868856D01*
X84821668Y-60872640D01*
X84827579Y-60877024D01*
X84833033Y-60881967D01*
X84837976Y-60887421D01*
X84842360Y-60893332D01*
X84846144Y-60899645D01*
X84849291Y-60906299D01*
X84851771Y-60913229D01*
X84853559Y-60920368D01*
X84854639Y-60927649D01*
X84855000Y-60935000D01*
X84855000Y-62335000D01*
X84854639Y-62342351D01*
X84853559Y-62349632D01*
X84851771Y-62356771D01*
X84849291Y-62363701D01*
X84846144Y-62370355D01*
X84842360Y-62376668D01*
X84837976Y-62382579D01*
X84833033Y-62388033D01*
X84827579Y-62392976D01*
X84821668Y-62397360D01*
X84815355Y-62401144D01*
X84808701Y-62404291D01*
X84801771Y-62406771D01*
X84794632Y-62408559D01*
X84787351Y-62409639D01*
X84780000Y-62410000D01*
X84630000Y-62410000D01*
X84622649Y-62409639D01*
X84615368Y-62408559D01*
X84608229Y-62406771D01*
X84601299Y-62404291D01*
X84594645Y-62401144D01*
X84588332Y-62397360D01*
X84582421Y-62392976D01*
X84576967Y-62388033D01*
X84572024Y-62382579D01*
X84567640Y-62376668D01*
X84563856Y-62370355D01*
X84560709Y-62363701D01*
X84558229Y-62356771D01*
X84556441Y-62349632D01*
X84555361Y-62342351D01*
X84555000Y-62335000D01*
X84555000Y-60935000D01*
X84555361Y-60927649D01*
X84556441Y-60920368D01*
X84558229Y-60913229D01*
X84560709Y-60906299D01*
X84563856Y-60899645D01*
X84567640Y-60893332D01*
X84572024Y-60887421D01*
X84576967Y-60881967D01*
X84582421Y-60877024D01*
X84588332Y-60872640D01*
X84594645Y-60868856D01*
X84601299Y-60865709D01*
X84608229Y-60863229D01*
X84615368Y-60861441D01*
X84622649Y-60860361D01*
X84630000Y-60860000D01*
X84780000Y-60860000D01*
X84787351Y-60860361D01*
G37*
G36*
X84287351Y-60860361D02*
G01*
X84294632Y-60861441D01*
X84301771Y-60863229D01*
X84308701Y-60865709D01*
X84315355Y-60868856D01*
X84321668Y-60872640D01*
X84327579Y-60877024D01*
X84333033Y-60881967D01*
X84337976Y-60887421D01*
X84342360Y-60893332D01*
X84346144Y-60899645D01*
X84349291Y-60906299D01*
X84351771Y-60913229D01*
X84353559Y-60920368D01*
X84354639Y-60927649D01*
X84355000Y-60935000D01*
X84355000Y-62335000D01*
X84354639Y-62342351D01*
X84353559Y-62349632D01*
X84351771Y-62356771D01*
X84349291Y-62363701D01*
X84346144Y-62370355D01*
X84342360Y-62376668D01*
X84337976Y-62382579D01*
X84333033Y-62388033D01*
X84327579Y-62392976D01*
X84321668Y-62397360D01*
X84315355Y-62401144D01*
X84308701Y-62404291D01*
X84301771Y-62406771D01*
X84294632Y-62408559D01*
X84287351Y-62409639D01*
X84280000Y-62410000D01*
X84130000Y-62410000D01*
X84122649Y-62409639D01*
X84115368Y-62408559D01*
X84108229Y-62406771D01*
X84101299Y-62404291D01*
X84094645Y-62401144D01*
X84088332Y-62397360D01*
X84082421Y-62392976D01*
X84076967Y-62388033D01*
X84072024Y-62382579D01*
X84067640Y-62376668D01*
X84063856Y-62370355D01*
X84060709Y-62363701D01*
X84058229Y-62356771D01*
X84056441Y-62349632D01*
X84055361Y-62342351D01*
X84055000Y-62335000D01*
X84055000Y-60935000D01*
X84055361Y-60927649D01*
X84056441Y-60920368D01*
X84058229Y-60913229D01*
X84060709Y-60906299D01*
X84063856Y-60899645D01*
X84067640Y-60893332D01*
X84072024Y-60887421D01*
X84076967Y-60881967D01*
X84082421Y-60877024D01*
X84088332Y-60872640D01*
X84094645Y-60868856D01*
X84101299Y-60865709D01*
X84108229Y-60863229D01*
X84115368Y-60861441D01*
X84122649Y-60860361D01*
X84130000Y-60860000D01*
X84280000Y-60860000D01*
X84287351Y-60860361D01*
G37*
G36*
X83787351Y-60860361D02*
G01*
X83794632Y-60861441D01*
X83801771Y-60863229D01*
X83808701Y-60865709D01*
X83815355Y-60868856D01*
X83821668Y-60872640D01*
X83827579Y-60877024D01*
X83833033Y-60881967D01*
X83837976Y-60887421D01*
X83842360Y-60893332D01*
X83846144Y-60899645D01*
X83849291Y-60906299D01*
X83851771Y-60913229D01*
X83853559Y-60920368D01*
X83854639Y-60927649D01*
X83855000Y-60935000D01*
X83855000Y-62335000D01*
X83854639Y-62342351D01*
X83853559Y-62349632D01*
X83851771Y-62356771D01*
X83849291Y-62363701D01*
X83846144Y-62370355D01*
X83842360Y-62376668D01*
X83837976Y-62382579D01*
X83833033Y-62388033D01*
X83827579Y-62392976D01*
X83821668Y-62397360D01*
X83815355Y-62401144D01*
X83808701Y-62404291D01*
X83801771Y-62406771D01*
X83794632Y-62408559D01*
X83787351Y-62409639D01*
X83780000Y-62410000D01*
X83630000Y-62410000D01*
X83622649Y-62409639D01*
X83615368Y-62408559D01*
X83608229Y-62406771D01*
X83601299Y-62404291D01*
X83594645Y-62401144D01*
X83588332Y-62397360D01*
X83582421Y-62392976D01*
X83576967Y-62388033D01*
X83572024Y-62382579D01*
X83567640Y-62376668D01*
X83563856Y-62370355D01*
X83560709Y-62363701D01*
X83558229Y-62356771D01*
X83556441Y-62349632D01*
X83555361Y-62342351D01*
X83555000Y-62335000D01*
X83555000Y-60935000D01*
X83555361Y-60927649D01*
X83556441Y-60920368D01*
X83558229Y-60913229D01*
X83560709Y-60906299D01*
X83563856Y-60899645D01*
X83567640Y-60893332D01*
X83572024Y-60887421D01*
X83576967Y-60881967D01*
X83582421Y-60877024D01*
X83588332Y-60872640D01*
X83594645Y-60868856D01*
X83601299Y-60865709D01*
X83608229Y-60863229D01*
X83615368Y-60861441D01*
X83622649Y-60860361D01*
X83630000Y-60860000D01*
X83780000Y-60860000D01*
X83787351Y-60860361D01*
G37*
G36*
X83287351Y-60860361D02*
G01*
X83294632Y-60861441D01*
X83301771Y-60863229D01*
X83308701Y-60865709D01*
X83315355Y-60868856D01*
X83321668Y-60872640D01*
X83327579Y-60877024D01*
X83333033Y-60881967D01*
X83337976Y-60887421D01*
X83342360Y-60893332D01*
X83346144Y-60899645D01*
X83349291Y-60906299D01*
X83351771Y-60913229D01*
X83353559Y-60920368D01*
X83354639Y-60927649D01*
X83355000Y-60935000D01*
X83355000Y-62335000D01*
X83354639Y-62342351D01*
X83353559Y-62349632D01*
X83351771Y-62356771D01*
X83349291Y-62363701D01*
X83346144Y-62370355D01*
X83342360Y-62376668D01*
X83337976Y-62382579D01*
X83333033Y-62388033D01*
X83327579Y-62392976D01*
X83321668Y-62397360D01*
X83315355Y-62401144D01*
X83308701Y-62404291D01*
X83301771Y-62406771D01*
X83294632Y-62408559D01*
X83287351Y-62409639D01*
X83280000Y-62410000D01*
X83130000Y-62410000D01*
X83122649Y-62409639D01*
X83115368Y-62408559D01*
X83108229Y-62406771D01*
X83101299Y-62404291D01*
X83094645Y-62401144D01*
X83088332Y-62397360D01*
X83082421Y-62392976D01*
X83076967Y-62388033D01*
X83072024Y-62382579D01*
X83067640Y-62376668D01*
X83063856Y-62370355D01*
X83060709Y-62363701D01*
X83058229Y-62356771D01*
X83056441Y-62349632D01*
X83055361Y-62342351D01*
X83055000Y-62335000D01*
X83055000Y-60935000D01*
X83055361Y-60927649D01*
X83056441Y-60920368D01*
X83058229Y-60913229D01*
X83060709Y-60906299D01*
X83063856Y-60899645D01*
X83067640Y-60893332D01*
X83072024Y-60887421D01*
X83076967Y-60881967D01*
X83082421Y-60877024D01*
X83088332Y-60872640D01*
X83094645Y-60868856D01*
X83101299Y-60865709D01*
X83108229Y-60863229D01*
X83115368Y-60861441D01*
X83122649Y-60860361D01*
X83130000Y-60860000D01*
X83280000Y-60860000D01*
X83287351Y-60860361D01*
G37*
G36*
X82787351Y-60860361D02*
G01*
X82794632Y-60861441D01*
X82801771Y-60863229D01*
X82808701Y-60865709D01*
X82815355Y-60868856D01*
X82821668Y-60872640D01*
X82827579Y-60877024D01*
X82833033Y-60881967D01*
X82837976Y-60887421D01*
X82842360Y-60893332D01*
X82846144Y-60899645D01*
X82849291Y-60906299D01*
X82851771Y-60913229D01*
X82853559Y-60920368D01*
X82854639Y-60927649D01*
X82855000Y-60935000D01*
X82855000Y-62335000D01*
X82854639Y-62342351D01*
X82853559Y-62349632D01*
X82851771Y-62356771D01*
X82849291Y-62363701D01*
X82846144Y-62370355D01*
X82842360Y-62376668D01*
X82837976Y-62382579D01*
X82833033Y-62388033D01*
X82827579Y-62392976D01*
X82821668Y-62397360D01*
X82815355Y-62401144D01*
X82808701Y-62404291D01*
X82801771Y-62406771D01*
X82794632Y-62408559D01*
X82787351Y-62409639D01*
X82780000Y-62410000D01*
X82630000Y-62410000D01*
X82622649Y-62409639D01*
X82615368Y-62408559D01*
X82608229Y-62406771D01*
X82601299Y-62404291D01*
X82594645Y-62401144D01*
X82588332Y-62397360D01*
X82582421Y-62392976D01*
X82576967Y-62388033D01*
X82572024Y-62382579D01*
X82567640Y-62376668D01*
X82563856Y-62370355D01*
X82560709Y-62363701D01*
X82558229Y-62356771D01*
X82556441Y-62349632D01*
X82555361Y-62342351D01*
X82555000Y-62335000D01*
X82555000Y-60935000D01*
X82555361Y-60927649D01*
X82556441Y-60920368D01*
X82558229Y-60913229D01*
X82560709Y-60906299D01*
X82563856Y-60899645D01*
X82567640Y-60893332D01*
X82572024Y-60887421D01*
X82576967Y-60881967D01*
X82582421Y-60877024D01*
X82588332Y-60872640D01*
X82594645Y-60868856D01*
X82601299Y-60865709D01*
X82608229Y-60863229D01*
X82615368Y-60861441D01*
X82622649Y-60860361D01*
X82630000Y-60860000D01*
X82780000Y-60860000D01*
X82787351Y-60860361D01*
G37*
G36*
X82287351Y-60860361D02*
G01*
X82294632Y-60861441D01*
X82301771Y-60863229D01*
X82308701Y-60865709D01*
X82315355Y-60868856D01*
X82321668Y-60872640D01*
X82327579Y-60877024D01*
X82333033Y-60881967D01*
X82337976Y-60887421D01*
X82342360Y-60893332D01*
X82346144Y-60899645D01*
X82349291Y-60906299D01*
X82351771Y-60913229D01*
X82353559Y-60920368D01*
X82354639Y-60927649D01*
X82355000Y-60935000D01*
X82355000Y-62335000D01*
X82354639Y-62342351D01*
X82353559Y-62349632D01*
X82351771Y-62356771D01*
X82349291Y-62363701D01*
X82346144Y-62370355D01*
X82342360Y-62376668D01*
X82337976Y-62382579D01*
X82333033Y-62388033D01*
X82327579Y-62392976D01*
X82321668Y-62397360D01*
X82315355Y-62401144D01*
X82308701Y-62404291D01*
X82301771Y-62406771D01*
X82294632Y-62408559D01*
X82287351Y-62409639D01*
X82280000Y-62410000D01*
X82130000Y-62410000D01*
X82122649Y-62409639D01*
X82115368Y-62408559D01*
X82108229Y-62406771D01*
X82101299Y-62404291D01*
X82094645Y-62401144D01*
X82088332Y-62397360D01*
X82082421Y-62392976D01*
X82076967Y-62388033D01*
X82072024Y-62382579D01*
X82067640Y-62376668D01*
X82063856Y-62370355D01*
X82060709Y-62363701D01*
X82058229Y-62356771D01*
X82056441Y-62349632D01*
X82055361Y-62342351D01*
X82055000Y-62335000D01*
X82055000Y-60935000D01*
X82055361Y-60927649D01*
X82056441Y-60920368D01*
X82058229Y-60913229D01*
X82060709Y-60906299D01*
X82063856Y-60899645D01*
X82067640Y-60893332D01*
X82072024Y-60887421D01*
X82076967Y-60881967D01*
X82082421Y-60877024D01*
X82088332Y-60872640D01*
X82094645Y-60868856D01*
X82101299Y-60865709D01*
X82108229Y-60863229D01*
X82115368Y-60861441D01*
X82122649Y-60860361D01*
X82130000Y-60860000D01*
X82280000Y-60860000D01*
X82287351Y-60860361D01*
G37*
G36*
X81787351Y-60860361D02*
G01*
X81794632Y-60861441D01*
X81801771Y-60863229D01*
X81808701Y-60865709D01*
X81815355Y-60868856D01*
X81821668Y-60872640D01*
X81827579Y-60877024D01*
X81833033Y-60881967D01*
X81837976Y-60887421D01*
X81842360Y-60893332D01*
X81846144Y-60899645D01*
X81849291Y-60906299D01*
X81851771Y-60913229D01*
X81853559Y-60920368D01*
X81854639Y-60927649D01*
X81855000Y-60935000D01*
X81855000Y-62335000D01*
X81854639Y-62342351D01*
X81853559Y-62349632D01*
X81851771Y-62356771D01*
X81849291Y-62363701D01*
X81846144Y-62370355D01*
X81842360Y-62376668D01*
X81837976Y-62382579D01*
X81833033Y-62388033D01*
X81827579Y-62392976D01*
X81821668Y-62397360D01*
X81815355Y-62401144D01*
X81808701Y-62404291D01*
X81801771Y-62406771D01*
X81794632Y-62408559D01*
X81787351Y-62409639D01*
X81780000Y-62410000D01*
X81630000Y-62410000D01*
X81622649Y-62409639D01*
X81615368Y-62408559D01*
X81608229Y-62406771D01*
X81601299Y-62404291D01*
X81594645Y-62401144D01*
X81588332Y-62397360D01*
X81582421Y-62392976D01*
X81576967Y-62388033D01*
X81572024Y-62382579D01*
X81567640Y-62376668D01*
X81563856Y-62370355D01*
X81560709Y-62363701D01*
X81558229Y-62356771D01*
X81556441Y-62349632D01*
X81555361Y-62342351D01*
X81555000Y-62335000D01*
X81555000Y-60935000D01*
X81555361Y-60927649D01*
X81556441Y-60920368D01*
X81558229Y-60913229D01*
X81560709Y-60906299D01*
X81563856Y-60899645D01*
X81567640Y-60893332D01*
X81572024Y-60887421D01*
X81576967Y-60881967D01*
X81582421Y-60877024D01*
X81588332Y-60872640D01*
X81594645Y-60868856D01*
X81601299Y-60865709D01*
X81608229Y-60863229D01*
X81615368Y-60861441D01*
X81622649Y-60860361D01*
X81630000Y-60860000D01*
X81780000Y-60860000D01*
X81787351Y-60860361D01*
G37*
G36*
X81287351Y-60860361D02*
G01*
X81294632Y-60861441D01*
X81301771Y-60863229D01*
X81308701Y-60865709D01*
X81315355Y-60868856D01*
X81321668Y-60872640D01*
X81327579Y-60877024D01*
X81333033Y-60881967D01*
X81337976Y-60887421D01*
X81342360Y-60893332D01*
X81346144Y-60899645D01*
X81349291Y-60906299D01*
X81351771Y-60913229D01*
X81353559Y-60920368D01*
X81354639Y-60927649D01*
X81355000Y-60935000D01*
X81355000Y-62335000D01*
X81354639Y-62342351D01*
X81353559Y-62349632D01*
X81351771Y-62356771D01*
X81349291Y-62363701D01*
X81346144Y-62370355D01*
X81342360Y-62376668D01*
X81337976Y-62382579D01*
X81333033Y-62388033D01*
X81327579Y-62392976D01*
X81321668Y-62397360D01*
X81315355Y-62401144D01*
X81308701Y-62404291D01*
X81301771Y-62406771D01*
X81294632Y-62408559D01*
X81287351Y-62409639D01*
X81280000Y-62410000D01*
X81130000Y-62410000D01*
X81122649Y-62409639D01*
X81115368Y-62408559D01*
X81108229Y-62406771D01*
X81101299Y-62404291D01*
X81094645Y-62401144D01*
X81088332Y-62397360D01*
X81082421Y-62392976D01*
X81076967Y-62388033D01*
X81072024Y-62382579D01*
X81067640Y-62376668D01*
X81063856Y-62370355D01*
X81060709Y-62363701D01*
X81058229Y-62356771D01*
X81056441Y-62349632D01*
X81055361Y-62342351D01*
X81055000Y-62335000D01*
X81055000Y-60935000D01*
X81055361Y-60927649D01*
X81056441Y-60920368D01*
X81058229Y-60913229D01*
X81060709Y-60906299D01*
X81063856Y-60899645D01*
X81067640Y-60893332D01*
X81072024Y-60887421D01*
X81076967Y-60881967D01*
X81082421Y-60877024D01*
X81088332Y-60872640D01*
X81094645Y-60868856D01*
X81101299Y-60865709D01*
X81108229Y-60863229D01*
X81115368Y-60861441D01*
X81122649Y-60860361D01*
X81130000Y-60860000D01*
X81280000Y-60860000D01*
X81287351Y-60860361D01*
G37*
G36*
X80787351Y-60860361D02*
G01*
X80794632Y-60861441D01*
X80801771Y-60863229D01*
X80808701Y-60865709D01*
X80815355Y-60868856D01*
X80821668Y-60872640D01*
X80827579Y-60877024D01*
X80833033Y-60881967D01*
X80837976Y-60887421D01*
X80842360Y-60893332D01*
X80846144Y-60899645D01*
X80849291Y-60906299D01*
X80851771Y-60913229D01*
X80853559Y-60920368D01*
X80854639Y-60927649D01*
X80855000Y-60935000D01*
X80855000Y-62335000D01*
X80854639Y-62342351D01*
X80853559Y-62349632D01*
X80851771Y-62356771D01*
X80849291Y-62363701D01*
X80846144Y-62370355D01*
X80842360Y-62376668D01*
X80837976Y-62382579D01*
X80833033Y-62388033D01*
X80827579Y-62392976D01*
X80821668Y-62397360D01*
X80815355Y-62401144D01*
X80808701Y-62404291D01*
X80801771Y-62406771D01*
X80794632Y-62408559D01*
X80787351Y-62409639D01*
X80780000Y-62410000D01*
X80630000Y-62410000D01*
X80622649Y-62409639D01*
X80615368Y-62408559D01*
X80608229Y-62406771D01*
X80601299Y-62404291D01*
X80594645Y-62401144D01*
X80588332Y-62397360D01*
X80582421Y-62392976D01*
X80576967Y-62388033D01*
X80572024Y-62382579D01*
X80567640Y-62376668D01*
X80563856Y-62370355D01*
X80560709Y-62363701D01*
X80558229Y-62356771D01*
X80556441Y-62349632D01*
X80555361Y-62342351D01*
X80555000Y-62335000D01*
X80555000Y-60935000D01*
X80555361Y-60927649D01*
X80556441Y-60920368D01*
X80558229Y-60913229D01*
X80560709Y-60906299D01*
X80563856Y-60899645D01*
X80567640Y-60893332D01*
X80572024Y-60887421D01*
X80576967Y-60881967D01*
X80582421Y-60877024D01*
X80588332Y-60872640D01*
X80594645Y-60868856D01*
X80601299Y-60865709D01*
X80608229Y-60863229D01*
X80615368Y-60861441D01*
X80622649Y-60860361D01*
X80630000Y-60860000D01*
X80780000Y-60860000D01*
X80787351Y-60860361D01*
G37*
G36*
X103249506Y-50441205D02*
G01*
X103273774Y-50444805D01*
X103297573Y-50450766D01*
X103320672Y-50459031D01*
X103342851Y-50469521D01*
X103363894Y-50482133D01*
X103383600Y-50496748D01*
X103401778Y-50513224D01*
X103418254Y-50531402D01*
X103432869Y-50551108D01*
X103445481Y-50572151D01*
X103455971Y-50594330D01*
X103464236Y-50617429D01*
X103470197Y-50641228D01*
X103473797Y-50665496D01*
X103475001Y-50690000D01*
X103475001Y-51590002D01*
X103473797Y-51614506D01*
X103470197Y-51638774D01*
X103464236Y-51662573D01*
X103455971Y-51685672D01*
X103445481Y-51707851D01*
X103432869Y-51728894D01*
X103418254Y-51748600D01*
X103401778Y-51766778D01*
X103383600Y-51783254D01*
X103363894Y-51797869D01*
X103342851Y-51810481D01*
X103320672Y-51820971D01*
X103297573Y-51829236D01*
X103273774Y-51835197D01*
X103249506Y-51838797D01*
X103225002Y-51840001D01*
X102575000Y-51840001D01*
X102550496Y-51838797D01*
X102526228Y-51835197D01*
X102502429Y-51829236D01*
X102479330Y-51820971D01*
X102457151Y-51810481D01*
X102436108Y-51797869D01*
X102416402Y-51783254D01*
X102398224Y-51766778D01*
X102381748Y-51748600D01*
X102367133Y-51728894D01*
X102354521Y-51707851D01*
X102344031Y-51685672D01*
X102335766Y-51662573D01*
X102329805Y-51638774D01*
X102326205Y-51614506D01*
X102325001Y-51590002D01*
X102325001Y-50690000D01*
X102326205Y-50665496D01*
X102329805Y-50641228D01*
X102335766Y-50617429D01*
X102344031Y-50594330D01*
X102354521Y-50572151D01*
X102367133Y-50551108D01*
X102381748Y-50531402D01*
X102398224Y-50513224D01*
X102416402Y-50496748D01*
X102436108Y-50482133D01*
X102457151Y-50469521D01*
X102479330Y-50459031D01*
X102502429Y-50450766D01*
X102526228Y-50444805D01*
X102550496Y-50441205D01*
X102575000Y-50440001D01*
X103225002Y-50440001D01*
X103249506Y-50441205D01*
G37*
G36*
X101199506Y-50441205D02*
G01*
X101223774Y-50444805D01*
X101247573Y-50450766D01*
X101270672Y-50459031D01*
X101292851Y-50469521D01*
X101313894Y-50482133D01*
X101333600Y-50496748D01*
X101351778Y-50513224D01*
X101368254Y-50531402D01*
X101382869Y-50551108D01*
X101395481Y-50572151D01*
X101405971Y-50594330D01*
X101414236Y-50617429D01*
X101420197Y-50641228D01*
X101423797Y-50665496D01*
X101425001Y-50690000D01*
X101425001Y-51590002D01*
X101423797Y-51614506D01*
X101420197Y-51638774D01*
X101414236Y-51662573D01*
X101405971Y-51685672D01*
X101395481Y-51707851D01*
X101382869Y-51728894D01*
X101368254Y-51748600D01*
X101351778Y-51766778D01*
X101333600Y-51783254D01*
X101313894Y-51797869D01*
X101292851Y-51810481D01*
X101270672Y-51820971D01*
X101247573Y-51829236D01*
X101223774Y-51835197D01*
X101199506Y-51838797D01*
X101175002Y-51840001D01*
X100525000Y-51840001D01*
X100500496Y-51838797D01*
X100476228Y-51835197D01*
X100452429Y-51829236D01*
X100429330Y-51820971D01*
X100407151Y-51810481D01*
X100386108Y-51797869D01*
X100366402Y-51783254D01*
X100348224Y-51766778D01*
X100331748Y-51748600D01*
X100317133Y-51728894D01*
X100304521Y-51707851D01*
X100294031Y-51685672D01*
X100285766Y-51662573D01*
X100279805Y-51638774D01*
X100276205Y-51614506D01*
X100275001Y-51590002D01*
X100275001Y-50690000D01*
X100276205Y-50665496D01*
X100279805Y-50641228D01*
X100285766Y-50617429D01*
X100294031Y-50594330D01*
X100304521Y-50572151D01*
X100317133Y-50551108D01*
X100331748Y-50531402D01*
X100348224Y-50513224D01*
X100366402Y-50496748D01*
X100386108Y-50482133D01*
X100407151Y-50469521D01*
X100429330Y-50459031D01*
X100452429Y-50450766D01*
X100476228Y-50444805D01*
X100500496Y-50441205D01*
X100525000Y-50440001D01*
X101175002Y-50440001D01*
X101199506Y-50441205D01*
G37*
G36*
X96449506Y-50441205D02*
G01*
X96473774Y-50444805D01*
X96497573Y-50450766D01*
X96520672Y-50459031D01*
X96542851Y-50469521D01*
X96563894Y-50482133D01*
X96583600Y-50496748D01*
X96601778Y-50513224D01*
X96618254Y-50531402D01*
X96632869Y-50551108D01*
X96645481Y-50572151D01*
X96655971Y-50594330D01*
X96664236Y-50617429D01*
X96670197Y-50641228D01*
X96673797Y-50665496D01*
X96675001Y-50690000D01*
X96675001Y-51590002D01*
X96673797Y-51614506D01*
X96670197Y-51638774D01*
X96664236Y-51662573D01*
X96655971Y-51685672D01*
X96645481Y-51707851D01*
X96632869Y-51728894D01*
X96618254Y-51748600D01*
X96601778Y-51766778D01*
X96583600Y-51783254D01*
X96563894Y-51797869D01*
X96542851Y-51810481D01*
X96520672Y-51820971D01*
X96497573Y-51829236D01*
X96473774Y-51835197D01*
X96449506Y-51838797D01*
X96425002Y-51840001D01*
X95775000Y-51840001D01*
X95750496Y-51838797D01*
X95726228Y-51835197D01*
X95702429Y-51829236D01*
X95679330Y-51820971D01*
X95657151Y-51810481D01*
X95636108Y-51797869D01*
X95616402Y-51783254D01*
X95598224Y-51766778D01*
X95581748Y-51748600D01*
X95567133Y-51728894D01*
X95554521Y-51707851D01*
X95544031Y-51685672D01*
X95535766Y-51662573D01*
X95529805Y-51638774D01*
X95526205Y-51614506D01*
X95525001Y-51590002D01*
X95525001Y-50690000D01*
X95526205Y-50665496D01*
X95529805Y-50641228D01*
X95535766Y-50617429D01*
X95544031Y-50594330D01*
X95554521Y-50572151D01*
X95567133Y-50551108D01*
X95581748Y-50531402D01*
X95598224Y-50513224D01*
X95616402Y-50496748D01*
X95636108Y-50482133D01*
X95657151Y-50469521D01*
X95679330Y-50459031D01*
X95702429Y-50450766D01*
X95726228Y-50444805D01*
X95750496Y-50441205D01*
X95775000Y-50440001D01*
X96425002Y-50440001D01*
X96449506Y-50441205D01*
G37*
G36*
X98499506Y-50441205D02*
G01*
X98523774Y-50444805D01*
X98547573Y-50450766D01*
X98570672Y-50459031D01*
X98592851Y-50469521D01*
X98613894Y-50482133D01*
X98633600Y-50496748D01*
X98651778Y-50513224D01*
X98668254Y-50531402D01*
X98682869Y-50551108D01*
X98695481Y-50572151D01*
X98705971Y-50594330D01*
X98714236Y-50617429D01*
X98720197Y-50641228D01*
X98723797Y-50665496D01*
X98725001Y-50690000D01*
X98725001Y-51590002D01*
X98723797Y-51614506D01*
X98720197Y-51638774D01*
X98714236Y-51662573D01*
X98705971Y-51685672D01*
X98695481Y-51707851D01*
X98682869Y-51728894D01*
X98668254Y-51748600D01*
X98651778Y-51766778D01*
X98633600Y-51783254D01*
X98613894Y-51797869D01*
X98592851Y-51810481D01*
X98570672Y-51820971D01*
X98547573Y-51829236D01*
X98523774Y-51835197D01*
X98499506Y-51838797D01*
X98475002Y-51840001D01*
X97825000Y-51840001D01*
X97800496Y-51838797D01*
X97776228Y-51835197D01*
X97752429Y-51829236D01*
X97729330Y-51820971D01*
X97707151Y-51810481D01*
X97686108Y-51797869D01*
X97666402Y-51783254D01*
X97648224Y-51766778D01*
X97631748Y-51748600D01*
X97617133Y-51728894D01*
X97604521Y-51707851D01*
X97594031Y-51685672D01*
X97585766Y-51662573D01*
X97579805Y-51638774D01*
X97576205Y-51614506D01*
X97575001Y-51590002D01*
X97575001Y-50690000D01*
X97576205Y-50665496D01*
X97579805Y-50641228D01*
X97585766Y-50617429D01*
X97594031Y-50594330D01*
X97604521Y-50572151D01*
X97617133Y-50551108D01*
X97631748Y-50531402D01*
X97648224Y-50513224D01*
X97666402Y-50496748D01*
X97686108Y-50482133D01*
X97707151Y-50469521D01*
X97729330Y-50459031D01*
X97752429Y-50450766D01*
X97776228Y-50444805D01*
X97800496Y-50441205D01*
X97825000Y-50440001D01*
X98475002Y-50440001D01*
X98499506Y-50441205D01*
G37*
G36*
X98340779Y-54771144D02*
G01*
X98363834Y-54774563D01*
X98386443Y-54780227D01*
X98408387Y-54788079D01*
X98429457Y-54798044D01*
X98449448Y-54810026D01*
X98468168Y-54823910D01*
X98485438Y-54839562D01*
X98501090Y-54856832D01*
X98514974Y-54875552D01*
X98526956Y-54895543D01*
X98536921Y-54916613D01*
X98544773Y-54938557D01*
X98550437Y-54961166D01*
X98553856Y-54984221D01*
X98555000Y-55007500D01*
X98555000Y-55482500D01*
X98553856Y-55505779D01*
X98550437Y-55528834D01*
X98544773Y-55551443D01*
X98536921Y-55573387D01*
X98526956Y-55594457D01*
X98514974Y-55614448D01*
X98501090Y-55633168D01*
X98485438Y-55650438D01*
X98468168Y-55666090D01*
X98449448Y-55679974D01*
X98429457Y-55691956D01*
X98408387Y-55701921D01*
X98386443Y-55709773D01*
X98363834Y-55715437D01*
X98340779Y-55718856D01*
X98317500Y-55720000D01*
X97742500Y-55720000D01*
X97719221Y-55718856D01*
X97696166Y-55715437D01*
X97673557Y-55709773D01*
X97651613Y-55701921D01*
X97630543Y-55691956D01*
X97610552Y-55679974D01*
X97591832Y-55666090D01*
X97574562Y-55650438D01*
X97558910Y-55633168D01*
X97545026Y-55614448D01*
X97533044Y-55594457D01*
X97523079Y-55573387D01*
X97515227Y-55551443D01*
X97509563Y-55528834D01*
X97506144Y-55505779D01*
X97505000Y-55482500D01*
X97505000Y-55007500D01*
X97506144Y-54984221D01*
X97509563Y-54961166D01*
X97515227Y-54938557D01*
X97523079Y-54916613D01*
X97533044Y-54895543D01*
X97545026Y-54875552D01*
X97558910Y-54856832D01*
X97574562Y-54839562D01*
X97591832Y-54823910D01*
X97610552Y-54810026D01*
X97630543Y-54798044D01*
X97651613Y-54788079D01*
X97673557Y-54780227D01*
X97696166Y-54774563D01*
X97719221Y-54771144D01*
X97742500Y-54770000D01*
X98317500Y-54770000D01*
X98340779Y-54771144D01*
G37*
G36*
X96590779Y-54771144D02*
G01*
X96613834Y-54774563D01*
X96636443Y-54780227D01*
X96658387Y-54788079D01*
X96679457Y-54798044D01*
X96699448Y-54810026D01*
X96718168Y-54823910D01*
X96735438Y-54839562D01*
X96751090Y-54856832D01*
X96764974Y-54875552D01*
X96776956Y-54895543D01*
X96786921Y-54916613D01*
X96794773Y-54938557D01*
X96800437Y-54961166D01*
X96803856Y-54984221D01*
X96805000Y-55007500D01*
X96805000Y-55482500D01*
X96803856Y-55505779D01*
X96800437Y-55528834D01*
X96794773Y-55551443D01*
X96786921Y-55573387D01*
X96776956Y-55594457D01*
X96764974Y-55614448D01*
X96751090Y-55633168D01*
X96735438Y-55650438D01*
X96718168Y-55666090D01*
X96699448Y-55679974D01*
X96679457Y-55691956D01*
X96658387Y-55701921D01*
X96636443Y-55709773D01*
X96613834Y-55715437D01*
X96590779Y-55718856D01*
X96567500Y-55720000D01*
X95992500Y-55720000D01*
X95969221Y-55718856D01*
X95946166Y-55715437D01*
X95923557Y-55709773D01*
X95901613Y-55701921D01*
X95880543Y-55691956D01*
X95860552Y-55679974D01*
X95841832Y-55666090D01*
X95824562Y-55650438D01*
X95808910Y-55633168D01*
X95795026Y-55614448D01*
X95783044Y-55594457D01*
X95773079Y-55573387D01*
X95765227Y-55551443D01*
X95759563Y-55528834D01*
X95756144Y-55505779D01*
X95755000Y-55482500D01*
X95755000Y-55007500D01*
X95756144Y-54984221D01*
X95759563Y-54961166D01*
X95765227Y-54938557D01*
X95773079Y-54916613D01*
X95783044Y-54895543D01*
X95795026Y-54875552D01*
X95808910Y-54856832D01*
X95824562Y-54839562D01*
X95841832Y-54823910D01*
X95860552Y-54810026D01*
X95880543Y-54798044D01*
X95901613Y-54788079D01*
X95923557Y-54780227D01*
X95946166Y-54774563D01*
X95969221Y-54771144D01*
X95992500Y-54770000D01*
X96567500Y-54770000D01*
X96590779Y-54771144D01*
G37*
G36*
X85829505Y-52006204D02*
G01*
X85853773Y-52009804D01*
X85877572Y-52015765D01*
X85900671Y-52024030D01*
X85922850Y-52034520D01*
X85943893Y-52047132D01*
X85963599Y-52061747D01*
X85981777Y-52078223D01*
X85998253Y-52096401D01*
X86012868Y-52116107D01*
X86025480Y-52137150D01*
X86035970Y-52159329D01*
X86044235Y-52182428D01*
X86050196Y-52206227D01*
X86053796Y-52230495D01*
X86055000Y-52254999D01*
X86055000Y-53155001D01*
X86053796Y-53179505D01*
X86050196Y-53203773D01*
X86044235Y-53227572D01*
X86035970Y-53250671D01*
X86025480Y-53272850D01*
X86012868Y-53293893D01*
X85998253Y-53313599D01*
X85981777Y-53331777D01*
X85963599Y-53348253D01*
X85943893Y-53362868D01*
X85922850Y-53375480D01*
X85900671Y-53385970D01*
X85877572Y-53394235D01*
X85853773Y-53400196D01*
X85829505Y-53403796D01*
X85805001Y-53405000D01*
X85154999Y-53405000D01*
X85130495Y-53403796D01*
X85106227Y-53400196D01*
X85082428Y-53394235D01*
X85059329Y-53385970D01*
X85037150Y-53375480D01*
X85016107Y-53362868D01*
X84996401Y-53348253D01*
X84978223Y-53331777D01*
X84961747Y-53313599D01*
X84947132Y-53293893D01*
X84934520Y-53272850D01*
X84924030Y-53250671D01*
X84915765Y-53227572D01*
X84909804Y-53203773D01*
X84906204Y-53179505D01*
X84905000Y-53155001D01*
X84905000Y-52254999D01*
X84906204Y-52230495D01*
X84909804Y-52206227D01*
X84915765Y-52182428D01*
X84924030Y-52159329D01*
X84934520Y-52137150D01*
X84947132Y-52116107D01*
X84961747Y-52096401D01*
X84978223Y-52078223D01*
X84996401Y-52061747D01*
X85016107Y-52047132D01*
X85037150Y-52034520D01*
X85059329Y-52024030D01*
X85082428Y-52015765D01*
X85106227Y-52009804D01*
X85130495Y-52006204D01*
X85154999Y-52005000D01*
X85805001Y-52005000D01*
X85829505Y-52006204D01*
G37*
G36*
X83779505Y-52006204D02*
G01*
X83803773Y-52009804D01*
X83827572Y-52015765D01*
X83850671Y-52024030D01*
X83872850Y-52034520D01*
X83893893Y-52047132D01*
X83913599Y-52061747D01*
X83931777Y-52078223D01*
X83948253Y-52096401D01*
X83962868Y-52116107D01*
X83975480Y-52137150D01*
X83985970Y-52159329D01*
X83994235Y-52182428D01*
X84000196Y-52206227D01*
X84003796Y-52230495D01*
X84005000Y-52254999D01*
X84005000Y-53155001D01*
X84003796Y-53179505D01*
X84000196Y-53203773D01*
X83994235Y-53227572D01*
X83985970Y-53250671D01*
X83975480Y-53272850D01*
X83962868Y-53293893D01*
X83948253Y-53313599D01*
X83931777Y-53331777D01*
X83913599Y-53348253D01*
X83893893Y-53362868D01*
X83872850Y-53375480D01*
X83850671Y-53385970D01*
X83827572Y-53394235D01*
X83803773Y-53400196D01*
X83779505Y-53403796D01*
X83755001Y-53405000D01*
X83104999Y-53405000D01*
X83080495Y-53403796D01*
X83056227Y-53400196D01*
X83032428Y-53394235D01*
X83009329Y-53385970D01*
X82987150Y-53375480D01*
X82966107Y-53362868D01*
X82946401Y-53348253D01*
X82928223Y-53331777D01*
X82911747Y-53313599D01*
X82897132Y-53293893D01*
X82884520Y-53272850D01*
X82874030Y-53250671D01*
X82865765Y-53227572D01*
X82859804Y-53203773D01*
X82856204Y-53179505D01*
X82855000Y-53155001D01*
X82855000Y-52254999D01*
X82856204Y-52230495D01*
X82859804Y-52206227D01*
X82865765Y-52182428D01*
X82874030Y-52159329D01*
X82884520Y-52137150D01*
X82897132Y-52116107D01*
X82911747Y-52096401D01*
X82928223Y-52078223D01*
X82946401Y-52061747D01*
X82966107Y-52047132D01*
X82987150Y-52034520D01*
X83009329Y-52024030D01*
X83032428Y-52015765D01*
X83056227Y-52009804D01*
X83080495Y-52006204D01*
X83104999Y-52005000D01*
X83755001Y-52005000D01*
X83779505Y-52006204D01*
G37*
G36*
X80560779Y-54136144D02*
G01*
X80583834Y-54139563D01*
X80606443Y-54145227D01*
X80628387Y-54153079D01*
X80649457Y-54163044D01*
X80669448Y-54175026D01*
X80688168Y-54188910D01*
X80705438Y-54204562D01*
X80721090Y-54221832D01*
X80734974Y-54240552D01*
X80746956Y-54260543D01*
X80756921Y-54281613D01*
X80764773Y-54303557D01*
X80770437Y-54326166D01*
X80773856Y-54349221D01*
X80775000Y-54372500D01*
X80775000Y-54847500D01*
X80773856Y-54870779D01*
X80770437Y-54893834D01*
X80764773Y-54916443D01*
X80756921Y-54938387D01*
X80746956Y-54959457D01*
X80734974Y-54979448D01*
X80721090Y-54998168D01*
X80705438Y-55015438D01*
X80688168Y-55031090D01*
X80669448Y-55044974D01*
X80649457Y-55056956D01*
X80628387Y-55066921D01*
X80606443Y-55074773D01*
X80583834Y-55080437D01*
X80560779Y-55083856D01*
X80537500Y-55085000D01*
X79962500Y-55085000D01*
X79939221Y-55083856D01*
X79916166Y-55080437D01*
X79893557Y-55074773D01*
X79871613Y-55066921D01*
X79850543Y-55056956D01*
X79830552Y-55044974D01*
X79811832Y-55031090D01*
X79794562Y-55015438D01*
X79778910Y-54998168D01*
X79765026Y-54979448D01*
X79753044Y-54959457D01*
X79743079Y-54938387D01*
X79735227Y-54916443D01*
X79729563Y-54893834D01*
X79726144Y-54870779D01*
X79725000Y-54847500D01*
X79725000Y-54372500D01*
X79726144Y-54349221D01*
X79729563Y-54326166D01*
X79735227Y-54303557D01*
X79743079Y-54281613D01*
X79753044Y-54260543D01*
X79765026Y-54240552D01*
X79778910Y-54221832D01*
X79794562Y-54204562D01*
X79811832Y-54188910D01*
X79830552Y-54175026D01*
X79850543Y-54163044D01*
X79871613Y-54153079D01*
X79893557Y-54145227D01*
X79916166Y-54139563D01*
X79939221Y-54136144D01*
X79962500Y-54135000D01*
X80537500Y-54135000D01*
X80560779Y-54136144D01*
G37*
G36*
X78810779Y-54136144D02*
G01*
X78833834Y-54139563D01*
X78856443Y-54145227D01*
X78878387Y-54153079D01*
X78899457Y-54163044D01*
X78919448Y-54175026D01*
X78938168Y-54188910D01*
X78955438Y-54204562D01*
X78971090Y-54221832D01*
X78984974Y-54240552D01*
X78996956Y-54260543D01*
X79006921Y-54281613D01*
X79014773Y-54303557D01*
X79020437Y-54326166D01*
X79023856Y-54349221D01*
X79025000Y-54372500D01*
X79025000Y-54847500D01*
X79023856Y-54870779D01*
X79020437Y-54893834D01*
X79014773Y-54916443D01*
X79006921Y-54938387D01*
X78996956Y-54959457D01*
X78984974Y-54979448D01*
X78971090Y-54998168D01*
X78955438Y-55015438D01*
X78938168Y-55031090D01*
X78919448Y-55044974D01*
X78899457Y-55056956D01*
X78878387Y-55066921D01*
X78856443Y-55074773D01*
X78833834Y-55080437D01*
X78810779Y-55083856D01*
X78787500Y-55085000D01*
X78212500Y-55085000D01*
X78189221Y-55083856D01*
X78166166Y-55080437D01*
X78143557Y-55074773D01*
X78121613Y-55066921D01*
X78100543Y-55056956D01*
X78080552Y-55044974D01*
X78061832Y-55031090D01*
X78044562Y-55015438D01*
X78028910Y-54998168D01*
X78015026Y-54979448D01*
X78003044Y-54959457D01*
X77993079Y-54938387D01*
X77985227Y-54916443D01*
X77979563Y-54893834D01*
X77976144Y-54870779D01*
X77975000Y-54847500D01*
X77975000Y-54372500D01*
X77976144Y-54349221D01*
X77979563Y-54326166D01*
X77985227Y-54303557D01*
X77993079Y-54281613D01*
X78003044Y-54260543D01*
X78015026Y-54240552D01*
X78028910Y-54221832D01*
X78044562Y-54204562D01*
X78061832Y-54188910D01*
X78080552Y-54175026D01*
X78100543Y-54163044D01*
X78121613Y-54153079D01*
X78143557Y-54145227D01*
X78166166Y-54139563D01*
X78189221Y-54136144D01*
X78212500Y-54135000D01*
X78787500Y-54135000D01*
X78810779Y-54136144D01*
G37*
D12*
X118110000Y-49485000D03*
X118110000Y-78785000D03*
D10*
G36*
X78810779Y-49056144D02*
G01*
X78833834Y-49059563D01*
X78856443Y-49065227D01*
X78878387Y-49073079D01*
X78899457Y-49083044D01*
X78919448Y-49095026D01*
X78938168Y-49108910D01*
X78955438Y-49124562D01*
X78971090Y-49141832D01*
X78984974Y-49160552D01*
X78996956Y-49180543D01*
X79006921Y-49201613D01*
X79014773Y-49223557D01*
X79020437Y-49246166D01*
X79023856Y-49269221D01*
X79025000Y-49292500D01*
X79025000Y-49767500D01*
X79023856Y-49790779D01*
X79020437Y-49813834D01*
X79014773Y-49836443D01*
X79006921Y-49858387D01*
X78996956Y-49879457D01*
X78984974Y-49899448D01*
X78971090Y-49918168D01*
X78955438Y-49935438D01*
X78938168Y-49951090D01*
X78919448Y-49964974D01*
X78899457Y-49976956D01*
X78878387Y-49986921D01*
X78856443Y-49994773D01*
X78833834Y-50000437D01*
X78810779Y-50003856D01*
X78787500Y-50005000D01*
X78212500Y-50005000D01*
X78189221Y-50003856D01*
X78166166Y-50000437D01*
X78143557Y-49994773D01*
X78121613Y-49986921D01*
X78100543Y-49976956D01*
X78080552Y-49964974D01*
X78061832Y-49951090D01*
X78044562Y-49935438D01*
X78028910Y-49918168D01*
X78015026Y-49899448D01*
X78003044Y-49879457D01*
X77993079Y-49858387D01*
X77985227Y-49836443D01*
X77979563Y-49813834D01*
X77976144Y-49790779D01*
X77975000Y-49767500D01*
X77975000Y-49292500D01*
X77976144Y-49269221D01*
X77979563Y-49246166D01*
X77985227Y-49223557D01*
X77993079Y-49201613D01*
X78003044Y-49180543D01*
X78015026Y-49160552D01*
X78028910Y-49141832D01*
X78044562Y-49124562D01*
X78061832Y-49108910D01*
X78080552Y-49095026D01*
X78100543Y-49083044D01*
X78121613Y-49073079D01*
X78143557Y-49065227D01*
X78166166Y-49059563D01*
X78189221Y-49056144D01*
X78212500Y-49055000D01*
X78787500Y-49055000D01*
X78810779Y-49056144D01*
G37*
G36*
X80560779Y-49056144D02*
G01*
X80583834Y-49059563D01*
X80606443Y-49065227D01*
X80628387Y-49073079D01*
X80649457Y-49083044D01*
X80669448Y-49095026D01*
X80688168Y-49108910D01*
X80705438Y-49124562D01*
X80721090Y-49141832D01*
X80734974Y-49160552D01*
X80746956Y-49180543D01*
X80756921Y-49201613D01*
X80764773Y-49223557D01*
X80770437Y-49246166D01*
X80773856Y-49269221D01*
X80775000Y-49292500D01*
X80775000Y-49767500D01*
X80773856Y-49790779D01*
X80770437Y-49813834D01*
X80764773Y-49836443D01*
X80756921Y-49858387D01*
X80746956Y-49879457D01*
X80734974Y-49899448D01*
X80721090Y-49918168D01*
X80705438Y-49935438D01*
X80688168Y-49951090D01*
X80669448Y-49964974D01*
X80649457Y-49976956D01*
X80628387Y-49986921D01*
X80606443Y-49994773D01*
X80583834Y-50000437D01*
X80560779Y-50003856D01*
X80537500Y-50005000D01*
X79962500Y-50005000D01*
X79939221Y-50003856D01*
X79916166Y-50000437D01*
X79893557Y-49994773D01*
X79871613Y-49986921D01*
X79850543Y-49976956D01*
X79830552Y-49964974D01*
X79811832Y-49951090D01*
X79794562Y-49935438D01*
X79778910Y-49918168D01*
X79765026Y-49899448D01*
X79753044Y-49879457D01*
X79743079Y-49858387D01*
X79735227Y-49836443D01*
X79729563Y-49813834D01*
X79726144Y-49790779D01*
X79725000Y-49767500D01*
X79725000Y-49292500D01*
X79726144Y-49269221D01*
X79729563Y-49246166D01*
X79735227Y-49223557D01*
X79743079Y-49201613D01*
X79753044Y-49180543D01*
X79765026Y-49160552D01*
X79778910Y-49141832D01*
X79794562Y-49124562D01*
X79811832Y-49108910D01*
X79830552Y-49095026D01*
X79850543Y-49083044D01*
X79871613Y-49073079D01*
X79893557Y-49065227D01*
X79916166Y-49059563D01*
X79939221Y-49056144D01*
X79962500Y-49055000D01*
X80537500Y-49055000D01*
X80560779Y-49056144D01*
G37*
G36*
X80270779Y-46071144D02*
G01*
X80293834Y-46074563D01*
X80316443Y-46080227D01*
X80338387Y-46088079D01*
X80359457Y-46098044D01*
X80379448Y-46110026D01*
X80398168Y-46123910D01*
X80415438Y-46139562D01*
X80431090Y-46156832D01*
X80444974Y-46175552D01*
X80456956Y-46195543D01*
X80466921Y-46216613D01*
X80474773Y-46238557D01*
X80480437Y-46261166D01*
X80483856Y-46284221D01*
X80485000Y-46307500D01*
X80485000Y-46882500D01*
X80483856Y-46905779D01*
X80480437Y-46928834D01*
X80474773Y-46951443D01*
X80466921Y-46973387D01*
X80456956Y-46994457D01*
X80444974Y-47014448D01*
X80431090Y-47033168D01*
X80415438Y-47050438D01*
X80398168Y-47066090D01*
X80379448Y-47079974D01*
X80359457Y-47091956D01*
X80338387Y-47101921D01*
X80316443Y-47109773D01*
X80293834Y-47115437D01*
X80270779Y-47118856D01*
X80247500Y-47120000D01*
X79772500Y-47120000D01*
X79749221Y-47118856D01*
X79726166Y-47115437D01*
X79703557Y-47109773D01*
X79681613Y-47101921D01*
X79660543Y-47091956D01*
X79640552Y-47079974D01*
X79621832Y-47066090D01*
X79604562Y-47050438D01*
X79588910Y-47033168D01*
X79575026Y-47014448D01*
X79563044Y-46994457D01*
X79553079Y-46973387D01*
X79545227Y-46951443D01*
X79539563Y-46928834D01*
X79536144Y-46905779D01*
X79535000Y-46882500D01*
X79535000Y-46307500D01*
X79536144Y-46284221D01*
X79539563Y-46261166D01*
X79545227Y-46238557D01*
X79553079Y-46216613D01*
X79563044Y-46195543D01*
X79575026Y-46175552D01*
X79588910Y-46156832D01*
X79604562Y-46139562D01*
X79621832Y-46123910D01*
X79640552Y-46110026D01*
X79660543Y-46098044D01*
X79681613Y-46088079D01*
X79703557Y-46080227D01*
X79726166Y-46074563D01*
X79749221Y-46071144D01*
X79772500Y-46070000D01*
X80247500Y-46070000D01*
X80270779Y-46071144D01*
G37*
G36*
X80270779Y-44321144D02*
G01*
X80293834Y-44324563D01*
X80316443Y-44330227D01*
X80338387Y-44338079D01*
X80359457Y-44348044D01*
X80379448Y-44360026D01*
X80398168Y-44373910D01*
X80415438Y-44389562D01*
X80431090Y-44406832D01*
X80444974Y-44425552D01*
X80456956Y-44445543D01*
X80466921Y-44466613D01*
X80474773Y-44488557D01*
X80480437Y-44511166D01*
X80483856Y-44534221D01*
X80485000Y-44557500D01*
X80485000Y-45132500D01*
X80483856Y-45155779D01*
X80480437Y-45178834D01*
X80474773Y-45201443D01*
X80466921Y-45223387D01*
X80456956Y-45244457D01*
X80444974Y-45264448D01*
X80431090Y-45283168D01*
X80415438Y-45300438D01*
X80398168Y-45316090D01*
X80379448Y-45329974D01*
X80359457Y-45341956D01*
X80338387Y-45351921D01*
X80316443Y-45359773D01*
X80293834Y-45365437D01*
X80270779Y-45368856D01*
X80247500Y-45370000D01*
X79772500Y-45370000D01*
X79749221Y-45368856D01*
X79726166Y-45365437D01*
X79703557Y-45359773D01*
X79681613Y-45351921D01*
X79660543Y-45341956D01*
X79640552Y-45329974D01*
X79621832Y-45316090D01*
X79604562Y-45300438D01*
X79588910Y-45283168D01*
X79575026Y-45264448D01*
X79563044Y-45244457D01*
X79553079Y-45223387D01*
X79545227Y-45201443D01*
X79539563Y-45178834D01*
X79536144Y-45155779D01*
X79535000Y-45132500D01*
X79535000Y-44557500D01*
X79536144Y-44534221D01*
X79539563Y-44511166D01*
X79545227Y-44488557D01*
X79553079Y-44466613D01*
X79563044Y-44445543D01*
X79575026Y-44425552D01*
X79588910Y-44406832D01*
X79604562Y-44389562D01*
X79621832Y-44373910D01*
X79640552Y-44360026D01*
X79660543Y-44348044D01*
X79681613Y-44338079D01*
X79703557Y-44330227D01*
X79726166Y-44324563D01*
X79749221Y-44321144D01*
X79772500Y-44320000D01*
X80247500Y-44320000D01*
X80270779Y-44321144D01*
G37*
G36*
X83445779Y-54481144D02*
G01*
X83468834Y-54484563D01*
X83491443Y-54490227D01*
X83513387Y-54498079D01*
X83534457Y-54508044D01*
X83554448Y-54520026D01*
X83573168Y-54533910D01*
X83590438Y-54549562D01*
X83606090Y-54566832D01*
X83619974Y-54585552D01*
X83631956Y-54605543D01*
X83641921Y-54626613D01*
X83649773Y-54648557D01*
X83655437Y-54671166D01*
X83658856Y-54694221D01*
X83660000Y-54717500D01*
X83660000Y-55292500D01*
X83658856Y-55315779D01*
X83655437Y-55338834D01*
X83649773Y-55361443D01*
X83641921Y-55383387D01*
X83631956Y-55404457D01*
X83619974Y-55424448D01*
X83606090Y-55443168D01*
X83590438Y-55460438D01*
X83573168Y-55476090D01*
X83554448Y-55489974D01*
X83534457Y-55501956D01*
X83513387Y-55511921D01*
X83491443Y-55519773D01*
X83468834Y-55525437D01*
X83445779Y-55528856D01*
X83422500Y-55530000D01*
X82947500Y-55530000D01*
X82924221Y-55528856D01*
X82901166Y-55525437D01*
X82878557Y-55519773D01*
X82856613Y-55511921D01*
X82835543Y-55501956D01*
X82815552Y-55489974D01*
X82796832Y-55476090D01*
X82779562Y-55460438D01*
X82763910Y-55443168D01*
X82750026Y-55424448D01*
X82738044Y-55404457D01*
X82728079Y-55383387D01*
X82720227Y-55361443D01*
X82714563Y-55338834D01*
X82711144Y-55315779D01*
X82710000Y-55292500D01*
X82710000Y-54717500D01*
X82711144Y-54694221D01*
X82714563Y-54671166D01*
X82720227Y-54648557D01*
X82728079Y-54626613D01*
X82738044Y-54605543D01*
X82750026Y-54585552D01*
X82763910Y-54566832D01*
X82779562Y-54549562D01*
X82796832Y-54533910D01*
X82815552Y-54520026D01*
X82835543Y-54508044D01*
X82856613Y-54498079D01*
X82878557Y-54490227D01*
X82901166Y-54484563D01*
X82924221Y-54481144D01*
X82947500Y-54480000D01*
X83422500Y-54480000D01*
X83445779Y-54481144D01*
G37*
G36*
X83445779Y-56231144D02*
G01*
X83468834Y-56234563D01*
X83491443Y-56240227D01*
X83513387Y-56248079D01*
X83534457Y-56258044D01*
X83554448Y-56270026D01*
X83573168Y-56283910D01*
X83590438Y-56299562D01*
X83606090Y-56316832D01*
X83619974Y-56335552D01*
X83631956Y-56355543D01*
X83641921Y-56376613D01*
X83649773Y-56398557D01*
X83655437Y-56421166D01*
X83658856Y-56444221D01*
X83660000Y-56467500D01*
X83660000Y-57042500D01*
X83658856Y-57065779D01*
X83655437Y-57088834D01*
X83649773Y-57111443D01*
X83641921Y-57133387D01*
X83631956Y-57154457D01*
X83619974Y-57174448D01*
X83606090Y-57193168D01*
X83590438Y-57210438D01*
X83573168Y-57226090D01*
X83554448Y-57239974D01*
X83534457Y-57251956D01*
X83513387Y-57261921D01*
X83491443Y-57269773D01*
X83468834Y-57275437D01*
X83445779Y-57278856D01*
X83422500Y-57280000D01*
X82947500Y-57280000D01*
X82924221Y-57278856D01*
X82901166Y-57275437D01*
X82878557Y-57269773D01*
X82856613Y-57261921D01*
X82835543Y-57251956D01*
X82815552Y-57239974D01*
X82796832Y-57226090D01*
X82779562Y-57210438D01*
X82763910Y-57193168D01*
X82750026Y-57174448D01*
X82738044Y-57154457D01*
X82728079Y-57133387D01*
X82720227Y-57111443D01*
X82714563Y-57088834D01*
X82711144Y-57065779D01*
X82710000Y-57042500D01*
X82710000Y-56467500D01*
X82711144Y-56444221D01*
X82714563Y-56421166D01*
X82720227Y-56398557D01*
X82728079Y-56376613D01*
X82738044Y-56355543D01*
X82750026Y-56335552D01*
X82763910Y-56316832D01*
X82779562Y-56299562D01*
X82796832Y-56283910D01*
X82815552Y-56270026D01*
X82835543Y-56258044D01*
X82856613Y-56248079D01*
X82878557Y-56240227D01*
X82901166Y-56234563D01*
X82924221Y-56231144D01*
X82947500Y-56230000D01*
X83422500Y-56230000D01*
X83445779Y-56231144D01*
G37*
G36*
X69130779Y-36356144D02*
G01*
X69153834Y-36359563D01*
X69176443Y-36365227D01*
X69198387Y-36373079D01*
X69219457Y-36383044D01*
X69239448Y-36395026D01*
X69258168Y-36408910D01*
X69275438Y-36424562D01*
X69291090Y-36441832D01*
X69304974Y-36460552D01*
X69316956Y-36480543D01*
X69326921Y-36501613D01*
X69334773Y-36523557D01*
X69340437Y-36546166D01*
X69343856Y-36569221D01*
X69345000Y-36592500D01*
X69345000Y-37067500D01*
X69343856Y-37090779D01*
X69340437Y-37113834D01*
X69334773Y-37136443D01*
X69326921Y-37158387D01*
X69316956Y-37179457D01*
X69304974Y-37199448D01*
X69291090Y-37218168D01*
X69275438Y-37235438D01*
X69258168Y-37251090D01*
X69239448Y-37264974D01*
X69219457Y-37276956D01*
X69198387Y-37286921D01*
X69176443Y-37294773D01*
X69153834Y-37300437D01*
X69130779Y-37303856D01*
X69107500Y-37305000D01*
X68532500Y-37305000D01*
X68509221Y-37303856D01*
X68486166Y-37300437D01*
X68463557Y-37294773D01*
X68441613Y-37286921D01*
X68420543Y-37276956D01*
X68400552Y-37264974D01*
X68381832Y-37251090D01*
X68364562Y-37235438D01*
X68348910Y-37218168D01*
X68335026Y-37199448D01*
X68323044Y-37179457D01*
X68313079Y-37158387D01*
X68305227Y-37136443D01*
X68299563Y-37113834D01*
X68296144Y-37090779D01*
X68295000Y-37067500D01*
X68295000Y-36592500D01*
X68296144Y-36569221D01*
X68299563Y-36546166D01*
X68305227Y-36523557D01*
X68313079Y-36501613D01*
X68323044Y-36480543D01*
X68335026Y-36460552D01*
X68348910Y-36441832D01*
X68364562Y-36424562D01*
X68381832Y-36408910D01*
X68400552Y-36395026D01*
X68420543Y-36383044D01*
X68441613Y-36373079D01*
X68463557Y-36365227D01*
X68486166Y-36359563D01*
X68509221Y-36356144D01*
X68532500Y-36355000D01*
X69107500Y-36355000D01*
X69130779Y-36356144D01*
G37*
G36*
X67380779Y-36356144D02*
G01*
X67403834Y-36359563D01*
X67426443Y-36365227D01*
X67448387Y-36373079D01*
X67469457Y-36383044D01*
X67489448Y-36395026D01*
X67508168Y-36408910D01*
X67525438Y-36424562D01*
X67541090Y-36441832D01*
X67554974Y-36460552D01*
X67566956Y-36480543D01*
X67576921Y-36501613D01*
X67584773Y-36523557D01*
X67590437Y-36546166D01*
X67593856Y-36569221D01*
X67595000Y-36592500D01*
X67595000Y-37067500D01*
X67593856Y-37090779D01*
X67590437Y-37113834D01*
X67584773Y-37136443D01*
X67576921Y-37158387D01*
X67566956Y-37179457D01*
X67554974Y-37199448D01*
X67541090Y-37218168D01*
X67525438Y-37235438D01*
X67508168Y-37251090D01*
X67489448Y-37264974D01*
X67469457Y-37276956D01*
X67448387Y-37286921D01*
X67426443Y-37294773D01*
X67403834Y-37300437D01*
X67380779Y-37303856D01*
X67357500Y-37305000D01*
X66782500Y-37305000D01*
X66759221Y-37303856D01*
X66736166Y-37300437D01*
X66713557Y-37294773D01*
X66691613Y-37286921D01*
X66670543Y-37276956D01*
X66650552Y-37264974D01*
X66631832Y-37251090D01*
X66614562Y-37235438D01*
X66598910Y-37218168D01*
X66585026Y-37199448D01*
X66573044Y-37179457D01*
X66563079Y-37158387D01*
X66555227Y-37136443D01*
X66549563Y-37113834D01*
X66546144Y-37090779D01*
X66545000Y-37067500D01*
X66545000Y-36592500D01*
X66546144Y-36569221D01*
X66549563Y-36546166D01*
X66555227Y-36523557D01*
X66563079Y-36501613D01*
X66573044Y-36480543D01*
X66585026Y-36460552D01*
X66598910Y-36441832D01*
X66614562Y-36424562D01*
X66631832Y-36408910D01*
X66650552Y-36395026D01*
X66670543Y-36383044D01*
X66691613Y-36373079D01*
X66713557Y-36365227D01*
X66736166Y-36359563D01*
X66759221Y-36356144D01*
X66782500Y-36355000D01*
X67357500Y-36355000D01*
X67380779Y-36356144D01*
G37*
G36*
X74845779Y-59851144D02*
G01*
X74868834Y-59854563D01*
X74891443Y-59860227D01*
X74913387Y-59868079D01*
X74934457Y-59878044D01*
X74954448Y-59890026D01*
X74973168Y-59903910D01*
X74990438Y-59919562D01*
X75006090Y-59936832D01*
X75019974Y-59955552D01*
X75031956Y-59975543D01*
X75041921Y-59996613D01*
X75049773Y-60018557D01*
X75055437Y-60041166D01*
X75058856Y-60064221D01*
X75060000Y-60087500D01*
X75060000Y-60562500D01*
X75058856Y-60585779D01*
X75055437Y-60608834D01*
X75049773Y-60631443D01*
X75041921Y-60653387D01*
X75031956Y-60674457D01*
X75019974Y-60694448D01*
X75006090Y-60713168D01*
X74990438Y-60730438D01*
X74973168Y-60746090D01*
X74954448Y-60759974D01*
X74934457Y-60771956D01*
X74913387Y-60781921D01*
X74891443Y-60789773D01*
X74868834Y-60795437D01*
X74845779Y-60798856D01*
X74822500Y-60800000D01*
X74247500Y-60800000D01*
X74224221Y-60798856D01*
X74201166Y-60795437D01*
X74178557Y-60789773D01*
X74156613Y-60781921D01*
X74135543Y-60771956D01*
X74115552Y-60759974D01*
X74096832Y-60746090D01*
X74079562Y-60730438D01*
X74063910Y-60713168D01*
X74050026Y-60694448D01*
X74038044Y-60674457D01*
X74028079Y-60653387D01*
X74020227Y-60631443D01*
X74014563Y-60608834D01*
X74011144Y-60585779D01*
X74010000Y-60562500D01*
X74010000Y-60087500D01*
X74011144Y-60064221D01*
X74014563Y-60041166D01*
X74020227Y-60018557D01*
X74028079Y-59996613D01*
X74038044Y-59975543D01*
X74050026Y-59955552D01*
X74063910Y-59936832D01*
X74079562Y-59919562D01*
X74096832Y-59903910D01*
X74115552Y-59890026D01*
X74135543Y-59878044D01*
X74156613Y-59868079D01*
X74178557Y-59860227D01*
X74201166Y-59854563D01*
X74224221Y-59851144D01*
X74247500Y-59850000D01*
X74822500Y-59850000D01*
X74845779Y-59851144D01*
G37*
G36*
X73095779Y-59851144D02*
G01*
X73118834Y-59854563D01*
X73141443Y-59860227D01*
X73163387Y-59868079D01*
X73184457Y-59878044D01*
X73204448Y-59890026D01*
X73223168Y-59903910D01*
X73240438Y-59919562D01*
X73256090Y-59936832D01*
X73269974Y-59955552D01*
X73281956Y-59975543D01*
X73291921Y-59996613D01*
X73299773Y-60018557D01*
X73305437Y-60041166D01*
X73308856Y-60064221D01*
X73310000Y-60087500D01*
X73310000Y-60562500D01*
X73308856Y-60585779D01*
X73305437Y-60608834D01*
X73299773Y-60631443D01*
X73291921Y-60653387D01*
X73281956Y-60674457D01*
X73269974Y-60694448D01*
X73256090Y-60713168D01*
X73240438Y-60730438D01*
X73223168Y-60746090D01*
X73204448Y-60759974D01*
X73184457Y-60771956D01*
X73163387Y-60781921D01*
X73141443Y-60789773D01*
X73118834Y-60795437D01*
X73095779Y-60798856D01*
X73072500Y-60800000D01*
X72497500Y-60800000D01*
X72474221Y-60798856D01*
X72451166Y-60795437D01*
X72428557Y-60789773D01*
X72406613Y-60781921D01*
X72385543Y-60771956D01*
X72365552Y-60759974D01*
X72346832Y-60746090D01*
X72329562Y-60730438D01*
X72313910Y-60713168D01*
X72300026Y-60694448D01*
X72288044Y-60674457D01*
X72278079Y-60653387D01*
X72270227Y-60631443D01*
X72264563Y-60608834D01*
X72261144Y-60585779D01*
X72260000Y-60562500D01*
X72260000Y-60087500D01*
X72261144Y-60064221D01*
X72264563Y-60041166D01*
X72270227Y-60018557D01*
X72278079Y-59996613D01*
X72288044Y-59975543D01*
X72300026Y-59955552D01*
X72313910Y-59936832D01*
X72329562Y-59919562D01*
X72346832Y-59903910D01*
X72365552Y-59890026D01*
X72385543Y-59878044D01*
X72406613Y-59868079D01*
X72428557Y-59860227D01*
X72451166Y-59854563D01*
X72474221Y-59851144D01*
X72497500Y-59850000D01*
X73072500Y-59850000D01*
X73095779Y-59851144D01*
G37*
G36*
X92447351Y-41990361D02*
G01*
X92454632Y-41991441D01*
X92461771Y-41993229D01*
X92468701Y-41995709D01*
X92475355Y-41998856D01*
X92481668Y-42002640D01*
X92487579Y-42007024D01*
X92493033Y-42011967D01*
X92497976Y-42017421D01*
X92502360Y-42023332D01*
X92506144Y-42029645D01*
X92509291Y-42036299D01*
X92511771Y-42043229D01*
X92513559Y-42050368D01*
X92514639Y-42057649D01*
X92515000Y-42065000D01*
X92515000Y-43215000D01*
X92514639Y-43222351D01*
X92513559Y-43229632D01*
X92511771Y-43236771D01*
X92509291Y-43243701D01*
X92506144Y-43250355D01*
X92502360Y-43256668D01*
X92497976Y-43262579D01*
X92493033Y-43268033D01*
X92487579Y-43272976D01*
X92481668Y-43277360D01*
X92475355Y-43281144D01*
X92468701Y-43284291D01*
X92461771Y-43286771D01*
X92454632Y-43288559D01*
X92447351Y-43289639D01*
X92440000Y-43290000D01*
X92290000Y-43290000D01*
X92282649Y-43289639D01*
X92275368Y-43288559D01*
X92268229Y-43286771D01*
X92261299Y-43284291D01*
X92254645Y-43281144D01*
X92248332Y-43277360D01*
X92242421Y-43272976D01*
X92236967Y-43268033D01*
X92232024Y-43262579D01*
X92227640Y-43256668D01*
X92223856Y-43250355D01*
X92220709Y-43243701D01*
X92218229Y-43236771D01*
X92216441Y-43229632D01*
X92215361Y-43222351D01*
X92215000Y-43215000D01*
X92215000Y-42065000D01*
X92215361Y-42057649D01*
X92216441Y-42050368D01*
X92218229Y-42043229D01*
X92220709Y-42036299D01*
X92223856Y-42029645D01*
X92227640Y-42023332D01*
X92232024Y-42017421D01*
X92236967Y-42011967D01*
X92242421Y-42007024D01*
X92248332Y-42002640D01*
X92254645Y-41998856D01*
X92261299Y-41995709D01*
X92268229Y-41993229D01*
X92275368Y-41991441D01*
X92282649Y-41990361D01*
X92290000Y-41990000D01*
X92440000Y-41990000D01*
X92447351Y-41990361D01*
G37*
G36*
X92947351Y-41990361D02*
G01*
X92954632Y-41991441D01*
X92961771Y-41993229D01*
X92968701Y-41995709D01*
X92975355Y-41998856D01*
X92981668Y-42002640D01*
X92987579Y-42007024D01*
X92993033Y-42011967D01*
X92997976Y-42017421D01*
X93002360Y-42023332D01*
X93006144Y-42029645D01*
X93009291Y-42036299D01*
X93011771Y-42043229D01*
X93013559Y-42050368D01*
X93014639Y-42057649D01*
X93015000Y-42065000D01*
X93015000Y-43215000D01*
X93014639Y-43222351D01*
X93013559Y-43229632D01*
X93011771Y-43236771D01*
X93009291Y-43243701D01*
X93006144Y-43250355D01*
X93002360Y-43256668D01*
X92997976Y-43262579D01*
X92993033Y-43268033D01*
X92987579Y-43272976D01*
X92981668Y-43277360D01*
X92975355Y-43281144D01*
X92968701Y-43284291D01*
X92961771Y-43286771D01*
X92954632Y-43288559D01*
X92947351Y-43289639D01*
X92940000Y-43290000D01*
X92790000Y-43290000D01*
X92782649Y-43289639D01*
X92775368Y-43288559D01*
X92768229Y-43286771D01*
X92761299Y-43284291D01*
X92754645Y-43281144D01*
X92748332Y-43277360D01*
X92742421Y-43272976D01*
X92736967Y-43268033D01*
X92732024Y-43262579D01*
X92727640Y-43256668D01*
X92723856Y-43250355D01*
X92720709Y-43243701D01*
X92718229Y-43236771D01*
X92716441Y-43229632D01*
X92715361Y-43222351D01*
X92715000Y-43215000D01*
X92715000Y-42065000D01*
X92715361Y-42057649D01*
X92716441Y-42050368D01*
X92718229Y-42043229D01*
X92720709Y-42036299D01*
X92723856Y-42029645D01*
X92727640Y-42023332D01*
X92732024Y-42017421D01*
X92736967Y-42011967D01*
X92742421Y-42007024D01*
X92748332Y-42002640D01*
X92754645Y-41998856D01*
X92761299Y-41995709D01*
X92768229Y-41993229D01*
X92775368Y-41991441D01*
X92782649Y-41990361D01*
X92790000Y-41990000D01*
X92940000Y-41990000D01*
X92947351Y-41990361D01*
G37*
G36*
X93447351Y-41990361D02*
G01*
X93454632Y-41991441D01*
X93461771Y-41993229D01*
X93468701Y-41995709D01*
X93475355Y-41998856D01*
X93481668Y-42002640D01*
X93487579Y-42007024D01*
X93493033Y-42011967D01*
X93497976Y-42017421D01*
X93502360Y-42023332D01*
X93506144Y-42029645D01*
X93509291Y-42036299D01*
X93511771Y-42043229D01*
X93513559Y-42050368D01*
X93514639Y-42057649D01*
X93515000Y-42065000D01*
X93515000Y-43215000D01*
X93514639Y-43222351D01*
X93513559Y-43229632D01*
X93511771Y-43236771D01*
X93509291Y-43243701D01*
X93506144Y-43250355D01*
X93502360Y-43256668D01*
X93497976Y-43262579D01*
X93493033Y-43268033D01*
X93487579Y-43272976D01*
X93481668Y-43277360D01*
X93475355Y-43281144D01*
X93468701Y-43284291D01*
X93461771Y-43286771D01*
X93454632Y-43288559D01*
X93447351Y-43289639D01*
X93440000Y-43290000D01*
X93290000Y-43290000D01*
X93282649Y-43289639D01*
X93275368Y-43288559D01*
X93268229Y-43286771D01*
X93261299Y-43284291D01*
X93254645Y-43281144D01*
X93248332Y-43277360D01*
X93242421Y-43272976D01*
X93236967Y-43268033D01*
X93232024Y-43262579D01*
X93227640Y-43256668D01*
X93223856Y-43250355D01*
X93220709Y-43243701D01*
X93218229Y-43236771D01*
X93216441Y-43229632D01*
X93215361Y-43222351D01*
X93215000Y-43215000D01*
X93215000Y-42065000D01*
X93215361Y-42057649D01*
X93216441Y-42050368D01*
X93218229Y-42043229D01*
X93220709Y-42036299D01*
X93223856Y-42029645D01*
X93227640Y-42023332D01*
X93232024Y-42017421D01*
X93236967Y-42011967D01*
X93242421Y-42007024D01*
X93248332Y-42002640D01*
X93254645Y-41998856D01*
X93261299Y-41995709D01*
X93268229Y-41993229D01*
X93275368Y-41991441D01*
X93282649Y-41990361D01*
X93290000Y-41990000D01*
X93440000Y-41990000D01*
X93447351Y-41990361D01*
G37*
G36*
X93947351Y-41990361D02*
G01*
X93954632Y-41991441D01*
X93961771Y-41993229D01*
X93968701Y-41995709D01*
X93975355Y-41998856D01*
X93981668Y-42002640D01*
X93987579Y-42007024D01*
X93993033Y-42011967D01*
X93997976Y-42017421D01*
X94002360Y-42023332D01*
X94006144Y-42029645D01*
X94009291Y-42036299D01*
X94011771Y-42043229D01*
X94013559Y-42050368D01*
X94014639Y-42057649D01*
X94015000Y-42065000D01*
X94015000Y-43215000D01*
X94014639Y-43222351D01*
X94013559Y-43229632D01*
X94011771Y-43236771D01*
X94009291Y-43243701D01*
X94006144Y-43250355D01*
X94002360Y-43256668D01*
X93997976Y-43262579D01*
X93993033Y-43268033D01*
X93987579Y-43272976D01*
X93981668Y-43277360D01*
X93975355Y-43281144D01*
X93968701Y-43284291D01*
X93961771Y-43286771D01*
X93954632Y-43288559D01*
X93947351Y-43289639D01*
X93940000Y-43290000D01*
X93790000Y-43290000D01*
X93782649Y-43289639D01*
X93775368Y-43288559D01*
X93768229Y-43286771D01*
X93761299Y-43284291D01*
X93754645Y-43281144D01*
X93748332Y-43277360D01*
X93742421Y-43272976D01*
X93736967Y-43268033D01*
X93732024Y-43262579D01*
X93727640Y-43256668D01*
X93723856Y-43250355D01*
X93720709Y-43243701D01*
X93718229Y-43236771D01*
X93716441Y-43229632D01*
X93715361Y-43222351D01*
X93715000Y-43215000D01*
X93715000Y-42065000D01*
X93715361Y-42057649D01*
X93716441Y-42050368D01*
X93718229Y-42043229D01*
X93720709Y-42036299D01*
X93723856Y-42029645D01*
X93727640Y-42023332D01*
X93732024Y-42017421D01*
X93736967Y-42011967D01*
X93742421Y-42007024D01*
X93748332Y-42002640D01*
X93754645Y-41998856D01*
X93761299Y-41995709D01*
X93768229Y-41993229D01*
X93775368Y-41991441D01*
X93782649Y-41990361D01*
X93790000Y-41990000D01*
X93940000Y-41990000D01*
X93947351Y-41990361D01*
G37*
G36*
X94447351Y-41990361D02*
G01*
X94454632Y-41991441D01*
X94461771Y-41993229D01*
X94468701Y-41995709D01*
X94475355Y-41998856D01*
X94481668Y-42002640D01*
X94487579Y-42007024D01*
X94493033Y-42011967D01*
X94497976Y-42017421D01*
X94502360Y-42023332D01*
X94506144Y-42029645D01*
X94509291Y-42036299D01*
X94511771Y-42043229D01*
X94513559Y-42050368D01*
X94514639Y-42057649D01*
X94515000Y-42065000D01*
X94515000Y-43215000D01*
X94514639Y-43222351D01*
X94513559Y-43229632D01*
X94511771Y-43236771D01*
X94509291Y-43243701D01*
X94506144Y-43250355D01*
X94502360Y-43256668D01*
X94497976Y-43262579D01*
X94493033Y-43268033D01*
X94487579Y-43272976D01*
X94481668Y-43277360D01*
X94475355Y-43281144D01*
X94468701Y-43284291D01*
X94461771Y-43286771D01*
X94454632Y-43288559D01*
X94447351Y-43289639D01*
X94440000Y-43290000D01*
X94290000Y-43290000D01*
X94282649Y-43289639D01*
X94275368Y-43288559D01*
X94268229Y-43286771D01*
X94261299Y-43284291D01*
X94254645Y-43281144D01*
X94248332Y-43277360D01*
X94242421Y-43272976D01*
X94236967Y-43268033D01*
X94232024Y-43262579D01*
X94227640Y-43256668D01*
X94223856Y-43250355D01*
X94220709Y-43243701D01*
X94218229Y-43236771D01*
X94216441Y-43229632D01*
X94215361Y-43222351D01*
X94215000Y-43215000D01*
X94215000Y-42065000D01*
X94215361Y-42057649D01*
X94216441Y-42050368D01*
X94218229Y-42043229D01*
X94220709Y-42036299D01*
X94223856Y-42029645D01*
X94227640Y-42023332D01*
X94232024Y-42017421D01*
X94236967Y-42011967D01*
X94242421Y-42007024D01*
X94248332Y-42002640D01*
X94254645Y-41998856D01*
X94261299Y-41995709D01*
X94268229Y-41993229D01*
X94275368Y-41991441D01*
X94282649Y-41990361D01*
X94290000Y-41990000D01*
X94440000Y-41990000D01*
X94447351Y-41990361D01*
G37*
G36*
X94947351Y-41990361D02*
G01*
X94954632Y-41991441D01*
X94961771Y-41993229D01*
X94968701Y-41995709D01*
X94975355Y-41998856D01*
X94981668Y-42002640D01*
X94987579Y-42007024D01*
X94993033Y-42011967D01*
X94997976Y-42017421D01*
X95002360Y-42023332D01*
X95006144Y-42029645D01*
X95009291Y-42036299D01*
X95011771Y-42043229D01*
X95013559Y-42050368D01*
X95014639Y-42057649D01*
X95015000Y-42065000D01*
X95015000Y-43215000D01*
X95014639Y-43222351D01*
X95013559Y-43229632D01*
X95011771Y-43236771D01*
X95009291Y-43243701D01*
X95006144Y-43250355D01*
X95002360Y-43256668D01*
X94997976Y-43262579D01*
X94993033Y-43268033D01*
X94987579Y-43272976D01*
X94981668Y-43277360D01*
X94975355Y-43281144D01*
X94968701Y-43284291D01*
X94961771Y-43286771D01*
X94954632Y-43288559D01*
X94947351Y-43289639D01*
X94940000Y-43290000D01*
X94790000Y-43290000D01*
X94782649Y-43289639D01*
X94775368Y-43288559D01*
X94768229Y-43286771D01*
X94761299Y-43284291D01*
X94754645Y-43281144D01*
X94748332Y-43277360D01*
X94742421Y-43272976D01*
X94736967Y-43268033D01*
X94732024Y-43262579D01*
X94727640Y-43256668D01*
X94723856Y-43250355D01*
X94720709Y-43243701D01*
X94718229Y-43236771D01*
X94716441Y-43229632D01*
X94715361Y-43222351D01*
X94715000Y-43215000D01*
X94715000Y-42065000D01*
X94715361Y-42057649D01*
X94716441Y-42050368D01*
X94718229Y-42043229D01*
X94720709Y-42036299D01*
X94723856Y-42029645D01*
X94727640Y-42023332D01*
X94732024Y-42017421D01*
X94736967Y-42011967D01*
X94742421Y-42007024D01*
X94748332Y-42002640D01*
X94754645Y-41998856D01*
X94761299Y-41995709D01*
X94768229Y-41993229D01*
X94775368Y-41991441D01*
X94782649Y-41990361D01*
X94790000Y-41990000D01*
X94940000Y-41990000D01*
X94947351Y-41990361D01*
G37*
G36*
X95447351Y-41990361D02*
G01*
X95454632Y-41991441D01*
X95461771Y-41993229D01*
X95468701Y-41995709D01*
X95475355Y-41998856D01*
X95481668Y-42002640D01*
X95487579Y-42007024D01*
X95493033Y-42011967D01*
X95497976Y-42017421D01*
X95502360Y-42023332D01*
X95506144Y-42029645D01*
X95509291Y-42036299D01*
X95511771Y-42043229D01*
X95513559Y-42050368D01*
X95514639Y-42057649D01*
X95515000Y-42065000D01*
X95515000Y-43215000D01*
X95514639Y-43222351D01*
X95513559Y-43229632D01*
X95511771Y-43236771D01*
X95509291Y-43243701D01*
X95506144Y-43250355D01*
X95502360Y-43256668D01*
X95497976Y-43262579D01*
X95493033Y-43268033D01*
X95487579Y-43272976D01*
X95481668Y-43277360D01*
X95475355Y-43281144D01*
X95468701Y-43284291D01*
X95461771Y-43286771D01*
X95454632Y-43288559D01*
X95447351Y-43289639D01*
X95440000Y-43290000D01*
X95290000Y-43290000D01*
X95282649Y-43289639D01*
X95275368Y-43288559D01*
X95268229Y-43286771D01*
X95261299Y-43284291D01*
X95254645Y-43281144D01*
X95248332Y-43277360D01*
X95242421Y-43272976D01*
X95236967Y-43268033D01*
X95232024Y-43262579D01*
X95227640Y-43256668D01*
X95223856Y-43250355D01*
X95220709Y-43243701D01*
X95218229Y-43236771D01*
X95216441Y-43229632D01*
X95215361Y-43222351D01*
X95215000Y-43215000D01*
X95215000Y-42065000D01*
X95215361Y-42057649D01*
X95216441Y-42050368D01*
X95218229Y-42043229D01*
X95220709Y-42036299D01*
X95223856Y-42029645D01*
X95227640Y-42023332D01*
X95232024Y-42017421D01*
X95236967Y-42011967D01*
X95242421Y-42007024D01*
X95248332Y-42002640D01*
X95254645Y-41998856D01*
X95261299Y-41995709D01*
X95268229Y-41993229D01*
X95275368Y-41991441D01*
X95282649Y-41990361D01*
X95290000Y-41990000D01*
X95440000Y-41990000D01*
X95447351Y-41990361D01*
G37*
G36*
X95947351Y-41990361D02*
G01*
X95954632Y-41991441D01*
X95961771Y-41993229D01*
X95968701Y-41995709D01*
X95975355Y-41998856D01*
X95981668Y-42002640D01*
X95987579Y-42007024D01*
X95993033Y-42011967D01*
X95997976Y-42017421D01*
X96002360Y-42023332D01*
X96006144Y-42029645D01*
X96009291Y-42036299D01*
X96011771Y-42043229D01*
X96013559Y-42050368D01*
X96014639Y-42057649D01*
X96015000Y-42065000D01*
X96015000Y-43215000D01*
X96014639Y-43222351D01*
X96013559Y-43229632D01*
X96011771Y-43236771D01*
X96009291Y-43243701D01*
X96006144Y-43250355D01*
X96002360Y-43256668D01*
X95997976Y-43262579D01*
X95993033Y-43268033D01*
X95987579Y-43272976D01*
X95981668Y-43277360D01*
X95975355Y-43281144D01*
X95968701Y-43284291D01*
X95961771Y-43286771D01*
X95954632Y-43288559D01*
X95947351Y-43289639D01*
X95940000Y-43290000D01*
X95790000Y-43290000D01*
X95782649Y-43289639D01*
X95775368Y-43288559D01*
X95768229Y-43286771D01*
X95761299Y-43284291D01*
X95754645Y-43281144D01*
X95748332Y-43277360D01*
X95742421Y-43272976D01*
X95736967Y-43268033D01*
X95732024Y-43262579D01*
X95727640Y-43256668D01*
X95723856Y-43250355D01*
X95720709Y-43243701D01*
X95718229Y-43236771D01*
X95716441Y-43229632D01*
X95715361Y-43222351D01*
X95715000Y-43215000D01*
X95715000Y-42065000D01*
X95715361Y-42057649D01*
X95716441Y-42050368D01*
X95718229Y-42043229D01*
X95720709Y-42036299D01*
X95723856Y-42029645D01*
X95727640Y-42023332D01*
X95732024Y-42017421D01*
X95736967Y-42011967D01*
X95742421Y-42007024D01*
X95748332Y-42002640D01*
X95754645Y-41998856D01*
X95761299Y-41995709D01*
X95768229Y-41993229D01*
X95775368Y-41991441D01*
X95782649Y-41990361D01*
X95790000Y-41990000D01*
X95940000Y-41990000D01*
X95947351Y-41990361D01*
G37*
G36*
X96447351Y-41990361D02*
G01*
X96454632Y-41991441D01*
X96461771Y-41993229D01*
X96468701Y-41995709D01*
X96475355Y-41998856D01*
X96481668Y-42002640D01*
X96487579Y-42007024D01*
X96493033Y-42011967D01*
X96497976Y-42017421D01*
X96502360Y-42023332D01*
X96506144Y-42029645D01*
X96509291Y-42036299D01*
X96511771Y-42043229D01*
X96513559Y-42050368D01*
X96514639Y-42057649D01*
X96515000Y-42065000D01*
X96515000Y-43215000D01*
X96514639Y-43222351D01*
X96513559Y-43229632D01*
X96511771Y-43236771D01*
X96509291Y-43243701D01*
X96506144Y-43250355D01*
X96502360Y-43256668D01*
X96497976Y-43262579D01*
X96493033Y-43268033D01*
X96487579Y-43272976D01*
X96481668Y-43277360D01*
X96475355Y-43281144D01*
X96468701Y-43284291D01*
X96461771Y-43286771D01*
X96454632Y-43288559D01*
X96447351Y-43289639D01*
X96440000Y-43290000D01*
X96290000Y-43290000D01*
X96282649Y-43289639D01*
X96275368Y-43288559D01*
X96268229Y-43286771D01*
X96261299Y-43284291D01*
X96254645Y-43281144D01*
X96248332Y-43277360D01*
X96242421Y-43272976D01*
X96236967Y-43268033D01*
X96232024Y-43262579D01*
X96227640Y-43256668D01*
X96223856Y-43250355D01*
X96220709Y-43243701D01*
X96218229Y-43236771D01*
X96216441Y-43229632D01*
X96215361Y-43222351D01*
X96215000Y-43215000D01*
X96215000Y-42065000D01*
X96215361Y-42057649D01*
X96216441Y-42050368D01*
X96218229Y-42043229D01*
X96220709Y-42036299D01*
X96223856Y-42029645D01*
X96227640Y-42023332D01*
X96232024Y-42017421D01*
X96236967Y-42011967D01*
X96242421Y-42007024D01*
X96248332Y-42002640D01*
X96254645Y-41998856D01*
X96261299Y-41995709D01*
X96268229Y-41993229D01*
X96275368Y-41991441D01*
X96282649Y-41990361D01*
X96290000Y-41990000D01*
X96440000Y-41990000D01*
X96447351Y-41990361D01*
G37*
G36*
X96947351Y-41990361D02*
G01*
X96954632Y-41991441D01*
X96961771Y-41993229D01*
X96968701Y-41995709D01*
X96975355Y-41998856D01*
X96981668Y-42002640D01*
X96987579Y-42007024D01*
X96993033Y-42011967D01*
X96997976Y-42017421D01*
X97002360Y-42023332D01*
X97006144Y-42029645D01*
X97009291Y-42036299D01*
X97011771Y-42043229D01*
X97013559Y-42050368D01*
X97014639Y-42057649D01*
X97015000Y-42065000D01*
X97015000Y-43215000D01*
X97014639Y-43222351D01*
X97013559Y-43229632D01*
X97011771Y-43236771D01*
X97009291Y-43243701D01*
X97006144Y-43250355D01*
X97002360Y-43256668D01*
X96997976Y-43262579D01*
X96993033Y-43268033D01*
X96987579Y-43272976D01*
X96981668Y-43277360D01*
X96975355Y-43281144D01*
X96968701Y-43284291D01*
X96961771Y-43286771D01*
X96954632Y-43288559D01*
X96947351Y-43289639D01*
X96940000Y-43290000D01*
X96790000Y-43290000D01*
X96782649Y-43289639D01*
X96775368Y-43288559D01*
X96768229Y-43286771D01*
X96761299Y-43284291D01*
X96754645Y-43281144D01*
X96748332Y-43277360D01*
X96742421Y-43272976D01*
X96736967Y-43268033D01*
X96732024Y-43262579D01*
X96727640Y-43256668D01*
X96723856Y-43250355D01*
X96720709Y-43243701D01*
X96718229Y-43236771D01*
X96716441Y-43229632D01*
X96715361Y-43222351D01*
X96715000Y-43215000D01*
X96715000Y-42065000D01*
X96715361Y-42057649D01*
X96716441Y-42050368D01*
X96718229Y-42043229D01*
X96720709Y-42036299D01*
X96723856Y-42029645D01*
X96727640Y-42023332D01*
X96732024Y-42017421D01*
X96736967Y-42011967D01*
X96742421Y-42007024D01*
X96748332Y-42002640D01*
X96754645Y-41998856D01*
X96761299Y-41995709D01*
X96768229Y-41993229D01*
X96775368Y-41991441D01*
X96782649Y-41990361D01*
X96790000Y-41990000D01*
X96940000Y-41990000D01*
X96947351Y-41990361D01*
G37*
G36*
X90839775Y-35942003D02*
G01*
X90880158Y-35947993D01*
X90919758Y-35957913D01*
X90958196Y-35971666D01*
X90995101Y-35989121D01*
X91030117Y-36010109D01*
X91062908Y-36034428D01*
X91093156Y-36061844D01*
X91120572Y-36092092D01*
X91144891Y-36124883D01*
X91165879Y-36159899D01*
X91183334Y-36196804D01*
X91197087Y-36235242D01*
X91207007Y-36274842D01*
X91212997Y-36315225D01*
X91215000Y-36356000D01*
X91215000Y-41924000D01*
X91212997Y-41964775D01*
X91207007Y-42005158D01*
X91197087Y-42044758D01*
X91183334Y-42083196D01*
X91165879Y-42120101D01*
X91144891Y-42155117D01*
X91120572Y-42187908D01*
X91093156Y-42218156D01*
X91062908Y-42245572D01*
X91030117Y-42269891D01*
X90995101Y-42290879D01*
X90958196Y-42308334D01*
X90919758Y-42322087D01*
X90880158Y-42332007D01*
X90839775Y-42337997D01*
X90799000Y-42340000D01*
X89631000Y-42340000D01*
X89590225Y-42337997D01*
X89549842Y-42332007D01*
X89510242Y-42322087D01*
X89471804Y-42308334D01*
X89434899Y-42290879D01*
X89399883Y-42269891D01*
X89367092Y-42245572D01*
X89336844Y-42218156D01*
X89309428Y-42187908D01*
X89285109Y-42155117D01*
X89264121Y-42120101D01*
X89246666Y-42083196D01*
X89232913Y-42044758D01*
X89222993Y-42005158D01*
X89217003Y-41964775D01*
X89215000Y-41924000D01*
X89215000Y-36356000D01*
X89217003Y-36315225D01*
X89222993Y-36274842D01*
X89232913Y-36235242D01*
X89246666Y-36196804D01*
X89264121Y-36159899D01*
X89285109Y-36124883D01*
X89309428Y-36092092D01*
X89336844Y-36061844D01*
X89367092Y-36034428D01*
X89399883Y-36010109D01*
X89434899Y-35989121D01*
X89471804Y-35971666D01*
X89510242Y-35957913D01*
X89549842Y-35947993D01*
X89590225Y-35942003D01*
X89631000Y-35940000D01*
X90799000Y-35940000D01*
X90839775Y-35942003D01*
G37*
G36*
X99639775Y-35942003D02*
G01*
X99680158Y-35947993D01*
X99719758Y-35957913D01*
X99758196Y-35971666D01*
X99795101Y-35989121D01*
X99830117Y-36010109D01*
X99862908Y-36034428D01*
X99893156Y-36061844D01*
X99920572Y-36092092D01*
X99944891Y-36124883D01*
X99965879Y-36159899D01*
X99983334Y-36196804D01*
X99997087Y-36235242D01*
X100007007Y-36274842D01*
X100012997Y-36315225D01*
X100015000Y-36356000D01*
X100015000Y-41924000D01*
X100012997Y-41964775D01*
X100007007Y-42005158D01*
X99997087Y-42044758D01*
X99983334Y-42083196D01*
X99965879Y-42120101D01*
X99944891Y-42155117D01*
X99920572Y-42187908D01*
X99893156Y-42218156D01*
X99862908Y-42245572D01*
X99830117Y-42269891D01*
X99795101Y-42290879D01*
X99758196Y-42308334D01*
X99719758Y-42322087D01*
X99680158Y-42332007D01*
X99639775Y-42337997D01*
X99599000Y-42340000D01*
X98431000Y-42340000D01*
X98390225Y-42337997D01*
X98349842Y-42332007D01*
X98310242Y-42322087D01*
X98271804Y-42308334D01*
X98234899Y-42290879D01*
X98199883Y-42269891D01*
X98167092Y-42245572D01*
X98136844Y-42218156D01*
X98109428Y-42187908D01*
X98085109Y-42155117D01*
X98064121Y-42120101D01*
X98046666Y-42083196D01*
X98032913Y-42044758D01*
X98022993Y-42005158D01*
X98017003Y-41964775D01*
X98015000Y-41924000D01*
X98015000Y-36356000D01*
X98017003Y-36315225D01*
X98022993Y-36274842D01*
X98032913Y-36235242D01*
X98046666Y-36196804D01*
X98064121Y-36159899D01*
X98085109Y-36124883D01*
X98109428Y-36092092D01*
X98136844Y-36061844D01*
X98167092Y-36034428D01*
X98199883Y-36010109D01*
X98234899Y-35989121D01*
X98271804Y-35971666D01*
X98310242Y-35957913D01*
X98349842Y-35947993D01*
X98390225Y-35942003D01*
X98431000Y-35940000D01*
X99599000Y-35940000D01*
X99639775Y-35942003D01*
G37*
G36*
X72940779Y-45246144D02*
G01*
X72963834Y-45249563D01*
X72986443Y-45255227D01*
X73008387Y-45263079D01*
X73029457Y-45273044D01*
X73049448Y-45285026D01*
X73068168Y-45298910D01*
X73085438Y-45314562D01*
X73101090Y-45331832D01*
X73114974Y-45350552D01*
X73126956Y-45370543D01*
X73136921Y-45391613D01*
X73144773Y-45413557D01*
X73150437Y-45436166D01*
X73153856Y-45459221D01*
X73155000Y-45482500D01*
X73155000Y-45957500D01*
X73153856Y-45980779D01*
X73150437Y-46003834D01*
X73144773Y-46026443D01*
X73136921Y-46048387D01*
X73126956Y-46069457D01*
X73114974Y-46089448D01*
X73101090Y-46108168D01*
X73085438Y-46125438D01*
X73068168Y-46141090D01*
X73049448Y-46154974D01*
X73029457Y-46166956D01*
X73008387Y-46176921D01*
X72986443Y-46184773D01*
X72963834Y-46190437D01*
X72940779Y-46193856D01*
X72917500Y-46195000D01*
X72342500Y-46195000D01*
X72319221Y-46193856D01*
X72296166Y-46190437D01*
X72273557Y-46184773D01*
X72251613Y-46176921D01*
X72230543Y-46166956D01*
X72210552Y-46154974D01*
X72191832Y-46141090D01*
X72174562Y-46125438D01*
X72158910Y-46108168D01*
X72145026Y-46089448D01*
X72133044Y-46069457D01*
X72123079Y-46048387D01*
X72115227Y-46026443D01*
X72109563Y-46003834D01*
X72106144Y-45980779D01*
X72105000Y-45957500D01*
X72105000Y-45482500D01*
X72106144Y-45459221D01*
X72109563Y-45436166D01*
X72115227Y-45413557D01*
X72123079Y-45391613D01*
X72133044Y-45370543D01*
X72145026Y-45350552D01*
X72158910Y-45331832D01*
X72174562Y-45314562D01*
X72191832Y-45298910D01*
X72210552Y-45285026D01*
X72230543Y-45273044D01*
X72251613Y-45263079D01*
X72273557Y-45255227D01*
X72296166Y-45249563D01*
X72319221Y-45246144D01*
X72342500Y-45245000D01*
X72917500Y-45245000D01*
X72940779Y-45246144D01*
G37*
G36*
X71190779Y-45246144D02*
G01*
X71213834Y-45249563D01*
X71236443Y-45255227D01*
X71258387Y-45263079D01*
X71279457Y-45273044D01*
X71299448Y-45285026D01*
X71318168Y-45298910D01*
X71335438Y-45314562D01*
X71351090Y-45331832D01*
X71364974Y-45350552D01*
X71376956Y-45370543D01*
X71386921Y-45391613D01*
X71394773Y-45413557D01*
X71400437Y-45436166D01*
X71403856Y-45459221D01*
X71405000Y-45482500D01*
X71405000Y-45957500D01*
X71403856Y-45980779D01*
X71400437Y-46003834D01*
X71394773Y-46026443D01*
X71386921Y-46048387D01*
X71376956Y-46069457D01*
X71364974Y-46089448D01*
X71351090Y-46108168D01*
X71335438Y-46125438D01*
X71318168Y-46141090D01*
X71299448Y-46154974D01*
X71279457Y-46166956D01*
X71258387Y-46176921D01*
X71236443Y-46184773D01*
X71213834Y-46190437D01*
X71190779Y-46193856D01*
X71167500Y-46195000D01*
X70592500Y-46195000D01*
X70569221Y-46193856D01*
X70546166Y-46190437D01*
X70523557Y-46184773D01*
X70501613Y-46176921D01*
X70480543Y-46166956D01*
X70460552Y-46154974D01*
X70441832Y-46141090D01*
X70424562Y-46125438D01*
X70408910Y-46108168D01*
X70395026Y-46089448D01*
X70383044Y-46069457D01*
X70373079Y-46048387D01*
X70365227Y-46026443D01*
X70359563Y-46003834D01*
X70356144Y-45980779D01*
X70355000Y-45957500D01*
X70355000Y-45482500D01*
X70356144Y-45459221D01*
X70359563Y-45436166D01*
X70365227Y-45413557D01*
X70373079Y-45391613D01*
X70383044Y-45370543D01*
X70395026Y-45350552D01*
X70408910Y-45331832D01*
X70424562Y-45314562D01*
X70441832Y-45298910D01*
X70460552Y-45285026D01*
X70480543Y-45273044D01*
X70501613Y-45263079D01*
X70523557Y-45255227D01*
X70546166Y-45249563D01*
X70569221Y-45246144D01*
X70592500Y-45245000D01*
X71167500Y-45245000D01*
X71190779Y-45246144D01*
G37*
G36*
X72650779Y-63371144D02*
G01*
X72673834Y-63374563D01*
X72696443Y-63380227D01*
X72718387Y-63388079D01*
X72739457Y-63398044D01*
X72759448Y-63410026D01*
X72778168Y-63423910D01*
X72795438Y-63439562D01*
X72811090Y-63456832D01*
X72824974Y-63475552D01*
X72836956Y-63495543D01*
X72846921Y-63516613D01*
X72854773Y-63538557D01*
X72860437Y-63561166D01*
X72863856Y-63584221D01*
X72865000Y-63607500D01*
X72865000Y-64182500D01*
X72863856Y-64205779D01*
X72860437Y-64228834D01*
X72854773Y-64251443D01*
X72846921Y-64273387D01*
X72836956Y-64294457D01*
X72824974Y-64314448D01*
X72811090Y-64333168D01*
X72795438Y-64350438D01*
X72778168Y-64366090D01*
X72759448Y-64379974D01*
X72739457Y-64391956D01*
X72718387Y-64401921D01*
X72696443Y-64409773D01*
X72673834Y-64415437D01*
X72650779Y-64418856D01*
X72627500Y-64420000D01*
X72152500Y-64420000D01*
X72129221Y-64418856D01*
X72106166Y-64415437D01*
X72083557Y-64409773D01*
X72061613Y-64401921D01*
X72040543Y-64391956D01*
X72020552Y-64379974D01*
X72001832Y-64366090D01*
X71984562Y-64350438D01*
X71968910Y-64333168D01*
X71955026Y-64314448D01*
X71943044Y-64294457D01*
X71933079Y-64273387D01*
X71925227Y-64251443D01*
X71919563Y-64228834D01*
X71916144Y-64205779D01*
X71915000Y-64182500D01*
X71915000Y-63607500D01*
X71916144Y-63584221D01*
X71919563Y-63561166D01*
X71925227Y-63538557D01*
X71933079Y-63516613D01*
X71943044Y-63495543D01*
X71955026Y-63475552D01*
X71968910Y-63456832D01*
X71984562Y-63439562D01*
X72001832Y-63423910D01*
X72020552Y-63410026D01*
X72040543Y-63398044D01*
X72061613Y-63388079D01*
X72083557Y-63380227D01*
X72106166Y-63374563D01*
X72129221Y-63371144D01*
X72152500Y-63370000D01*
X72627500Y-63370000D01*
X72650779Y-63371144D01*
G37*
G36*
X72650779Y-65121144D02*
G01*
X72673834Y-65124563D01*
X72696443Y-65130227D01*
X72718387Y-65138079D01*
X72739457Y-65148044D01*
X72759448Y-65160026D01*
X72778168Y-65173910D01*
X72795438Y-65189562D01*
X72811090Y-65206832D01*
X72824974Y-65225552D01*
X72836956Y-65245543D01*
X72846921Y-65266613D01*
X72854773Y-65288557D01*
X72860437Y-65311166D01*
X72863856Y-65334221D01*
X72865000Y-65357500D01*
X72865000Y-65932500D01*
X72863856Y-65955779D01*
X72860437Y-65978834D01*
X72854773Y-66001443D01*
X72846921Y-66023387D01*
X72836956Y-66044457D01*
X72824974Y-66064448D01*
X72811090Y-66083168D01*
X72795438Y-66100438D01*
X72778168Y-66116090D01*
X72759448Y-66129974D01*
X72739457Y-66141956D01*
X72718387Y-66151921D01*
X72696443Y-66159773D01*
X72673834Y-66165437D01*
X72650779Y-66168856D01*
X72627500Y-66170000D01*
X72152500Y-66170000D01*
X72129221Y-66168856D01*
X72106166Y-66165437D01*
X72083557Y-66159773D01*
X72061613Y-66151921D01*
X72040543Y-66141956D01*
X72020552Y-66129974D01*
X72001832Y-66116090D01*
X71984562Y-66100438D01*
X71968910Y-66083168D01*
X71955026Y-66064448D01*
X71943044Y-66044457D01*
X71933079Y-66023387D01*
X71925227Y-66001443D01*
X71919563Y-65978834D01*
X71916144Y-65955779D01*
X71915000Y-65932500D01*
X71915000Y-65357500D01*
X71916144Y-65334221D01*
X71919563Y-65311166D01*
X71925227Y-65288557D01*
X71933079Y-65266613D01*
X71943044Y-65245543D01*
X71955026Y-65225552D01*
X71968910Y-65206832D01*
X71984562Y-65189562D01*
X72001832Y-65173910D01*
X72020552Y-65160026D01*
X72040543Y-65148044D01*
X72061613Y-65138079D01*
X72083557Y-65130227D01*
X72106166Y-65124563D01*
X72129221Y-65121144D01*
X72152500Y-65120000D01*
X72627500Y-65120000D01*
X72650779Y-65121144D01*
G37*
D13*
X85555000Y-48910000D03*
X85555000Y-47610000D03*
X83355000Y-48260000D03*
X85555000Y-48260000D03*
X83355000Y-47610000D03*
X83355000Y-48910000D03*
D14*
X80300000Y-57150000D03*
X78450000Y-57150000D03*
D10*
G36*
X93895779Y-60486144D02*
G01*
X93918834Y-60489563D01*
X93941443Y-60495227D01*
X93963387Y-60503079D01*
X93984457Y-60513044D01*
X94004448Y-60525026D01*
X94023168Y-60538910D01*
X94040438Y-60554562D01*
X94056090Y-60571832D01*
X94069974Y-60590552D01*
X94081956Y-60610543D01*
X94091921Y-60631613D01*
X94099773Y-60653557D01*
X94105437Y-60676166D01*
X94108856Y-60699221D01*
X94110000Y-60722500D01*
X94110000Y-61197500D01*
X94108856Y-61220779D01*
X94105437Y-61243834D01*
X94099773Y-61266443D01*
X94091921Y-61288387D01*
X94081956Y-61309457D01*
X94069974Y-61329448D01*
X94056090Y-61348168D01*
X94040438Y-61365438D01*
X94023168Y-61381090D01*
X94004448Y-61394974D01*
X93984457Y-61406956D01*
X93963387Y-61416921D01*
X93941443Y-61424773D01*
X93918834Y-61430437D01*
X93895779Y-61433856D01*
X93872500Y-61435000D01*
X93297500Y-61435000D01*
X93274221Y-61433856D01*
X93251166Y-61430437D01*
X93228557Y-61424773D01*
X93206613Y-61416921D01*
X93185543Y-61406956D01*
X93165552Y-61394974D01*
X93146832Y-61381090D01*
X93129562Y-61365438D01*
X93113910Y-61348168D01*
X93100026Y-61329448D01*
X93088044Y-61309457D01*
X93078079Y-61288387D01*
X93070227Y-61266443D01*
X93064563Y-61243834D01*
X93061144Y-61220779D01*
X93060000Y-61197500D01*
X93060000Y-60722500D01*
X93061144Y-60699221D01*
X93064563Y-60676166D01*
X93070227Y-60653557D01*
X93078079Y-60631613D01*
X93088044Y-60610543D01*
X93100026Y-60590552D01*
X93113910Y-60571832D01*
X93129562Y-60554562D01*
X93146832Y-60538910D01*
X93165552Y-60525026D01*
X93185543Y-60513044D01*
X93206613Y-60503079D01*
X93228557Y-60495227D01*
X93251166Y-60489563D01*
X93274221Y-60486144D01*
X93297500Y-60485000D01*
X93872500Y-60485000D01*
X93895779Y-60486144D01*
G37*
G36*
X92145779Y-60486144D02*
G01*
X92168834Y-60489563D01*
X92191443Y-60495227D01*
X92213387Y-60503079D01*
X92234457Y-60513044D01*
X92254448Y-60525026D01*
X92273168Y-60538910D01*
X92290438Y-60554562D01*
X92306090Y-60571832D01*
X92319974Y-60590552D01*
X92331956Y-60610543D01*
X92341921Y-60631613D01*
X92349773Y-60653557D01*
X92355437Y-60676166D01*
X92358856Y-60699221D01*
X92360000Y-60722500D01*
X92360000Y-61197500D01*
X92358856Y-61220779D01*
X92355437Y-61243834D01*
X92349773Y-61266443D01*
X92341921Y-61288387D01*
X92331956Y-61309457D01*
X92319974Y-61329448D01*
X92306090Y-61348168D01*
X92290438Y-61365438D01*
X92273168Y-61381090D01*
X92254448Y-61394974D01*
X92234457Y-61406956D01*
X92213387Y-61416921D01*
X92191443Y-61424773D01*
X92168834Y-61430437D01*
X92145779Y-61433856D01*
X92122500Y-61435000D01*
X91547500Y-61435000D01*
X91524221Y-61433856D01*
X91501166Y-61430437D01*
X91478557Y-61424773D01*
X91456613Y-61416921D01*
X91435543Y-61406956D01*
X91415552Y-61394974D01*
X91396832Y-61381090D01*
X91379562Y-61365438D01*
X91363910Y-61348168D01*
X91350026Y-61329448D01*
X91338044Y-61309457D01*
X91328079Y-61288387D01*
X91320227Y-61266443D01*
X91314563Y-61243834D01*
X91311144Y-61220779D01*
X91310000Y-61197500D01*
X91310000Y-60722500D01*
X91311144Y-60699221D01*
X91314563Y-60676166D01*
X91320227Y-60653557D01*
X91328079Y-60631613D01*
X91338044Y-60610543D01*
X91350026Y-60590552D01*
X91363910Y-60571832D01*
X91379562Y-60554562D01*
X91396832Y-60538910D01*
X91415552Y-60525026D01*
X91435543Y-60513044D01*
X91456613Y-60503079D01*
X91478557Y-60495227D01*
X91501166Y-60489563D01*
X91524221Y-60486144D01*
X91547500Y-60485000D01*
X92122500Y-60485000D01*
X92145779Y-60486144D01*
G37*
G36*
X74845779Y-56676144D02*
G01*
X74868834Y-56679563D01*
X74891443Y-56685227D01*
X74913387Y-56693079D01*
X74934457Y-56703044D01*
X74954448Y-56715026D01*
X74973168Y-56728910D01*
X74990438Y-56744562D01*
X75006090Y-56761832D01*
X75019974Y-56780552D01*
X75031956Y-56800543D01*
X75041921Y-56821613D01*
X75049773Y-56843557D01*
X75055437Y-56866166D01*
X75058856Y-56889221D01*
X75060000Y-56912500D01*
X75060000Y-57387500D01*
X75058856Y-57410779D01*
X75055437Y-57433834D01*
X75049773Y-57456443D01*
X75041921Y-57478387D01*
X75031956Y-57499457D01*
X75019974Y-57519448D01*
X75006090Y-57538168D01*
X74990438Y-57555438D01*
X74973168Y-57571090D01*
X74954448Y-57584974D01*
X74934457Y-57596956D01*
X74913387Y-57606921D01*
X74891443Y-57614773D01*
X74868834Y-57620437D01*
X74845779Y-57623856D01*
X74822500Y-57625000D01*
X74247500Y-57625000D01*
X74224221Y-57623856D01*
X74201166Y-57620437D01*
X74178557Y-57614773D01*
X74156613Y-57606921D01*
X74135543Y-57596956D01*
X74115552Y-57584974D01*
X74096832Y-57571090D01*
X74079562Y-57555438D01*
X74063910Y-57538168D01*
X74050026Y-57519448D01*
X74038044Y-57499457D01*
X74028079Y-57478387D01*
X74020227Y-57456443D01*
X74014563Y-57433834D01*
X74011144Y-57410779D01*
X74010000Y-57387500D01*
X74010000Y-56912500D01*
X74011144Y-56889221D01*
X74014563Y-56866166D01*
X74020227Y-56843557D01*
X74028079Y-56821613D01*
X74038044Y-56800543D01*
X74050026Y-56780552D01*
X74063910Y-56761832D01*
X74079562Y-56744562D01*
X74096832Y-56728910D01*
X74115552Y-56715026D01*
X74135543Y-56703044D01*
X74156613Y-56693079D01*
X74178557Y-56685227D01*
X74201166Y-56679563D01*
X74224221Y-56676144D01*
X74247500Y-56675000D01*
X74822500Y-56675000D01*
X74845779Y-56676144D01*
G37*
G36*
X73095779Y-56676144D02*
G01*
X73118834Y-56679563D01*
X73141443Y-56685227D01*
X73163387Y-56693079D01*
X73184457Y-56703044D01*
X73204448Y-56715026D01*
X73223168Y-56728910D01*
X73240438Y-56744562D01*
X73256090Y-56761832D01*
X73269974Y-56780552D01*
X73281956Y-56800543D01*
X73291921Y-56821613D01*
X73299773Y-56843557D01*
X73305437Y-56866166D01*
X73308856Y-56889221D01*
X73310000Y-56912500D01*
X73310000Y-57387500D01*
X73308856Y-57410779D01*
X73305437Y-57433834D01*
X73299773Y-57456443D01*
X73291921Y-57478387D01*
X73281956Y-57499457D01*
X73269974Y-57519448D01*
X73256090Y-57538168D01*
X73240438Y-57555438D01*
X73223168Y-57571090D01*
X73204448Y-57584974D01*
X73184457Y-57596956D01*
X73163387Y-57606921D01*
X73141443Y-57614773D01*
X73118834Y-57620437D01*
X73095779Y-57623856D01*
X73072500Y-57625000D01*
X72497500Y-57625000D01*
X72474221Y-57623856D01*
X72451166Y-57620437D01*
X72428557Y-57614773D01*
X72406613Y-57606921D01*
X72385543Y-57596956D01*
X72365552Y-57584974D01*
X72346832Y-57571090D01*
X72329562Y-57555438D01*
X72313910Y-57538168D01*
X72300026Y-57519448D01*
X72288044Y-57499457D01*
X72278079Y-57478387D01*
X72270227Y-57456443D01*
X72264563Y-57433834D01*
X72261144Y-57410779D01*
X72260000Y-57387500D01*
X72260000Y-56912500D01*
X72261144Y-56889221D01*
X72264563Y-56866166D01*
X72270227Y-56843557D01*
X72278079Y-56821613D01*
X72288044Y-56800543D01*
X72300026Y-56780552D01*
X72313910Y-56761832D01*
X72329562Y-56744562D01*
X72346832Y-56728910D01*
X72365552Y-56715026D01*
X72385543Y-56703044D01*
X72406613Y-56693079D01*
X72428557Y-56685227D01*
X72451166Y-56679563D01*
X72474221Y-56676144D01*
X72497500Y-56675000D01*
X73072500Y-56675000D01*
X73095779Y-56676144D01*
G37*
G36*
X78175779Y-76996144D02*
G01*
X78198834Y-76999563D01*
X78221443Y-77005227D01*
X78243387Y-77013079D01*
X78264457Y-77023044D01*
X78284448Y-77035026D01*
X78303168Y-77048910D01*
X78320438Y-77064562D01*
X78336090Y-77081832D01*
X78349974Y-77100552D01*
X78361956Y-77120543D01*
X78371921Y-77141613D01*
X78379773Y-77163557D01*
X78385437Y-77186166D01*
X78388856Y-77209221D01*
X78390000Y-77232500D01*
X78390000Y-77707500D01*
X78388856Y-77730779D01*
X78385437Y-77753834D01*
X78379773Y-77776443D01*
X78371921Y-77798387D01*
X78361956Y-77819457D01*
X78349974Y-77839448D01*
X78336090Y-77858168D01*
X78320438Y-77875438D01*
X78303168Y-77891090D01*
X78284448Y-77904974D01*
X78264457Y-77916956D01*
X78243387Y-77926921D01*
X78221443Y-77934773D01*
X78198834Y-77940437D01*
X78175779Y-77943856D01*
X78152500Y-77945000D01*
X77577500Y-77945000D01*
X77554221Y-77943856D01*
X77531166Y-77940437D01*
X77508557Y-77934773D01*
X77486613Y-77926921D01*
X77465543Y-77916956D01*
X77445552Y-77904974D01*
X77426832Y-77891090D01*
X77409562Y-77875438D01*
X77393910Y-77858168D01*
X77380026Y-77839448D01*
X77368044Y-77819457D01*
X77358079Y-77798387D01*
X77350227Y-77776443D01*
X77344563Y-77753834D01*
X77341144Y-77730779D01*
X77340000Y-77707500D01*
X77340000Y-77232500D01*
X77341144Y-77209221D01*
X77344563Y-77186166D01*
X77350227Y-77163557D01*
X77358079Y-77141613D01*
X77368044Y-77120543D01*
X77380026Y-77100552D01*
X77393910Y-77081832D01*
X77409562Y-77064562D01*
X77426832Y-77048910D01*
X77445552Y-77035026D01*
X77465543Y-77023044D01*
X77486613Y-77013079D01*
X77508557Y-77005227D01*
X77531166Y-76999563D01*
X77554221Y-76996144D01*
X77577500Y-76995000D01*
X78152500Y-76995000D01*
X78175779Y-76996144D01*
G37*
G36*
X79925779Y-76996144D02*
G01*
X79948834Y-76999563D01*
X79971443Y-77005227D01*
X79993387Y-77013079D01*
X80014457Y-77023044D01*
X80034448Y-77035026D01*
X80053168Y-77048910D01*
X80070438Y-77064562D01*
X80086090Y-77081832D01*
X80099974Y-77100552D01*
X80111956Y-77120543D01*
X80121921Y-77141613D01*
X80129773Y-77163557D01*
X80135437Y-77186166D01*
X80138856Y-77209221D01*
X80140000Y-77232500D01*
X80140000Y-77707500D01*
X80138856Y-77730779D01*
X80135437Y-77753834D01*
X80129773Y-77776443D01*
X80121921Y-77798387D01*
X80111956Y-77819457D01*
X80099974Y-77839448D01*
X80086090Y-77858168D01*
X80070438Y-77875438D01*
X80053168Y-77891090D01*
X80034448Y-77904974D01*
X80014457Y-77916956D01*
X79993387Y-77926921D01*
X79971443Y-77934773D01*
X79948834Y-77940437D01*
X79925779Y-77943856D01*
X79902500Y-77945000D01*
X79327500Y-77945000D01*
X79304221Y-77943856D01*
X79281166Y-77940437D01*
X79258557Y-77934773D01*
X79236613Y-77926921D01*
X79215543Y-77916956D01*
X79195552Y-77904974D01*
X79176832Y-77891090D01*
X79159562Y-77875438D01*
X79143910Y-77858168D01*
X79130026Y-77839448D01*
X79118044Y-77819457D01*
X79108079Y-77798387D01*
X79100227Y-77776443D01*
X79094563Y-77753834D01*
X79091144Y-77730779D01*
X79090000Y-77707500D01*
X79090000Y-77232500D01*
X79091144Y-77209221D01*
X79094563Y-77186166D01*
X79100227Y-77163557D01*
X79108079Y-77141613D01*
X79118044Y-77120543D01*
X79130026Y-77100552D01*
X79143910Y-77081832D01*
X79159562Y-77064562D01*
X79176832Y-77048910D01*
X79195552Y-77035026D01*
X79215543Y-77023044D01*
X79236613Y-77013079D01*
X79258557Y-77005227D01*
X79281166Y-76999563D01*
X79304221Y-76996144D01*
X79327500Y-76995000D01*
X79902500Y-76995000D01*
X79925779Y-76996144D01*
G37*
M02*
