G04 #@! TF.GenerationSoftware,KiCad,Pcbnew,5.1.5+dfsg1-2build2*
G04 #@! TF.CreationDate,2021-04-12T22:06:22+02:00*
G04 #@! TF.ProjectId,calc,63616c63-2e6b-4696-9361-645f70636258,rev?*
G04 #@! TF.SameCoordinates,Original*
G04 #@! TF.FileFunction,Soldermask,Top*
G04 #@! TF.FilePolarity,Negative*
%FSLAX46Y46*%
G04 Gerber Fmt 4.6, Leading zero omitted, Abs format (unit mm)*
G04 Created by KiCad (PCBNEW 5.1.5+dfsg1-2build2) date 2021-04-12 22:06:22*
%MOMM*%
%LPD*%
G04 APERTURE LIST*
%ADD10C,0.100000*%
G04 APERTURE END LIST*
D10*
G36*
X64926000Y-153681000D02*
G01*
X61624000Y-153681000D01*
X61624000Y-152579000D01*
X64926000Y-152579000D01*
X64926000Y-153681000D01*
G37*
G36*
X71726000Y-153681000D02*
G01*
X68424000Y-153681000D01*
X68424000Y-152579000D01*
X71726000Y-152579000D01*
X71726000Y-153681000D01*
G37*
G36*
X78896000Y-153681000D02*
G01*
X75594000Y-153681000D01*
X75594000Y-152579000D01*
X78896000Y-152579000D01*
X78896000Y-153681000D01*
G37*
G36*
X85696000Y-153681000D02*
G01*
X82394000Y-153681000D01*
X82394000Y-152579000D01*
X85696000Y-152579000D01*
X85696000Y-153681000D01*
G37*
G36*
X92866000Y-153681000D02*
G01*
X89564000Y-153681000D01*
X89564000Y-152579000D01*
X92866000Y-152579000D01*
X92866000Y-153681000D01*
G37*
G36*
X99666000Y-153681000D02*
G01*
X96364000Y-153681000D01*
X96364000Y-152579000D01*
X99666000Y-152579000D01*
X99666000Y-153681000D01*
G37*
G36*
X106836000Y-153681000D02*
G01*
X103534000Y-153681000D01*
X103534000Y-152579000D01*
X106836000Y-152579000D01*
X106836000Y-153681000D01*
G37*
G36*
X113636000Y-153681000D02*
G01*
X110334000Y-153681000D01*
X110334000Y-152579000D01*
X113636000Y-152579000D01*
X113636000Y-153681000D01*
G37*
G36*
X127606000Y-153681000D02*
G01*
X124304000Y-153681000D01*
X124304000Y-152579000D01*
X127606000Y-152579000D01*
X127606000Y-153681000D01*
G37*
G36*
X120806000Y-153681000D02*
G01*
X117504000Y-153681000D01*
X117504000Y-152579000D01*
X120806000Y-152579000D01*
X120806000Y-153681000D01*
G37*
G36*
X92866000Y-149681000D02*
G01*
X89564000Y-149681000D01*
X89564000Y-148579000D01*
X92866000Y-148579000D01*
X92866000Y-149681000D01*
G37*
G36*
X64926000Y-149681000D02*
G01*
X61624000Y-149681000D01*
X61624000Y-148579000D01*
X64926000Y-148579000D01*
X64926000Y-149681000D01*
G37*
G36*
X71726000Y-149681000D02*
G01*
X68424000Y-149681000D01*
X68424000Y-148579000D01*
X71726000Y-148579000D01*
X71726000Y-149681000D01*
G37*
G36*
X85696000Y-149681000D02*
G01*
X82394000Y-149681000D01*
X82394000Y-148579000D01*
X85696000Y-148579000D01*
X85696000Y-149681000D01*
G37*
G36*
X78896000Y-149681000D02*
G01*
X75594000Y-149681000D01*
X75594000Y-148579000D01*
X78896000Y-148579000D01*
X78896000Y-149681000D01*
G37*
G36*
X120806000Y-149681000D02*
G01*
X117504000Y-149681000D01*
X117504000Y-148579000D01*
X120806000Y-148579000D01*
X120806000Y-149681000D01*
G37*
G36*
X127606000Y-149681000D02*
G01*
X124304000Y-149681000D01*
X124304000Y-148579000D01*
X127606000Y-148579000D01*
X127606000Y-149681000D01*
G37*
G36*
X99666000Y-149681000D02*
G01*
X96364000Y-149681000D01*
X96364000Y-148579000D01*
X99666000Y-148579000D01*
X99666000Y-149681000D01*
G37*
G36*
X113636000Y-149681000D02*
G01*
X110334000Y-149681000D01*
X110334000Y-148579000D01*
X113636000Y-148579000D01*
X113636000Y-149681000D01*
G37*
G36*
X106836000Y-149681000D02*
G01*
X103534000Y-149681000D01*
X103534000Y-148579000D01*
X106836000Y-148579000D01*
X106836000Y-149681000D01*
G37*
G36*
X113636000Y-143521000D02*
G01*
X110334000Y-143521000D01*
X110334000Y-142419000D01*
X113636000Y-142419000D01*
X113636000Y-143521000D01*
G37*
G36*
X64926000Y-143521000D02*
G01*
X61624000Y-143521000D01*
X61624000Y-142419000D01*
X64926000Y-142419000D01*
X64926000Y-143521000D01*
G37*
G36*
X71726000Y-143521000D02*
G01*
X68424000Y-143521000D01*
X68424000Y-142419000D01*
X71726000Y-142419000D01*
X71726000Y-143521000D01*
G37*
G36*
X78896000Y-143521000D02*
G01*
X75594000Y-143521000D01*
X75594000Y-142419000D01*
X78896000Y-142419000D01*
X78896000Y-143521000D01*
G37*
G36*
X85696000Y-143521000D02*
G01*
X82394000Y-143521000D01*
X82394000Y-142419000D01*
X85696000Y-142419000D01*
X85696000Y-143521000D01*
G37*
G36*
X99666000Y-143521000D02*
G01*
X96364000Y-143521000D01*
X96364000Y-142419000D01*
X99666000Y-142419000D01*
X99666000Y-143521000D01*
G37*
G36*
X106836000Y-143521000D02*
G01*
X103534000Y-143521000D01*
X103534000Y-142419000D01*
X106836000Y-142419000D01*
X106836000Y-143521000D01*
G37*
G36*
X127606000Y-143521000D02*
G01*
X124304000Y-143521000D01*
X124304000Y-142419000D01*
X127606000Y-142419000D01*
X127606000Y-143521000D01*
G37*
G36*
X120806000Y-143521000D02*
G01*
X117504000Y-143521000D01*
X117504000Y-142419000D01*
X120806000Y-142419000D01*
X120806000Y-143521000D01*
G37*
G36*
X92866000Y-143521000D02*
G01*
X89564000Y-143521000D01*
X89564000Y-142419000D01*
X92866000Y-142419000D01*
X92866000Y-143521000D01*
G37*
G36*
X92866000Y-139521000D02*
G01*
X89564000Y-139521000D01*
X89564000Y-138419000D01*
X92866000Y-138419000D01*
X92866000Y-139521000D01*
G37*
G36*
X64926000Y-139521000D02*
G01*
X61624000Y-139521000D01*
X61624000Y-138419000D01*
X64926000Y-138419000D01*
X64926000Y-139521000D01*
G37*
G36*
X85696000Y-139521000D02*
G01*
X82394000Y-139521000D01*
X82394000Y-138419000D01*
X85696000Y-138419000D01*
X85696000Y-139521000D01*
G37*
G36*
X78896000Y-139521000D02*
G01*
X75594000Y-139521000D01*
X75594000Y-138419000D01*
X78896000Y-138419000D01*
X78896000Y-139521000D01*
G37*
G36*
X99666000Y-139521000D02*
G01*
X96364000Y-139521000D01*
X96364000Y-138419000D01*
X99666000Y-138419000D01*
X99666000Y-139521000D01*
G37*
G36*
X113636000Y-139521000D02*
G01*
X110334000Y-139521000D01*
X110334000Y-138419000D01*
X113636000Y-138419000D01*
X113636000Y-139521000D01*
G37*
G36*
X106836000Y-139521000D02*
G01*
X103534000Y-139521000D01*
X103534000Y-138419000D01*
X106836000Y-138419000D01*
X106836000Y-139521000D01*
G37*
G36*
X127606000Y-139521000D02*
G01*
X124304000Y-139521000D01*
X124304000Y-138419000D01*
X127606000Y-138419000D01*
X127606000Y-139521000D01*
G37*
G36*
X71726000Y-139521000D02*
G01*
X68424000Y-139521000D01*
X68424000Y-138419000D01*
X71726000Y-138419000D01*
X71726000Y-139521000D01*
G37*
G36*
X120806000Y-139521000D02*
G01*
X117504000Y-139521000D01*
X117504000Y-138419000D01*
X120806000Y-138419000D01*
X120806000Y-139521000D01*
G37*
G36*
X106836000Y-133361000D02*
G01*
X103534000Y-133361000D01*
X103534000Y-132259000D01*
X106836000Y-132259000D01*
X106836000Y-133361000D01*
G37*
G36*
X127606000Y-133361000D02*
G01*
X124304000Y-133361000D01*
X124304000Y-132259000D01*
X127606000Y-132259000D01*
X127606000Y-133361000D01*
G37*
G36*
X71726000Y-133361000D02*
G01*
X68424000Y-133361000D01*
X68424000Y-132259000D01*
X71726000Y-132259000D01*
X71726000Y-133361000D01*
G37*
G36*
X78896000Y-133361000D02*
G01*
X75594000Y-133361000D01*
X75594000Y-132259000D01*
X78896000Y-132259000D01*
X78896000Y-133361000D01*
G37*
G36*
X85696000Y-133361000D02*
G01*
X82394000Y-133361000D01*
X82394000Y-132259000D01*
X85696000Y-132259000D01*
X85696000Y-133361000D01*
G37*
G36*
X99666000Y-133361000D02*
G01*
X96364000Y-133361000D01*
X96364000Y-132259000D01*
X99666000Y-132259000D01*
X99666000Y-133361000D01*
G37*
G36*
X92866000Y-133361000D02*
G01*
X89564000Y-133361000D01*
X89564000Y-132259000D01*
X92866000Y-132259000D01*
X92866000Y-133361000D01*
G37*
G36*
X64926000Y-133361000D02*
G01*
X61624000Y-133361000D01*
X61624000Y-132259000D01*
X64926000Y-132259000D01*
X64926000Y-133361000D01*
G37*
G36*
X120806000Y-133361000D02*
G01*
X117504000Y-133361000D01*
X117504000Y-132259000D01*
X120806000Y-132259000D01*
X120806000Y-133361000D01*
G37*
G36*
X113636000Y-133361000D02*
G01*
X110334000Y-133361000D01*
X110334000Y-132259000D01*
X113636000Y-132259000D01*
X113636000Y-133361000D01*
G37*
G36*
X127606000Y-129361000D02*
G01*
X124304000Y-129361000D01*
X124304000Y-128259000D01*
X127606000Y-128259000D01*
X127606000Y-129361000D01*
G37*
G36*
X106836000Y-129361000D02*
G01*
X103534000Y-129361000D01*
X103534000Y-128259000D01*
X106836000Y-128259000D01*
X106836000Y-129361000D01*
G37*
G36*
X113636000Y-129361000D02*
G01*
X110334000Y-129361000D01*
X110334000Y-128259000D01*
X113636000Y-128259000D01*
X113636000Y-129361000D01*
G37*
G36*
X120806000Y-129361000D02*
G01*
X117504000Y-129361000D01*
X117504000Y-128259000D01*
X120806000Y-128259000D01*
X120806000Y-129361000D01*
G37*
G36*
X64926000Y-129361000D02*
G01*
X61624000Y-129361000D01*
X61624000Y-128259000D01*
X64926000Y-128259000D01*
X64926000Y-129361000D01*
G37*
G36*
X85696000Y-129361000D02*
G01*
X82394000Y-129361000D01*
X82394000Y-128259000D01*
X85696000Y-128259000D01*
X85696000Y-129361000D01*
G37*
G36*
X78896000Y-129361000D02*
G01*
X75594000Y-129361000D01*
X75594000Y-128259000D01*
X78896000Y-128259000D01*
X78896000Y-129361000D01*
G37*
G36*
X99666000Y-129361000D02*
G01*
X96364000Y-129361000D01*
X96364000Y-128259000D01*
X99666000Y-128259000D01*
X99666000Y-129361000D01*
G37*
G36*
X92866000Y-129361000D02*
G01*
X89564000Y-129361000D01*
X89564000Y-128259000D01*
X92866000Y-128259000D01*
X92866000Y-129361000D01*
G37*
G36*
X71726000Y-129361000D02*
G01*
X68424000Y-129361000D01*
X68424000Y-128259000D01*
X71726000Y-128259000D01*
X71726000Y-129361000D01*
G37*
G36*
X85696000Y-123201000D02*
G01*
X82394000Y-123201000D01*
X82394000Y-122099000D01*
X85696000Y-122099000D01*
X85696000Y-123201000D01*
G37*
G36*
X78896000Y-123201000D02*
G01*
X75594000Y-123201000D01*
X75594000Y-122099000D01*
X78896000Y-122099000D01*
X78896000Y-123201000D01*
G37*
G36*
X71726000Y-123201000D02*
G01*
X68424000Y-123201000D01*
X68424000Y-122099000D01*
X71726000Y-122099000D01*
X71726000Y-123201000D01*
G37*
G36*
X64926000Y-123201000D02*
G01*
X61624000Y-123201000D01*
X61624000Y-122099000D01*
X64926000Y-122099000D01*
X64926000Y-123201000D01*
G37*
G36*
X99666000Y-123201000D02*
G01*
X96364000Y-123201000D01*
X96364000Y-122099000D01*
X99666000Y-122099000D01*
X99666000Y-123201000D01*
G37*
G36*
X113636000Y-123201000D02*
G01*
X110334000Y-123201000D01*
X110334000Y-122099000D01*
X113636000Y-122099000D01*
X113636000Y-123201000D01*
G37*
G36*
X120806000Y-123201000D02*
G01*
X117504000Y-123201000D01*
X117504000Y-122099000D01*
X120806000Y-122099000D01*
X120806000Y-123201000D01*
G37*
G36*
X127606000Y-123201000D02*
G01*
X124304000Y-123201000D01*
X124304000Y-122099000D01*
X127606000Y-122099000D01*
X127606000Y-123201000D01*
G37*
G36*
X92866000Y-123201000D02*
G01*
X89564000Y-123201000D01*
X89564000Y-122099000D01*
X92866000Y-122099000D01*
X92866000Y-123201000D01*
G37*
G36*
X106836000Y-123201000D02*
G01*
X103534000Y-123201000D01*
X103534000Y-122099000D01*
X106836000Y-122099000D01*
X106836000Y-123201000D01*
G37*
G36*
X113636000Y-119201000D02*
G01*
X110334000Y-119201000D01*
X110334000Y-118099000D01*
X113636000Y-118099000D01*
X113636000Y-119201000D01*
G37*
G36*
X127606000Y-119201000D02*
G01*
X124304000Y-119201000D01*
X124304000Y-118099000D01*
X127606000Y-118099000D01*
X127606000Y-119201000D01*
G37*
G36*
X78896000Y-119201000D02*
G01*
X75594000Y-119201000D01*
X75594000Y-118099000D01*
X78896000Y-118099000D01*
X78896000Y-119201000D01*
G37*
G36*
X120806000Y-119201000D02*
G01*
X117504000Y-119201000D01*
X117504000Y-118099000D01*
X120806000Y-118099000D01*
X120806000Y-119201000D01*
G37*
G36*
X85696000Y-119201000D02*
G01*
X82394000Y-119201000D01*
X82394000Y-118099000D01*
X85696000Y-118099000D01*
X85696000Y-119201000D01*
G37*
G36*
X106836000Y-119201000D02*
G01*
X103534000Y-119201000D01*
X103534000Y-118099000D01*
X106836000Y-118099000D01*
X106836000Y-119201000D01*
G37*
G36*
X99666000Y-119201000D02*
G01*
X96364000Y-119201000D01*
X96364000Y-118099000D01*
X99666000Y-118099000D01*
X99666000Y-119201000D01*
G37*
G36*
X64926000Y-119201000D02*
G01*
X61624000Y-119201000D01*
X61624000Y-118099000D01*
X64926000Y-118099000D01*
X64926000Y-119201000D01*
G37*
G36*
X71726000Y-119201000D02*
G01*
X68424000Y-119201000D01*
X68424000Y-118099000D01*
X71726000Y-118099000D01*
X71726000Y-119201000D01*
G37*
G36*
X92866000Y-119201000D02*
G01*
X89564000Y-119201000D01*
X89564000Y-118099000D01*
X92866000Y-118099000D01*
X92866000Y-119201000D01*
G37*
G36*
X121441000Y-111771000D02*
G01*
X118139000Y-111771000D01*
X118139000Y-110669000D01*
X121441000Y-110669000D01*
X121441000Y-111771000D01*
G37*
G36*
X116811000Y-111771000D02*
G01*
X113509000Y-111771000D01*
X113509000Y-110669000D01*
X116811000Y-110669000D01*
X116811000Y-111771000D01*
G37*
G36*
X110011000Y-111771000D02*
G01*
X106709000Y-111771000D01*
X106709000Y-110669000D01*
X110011000Y-110669000D01*
X110011000Y-111771000D01*
G37*
G36*
X105381000Y-111771000D02*
G01*
X102079000Y-111771000D01*
X102079000Y-110669000D01*
X105381000Y-110669000D01*
X105381000Y-111771000D01*
G37*
G36*
X98581000Y-111771000D02*
G01*
X95279000Y-111771000D01*
X95279000Y-110669000D01*
X98581000Y-110669000D01*
X98581000Y-111771000D01*
G37*
G36*
X93951000Y-111771000D02*
G01*
X90649000Y-111771000D01*
X90649000Y-110669000D01*
X93951000Y-110669000D01*
X93951000Y-111771000D01*
G37*
G36*
X64291000Y-111771000D02*
G01*
X60989000Y-111771000D01*
X60989000Y-110669000D01*
X64291000Y-110669000D01*
X64291000Y-111771000D01*
G37*
G36*
X87151000Y-111771000D02*
G01*
X83849000Y-111771000D01*
X83849000Y-110669000D01*
X87151000Y-110669000D01*
X87151000Y-111771000D01*
G37*
G36*
X82521000Y-111771000D02*
G01*
X79219000Y-111771000D01*
X79219000Y-110669000D01*
X82521000Y-110669000D01*
X82521000Y-111771000D01*
G37*
G36*
X128241000Y-111771000D02*
G01*
X124939000Y-111771000D01*
X124939000Y-110669000D01*
X128241000Y-110669000D01*
X128241000Y-111771000D01*
G37*
G36*
X71091000Y-111771000D02*
G01*
X67789000Y-111771000D01*
X67789000Y-110669000D01*
X71091000Y-110669000D01*
X71091000Y-111771000D01*
G37*
G36*
X75721000Y-111771000D02*
G01*
X72419000Y-111771000D01*
X72419000Y-110669000D01*
X75721000Y-110669000D01*
X75721000Y-111771000D01*
G37*
G36*
X105381000Y-107771000D02*
G01*
X102079000Y-107771000D01*
X102079000Y-106669000D01*
X105381000Y-106669000D01*
X105381000Y-107771000D01*
G37*
G36*
X71091000Y-107771000D02*
G01*
X67789000Y-107771000D01*
X67789000Y-106669000D01*
X71091000Y-106669000D01*
X71091000Y-107771000D01*
G37*
G36*
X87151000Y-107771000D02*
G01*
X83849000Y-107771000D01*
X83849000Y-106669000D01*
X87151000Y-106669000D01*
X87151000Y-107771000D01*
G37*
G36*
X75721000Y-107771000D02*
G01*
X72419000Y-107771000D01*
X72419000Y-106669000D01*
X75721000Y-106669000D01*
X75721000Y-107771000D01*
G37*
G36*
X98581000Y-107771000D02*
G01*
X95279000Y-107771000D01*
X95279000Y-106669000D01*
X98581000Y-106669000D01*
X98581000Y-107771000D01*
G37*
G36*
X93951000Y-107771000D02*
G01*
X90649000Y-107771000D01*
X90649000Y-106669000D01*
X93951000Y-106669000D01*
X93951000Y-107771000D01*
G37*
G36*
X110011000Y-107771000D02*
G01*
X106709000Y-107771000D01*
X106709000Y-106669000D01*
X110011000Y-106669000D01*
X110011000Y-107771000D01*
G37*
G36*
X128241000Y-107771000D02*
G01*
X124939000Y-107771000D01*
X124939000Y-106669000D01*
X128241000Y-106669000D01*
X128241000Y-107771000D01*
G37*
G36*
X121441000Y-107771000D02*
G01*
X118139000Y-107771000D01*
X118139000Y-106669000D01*
X121441000Y-106669000D01*
X121441000Y-107771000D01*
G37*
G36*
X64291000Y-107771000D02*
G01*
X60989000Y-107771000D01*
X60989000Y-106669000D01*
X64291000Y-106669000D01*
X64291000Y-107771000D01*
G37*
G36*
X82521000Y-107771000D02*
G01*
X79219000Y-107771000D01*
X79219000Y-106669000D01*
X82521000Y-106669000D01*
X82521000Y-107771000D01*
G37*
G36*
X116811000Y-107771000D02*
G01*
X113509000Y-107771000D01*
X113509000Y-106669000D01*
X116811000Y-106669000D01*
X116811000Y-107771000D01*
G37*
G36*
X110011000Y-104151000D02*
G01*
X106709000Y-104151000D01*
X106709000Y-103049000D01*
X110011000Y-103049000D01*
X110011000Y-104151000D01*
G37*
G36*
X121441000Y-104151000D02*
G01*
X118139000Y-104151000D01*
X118139000Y-103049000D01*
X121441000Y-103049000D01*
X121441000Y-104151000D01*
G37*
G36*
X128241000Y-104151000D02*
G01*
X124939000Y-104151000D01*
X124939000Y-103049000D01*
X128241000Y-103049000D01*
X128241000Y-104151000D01*
G37*
G36*
X116811000Y-104151000D02*
G01*
X113509000Y-104151000D01*
X113509000Y-103049000D01*
X116811000Y-103049000D01*
X116811000Y-104151000D01*
G37*
G36*
X98581000Y-104151000D02*
G01*
X95279000Y-104151000D01*
X95279000Y-103049000D01*
X98581000Y-103049000D01*
X98581000Y-104151000D01*
G37*
G36*
X93951000Y-104151000D02*
G01*
X90649000Y-104151000D01*
X90649000Y-103049000D01*
X93951000Y-103049000D01*
X93951000Y-104151000D01*
G37*
G36*
X82521000Y-104151000D02*
G01*
X79219000Y-104151000D01*
X79219000Y-103049000D01*
X82521000Y-103049000D01*
X82521000Y-104151000D01*
G37*
G36*
X75721000Y-104151000D02*
G01*
X72419000Y-104151000D01*
X72419000Y-103049000D01*
X75721000Y-103049000D01*
X75721000Y-104151000D01*
G37*
G36*
X71091000Y-104151000D02*
G01*
X67789000Y-104151000D01*
X67789000Y-103049000D01*
X71091000Y-103049000D01*
X71091000Y-104151000D01*
G37*
G36*
X64291000Y-104151000D02*
G01*
X60989000Y-104151000D01*
X60989000Y-103049000D01*
X64291000Y-103049000D01*
X64291000Y-104151000D01*
G37*
G36*
X105381000Y-104151000D02*
G01*
X102079000Y-104151000D01*
X102079000Y-103049000D01*
X105381000Y-103049000D01*
X105381000Y-104151000D01*
G37*
G36*
X87151000Y-104151000D02*
G01*
X83849000Y-104151000D01*
X83849000Y-103049000D01*
X87151000Y-103049000D01*
X87151000Y-104151000D01*
G37*
G36*
X87151000Y-100151000D02*
G01*
X83849000Y-100151000D01*
X83849000Y-99049000D01*
X87151000Y-99049000D01*
X87151000Y-100151000D01*
G37*
G36*
X128241000Y-100151000D02*
G01*
X124939000Y-100151000D01*
X124939000Y-99049000D01*
X128241000Y-99049000D01*
X128241000Y-100151000D01*
G37*
G36*
X116811000Y-100151000D02*
G01*
X113509000Y-100151000D01*
X113509000Y-99049000D01*
X116811000Y-99049000D01*
X116811000Y-100151000D01*
G37*
G36*
X110011000Y-100151000D02*
G01*
X106709000Y-100151000D01*
X106709000Y-99049000D01*
X110011000Y-99049000D01*
X110011000Y-100151000D01*
G37*
G36*
X98581000Y-100151000D02*
G01*
X95279000Y-100151000D01*
X95279000Y-99049000D01*
X98581000Y-99049000D01*
X98581000Y-100151000D01*
G37*
G36*
X93951000Y-100151000D02*
G01*
X90649000Y-100151000D01*
X90649000Y-99049000D01*
X93951000Y-99049000D01*
X93951000Y-100151000D01*
G37*
G36*
X82521000Y-100151000D02*
G01*
X79219000Y-100151000D01*
X79219000Y-99049000D01*
X82521000Y-99049000D01*
X82521000Y-100151000D01*
G37*
G36*
X75721000Y-100151000D02*
G01*
X72419000Y-100151000D01*
X72419000Y-99049000D01*
X75721000Y-99049000D01*
X75721000Y-100151000D01*
G37*
G36*
X71091000Y-100151000D02*
G01*
X67789000Y-100151000D01*
X67789000Y-99049000D01*
X71091000Y-99049000D01*
X71091000Y-100151000D01*
G37*
G36*
X64291000Y-100151000D02*
G01*
X60989000Y-100151000D01*
X60989000Y-99049000D01*
X64291000Y-99049000D01*
X64291000Y-100151000D01*
G37*
G36*
X121441000Y-100151000D02*
G01*
X118139000Y-100151000D01*
X118139000Y-99049000D01*
X121441000Y-99049000D01*
X121441000Y-100151000D01*
G37*
G36*
X105381000Y-100151000D02*
G01*
X102079000Y-100151000D01*
X102079000Y-99049000D01*
X105381000Y-99049000D01*
X105381000Y-100151000D01*
G37*
G36*
X121441000Y-96531000D02*
G01*
X118139000Y-96531000D01*
X118139000Y-95429000D01*
X121441000Y-95429000D01*
X121441000Y-96531000D01*
G37*
G36*
X116811000Y-96531000D02*
G01*
X113509000Y-96531000D01*
X113509000Y-95429000D01*
X116811000Y-95429000D01*
X116811000Y-96531000D01*
G37*
G36*
X110011000Y-96531000D02*
G01*
X106709000Y-96531000D01*
X106709000Y-95429000D01*
X110011000Y-95429000D01*
X110011000Y-96531000D01*
G37*
G36*
X105381000Y-96531000D02*
G01*
X102079000Y-96531000D01*
X102079000Y-95429000D01*
X105381000Y-95429000D01*
X105381000Y-96531000D01*
G37*
G36*
X98581000Y-96531000D02*
G01*
X95279000Y-96531000D01*
X95279000Y-95429000D01*
X98581000Y-95429000D01*
X98581000Y-96531000D01*
G37*
G36*
X87151000Y-96531000D02*
G01*
X83849000Y-96531000D01*
X83849000Y-95429000D01*
X87151000Y-95429000D01*
X87151000Y-96531000D01*
G37*
G36*
X82521000Y-96531000D02*
G01*
X79219000Y-96531000D01*
X79219000Y-95429000D01*
X82521000Y-95429000D01*
X82521000Y-96531000D01*
G37*
G36*
X93951000Y-96531000D02*
G01*
X90649000Y-96531000D01*
X90649000Y-95429000D01*
X93951000Y-95429000D01*
X93951000Y-96531000D01*
G37*
G36*
X75721000Y-96531000D02*
G01*
X72419000Y-96531000D01*
X72419000Y-95429000D01*
X75721000Y-95429000D01*
X75721000Y-96531000D01*
G37*
G36*
X71091000Y-96531000D02*
G01*
X67789000Y-96531000D01*
X67789000Y-95429000D01*
X71091000Y-95429000D01*
X71091000Y-96531000D01*
G37*
G36*
X128241000Y-96531000D02*
G01*
X124939000Y-96531000D01*
X124939000Y-95429000D01*
X128241000Y-95429000D01*
X128241000Y-96531000D01*
G37*
G36*
X64291000Y-96531000D02*
G01*
X60989000Y-96531000D01*
X60989000Y-95429000D01*
X64291000Y-95429000D01*
X64291000Y-96531000D01*
G37*
G36*
X64291000Y-92531000D02*
G01*
X60989000Y-92531000D01*
X60989000Y-91429000D01*
X64291000Y-91429000D01*
X64291000Y-92531000D01*
G37*
G36*
X128241000Y-92531000D02*
G01*
X124939000Y-92531000D01*
X124939000Y-91429000D01*
X128241000Y-91429000D01*
X128241000Y-92531000D01*
G37*
G36*
X121441000Y-92531000D02*
G01*
X118139000Y-92531000D01*
X118139000Y-91429000D01*
X121441000Y-91429000D01*
X121441000Y-92531000D01*
G37*
G36*
X116811000Y-92531000D02*
G01*
X113509000Y-92531000D01*
X113509000Y-91429000D01*
X116811000Y-91429000D01*
X116811000Y-92531000D01*
G37*
G36*
X110011000Y-92531000D02*
G01*
X106709000Y-92531000D01*
X106709000Y-91429000D01*
X110011000Y-91429000D01*
X110011000Y-92531000D01*
G37*
G36*
X71091000Y-92531000D02*
G01*
X67789000Y-92531000D01*
X67789000Y-91429000D01*
X71091000Y-91429000D01*
X71091000Y-92531000D01*
G37*
G36*
X105381000Y-92531000D02*
G01*
X102079000Y-92531000D01*
X102079000Y-91429000D01*
X105381000Y-91429000D01*
X105381000Y-92531000D01*
G37*
G36*
X98581000Y-92531000D02*
G01*
X95279000Y-92531000D01*
X95279000Y-91429000D01*
X98581000Y-91429000D01*
X98581000Y-92531000D01*
G37*
G36*
X75721000Y-92531000D02*
G01*
X72419000Y-92531000D01*
X72419000Y-91429000D01*
X75721000Y-91429000D01*
X75721000Y-92531000D01*
G37*
G36*
X82521000Y-92531000D02*
G01*
X79219000Y-92531000D01*
X79219000Y-91429000D01*
X82521000Y-91429000D01*
X82521000Y-92531000D01*
G37*
G36*
X93951000Y-92531000D02*
G01*
X90649000Y-92531000D01*
X90649000Y-91429000D01*
X93951000Y-91429000D01*
X93951000Y-92531000D01*
G37*
G36*
X87151000Y-92531000D02*
G01*
X83849000Y-92531000D01*
X83849000Y-91429000D01*
X87151000Y-91429000D01*
X87151000Y-92531000D01*
G37*
G36*
X93951000Y-88911000D02*
G01*
X90649000Y-88911000D01*
X90649000Y-87809000D01*
X93951000Y-87809000D01*
X93951000Y-88911000D01*
G37*
G36*
X98581000Y-88911000D02*
G01*
X95279000Y-88911000D01*
X95279000Y-87809000D01*
X98581000Y-87809000D01*
X98581000Y-88911000D01*
G37*
G36*
X105381000Y-88911000D02*
G01*
X102079000Y-88911000D01*
X102079000Y-87809000D01*
X105381000Y-87809000D01*
X105381000Y-88911000D01*
G37*
G36*
X87151000Y-88911000D02*
G01*
X83849000Y-88911000D01*
X83849000Y-87809000D01*
X87151000Y-87809000D01*
X87151000Y-88911000D01*
G37*
G36*
X82521000Y-88911000D02*
G01*
X79219000Y-88911000D01*
X79219000Y-87809000D01*
X82521000Y-87809000D01*
X82521000Y-88911000D01*
G37*
G36*
X116811000Y-88911000D02*
G01*
X113509000Y-88911000D01*
X113509000Y-87809000D01*
X116811000Y-87809000D01*
X116811000Y-88911000D01*
G37*
G36*
X75721000Y-88911000D02*
G01*
X72419000Y-88911000D01*
X72419000Y-87809000D01*
X75721000Y-87809000D01*
X75721000Y-88911000D01*
G37*
G36*
X71091000Y-88911000D02*
G01*
X67789000Y-88911000D01*
X67789000Y-87809000D01*
X71091000Y-87809000D01*
X71091000Y-88911000D01*
G37*
G36*
X121441000Y-88911000D02*
G01*
X118139000Y-88911000D01*
X118139000Y-87809000D01*
X121441000Y-87809000D01*
X121441000Y-88911000D01*
G37*
G36*
X64291000Y-88911000D02*
G01*
X60989000Y-88911000D01*
X60989000Y-87809000D01*
X64291000Y-87809000D01*
X64291000Y-88911000D01*
G37*
G36*
X128241000Y-88911000D02*
G01*
X124939000Y-88911000D01*
X124939000Y-87809000D01*
X128241000Y-87809000D01*
X128241000Y-88911000D01*
G37*
G36*
X110011000Y-88911000D02*
G01*
X106709000Y-88911000D01*
X106709000Y-87809000D01*
X110011000Y-87809000D01*
X110011000Y-88911000D01*
G37*
G36*
X105381000Y-84911000D02*
G01*
X102079000Y-84911000D01*
X102079000Y-83809000D01*
X105381000Y-83809000D01*
X105381000Y-84911000D01*
G37*
G36*
X87151000Y-84911000D02*
G01*
X83849000Y-84911000D01*
X83849000Y-83809000D01*
X87151000Y-83809000D01*
X87151000Y-84911000D01*
G37*
G36*
X75721000Y-84911000D02*
G01*
X72419000Y-84911000D01*
X72419000Y-83809000D01*
X75721000Y-83809000D01*
X75721000Y-84911000D01*
G37*
G36*
X71091000Y-84911000D02*
G01*
X67789000Y-84911000D01*
X67789000Y-83809000D01*
X71091000Y-83809000D01*
X71091000Y-84911000D01*
G37*
G36*
X82521000Y-84911000D02*
G01*
X79219000Y-84911000D01*
X79219000Y-83809000D01*
X82521000Y-83809000D01*
X82521000Y-84911000D01*
G37*
G36*
X93951000Y-84911000D02*
G01*
X90649000Y-84911000D01*
X90649000Y-83809000D01*
X93951000Y-83809000D01*
X93951000Y-84911000D01*
G37*
G36*
X98581000Y-84911000D02*
G01*
X95279000Y-84911000D01*
X95279000Y-83809000D01*
X98581000Y-83809000D01*
X98581000Y-84911000D01*
G37*
G36*
X110011000Y-84911000D02*
G01*
X106709000Y-84911000D01*
X106709000Y-83809000D01*
X110011000Y-83809000D01*
X110011000Y-84911000D01*
G37*
G36*
X116811000Y-84911000D02*
G01*
X113509000Y-84911000D01*
X113509000Y-83809000D01*
X116811000Y-83809000D01*
X116811000Y-84911000D01*
G37*
G36*
X121441000Y-84911000D02*
G01*
X118139000Y-84911000D01*
X118139000Y-83809000D01*
X121441000Y-83809000D01*
X121441000Y-84911000D01*
G37*
G36*
X128241000Y-84911000D02*
G01*
X124939000Y-84911000D01*
X124939000Y-83809000D01*
X128241000Y-83809000D01*
X128241000Y-84911000D01*
G37*
G36*
X64291000Y-84911000D02*
G01*
X60989000Y-84911000D01*
X60989000Y-83809000D01*
X64291000Y-83809000D01*
X64291000Y-84911000D01*
G37*
G36*
X111873512Y-41648927D02*
G01*
X112022812Y-41678624D01*
X112186784Y-41746544D01*
X112334354Y-41845147D01*
X112459853Y-41970646D01*
X112558456Y-42118216D01*
X112626376Y-42282188D01*
X112661000Y-42456259D01*
X112661000Y-42633741D01*
X112626376Y-42807812D01*
X112558456Y-42971784D01*
X112459853Y-43119354D01*
X112334354Y-43244853D01*
X112186784Y-43343456D01*
X112022812Y-43411376D01*
X111873512Y-43441073D01*
X111848742Y-43446000D01*
X111671258Y-43446000D01*
X111646488Y-43441073D01*
X111497188Y-43411376D01*
X111333216Y-43343456D01*
X111185646Y-43244853D01*
X111060147Y-43119354D01*
X110961544Y-42971784D01*
X110893624Y-42807812D01*
X110859000Y-42633741D01*
X110859000Y-42456259D01*
X110893624Y-42282188D01*
X110961544Y-42118216D01*
X111060147Y-41970646D01*
X111185646Y-41845147D01*
X111333216Y-41746544D01*
X111497188Y-41678624D01*
X111646488Y-41648927D01*
X111671258Y-41644000D01*
X111848742Y-41644000D01*
X111873512Y-41648927D01*
G37*
G36*
X114413512Y-41648927D02*
G01*
X114562812Y-41678624D01*
X114726784Y-41746544D01*
X114874354Y-41845147D01*
X114999853Y-41970646D01*
X115098456Y-42118216D01*
X115166376Y-42282188D01*
X115201000Y-42456259D01*
X115201000Y-42633741D01*
X115166376Y-42807812D01*
X115098456Y-42971784D01*
X114999853Y-43119354D01*
X114874354Y-43244853D01*
X114726784Y-43343456D01*
X114562812Y-43411376D01*
X114413512Y-43441073D01*
X114388742Y-43446000D01*
X114211258Y-43446000D01*
X114186488Y-43441073D01*
X114037188Y-43411376D01*
X113873216Y-43343456D01*
X113725646Y-43244853D01*
X113600147Y-43119354D01*
X113501544Y-42971784D01*
X113433624Y-42807812D01*
X113399000Y-42633741D01*
X113399000Y-42456259D01*
X113433624Y-42282188D01*
X113501544Y-42118216D01*
X113600147Y-41970646D01*
X113725646Y-41845147D01*
X113873216Y-41746544D01*
X114037188Y-41678624D01*
X114186488Y-41648927D01*
X114211258Y-41644000D01*
X114388742Y-41644000D01*
X114413512Y-41648927D01*
G37*
G36*
X116953512Y-41648927D02*
G01*
X117102812Y-41678624D01*
X117266784Y-41746544D01*
X117414354Y-41845147D01*
X117539853Y-41970646D01*
X117638456Y-42118216D01*
X117706376Y-42282188D01*
X117741000Y-42456259D01*
X117741000Y-42633741D01*
X117706376Y-42807812D01*
X117638456Y-42971784D01*
X117539853Y-43119354D01*
X117414354Y-43244853D01*
X117266784Y-43343456D01*
X117102812Y-43411376D01*
X116953512Y-43441073D01*
X116928742Y-43446000D01*
X116751258Y-43446000D01*
X116726488Y-43441073D01*
X116577188Y-43411376D01*
X116413216Y-43343456D01*
X116265646Y-43244853D01*
X116140147Y-43119354D01*
X116041544Y-42971784D01*
X115973624Y-42807812D01*
X115939000Y-42633741D01*
X115939000Y-42456259D01*
X115973624Y-42282188D01*
X116041544Y-42118216D01*
X116140147Y-41970646D01*
X116265646Y-41845147D01*
X116413216Y-41746544D01*
X116577188Y-41678624D01*
X116726488Y-41648927D01*
X116751258Y-41644000D01*
X116928742Y-41644000D01*
X116953512Y-41648927D01*
G37*
G36*
X120281000Y-43446000D02*
G01*
X118479000Y-43446000D01*
X118479000Y-41644000D01*
X120281000Y-41644000D01*
X120281000Y-43446000D01*
G37*
M02*
