M48
INCH,TZ
T1C0.0157
T2C0.0394
%
G90
G05
T1
X28750Y-18500
X29500Y-19000
X29750Y-25500
X29750Y-26500
X31715Y-27500
X31750Y-25750
X32250Y-20250
X32500Y-27181
X32750Y-28049
X32750Y-30750
X32810Y-26345
X33188Y-30000
X33500Y-22000
X33500Y-27222
X33750Y-23250
X34000Y-25500
X34028Y-27528
X34047Y-29750
X34250Y-19472
X34250Y-22750
X34250Y-18285
X34500Y-30335
X34599Y-27527
X36500Y-26750
X36535Y-21750
X36652Y-22498
X36943Y-26299
X36952Y-22798
X37250Y-22000
X37369Y-26285
X37742Y-18959
X37874Y-26030
X38000Y-30500
X38750Y-29250
X40250Y-24250
X41551Y-27199
X44750Y-19000
X46000Y-18250
X47000Y-17750
X48750Y-15500
T2
X44000Y-16750
X45000Y-16750
X46000Y-16750
X47000Y-16750
T0
M30
