G04 #@! TF.GenerationSoftware,KiCad,Pcbnew,5.1.5+dfsg1-2build2*
G04 #@! TF.CreationDate,2021-04-12T22:06:22+02:00*
G04 #@! TF.ProjectId,calc,63616c63-2e6b-4696-9361-645f70636258,rev?*
G04 #@! TF.SameCoordinates,Original*
G04 #@! TF.FileFunction,Copper,L1,Top*
G04 #@! TF.FilePolarity,Positive*
%FSLAX46Y46*%
G04 Gerber Fmt 4.6, Leading zero omitted, Abs format (unit mm)*
G04 Created by KiCad (PCBNEW 5.1.5+dfsg1-2build2) date 2021-04-12 22:06:22*
%MOMM*%
%LPD*%
G04 APERTURE LIST*
%ADD10R,3.200000X1.000000*%
%ADD11O,1.700000X1.700000*%
%ADD12R,1.700000X1.700000*%
%ADD13C,0.800000*%
%ADD14C,0.250000*%
%ADD15C,0.500000*%
%ADD16C,1.000000*%
G04 APERTURE END LIST*
D10*
X126590000Y-88360000D03*
X119790000Y-88360000D03*
X119790000Y-84360000D03*
X126590000Y-84360000D03*
X115160000Y-88360000D03*
X108360000Y-88360000D03*
X108360000Y-84360000D03*
X115160000Y-84360000D03*
X103730000Y-88360000D03*
X96930000Y-88360000D03*
X96930000Y-84360000D03*
X103730000Y-84360000D03*
X92300000Y-88360000D03*
X85500000Y-88360000D03*
X85500000Y-84360000D03*
X92300000Y-84360000D03*
X80870000Y-88360000D03*
X74070000Y-88360000D03*
X74070000Y-84360000D03*
X80870000Y-84360000D03*
X69440000Y-88360000D03*
X62640000Y-88360000D03*
X62640000Y-84360000D03*
X69440000Y-84360000D03*
X126590000Y-95980000D03*
X119790000Y-95980000D03*
X119790000Y-91980000D03*
X126590000Y-91980000D03*
X115160000Y-95980000D03*
X108360000Y-95980000D03*
X108360000Y-91980000D03*
X115160000Y-91980000D03*
X103730000Y-95980000D03*
X96930000Y-95980000D03*
X96930000Y-91980000D03*
X103730000Y-91980000D03*
X92300000Y-95980000D03*
X85500000Y-95980000D03*
X85500000Y-91980000D03*
X92300000Y-91980000D03*
X80870000Y-95980000D03*
X74070000Y-95980000D03*
X74070000Y-91980000D03*
X80870000Y-91980000D03*
X69440000Y-95980000D03*
X62640000Y-95980000D03*
X62640000Y-91980000D03*
X69440000Y-91980000D03*
X126590000Y-103600000D03*
X119790000Y-103600000D03*
X119790000Y-99600000D03*
X126590000Y-99600000D03*
X115160000Y-103600000D03*
X108360000Y-103600000D03*
X108360000Y-99600000D03*
X115160000Y-99600000D03*
X103730000Y-103600000D03*
X96930000Y-103600000D03*
X96930000Y-99600000D03*
X103730000Y-99600000D03*
X92300000Y-103600000D03*
X85500000Y-103600000D03*
X85500000Y-99600000D03*
X92300000Y-99600000D03*
X80870000Y-103600000D03*
X74070000Y-103600000D03*
X74070000Y-99600000D03*
X80870000Y-99600000D03*
X69440000Y-103600000D03*
X62640000Y-103600000D03*
X62640000Y-99600000D03*
X69440000Y-99600000D03*
X126590000Y-111220000D03*
X119790000Y-111220000D03*
X119790000Y-107220000D03*
X126590000Y-107220000D03*
X115160000Y-111220000D03*
X108360000Y-111220000D03*
X108360000Y-107220000D03*
X115160000Y-107220000D03*
X103730000Y-111220000D03*
X96930000Y-111220000D03*
X96930000Y-107220000D03*
X103730000Y-107220000D03*
X92300000Y-111220000D03*
X85500000Y-111220000D03*
X85500000Y-107220000D03*
X92300000Y-107220000D03*
X80870000Y-111220000D03*
X74070000Y-111220000D03*
X74070000Y-107220000D03*
X80870000Y-107220000D03*
X69440000Y-111220000D03*
X62640000Y-111220000D03*
X62640000Y-107220000D03*
X69440000Y-107220000D03*
X125955000Y-122650000D03*
X119155000Y-122650000D03*
X119155000Y-118650000D03*
X125955000Y-118650000D03*
X111985000Y-122650000D03*
X105185000Y-122650000D03*
X105185000Y-118650000D03*
X111985000Y-118650000D03*
X98015000Y-122650000D03*
X91215000Y-122650000D03*
X91215000Y-118650000D03*
X98015000Y-118650000D03*
X84045000Y-122650000D03*
X77245000Y-122650000D03*
X77245000Y-118650000D03*
X84045000Y-118650000D03*
X70075000Y-122650000D03*
X63275000Y-122650000D03*
X63275000Y-118650000D03*
X70075000Y-118650000D03*
X125955000Y-132810000D03*
X119155000Y-132810000D03*
X119155000Y-128810000D03*
X125955000Y-128810000D03*
X111985000Y-132810000D03*
X105185000Y-132810000D03*
X105185000Y-128810000D03*
X111985000Y-128810000D03*
X98015000Y-132810000D03*
X91215000Y-132810000D03*
X91215000Y-128810000D03*
X98015000Y-128810000D03*
X84045000Y-132810000D03*
X77245000Y-132810000D03*
X77245000Y-128810000D03*
X84045000Y-128810000D03*
X70075000Y-132810000D03*
X63275000Y-132810000D03*
X63275000Y-128810000D03*
X70075000Y-128810000D03*
X125955000Y-142970000D03*
X119155000Y-142970000D03*
X119155000Y-138970000D03*
X125955000Y-138970000D03*
X111985000Y-142970000D03*
X105185000Y-142970000D03*
X105185000Y-138970000D03*
X111985000Y-138970000D03*
X98015000Y-142970000D03*
X91215000Y-142970000D03*
X91215000Y-138970000D03*
X98015000Y-138970000D03*
X84045000Y-142970000D03*
X77245000Y-142970000D03*
X77245000Y-138970000D03*
X84045000Y-138970000D03*
X70075000Y-142970000D03*
X63275000Y-142970000D03*
X63275000Y-138970000D03*
X70075000Y-138970000D03*
X125955000Y-153130000D03*
X119155000Y-153130000D03*
X119155000Y-149130000D03*
X125955000Y-149130000D03*
X111985000Y-153130000D03*
X105185000Y-153130000D03*
X105185000Y-149130000D03*
X111985000Y-149130000D03*
X98015000Y-153130000D03*
X91215000Y-153130000D03*
X91215000Y-149130000D03*
X98015000Y-149130000D03*
X84045000Y-153130000D03*
X77245000Y-153130000D03*
X77245000Y-149130000D03*
X84045000Y-149130000D03*
X70075000Y-153130000D03*
X63275000Y-153130000D03*
X63275000Y-149130000D03*
X70075000Y-149130000D03*
D11*
X111760000Y-42545000D03*
X114300000Y-42545000D03*
X116840000Y-42545000D03*
D12*
X119380000Y-42545000D03*
D13*
X82550000Y-69040736D03*
X83337641Y-66915499D03*
X81915000Y-51435000D03*
X74930000Y-48260000D03*
X96199403Y-66115917D03*
X102235002Y-61595000D03*
X123825000Y-39370000D03*
X95865000Y-48155000D03*
X86995008Y-46445010D03*
X73025000Y-46990000D03*
X85090000Y-55880000D03*
X119380000Y-45085000D03*
X80555000Y-69850000D03*
X116840000Y-46355000D03*
X113665000Y-48260002D03*
X105540161Y-69084841D03*
X94615000Y-55880000D03*
X75565000Y-67310000D03*
X93857660Y-57907340D03*
X85725000Y-59055000D03*
X92800000Y-55245000D03*
X75565000Y-64770000D03*
X93095165Y-57144845D03*
X86995000Y-57785008D03*
X92710000Y-67945000D03*
X86360000Y-64770000D03*
X84296964Y-76200000D03*
X83185000Y-78105004D03*
X83185000Y-71245009D03*
X93835332Y-66800694D03*
X85090000Y-69142882D03*
X86432119Y-69922112D03*
X87882131Y-69918394D03*
X98425000Y-74295018D03*
X94918140Y-66765010D03*
X96520000Y-77470000D03*
X87630000Y-77051227D03*
X86479990Y-75564996D03*
X86995000Y-49460010D03*
X80645000Y-65405000D03*
D14*
X82550000Y-67703140D02*
X83337641Y-66915499D01*
X82550000Y-69040736D02*
X82550000Y-67703140D01*
D15*
X81915000Y-51435000D02*
X78105000Y-51435000D01*
X78105000Y-51435000D02*
X74930000Y-48260000D01*
X96199403Y-66115917D02*
X97714085Y-66115917D01*
X97714085Y-66115917D02*
X101835003Y-61994999D01*
X101835003Y-61994999D02*
X102235002Y-61595000D01*
D14*
X123259315Y-39370000D02*
X123825000Y-39370000D01*
D16*
X88265000Y-39370000D02*
X123259315Y-39370000D01*
X81915000Y-45720000D02*
X88265000Y-39370000D01*
X81915000Y-51435000D02*
X81915000Y-45720000D01*
D15*
X94155010Y-46445010D02*
X95865000Y-48155000D01*
X86995008Y-46445010D02*
X94155010Y-46445010D01*
D14*
X73025000Y-53340000D02*
X75565000Y-55880000D01*
X75565000Y-55880000D02*
X85090000Y-55880000D01*
X73025000Y-46990000D02*
X73025000Y-53340000D01*
X118814315Y-45085000D02*
X119380000Y-45085000D01*
X118179315Y-44450000D02*
X118814315Y-45085000D01*
X86360000Y-44450000D02*
X118179315Y-44450000D01*
X85090000Y-45720000D02*
X86360000Y-44450000D01*
X85090000Y-55880000D02*
X85090000Y-45720000D01*
X116274315Y-46355000D02*
X116840000Y-46355000D01*
X113861995Y-46355000D02*
X116274315Y-46355000D01*
X94176995Y-66040000D02*
X113861995Y-46355000D01*
X83187821Y-66040000D02*
X94176995Y-66040000D01*
X80555000Y-69850000D02*
X80555000Y-68672821D01*
X80555000Y-68672821D02*
X83187821Y-66040000D01*
X105940160Y-68684842D02*
X105540161Y-69084841D01*
X113665000Y-60960002D02*
X105940160Y-68684842D01*
X113665000Y-48260002D02*
X113665000Y-60960002D01*
X93332992Y-59505010D02*
X94615000Y-58223002D01*
X75565000Y-67310000D02*
X80645000Y-67310000D01*
X94615000Y-56445685D02*
X94615000Y-55880000D01*
X80645000Y-67310000D02*
X88449990Y-59505010D01*
X94615000Y-58223002D02*
X94615000Y-56445685D01*
X88449990Y-59505010D02*
X93332992Y-59505010D01*
X92710000Y-59055000D02*
X85725000Y-59055000D01*
X93857660Y-57907340D02*
X92710000Y-59055000D01*
X76925001Y-66130001D02*
X81188589Y-66130001D01*
X84999999Y-62318591D02*
X84999999Y-58706999D01*
X81188589Y-66130001D02*
X84999999Y-62318591D01*
X88461998Y-55245000D02*
X92234315Y-55245000D01*
X84999999Y-58706999D02*
X88461998Y-55245000D01*
X92234315Y-55245000D02*
X92800000Y-55245000D01*
X75565000Y-64770000D02*
X76925001Y-66130001D01*
X93095165Y-57144845D02*
X92455002Y-57785008D01*
X92455002Y-57785008D02*
X87560685Y-57785008D01*
X87560685Y-57785008D02*
X86995000Y-57785008D01*
X70650000Y-153380000D02*
X76670000Y-153380000D01*
X84620000Y-153380000D02*
X90640000Y-153380000D01*
X98590000Y-153380000D02*
X104610000Y-153380000D01*
X92710000Y-75761998D02*
X92710000Y-67945000D01*
X118580000Y-153380000D02*
X111535000Y-153380000D01*
X111535000Y-153380000D02*
X109855000Y-151700000D01*
X109855000Y-112855001D02*
X110490000Y-112220001D01*
X110490000Y-110621410D02*
X108453590Y-108585000D01*
X108453590Y-108585000D02*
X106045000Y-108585000D01*
X106045000Y-108585000D02*
X106045000Y-106059999D01*
X109855000Y-151700000D02*
X109855000Y-112855001D01*
X110490000Y-112220001D02*
X110490000Y-110621410D01*
X106045000Y-106059999D02*
X105395001Y-105410000D01*
X102685000Y-105410000D02*
X100330000Y-103055000D01*
X105395001Y-105410000D02*
X102685000Y-105410000D01*
X100330000Y-103055000D02*
X100330000Y-83381998D01*
X100330000Y-83381998D02*
X92710000Y-75761998D01*
X65405000Y-120015000D02*
X64770000Y-119380000D01*
X64770000Y-119380000D02*
X63725000Y-118400000D01*
X63725000Y-128560000D02*
X63210000Y-128560000D01*
X63845000Y-118400000D02*
X64770000Y-117475000D01*
X65405000Y-130240000D02*
X63725000Y-128560000D01*
X65405000Y-137160000D02*
X65405000Y-130240000D01*
X65405000Y-126365000D02*
X65405000Y-120015000D01*
X63210000Y-128560000D02*
X65405000Y-126365000D01*
X63210000Y-106970000D02*
X64770000Y-105410000D01*
X63725000Y-138720000D02*
X63845000Y-138720000D01*
X63845000Y-138720000D02*
X65405000Y-137160000D01*
X65405000Y-140400000D02*
X63725000Y-138720000D01*
X64770000Y-105410000D02*
X64770000Y-101030000D01*
X65405000Y-147320000D02*
X65405000Y-140400000D01*
X63845000Y-148880000D02*
X65405000Y-147320000D01*
X63090000Y-84110000D02*
X62065000Y-84110000D01*
X62700000Y-148880000D02*
X63845000Y-148880000D01*
X64770000Y-93410000D02*
X63090000Y-91730000D01*
X63090000Y-106970000D02*
X63210000Y-106970000D01*
X64770000Y-101030000D02*
X63090000Y-99350000D01*
X63090000Y-99350000D02*
X63210000Y-99350000D01*
X63210000Y-99350000D02*
X64770000Y-97790000D01*
X64770000Y-97790000D02*
X64770000Y-93410000D01*
X63090000Y-91730000D02*
X63210000Y-91730000D01*
X64770000Y-85790000D02*
X63090000Y-84110000D01*
X63725000Y-118400000D02*
X63845000Y-118400000D01*
X64770000Y-117475000D02*
X64770000Y-108650000D01*
X63210000Y-91730000D02*
X64770000Y-90170000D01*
X64770000Y-108650000D02*
X63090000Y-106970000D01*
X64770000Y-90170000D02*
X64770000Y-85790000D01*
X85794315Y-64770000D02*
X86360000Y-64770000D01*
X70015000Y-78576410D02*
X83821410Y-64770000D01*
X83821410Y-64770000D02*
X85794315Y-64770000D01*
X70015000Y-84110000D02*
X70015000Y-78576410D01*
X83731279Y-76200000D02*
X84296964Y-76200000D01*
X81445000Y-78486279D02*
X83731279Y-76200000D01*
X81445000Y-84110000D02*
X81445000Y-78486279D01*
X79375000Y-120080000D02*
X77695000Y-118400000D01*
X77695000Y-128560000D02*
X77815000Y-128560000D01*
X79375000Y-127000000D02*
X79375000Y-120080000D01*
X78740000Y-129540000D02*
X77695000Y-128560000D01*
X79375000Y-146685000D02*
X79375000Y-140400000D01*
X77695000Y-138720000D02*
X77815000Y-138720000D01*
X79375000Y-130175000D02*
X78740000Y-129540000D01*
X79375000Y-137160000D02*
X79375000Y-130175000D01*
X77815000Y-138720000D02*
X79375000Y-137160000D01*
X77180000Y-148880000D02*
X79375000Y-146685000D01*
X79375000Y-140400000D02*
X77695000Y-138720000D01*
X76670000Y-109120000D02*
X74520000Y-106970000D01*
X77815000Y-128560000D02*
X79375000Y-127000000D01*
X76670000Y-148880000D02*
X77180000Y-148880000D01*
X77695000Y-118400000D02*
X76670000Y-118400000D01*
X76670000Y-118400000D02*
X76670000Y-109120000D01*
X74520000Y-106970000D02*
X73495000Y-106970000D01*
X73840002Y-106990002D02*
X74070000Y-107220000D01*
X74080001Y-107220000D02*
X74070000Y-107220000D01*
X76200000Y-100965000D02*
X76200000Y-105100001D01*
X74640000Y-99350000D02*
X74520000Y-99350000D01*
X75565000Y-92710000D02*
X76200000Y-93345000D01*
X75565000Y-85090000D02*
X76200000Y-85725000D01*
X76200000Y-105100001D02*
X74080001Y-107220000D01*
X76200000Y-85725000D02*
X76200000Y-90170000D01*
X74640000Y-91730000D02*
X74520000Y-91730000D01*
X74520000Y-84110000D02*
X75565000Y-85090000D01*
X76200000Y-93345000D02*
X76200000Y-97790000D01*
X74520000Y-91730000D02*
X75565000Y-92710000D01*
X76200000Y-97790000D02*
X74640000Y-99350000D01*
X76200000Y-90170000D02*
X74640000Y-91730000D01*
X74520000Y-99350000D02*
X75565000Y-100330000D01*
X73495000Y-84110000D02*
X74520000Y-84110000D01*
X75565000Y-100330000D02*
X76200000Y-100965000D01*
X84925000Y-91730000D02*
X85950000Y-91730000D01*
X91665000Y-138720000D02*
X93345000Y-140400000D01*
X93345000Y-137160000D02*
X91785000Y-138720000D01*
X93345000Y-146685000D02*
X91150000Y-148880000D01*
X93345000Y-130175000D02*
X93345000Y-137160000D01*
X91785000Y-138720000D02*
X91665000Y-138720000D01*
X92710000Y-129540000D02*
X93345000Y-130175000D01*
X91150000Y-128560000D02*
X91665000Y-128560000D01*
X91150000Y-148880000D02*
X90640000Y-148880000D01*
X91665000Y-128560000D02*
X92710000Y-129540000D01*
X93345000Y-126365000D02*
X91150000Y-128560000D01*
X93345000Y-140400000D02*
X93345000Y-146685000D01*
X93345000Y-120780000D02*
X93345000Y-126365000D01*
X91215000Y-118650000D02*
X93345000Y-120780000D01*
X91215000Y-117885000D02*
X87630000Y-114300000D01*
X91215000Y-118650000D02*
X91215000Y-117885000D01*
X87630000Y-114300000D02*
X87630000Y-114365000D01*
X85725000Y-80645004D02*
X83185000Y-78105004D01*
X85500000Y-84360000D02*
X85725000Y-84135000D01*
X85725000Y-84135000D02*
X85725000Y-80645004D01*
X87630000Y-86490000D02*
X85500000Y-84360000D01*
X87630000Y-90050000D02*
X87630000Y-86490000D01*
X85950000Y-91730000D02*
X87630000Y-90050000D01*
X87630000Y-108585000D02*
X87630000Y-114300000D01*
X86015000Y-106970000D02*
X87630000Y-108585000D01*
X87630000Y-100965000D02*
X87630000Y-105410000D01*
X86995000Y-100330000D02*
X87630000Y-100965000D01*
X85950000Y-99350000D02*
X86995000Y-100330000D01*
X86070000Y-99350000D02*
X85950000Y-99350000D01*
X87630000Y-105410000D02*
X86070000Y-106970000D01*
X87630000Y-97790000D02*
X86070000Y-99350000D01*
X86070000Y-106970000D02*
X86015000Y-106970000D01*
X87630000Y-93345000D02*
X87630000Y-97790000D01*
X86995000Y-92710000D02*
X87630000Y-93345000D01*
X85950000Y-91730000D02*
X86995000Y-92710000D01*
X107315000Y-137160000D02*
X107315000Y-130940000D01*
X107315000Y-130940000D02*
X105185000Y-128810000D01*
X105755000Y-138720000D02*
X107315000Y-137160000D01*
X105635000Y-138720000D02*
X105755000Y-138720000D01*
X107315000Y-140400000D02*
X105635000Y-138720000D01*
X107315000Y-146685000D02*
X107315000Y-140400000D01*
X105120000Y-148880000D02*
X107315000Y-146685000D01*
X104610000Y-148880000D02*
X105120000Y-148880000D01*
X105635000Y-118400000D02*
X104610000Y-118400000D01*
X107315000Y-120780000D02*
X105185000Y-118650000D01*
X107315000Y-127000000D02*
X107315000Y-120780000D01*
X105755000Y-128560000D02*
X107315000Y-127000000D01*
X105635000Y-128560000D02*
X105755000Y-128560000D01*
X84360012Y-70069997D02*
X83185000Y-71245009D01*
X87157121Y-69501999D02*
X86073003Y-68417881D01*
X96355000Y-82822998D02*
X87157121Y-73625119D01*
X96355000Y-84110000D02*
X96355000Y-82822998D01*
X98425000Y-85090000D02*
X97380000Y-84110000D01*
X99060000Y-90170000D02*
X99060000Y-85725000D01*
X97500000Y-91730000D02*
X99060000Y-90170000D01*
X86073003Y-68417881D02*
X84669886Y-68417881D01*
X97380000Y-91730000D02*
X97500000Y-91730000D01*
X84360012Y-68727753D02*
X84360012Y-70069997D01*
X105185000Y-118650000D02*
X105185000Y-117885000D01*
X98425000Y-100330000D02*
X97380000Y-99350000D01*
X105185000Y-117885000D02*
X100330000Y-113030000D01*
X100330000Y-113030000D02*
X100330000Y-109855000D01*
X100330000Y-109855000D02*
X98425000Y-107950000D01*
X84669886Y-68417881D02*
X84360012Y-68727753D01*
X98425000Y-92710000D02*
X97380000Y-91730000D01*
X98425000Y-107950000D02*
X97380000Y-106970000D01*
X97380000Y-106970000D02*
X97500000Y-106970000D01*
X97500000Y-99350000D02*
X99060000Y-97790000D01*
X87157121Y-73625119D02*
X87157121Y-69501999D01*
X99060000Y-93345000D02*
X98425000Y-92710000D01*
X97500000Y-106970000D02*
X99060000Y-105410000D01*
X99060000Y-105410000D02*
X99060000Y-100965000D01*
X97380000Y-84110000D02*
X96355000Y-84110000D01*
X97380000Y-99350000D02*
X97500000Y-99350000D01*
X99060000Y-85725000D02*
X98425000Y-85090000D01*
X99060000Y-100965000D02*
X98425000Y-100330000D01*
X99060000Y-97790000D02*
X99060000Y-93345000D01*
X110490000Y-85790000D02*
X108810000Y-84110000D01*
X106332178Y-84110000D02*
X93835332Y-71613154D01*
X93835332Y-71613154D02*
X93835332Y-67366379D01*
X108810000Y-84110000D02*
X106332178Y-84110000D01*
X118580000Y-148880000D02*
X121285000Y-146175000D01*
X93835332Y-67366379D02*
X93835332Y-66800694D01*
X110395000Y-91980000D02*
X110490000Y-92075000D01*
X108360000Y-91980000D02*
X110395000Y-91980000D01*
X110490000Y-92075000D02*
X110490000Y-85790000D01*
X110395000Y-99600000D02*
X110490000Y-99695000D01*
X108360000Y-99600000D02*
X110395000Y-99600000D01*
X110490000Y-99695000D02*
X110490000Y-92075000D01*
X108360000Y-107220000D02*
X110395000Y-107220000D01*
X119155000Y-138970000D02*
X121190000Y-138970000D01*
X121190000Y-138970000D02*
X121285000Y-139065000D01*
X121285000Y-146175000D02*
X121285000Y-139065000D01*
X121190000Y-128810000D02*
X121285000Y-128905000D01*
X119155000Y-128810000D02*
X121190000Y-128810000D01*
X121285000Y-139065000D02*
X121285000Y-128905000D01*
X110490000Y-109855000D02*
X110490000Y-99695000D01*
X121285000Y-120650000D02*
X110490000Y-109855000D01*
X121285000Y-128905000D02*
X121285000Y-120650000D01*
X112560000Y-143220000D02*
X118580000Y-143220000D01*
X84620000Y-143220000D02*
X90640000Y-143220000D01*
X70650000Y-143220000D02*
X76670000Y-143220000D01*
X85090000Y-69708567D02*
X85090000Y-69142882D01*
X88265000Y-113014998D02*
X88265000Y-81084415D01*
X94615000Y-140270000D02*
X94615000Y-119364998D01*
X88265000Y-81084415D02*
X85090000Y-77909415D01*
X97565000Y-143220000D02*
X94615000Y-140270000D01*
X94615000Y-119364998D02*
X88265000Y-113014998D01*
X104610000Y-143220000D02*
X97565000Y-143220000D01*
X85090000Y-77909415D02*
X85090000Y-69708567D01*
X70650000Y-133060000D02*
X76670000Y-133060000D01*
X84620000Y-133060000D02*
X90640000Y-133060000D01*
X112560000Y-133060000D02*
X118580000Y-133060000D01*
X85725000Y-70629231D02*
X86432119Y-69922112D01*
X88900000Y-79813002D02*
X85725000Y-76638002D01*
X88900000Y-112395000D02*
X88900000Y-79813002D01*
X95885000Y-119380000D02*
X88900000Y-112395000D01*
X95885000Y-131380000D02*
X95885000Y-119380000D01*
X97565000Y-133060000D02*
X95885000Y-131380000D01*
X85725000Y-76638002D02*
X85725000Y-70629231D01*
X104610000Y-133060000D02*
X97565000Y-133060000D01*
X112560000Y-122900000D02*
X118580000Y-122900000D01*
X98590000Y-122900000D02*
X104610000Y-122900000D01*
X70650000Y-122900000D02*
X76670000Y-122900000D01*
X87882131Y-68774920D02*
X87882131Y-69918394D01*
X86417211Y-67310000D02*
X87882131Y-68774920D01*
X83820000Y-68799001D02*
X83820000Y-67945000D01*
X82582500Y-121317500D02*
X78740000Y-117475000D01*
X84455000Y-67310000D02*
X86417211Y-67310000D01*
X90640000Y-122900000D02*
X83595000Y-122900000D01*
X82582500Y-121887500D02*
X82582500Y-121317500D01*
X78740000Y-117475000D02*
X78740000Y-73879001D01*
X83820000Y-67945000D02*
X84455000Y-67310000D01*
X78740000Y-73879001D02*
X83820000Y-68799001D01*
X83595000Y-122900000D02*
X82582500Y-121887500D01*
X70015000Y-111470000D02*
X73495000Y-111470000D01*
X81445000Y-111470000D02*
X84925000Y-111470000D01*
X92875000Y-111470000D02*
X96355000Y-111470000D01*
X104305000Y-111470000D02*
X107785000Y-111470000D01*
X102583001Y-76290001D02*
X100419983Y-76290001D01*
X109478000Y-83185000D02*
X102583001Y-76290001D01*
X110490000Y-83185000D02*
X109478000Y-83185000D01*
X112395000Y-85090000D02*
X110490000Y-83185000D01*
X112395000Y-109155000D02*
X112395000Y-85090000D01*
X98824999Y-74695017D02*
X98425000Y-74295018D01*
X114710000Y-111470000D02*
X112395000Y-109155000D01*
X119215000Y-111470000D02*
X114710000Y-111470000D01*
X100419983Y-76290001D02*
X98824999Y-74695017D01*
X119215000Y-106970000D02*
X121920000Y-104265000D01*
X121825000Y-91980000D02*
X121920000Y-92075000D01*
X119790000Y-91980000D02*
X121825000Y-91980000D01*
X121825000Y-99600000D02*
X121920000Y-99695000D01*
X119790000Y-99600000D02*
X121825000Y-99600000D01*
X121920000Y-99695000D02*
X121920000Y-92075000D01*
X121920000Y-104265000D02*
X121920000Y-99695000D01*
X99908130Y-71755000D02*
X94918140Y-66765010D01*
X107185000Y-71755000D02*
X99908130Y-71755000D01*
X121920000Y-86490000D02*
X107185000Y-71755000D01*
X121920000Y-92075000D02*
X121920000Y-86490000D01*
X115735000Y-103850000D02*
X119215000Y-103850000D01*
X92875000Y-103850000D02*
X96355000Y-103850000D01*
X81445000Y-103850000D02*
X84925000Y-103850000D01*
X70015000Y-103850000D02*
X73495000Y-103850000D01*
X107785000Y-103850000D02*
X103280000Y-103850000D01*
X101600000Y-82550000D02*
X96520000Y-77470000D01*
X103280000Y-103850000D02*
X101600000Y-102170000D01*
X101600000Y-102170000D02*
X101600000Y-82550000D01*
X70015000Y-96230000D02*
X73495000Y-96230000D01*
X81445000Y-96230000D02*
X84925000Y-96230000D01*
X104305000Y-96230000D02*
X107785000Y-96230000D01*
X115735000Y-96230000D02*
X119215000Y-96230000D01*
X88029999Y-77451226D02*
X87630000Y-77051227D01*
X89535000Y-93915000D02*
X89535000Y-78956227D01*
X91850000Y-96230000D02*
X89535000Y-93915000D01*
X96355000Y-96230000D02*
X91850000Y-96230000D01*
X89535000Y-78956227D02*
X88029999Y-77451226D01*
X115735000Y-88610000D02*
X119215000Y-88610000D01*
X104305000Y-88610000D02*
X107785000Y-88610000D01*
X81445000Y-88610000D02*
X84925000Y-88610000D01*
X70015000Y-88610000D02*
X73495000Y-88610000D01*
X87680671Y-75564996D02*
X86479990Y-75564996D01*
X91850000Y-88610000D02*
X90170000Y-86930000D01*
X90170000Y-86930000D02*
X90170000Y-78054325D01*
X96355000Y-88610000D02*
X91850000Y-88610000D01*
X90170000Y-78054325D02*
X87680671Y-75564996D01*
X80645000Y-64839315D02*
X80645000Y-65405000D01*
X86995000Y-55949315D02*
X80645000Y-62299315D01*
X80645000Y-62299315D02*
X80645000Y-64839315D01*
X86995000Y-49460010D02*
X86995000Y-55949315D01*
M02*
