G04 #@! TF.GenerationSoftware,KiCad,Pcbnew,5.1.5+dfsg1-2build2*
G04 #@! TF.CreationDate,2021-04-12T22:06:22+02:00*
G04 #@! TF.ProjectId,calc,63616c63-2e6b-4696-9361-645f70636258,rev?*
G04 #@! TF.SameCoordinates,Original*
G04 #@! TF.FileFunction,Legend,Top*
G04 #@! TF.FilePolarity,Positive*
%FSLAX46Y46*%
G04 Gerber Fmt 4.6, Leading zero omitted, Abs format (unit mm)*
G04 Created by KiCad (PCBNEW 5.1.5+dfsg1-2build2) date 2021-04-12 22:06:22*
%MOMM*%
%LPD*%
G04 APERTURE LIST*
%ADD10C,0.120000*%
%ADD11C,0.150000*%
G04 APERTURE END LIST*
D10*
X119840000Y-89460000D02*
X126540000Y-89460000D01*
X126540000Y-83260000D02*
X119840000Y-83260000D01*
X126540000Y-85160000D02*
X126540000Y-87560000D01*
X119840000Y-85160000D02*
X119840000Y-87560000D01*
X119840000Y-83260000D02*
X119840000Y-83460000D01*
X119840000Y-89460000D02*
X119840000Y-89260000D01*
X126540000Y-89460000D02*
X126540000Y-89260000D01*
X126540000Y-83260000D02*
X126540000Y-83460000D01*
X108410000Y-89460000D02*
X115110000Y-89460000D01*
X115110000Y-83260000D02*
X108410000Y-83260000D01*
X115110000Y-85160000D02*
X115110000Y-87560000D01*
X108410000Y-85160000D02*
X108410000Y-87560000D01*
X108410000Y-83260000D02*
X108410000Y-83460000D01*
X108410000Y-89460000D02*
X108410000Y-89260000D01*
X115110000Y-89460000D02*
X115110000Y-89260000D01*
X115110000Y-83260000D02*
X115110000Y-83460000D01*
X96980000Y-89460000D02*
X103680000Y-89460000D01*
X103680000Y-83260000D02*
X96980000Y-83260000D01*
X103680000Y-85160000D02*
X103680000Y-87560000D01*
X96980000Y-85160000D02*
X96980000Y-87560000D01*
X96980000Y-83260000D02*
X96980000Y-83460000D01*
X96980000Y-89460000D02*
X96980000Y-89260000D01*
X103680000Y-89460000D02*
X103680000Y-89260000D01*
X103680000Y-83260000D02*
X103680000Y-83460000D01*
X85550000Y-89460000D02*
X92250000Y-89460000D01*
X92250000Y-83260000D02*
X85550000Y-83260000D01*
X92250000Y-85160000D02*
X92250000Y-87560000D01*
X85550000Y-85160000D02*
X85550000Y-87560000D01*
X85550000Y-83260000D02*
X85550000Y-83460000D01*
X85550000Y-89460000D02*
X85550000Y-89260000D01*
X92250000Y-89460000D02*
X92250000Y-89260000D01*
X92250000Y-83260000D02*
X92250000Y-83460000D01*
X74120000Y-89460000D02*
X80820000Y-89460000D01*
X80820000Y-83260000D02*
X74120000Y-83260000D01*
X80820000Y-85160000D02*
X80820000Y-87560000D01*
X74120000Y-85160000D02*
X74120000Y-87560000D01*
X74120000Y-83260000D02*
X74120000Y-83460000D01*
X74120000Y-89460000D02*
X74120000Y-89260000D01*
X80820000Y-89460000D02*
X80820000Y-89260000D01*
X80820000Y-83260000D02*
X80820000Y-83460000D01*
X62690000Y-89460000D02*
X69390000Y-89460000D01*
X69390000Y-83260000D02*
X62690000Y-83260000D01*
X69390000Y-85160000D02*
X69390000Y-87560000D01*
X62690000Y-85160000D02*
X62690000Y-87560000D01*
X62690000Y-83260000D02*
X62690000Y-83460000D01*
X62690000Y-89460000D02*
X62690000Y-89260000D01*
X69390000Y-89460000D02*
X69390000Y-89260000D01*
X69390000Y-83260000D02*
X69390000Y-83460000D01*
X119840000Y-97080000D02*
X126540000Y-97080000D01*
X126540000Y-90880000D02*
X119840000Y-90880000D01*
X126540000Y-92780000D02*
X126540000Y-95180000D01*
X119840000Y-92780000D02*
X119840000Y-95180000D01*
X119840000Y-90880000D02*
X119840000Y-91080000D01*
X119840000Y-97080000D02*
X119840000Y-96880000D01*
X126540000Y-97080000D02*
X126540000Y-96880000D01*
X126540000Y-90880000D02*
X126540000Y-91080000D01*
X108410000Y-97080000D02*
X115110000Y-97080000D01*
X115110000Y-90880000D02*
X108410000Y-90880000D01*
X115110000Y-92780000D02*
X115110000Y-95180000D01*
X108410000Y-92780000D02*
X108410000Y-95180000D01*
X108410000Y-90880000D02*
X108410000Y-91080000D01*
X108410000Y-97080000D02*
X108410000Y-96880000D01*
X115110000Y-97080000D02*
X115110000Y-96880000D01*
X115110000Y-90880000D02*
X115110000Y-91080000D01*
X96980000Y-97080000D02*
X103680000Y-97080000D01*
X103680000Y-90880000D02*
X96980000Y-90880000D01*
X103680000Y-92780000D02*
X103680000Y-95180000D01*
X96980000Y-92780000D02*
X96980000Y-95180000D01*
X96980000Y-90880000D02*
X96980000Y-91080000D01*
X96980000Y-97080000D02*
X96980000Y-96880000D01*
X103680000Y-97080000D02*
X103680000Y-96880000D01*
X103680000Y-90880000D02*
X103680000Y-91080000D01*
X85550000Y-97080000D02*
X92250000Y-97080000D01*
X92250000Y-90880000D02*
X85550000Y-90880000D01*
X92250000Y-92780000D02*
X92250000Y-95180000D01*
X85550000Y-92780000D02*
X85550000Y-95180000D01*
X85550000Y-90880000D02*
X85550000Y-91080000D01*
X85550000Y-97080000D02*
X85550000Y-96880000D01*
X92250000Y-97080000D02*
X92250000Y-96880000D01*
X92250000Y-90880000D02*
X92250000Y-91080000D01*
X74120000Y-97080000D02*
X80820000Y-97080000D01*
X80820000Y-90880000D02*
X74120000Y-90880000D01*
X80820000Y-92780000D02*
X80820000Y-95180000D01*
X74120000Y-92780000D02*
X74120000Y-95180000D01*
X74120000Y-90880000D02*
X74120000Y-91080000D01*
X74120000Y-97080000D02*
X74120000Y-96880000D01*
X80820000Y-97080000D02*
X80820000Y-96880000D01*
X80820000Y-90880000D02*
X80820000Y-91080000D01*
X62690000Y-97080000D02*
X69390000Y-97080000D01*
X69390000Y-90880000D02*
X62690000Y-90880000D01*
X69390000Y-92780000D02*
X69390000Y-95180000D01*
X62690000Y-92780000D02*
X62690000Y-95180000D01*
X62690000Y-90880000D02*
X62690000Y-91080000D01*
X62690000Y-97080000D02*
X62690000Y-96880000D01*
X69390000Y-97080000D02*
X69390000Y-96880000D01*
X69390000Y-90880000D02*
X69390000Y-91080000D01*
X119840000Y-104700000D02*
X126540000Y-104700000D01*
X126540000Y-98500000D02*
X119840000Y-98500000D01*
X126540000Y-100400000D02*
X126540000Y-102800000D01*
X119840000Y-100400000D02*
X119840000Y-102800000D01*
X119840000Y-98500000D02*
X119840000Y-98700000D01*
X119840000Y-104700000D02*
X119840000Y-104500000D01*
X126540000Y-104700000D02*
X126540000Y-104500000D01*
X126540000Y-98500000D02*
X126540000Y-98700000D01*
X108410000Y-104700000D02*
X115110000Y-104700000D01*
X115110000Y-98500000D02*
X108410000Y-98500000D01*
X115110000Y-100400000D02*
X115110000Y-102800000D01*
X108410000Y-100400000D02*
X108410000Y-102800000D01*
X108410000Y-98500000D02*
X108410000Y-98700000D01*
X108410000Y-104700000D02*
X108410000Y-104500000D01*
X115110000Y-104700000D02*
X115110000Y-104500000D01*
X115110000Y-98500000D02*
X115110000Y-98700000D01*
X96980000Y-104700000D02*
X103680000Y-104700000D01*
X103680000Y-98500000D02*
X96980000Y-98500000D01*
X103680000Y-100400000D02*
X103680000Y-102800000D01*
X96980000Y-100400000D02*
X96980000Y-102800000D01*
X96980000Y-98500000D02*
X96980000Y-98700000D01*
X96980000Y-104700000D02*
X96980000Y-104500000D01*
X103680000Y-104700000D02*
X103680000Y-104500000D01*
X103680000Y-98500000D02*
X103680000Y-98700000D01*
X85550000Y-104700000D02*
X92250000Y-104700000D01*
X92250000Y-98500000D02*
X85550000Y-98500000D01*
X92250000Y-100400000D02*
X92250000Y-102800000D01*
X85550000Y-100400000D02*
X85550000Y-102800000D01*
X85550000Y-98500000D02*
X85550000Y-98700000D01*
X85550000Y-104700000D02*
X85550000Y-104500000D01*
X92250000Y-104700000D02*
X92250000Y-104500000D01*
X92250000Y-98500000D02*
X92250000Y-98700000D01*
X74120000Y-104700000D02*
X80820000Y-104700000D01*
X80820000Y-98500000D02*
X74120000Y-98500000D01*
X80820000Y-100400000D02*
X80820000Y-102800000D01*
X74120000Y-100400000D02*
X74120000Y-102800000D01*
X74120000Y-98500000D02*
X74120000Y-98700000D01*
X74120000Y-104700000D02*
X74120000Y-104500000D01*
X80820000Y-104700000D02*
X80820000Y-104500000D01*
X80820000Y-98500000D02*
X80820000Y-98700000D01*
X62690000Y-104700000D02*
X69390000Y-104700000D01*
X69390000Y-98500000D02*
X62690000Y-98500000D01*
X69390000Y-100400000D02*
X69390000Y-102800000D01*
X62690000Y-100400000D02*
X62690000Y-102800000D01*
X62690000Y-98500000D02*
X62690000Y-98700000D01*
X62690000Y-104700000D02*
X62690000Y-104500000D01*
X69390000Y-104700000D02*
X69390000Y-104500000D01*
X69390000Y-98500000D02*
X69390000Y-98700000D01*
X119840000Y-112320000D02*
X126540000Y-112320000D01*
X126540000Y-106120000D02*
X119840000Y-106120000D01*
X126540000Y-108020000D02*
X126540000Y-110420000D01*
X119840000Y-108020000D02*
X119840000Y-110420000D01*
X119840000Y-106120000D02*
X119840000Y-106320000D01*
X119840000Y-112320000D02*
X119840000Y-112120000D01*
X126540000Y-112320000D02*
X126540000Y-112120000D01*
X126540000Y-106120000D02*
X126540000Y-106320000D01*
X108410000Y-112320000D02*
X115110000Y-112320000D01*
X115110000Y-106120000D02*
X108410000Y-106120000D01*
X115110000Y-108020000D02*
X115110000Y-110420000D01*
X108410000Y-108020000D02*
X108410000Y-110420000D01*
X108410000Y-106120000D02*
X108410000Y-106320000D01*
X108410000Y-112320000D02*
X108410000Y-112120000D01*
X115110000Y-112320000D02*
X115110000Y-112120000D01*
X115110000Y-106120000D02*
X115110000Y-106320000D01*
X96980000Y-112320000D02*
X103680000Y-112320000D01*
X103680000Y-106120000D02*
X96980000Y-106120000D01*
X103680000Y-108020000D02*
X103680000Y-110420000D01*
X96980000Y-108020000D02*
X96980000Y-110420000D01*
X96980000Y-106120000D02*
X96980000Y-106320000D01*
X96980000Y-112320000D02*
X96980000Y-112120000D01*
X103680000Y-112320000D02*
X103680000Y-112120000D01*
X103680000Y-106120000D02*
X103680000Y-106320000D01*
X85550000Y-112320000D02*
X92250000Y-112320000D01*
X92250000Y-106120000D02*
X85550000Y-106120000D01*
X92250000Y-108020000D02*
X92250000Y-110420000D01*
X85550000Y-108020000D02*
X85550000Y-110420000D01*
X85550000Y-106120000D02*
X85550000Y-106320000D01*
X85550000Y-112320000D02*
X85550000Y-112120000D01*
X92250000Y-112320000D02*
X92250000Y-112120000D01*
X92250000Y-106120000D02*
X92250000Y-106320000D01*
X74120000Y-112320000D02*
X80820000Y-112320000D01*
X80820000Y-106120000D02*
X74120000Y-106120000D01*
X80820000Y-108020000D02*
X80820000Y-110420000D01*
X74120000Y-108020000D02*
X74120000Y-110420000D01*
X74120000Y-106120000D02*
X74120000Y-106320000D01*
X74120000Y-112320000D02*
X74120000Y-112120000D01*
X80820000Y-112320000D02*
X80820000Y-112120000D01*
X80820000Y-106120000D02*
X80820000Y-106320000D01*
X62690000Y-112320000D02*
X69390000Y-112320000D01*
X69390000Y-106120000D02*
X62690000Y-106120000D01*
X69390000Y-108020000D02*
X69390000Y-110420000D01*
X62690000Y-108020000D02*
X62690000Y-110420000D01*
X62690000Y-106120000D02*
X62690000Y-106320000D01*
X62690000Y-112320000D02*
X62690000Y-112120000D01*
X69390000Y-112320000D02*
X69390000Y-112120000D01*
X69390000Y-106120000D02*
X69390000Y-106320000D01*
X119205000Y-123750000D02*
X125905000Y-123750000D01*
X125905000Y-117550000D02*
X119205000Y-117550000D01*
X125905000Y-119450000D02*
X125905000Y-121850000D01*
X119205000Y-119450000D02*
X119205000Y-121850000D01*
X119205000Y-117550000D02*
X119205000Y-117750000D01*
X119205000Y-123750000D02*
X119205000Y-123550000D01*
X125905000Y-123750000D02*
X125905000Y-123550000D01*
X125905000Y-117550000D02*
X125905000Y-117750000D01*
X105235000Y-123750000D02*
X111935000Y-123750000D01*
X111935000Y-117550000D02*
X105235000Y-117550000D01*
X111935000Y-119450000D02*
X111935000Y-121850000D01*
X105235000Y-119450000D02*
X105235000Y-121850000D01*
X105235000Y-117550000D02*
X105235000Y-117750000D01*
X105235000Y-123750000D02*
X105235000Y-123550000D01*
X111935000Y-123750000D02*
X111935000Y-123550000D01*
X111935000Y-117550000D02*
X111935000Y-117750000D01*
X91265000Y-123750000D02*
X97965000Y-123750000D01*
X97965000Y-117550000D02*
X91265000Y-117550000D01*
X97965000Y-119450000D02*
X97965000Y-121850000D01*
X91265000Y-119450000D02*
X91265000Y-121850000D01*
X91265000Y-117550000D02*
X91265000Y-117750000D01*
X91265000Y-123750000D02*
X91265000Y-123550000D01*
X97965000Y-123750000D02*
X97965000Y-123550000D01*
X97965000Y-117550000D02*
X97965000Y-117750000D01*
X77295000Y-123750000D02*
X83995000Y-123750000D01*
X83995000Y-117550000D02*
X77295000Y-117550000D01*
X83995000Y-119450000D02*
X83995000Y-121850000D01*
X77295000Y-119450000D02*
X77295000Y-121850000D01*
X77295000Y-117550000D02*
X77295000Y-117750000D01*
X77295000Y-123750000D02*
X77295000Y-123550000D01*
X83995000Y-123750000D02*
X83995000Y-123550000D01*
X83995000Y-117550000D02*
X83995000Y-117750000D01*
X63325000Y-123750000D02*
X70025000Y-123750000D01*
X70025000Y-117550000D02*
X63325000Y-117550000D01*
X70025000Y-119450000D02*
X70025000Y-121850000D01*
X63325000Y-119450000D02*
X63325000Y-121850000D01*
X63325000Y-117550000D02*
X63325000Y-117750000D01*
X63325000Y-123750000D02*
X63325000Y-123550000D01*
X70025000Y-123750000D02*
X70025000Y-123550000D01*
X70025000Y-117550000D02*
X70025000Y-117750000D01*
X119205000Y-133910000D02*
X125905000Y-133910000D01*
X125905000Y-127710000D02*
X119205000Y-127710000D01*
X125905000Y-129610000D02*
X125905000Y-132010000D01*
X119205000Y-129610000D02*
X119205000Y-132010000D01*
X119205000Y-127710000D02*
X119205000Y-127910000D01*
X119205000Y-133910000D02*
X119205000Y-133710000D01*
X125905000Y-133910000D02*
X125905000Y-133710000D01*
X125905000Y-127710000D02*
X125905000Y-127910000D01*
X105235000Y-133910000D02*
X111935000Y-133910000D01*
X111935000Y-127710000D02*
X105235000Y-127710000D01*
X111935000Y-129610000D02*
X111935000Y-132010000D01*
X105235000Y-129610000D02*
X105235000Y-132010000D01*
X105235000Y-127710000D02*
X105235000Y-127910000D01*
X105235000Y-133910000D02*
X105235000Y-133710000D01*
X111935000Y-133910000D02*
X111935000Y-133710000D01*
X111935000Y-127710000D02*
X111935000Y-127910000D01*
X91265000Y-133910000D02*
X97965000Y-133910000D01*
X97965000Y-127710000D02*
X91265000Y-127710000D01*
X97965000Y-129610000D02*
X97965000Y-132010000D01*
X91265000Y-129610000D02*
X91265000Y-132010000D01*
X91265000Y-127710000D02*
X91265000Y-127910000D01*
X91265000Y-133910000D02*
X91265000Y-133710000D01*
X97965000Y-133910000D02*
X97965000Y-133710000D01*
X97965000Y-127710000D02*
X97965000Y-127910000D01*
X77295000Y-133910000D02*
X83995000Y-133910000D01*
X83995000Y-127710000D02*
X77295000Y-127710000D01*
X83995000Y-129610000D02*
X83995000Y-132010000D01*
X77295000Y-129610000D02*
X77295000Y-132010000D01*
X77295000Y-127710000D02*
X77295000Y-127910000D01*
X77295000Y-133910000D02*
X77295000Y-133710000D01*
X83995000Y-133910000D02*
X83995000Y-133710000D01*
X83995000Y-127710000D02*
X83995000Y-127910000D01*
X63325000Y-133910000D02*
X70025000Y-133910000D01*
X70025000Y-127710000D02*
X63325000Y-127710000D01*
X70025000Y-129610000D02*
X70025000Y-132010000D01*
X63325000Y-129610000D02*
X63325000Y-132010000D01*
X63325000Y-127710000D02*
X63325000Y-127910000D01*
X63325000Y-133910000D02*
X63325000Y-133710000D01*
X70025000Y-133910000D02*
X70025000Y-133710000D01*
X70025000Y-127710000D02*
X70025000Y-127910000D01*
X119205000Y-144070000D02*
X125905000Y-144070000D01*
X125905000Y-137870000D02*
X119205000Y-137870000D01*
X125905000Y-139770000D02*
X125905000Y-142170000D01*
X119205000Y-139770000D02*
X119205000Y-142170000D01*
X119205000Y-137870000D02*
X119205000Y-138070000D01*
X119205000Y-144070000D02*
X119205000Y-143870000D01*
X125905000Y-144070000D02*
X125905000Y-143870000D01*
X125905000Y-137870000D02*
X125905000Y-138070000D01*
X105235000Y-144070000D02*
X111935000Y-144070000D01*
X111935000Y-137870000D02*
X105235000Y-137870000D01*
X111935000Y-139770000D02*
X111935000Y-142170000D01*
X105235000Y-139770000D02*
X105235000Y-142170000D01*
X105235000Y-137870000D02*
X105235000Y-138070000D01*
X105235000Y-144070000D02*
X105235000Y-143870000D01*
X111935000Y-144070000D02*
X111935000Y-143870000D01*
X111935000Y-137870000D02*
X111935000Y-138070000D01*
X91265000Y-144070000D02*
X97965000Y-144070000D01*
X97965000Y-137870000D02*
X91265000Y-137870000D01*
X97965000Y-139770000D02*
X97965000Y-142170000D01*
X91265000Y-139770000D02*
X91265000Y-142170000D01*
X91265000Y-137870000D02*
X91265000Y-138070000D01*
X91265000Y-144070000D02*
X91265000Y-143870000D01*
X97965000Y-144070000D02*
X97965000Y-143870000D01*
X97965000Y-137870000D02*
X97965000Y-138070000D01*
X77295000Y-144070000D02*
X83995000Y-144070000D01*
X83995000Y-137870000D02*
X77295000Y-137870000D01*
X83995000Y-139770000D02*
X83995000Y-142170000D01*
X77295000Y-139770000D02*
X77295000Y-142170000D01*
X77295000Y-137870000D02*
X77295000Y-138070000D01*
X77295000Y-144070000D02*
X77295000Y-143870000D01*
X83995000Y-144070000D02*
X83995000Y-143870000D01*
X83995000Y-137870000D02*
X83995000Y-138070000D01*
X63325000Y-144070000D02*
X70025000Y-144070000D01*
X70025000Y-137870000D02*
X63325000Y-137870000D01*
X70025000Y-139770000D02*
X70025000Y-142170000D01*
X63325000Y-139770000D02*
X63325000Y-142170000D01*
X63325000Y-137870000D02*
X63325000Y-138070000D01*
X63325000Y-144070000D02*
X63325000Y-143870000D01*
X70025000Y-144070000D02*
X70025000Y-143870000D01*
X70025000Y-137870000D02*
X70025000Y-138070000D01*
X119205000Y-154230000D02*
X125905000Y-154230000D01*
X125905000Y-148030000D02*
X119205000Y-148030000D01*
X125905000Y-149930000D02*
X125905000Y-152330000D01*
X119205000Y-149930000D02*
X119205000Y-152330000D01*
X119205000Y-148030000D02*
X119205000Y-148230000D01*
X119205000Y-154230000D02*
X119205000Y-154030000D01*
X125905000Y-154230000D02*
X125905000Y-154030000D01*
X125905000Y-148030000D02*
X125905000Y-148230000D01*
X105235000Y-154230000D02*
X111935000Y-154230000D01*
X111935000Y-148030000D02*
X105235000Y-148030000D01*
X111935000Y-149930000D02*
X111935000Y-152330000D01*
X105235000Y-149930000D02*
X105235000Y-152330000D01*
X105235000Y-148030000D02*
X105235000Y-148230000D01*
X105235000Y-154230000D02*
X105235000Y-154030000D01*
X111935000Y-154230000D02*
X111935000Y-154030000D01*
X111935000Y-148030000D02*
X111935000Y-148230000D01*
X91265000Y-154230000D02*
X97965000Y-154230000D01*
X97965000Y-148030000D02*
X91265000Y-148030000D01*
X97965000Y-149930000D02*
X97965000Y-152330000D01*
X91265000Y-149930000D02*
X91265000Y-152330000D01*
X91265000Y-148030000D02*
X91265000Y-148230000D01*
X91265000Y-154230000D02*
X91265000Y-154030000D01*
X97965000Y-154230000D02*
X97965000Y-154030000D01*
X97965000Y-148030000D02*
X97965000Y-148230000D01*
X77295000Y-154230000D02*
X83995000Y-154230000D01*
X83995000Y-148030000D02*
X77295000Y-148030000D01*
X83995000Y-149930000D02*
X83995000Y-152330000D01*
X77295000Y-149930000D02*
X77295000Y-152330000D01*
X77295000Y-148030000D02*
X77295000Y-148230000D01*
X77295000Y-154230000D02*
X77295000Y-154030000D01*
X83995000Y-154230000D02*
X83995000Y-154030000D01*
X83995000Y-148030000D02*
X83995000Y-148230000D01*
X63325000Y-154230000D02*
X70025000Y-154230000D01*
X70025000Y-148030000D02*
X63325000Y-148030000D01*
X70025000Y-149930000D02*
X70025000Y-152330000D01*
X63325000Y-149930000D02*
X63325000Y-152330000D01*
X63325000Y-148030000D02*
X63325000Y-148230000D01*
X63325000Y-154230000D02*
X63325000Y-154030000D01*
X70025000Y-154230000D02*
X70025000Y-154030000D01*
X70025000Y-148030000D02*
X70025000Y-148230000D01*
D11*
X121430476Y-82814761D02*
X121573333Y-82862380D01*
X121811428Y-82862380D01*
X121906666Y-82814761D01*
X121954285Y-82767142D01*
X122001904Y-82671904D01*
X122001904Y-82576666D01*
X121954285Y-82481428D01*
X121906666Y-82433809D01*
X121811428Y-82386190D01*
X121620952Y-82338571D01*
X121525714Y-82290952D01*
X121478095Y-82243333D01*
X121430476Y-82148095D01*
X121430476Y-82052857D01*
X121478095Y-81957619D01*
X121525714Y-81910000D01*
X121620952Y-81862380D01*
X121859047Y-81862380D01*
X122001904Y-81910000D01*
X122335238Y-81862380D02*
X122573333Y-82862380D01*
X122763809Y-82148095D01*
X122954285Y-82862380D01*
X123192380Y-81862380D01*
X124001904Y-82195714D02*
X124001904Y-82862380D01*
X123763809Y-81814761D02*
X123525714Y-82529047D01*
X124144761Y-82529047D01*
X124954285Y-82195714D02*
X124954285Y-82862380D01*
X124716190Y-81814761D02*
X124478095Y-82529047D01*
X125097142Y-82529047D01*
X110000476Y-82814761D02*
X110143333Y-82862380D01*
X110381428Y-82862380D01*
X110476666Y-82814761D01*
X110524285Y-82767142D01*
X110571904Y-82671904D01*
X110571904Y-82576666D01*
X110524285Y-82481428D01*
X110476666Y-82433809D01*
X110381428Y-82386190D01*
X110190952Y-82338571D01*
X110095714Y-82290952D01*
X110048095Y-82243333D01*
X110000476Y-82148095D01*
X110000476Y-82052857D01*
X110048095Y-81957619D01*
X110095714Y-81910000D01*
X110190952Y-81862380D01*
X110429047Y-81862380D01*
X110571904Y-81910000D01*
X110905238Y-81862380D02*
X111143333Y-82862380D01*
X111333809Y-82148095D01*
X111524285Y-82862380D01*
X111762380Y-81862380D01*
X112571904Y-82195714D02*
X112571904Y-82862380D01*
X112333809Y-81814761D02*
X112095714Y-82529047D01*
X112714761Y-82529047D01*
X113000476Y-81862380D02*
X113619523Y-81862380D01*
X113286190Y-82243333D01*
X113429047Y-82243333D01*
X113524285Y-82290952D01*
X113571904Y-82338571D01*
X113619523Y-82433809D01*
X113619523Y-82671904D01*
X113571904Y-82767142D01*
X113524285Y-82814761D01*
X113429047Y-82862380D01*
X113143333Y-82862380D01*
X113048095Y-82814761D01*
X113000476Y-82767142D01*
X98570476Y-82814761D02*
X98713333Y-82862380D01*
X98951428Y-82862380D01*
X99046666Y-82814761D01*
X99094285Y-82767142D01*
X99141904Y-82671904D01*
X99141904Y-82576666D01*
X99094285Y-82481428D01*
X99046666Y-82433809D01*
X98951428Y-82386190D01*
X98760952Y-82338571D01*
X98665714Y-82290952D01*
X98618095Y-82243333D01*
X98570476Y-82148095D01*
X98570476Y-82052857D01*
X98618095Y-81957619D01*
X98665714Y-81910000D01*
X98760952Y-81862380D01*
X98999047Y-81862380D01*
X99141904Y-81910000D01*
X99475238Y-81862380D02*
X99713333Y-82862380D01*
X99903809Y-82148095D01*
X100094285Y-82862380D01*
X100332380Y-81862380D01*
X101141904Y-82195714D02*
X101141904Y-82862380D01*
X100903809Y-81814761D02*
X100665714Y-82529047D01*
X101284761Y-82529047D01*
X101618095Y-81957619D02*
X101665714Y-81910000D01*
X101760952Y-81862380D01*
X101999047Y-81862380D01*
X102094285Y-81910000D01*
X102141904Y-81957619D01*
X102189523Y-82052857D01*
X102189523Y-82148095D01*
X102141904Y-82290952D01*
X101570476Y-82862380D01*
X102189523Y-82862380D01*
X87140476Y-82814761D02*
X87283333Y-82862380D01*
X87521428Y-82862380D01*
X87616666Y-82814761D01*
X87664285Y-82767142D01*
X87711904Y-82671904D01*
X87711904Y-82576666D01*
X87664285Y-82481428D01*
X87616666Y-82433809D01*
X87521428Y-82386190D01*
X87330952Y-82338571D01*
X87235714Y-82290952D01*
X87188095Y-82243333D01*
X87140476Y-82148095D01*
X87140476Y-82052857D01*
X87188095Y-81957619D01*
X87235714Y-81910000D01*
X87330952Y-81862380D01*
X87569047Y-81862380D01*
X87711904Y-81910000D01*
X88045238Y-81862380D02*
X88283333Y-82862380D01*
X88473809Y-82148095D01*
X88664285Y-82862380D01*
X88902380Y-81862380D01*
X89711904Y-82195714D02*
X89711904Y-82862380D01*
X89473809Y-81814761D02*
X89235714Y-82529047D01*
X89854761Y-82529047D01*
X90759523Y-82862380D02*
X90188095Y-82862380D01*
X90473809Y-82862380D02*
X90473809Y-81862380D01*
X90378571Y-82005238D01*
X90283333Y-82100476D01*
X90188095Y-82148095D01*
X75710476Y-82814761D02*
X75853333Y-82862380D01*
X76091428Y-82862380D01*
X76186666Y-82814761D01*
X76234285Y-82767142D01*
X76281904Y-82671904D01*
X76281904Y-82576666D01*
X76234285Y-82481428D01*
X76186666Y-82433809D01*
X76091428Y-82386190D01*
X75900952Y-82338571D01*
X75805714Y-82290952D01*
X75758095Y-82243333D01*
X75710476Y-82148095D01*
X75710476Y-82052857D01*
X75758095Y-81957619D01*
X75805714Y-81910000D01*
X75900952Y-81862380D01*
X76139047Y-81862380D01*
X76281904Y-81910000D01*
X76615238Y-81862380D02*
X76853333Y-82862380D01*
X77043809Y-82148095D01*
X77234285Y-82862380D01*
X77472380Y-81862380D01*
X78281904Y-82195714D02*
X78281904Y-82862380D01*
X78043809Y-81814761D02*
X77805714Y-82529047D01*
X78424761Y-82529047D01*
X78996190Y-81862380D02*
X79091428Y-81862380D01*
X79186666Y-81910000D01*
X79234285Y-81957619D01*
X79281904Y-82052857D01*
X79329523Y-82243333D01*
X79329523Y-82481428D01*
X79281904Y-82671904D01*
X79234285Y-82767142D01*
X79186666Y-82814761D01*
X79091428Y-82862380D01*
X78996190Y-82862380D01*
X78900952Y-82814761D01*
X78853333Y-82767142D01*
X78805714Y-82671904D01*
X78758095Y-82481428D01*
X78758095Y-82243333D01*
X78805714Y-82052857D01*
X78853333Y-81957619D01*
X78900952Y-81910000D01*
X78996190Y-81862380D01*
X64280476Y-82814761D02*
X64423333Y-82862380D01*
X64661428Y-82862380D01*
X64756666Y-82814761D01*
X64804285Y-82767142D01*
X64851904Y-82671904D01*
X64851904Y-82576666D01*
X64804285Y-82481428D01*
X64756666Y-82433809D01*
X64661428Y-82386190D01*
X64470952Y-82338571D01*
X64375714Y-82290952D01*
X64328095Y-82243333D01*
X64280476Y-82148095D01*
X64280476Y-82052857D01*
X64328095Y-81957619D01*
X64375714Y-81910000D01*
X64470952Y-81862380D01*
X64709047Y-81862380D01*
X64851904Y-81910000D01*
X65185238Y-81862380D02*
X65423333Y-82862380D01*
X65613809Y-82148095D01*
X65804285Y-82862380D01*
X66042380Y-81862380D01*
X66328095Y-81862380D02*
X66947142Y-81862380D01*
X66613809Y-82243333D01*
X66756666Y-82243333D01*
X66851904Y-82290952D01*
X66899523Y-82338571D01*
X66947142Y-82433809D01*
X66947142Y-82671904D01*
X66899523Y-82767142D01*
X66851904Y-82814761D01*
X66756666Y-82862380D01*
X66470952Y-82862380D01*
X66375714Y-82814761D01*
X66328095Y-82767142D01*
X67423333Y-82862380D02*
X67613809Y-82862380D01*
X67709047Y-82814761D01*
X67756666Y-82767142D01*
X67851904Y-82624285D01*
X67899523Y-82433809D01*
X67899523Y-82052857D01*
X67851904Y-81957619D01*
X67804285Y-81910000D01*
X67709047Y-81862380D01*
X67518571Y-81862380D01*
X67423333Y-81910000D01*
X67375714Y-81957619D01*
X67328095Y-82052857D01*
X67328095Y-82290952D01*
X67375714Y-82386190D01*
X67423333Y-82433809D01*
X67518571Y-82481428D01*
X67709047Y-82481428D01*
X67804285Y-82433809D01*
X67851904Y-82386190D01*
X67899523Y-82290952D01*
X121430476Y-90434761D02*
X121573333Y-90482380D01*
X121811428Y-90482380D01*
X121906666Y-90434761D01*
X121954285Y-90387142D01*
X122001904Y-90291904D01*
X122001904Y-90196666D01*
X121954285Y-90101428D01*
X121906666Y-90053809D01*
X121811428Y-90006190D01*
X121620952Y-89958571D01*
X121525714Y-89910952D01*
X121478095Y-89863333D01*
X121430476Y-89768095D01*
X121430476Y-89672857D01*
X121478095Y-89577619D01*
X121525714Y-89530000D01*
X121620952Y-89482380D01*
X121859047Y-89482380D01*
X122001904Y-89530000D01*
X122335238Y-89482380D02*
X122573333Y-90482380D01*
X122763809Y-89768095D01*
X122954285Y-90482380D01*
X123192380Y-89482380D01*
X123478095Y-89482380D02*
X124097142Y-89482380D01*
X123763809Y-89863333D01*
X123906666Y-89863333D01*
X124001904Y-89910952D01*
X124049523Y-89958571D01*
X124097142Y-90053809D01*
X124097142Y-90291904D01*
X124049523Y-90387142D01*
X124001904Y-90434761D01*
X123906666Y-90482380D01*
X123620952Y-90482380D01*
X123525714Y-90434761D01*
X123478095Y-90387142D01*
X124668571Y-89910952D02*
X124573333Y-89863333D01*
X124525714Y-89815714D01*
X124478095Y-89720476D01*
X124478095Y-89672857D01*
X124525714Y-89577619D01*
X124573333Y-89530000D01*
X124668571Y-89482380D01*
X124859047Y-89482380D01*
X124954285Y-89530000D01*
X125001904Y-89577619D01*
X125049523Y-89672857D01*
X125049523Y-89720476D01*
X125001904Y-89815714D01*
X124954285Y-89863333D01*
X124859047Y-89910952D01*
X124668571Y-89910952D01*
X124573333Y-89958571D01*
X124525714Y-90006190D01*
X124478095Y-90101428D01*
X124478095Y-90291904D01*
X124525714Y-90387142D01*
X124573333Y-90434761D01*
X124668571Y-90482380D01*
X124859047Y-90482380D01*
X124954285Y-90434761D01*
X125001904Y-90387142D01*
X125049523Y-90291904D01*
X125049523Y-90101428D01*
X125001904Y-90006190D01*
X124954285Y-89958571D01*
X124859047Y-89910952D01*
X110000476Y-90434761D02*
X110143333Y-90482380D01*
X110381428Y-90482380D01*
X110476666Y-90434761D01*
X110524285Y-90387142D01*
X110571904Y-90291904D01*
X110571904Y-90196666D01*
X110524285Y-90101428D01*
X110476666Y-90053809D01*
X110381428Y-90006190D01*
X110190952Y-89958571D01*
X110095714Y-89910952D01*
X110048095Y-89863333D01*
X110000476Y-89768095D01*
X110000476Y-89672857D01*
X110048095Y-89577619D01*
X110095714Y-89530000D01*
X110190952Y-89482380D01*
X110429047Y-89482380D01*
X110571904Y-89530000D01*
X110905238Y-89482380D02*
X111143333Y-90482380D01*
X111333809Y-89768095D01*
X111524285Y-90482380D01*
X111762380Y-89482380D01*
X112048095Y-89482380D02*
X112667142Y-89482380D01*
X112333809Y-89863333D01*
X112476666Y-89863333D01*
X112571904Y-89910952D01*
X112619523Y-89958571D01*
X112667142Y-90053809D01*
X112667142Y-90291904D01*
X112619523Y-90387142D01*
X112571904Y-90434761D01*
X112476666Y-90482380D01*
X112190952Y-90482380D01*
X112095714Y-90434761D01*
X112048095Y-90387142D01*
X113000476Y-89482380D02*
X113667142Y-89482380D01*
X113238571Y-90482380D01*
X98570476Y-90434761D02*
X98713333Y-90482380D01*
X98951428Y-90482380D01*
X99046666Y-90434761D01*
X99094285Y-90387142D01*
X99141904Y-90291904D01*
X99141904Y-90196666D01*
X99094285Y-90101428D01*
X99046666Y-90053809D01*
X98951428Y-90006190D01*
X98760952Y-89958571D01*
X98665714Y-89910952D01*
X98618095Y-89863333D01*
X98570476Y-89768095D01*
X98570476Y-89672857D01*
X98618095Y-89577619D01*
X98665714Y-89530000D01*
X98760952Y-89482380D01*
X98999047Y-89482380D01*
X99141904Y-89530000D01*
X99475238Y-89482380D02*
X99713333Y-90482380D01*
X99903809Y-89768095D01*
X100094285Y-90482380D01*
X100332380Y-89482380D01*
X100618095Y-89482380D02*
X101237142Y-89482380D01*
X100903809Y-89863333D01*
X101046666Y-89863333D01*
X101141904Y-89910952D01*
X101189523Y-89958571D01*
X101237142Y-90053809D01*
X101237142Y-90291904D01*
X101189523Y-90387142D01*
X101141904Y-90434761D01*
X101046666Y-90482380D01*
X100760952Y-90482380D01*
X100665714Y-90434761D01*
X100618095Y-90387142D01*
X102094285Y-89482380D02*
X101903809Y-89482380D01*
X101808571Y-89530000D01*
X101760952Y-89577619D01*
X101665714Y-89720476D01*
X101618095Y-89910952D01*
X101618095Y-90291904D01*
X101665714Y-90387142D01*
X101713333Y-90434761D01*
X101808571Y-90482380D01*
X101999047Y-90482380D01*
X102094285Y-90434761D01*
X102141904Y-90387142D01*
X102189523Y-90291904D01*
X102189523Y-90053809D01*
X102141904Y-89958571D01*
X102094285Y-89910952D01*
X101999047Y-89863333D01*
X101808571Y-89863333D01*
X101713333Y-89910952D01*
X101665714Y-89958571D01*
X101618095Y-90053809D01*
X87140476Y-90434761D02*
X87283333Y-90482380D01*
X87521428Y-90482380D01*
X87616666Y-90434761D01*
X87664285Y-90387142D01*
X87711904Y-90291904D01*
X87711904Y-90196666D01*
X87664285Y-90101428D01*
X87616666Y-90053809D01*
X87521428Y-90006190D01*
X87330952Y-89958571D01*
X87235714Y-89910952D01*
X87188095Y-89863333D01*
X87140476Y-89768095D01*
X87140476Y-89672857D01*
X87188095Y-89577619D01*
X87235714Y-89530000D01*
X87330952Y-89482380D01*
X87569047Y-89482380D01*
X87711904Y-89530000D01*
X88045238Y-89482380D02*
X88283333Y-90482380D01*
X88473809Y-89768095D01*
X88664285Y-90482380D01*
X88902380Y-89482380D01*
X89188095Y-89482380D02*
X89807142Y-89482380D01*
X89473809Y-89863333D01*
X89616666Y-89863333D01*
X89711904Y-89910952D01*
X89759523Y-89958571D01*
X89807142Y-90053809D01*
X89807142Y-90291904D01*
X89759523Y-90387142D01*
X89711904Y-90434761D01*
X89616666Y-90482380D01*
X89330952Y-90482380D01*
X89235714Y-90434761D01*
X89188095Y-90387142D01*
X90711904Y-89482380D02*
X90235714Y-89482380D01*
X90188095Y-89958571D01*
X90235714Y-89910952D01*
X90330952Y-89863333D01*
X90569047Y-89863333D01*
X90664285Y-89910952D01*
X90711904Y-89958571D01*
X90759523Y-90053809D01*
X90759523Y-90291904D01*
X90711904Y-90387142D01*
X90664285Y-90434761D01*
X90569047Y-90482380D01*
X90330952Y-90482380D01*
X90235714Y-90434761D01*
X90188095Y-90387142D01*
X75710476Y-90434761D02*
X75853333Y-90482380D01*
X76091428Y-90482380D01*
X76186666Y-90434761D01*
X76234285Y-90387142D01*
X76281904Y-90291904D01*
X76281904Y-90196666D01*
X76234285Y-90101428D01*
X76186666Y-90053809D01*
X76091428Y-90006190D01*
X75900952Y-89958571D01*
X75805714Y-89910952D01*
X75758095Y-89863333D01*
X75710476Y-89768095D01*
X75710476Y-89672857D01*
X75758095Y-89577619D01*
X75805714Y-89530000D01*
X75900952Y-89482380D01*
X76139047Y-89482380D01*
X76281904Y-89530000D01*
X76615238Y-89482380D02*
X76853333Y-90482380D01*
X77043809Y-89768095D01*
X77234285Y-90482380D01*
X77472380Y-89482380D01*
X77758095Y-89482380D02*
X78377142Y-89482380D01*
X78043809Y-89863333D01*
X78186666Y-89863333D01*
X78281904Y-89910952D01*
X78329523Y-89958571D01*
X78377142Y-90053809D01*
X78377142Y-90291904D01*
X78329523Y-90387142D01*
X78281904Y-90434761D01*
X78186666Y-90482380D01*
X77900952Y-90482380D01*
X77805714Y-90434761D01*
X77758095Y-90387142D01*
X79234285Y-89815714D02*
X79234285Y-90482380D01*
X78996190Y-89434761D02*
X78758095Y-90149047D01*
X79377142Y-90149047D01*
X64280476Y-90434761D02*
X64423333Y-90482380D01*
X64661428Y-90482380D01*
X64756666Y-90434761D01*
X64804285Y-90387142D01*
X64851904Y-90291904D01*
X64851904Y-90196666D01*
X64804285Y-90101428D01*
X64756666Y-90053809D01*
X64661428Y-90006190D01*
X64470952Y-89958571D01*
X64375714Y-89910952D01*
X64328095Y-89863333D01*
X64280476Y-89768095D01*
X64280476Y-89672857D01*
X64328095Y-89577619D01*
X64375714Y-89530000D01*
X64470952Y-89482380D01*
X64709047Y-89482380D01*
X64851904Y-89530000D01*
X65185238Y-89482380D02*
X65423333Y-90482380D01*
X65613809Y-89768095D01*
X65804285Y-90482380D01*
X66042380Y-89482380D01*
X66328095Y-89482380D02*
X66947142Y-89482380D01*
X66613809Y-89863333D01*
X66756666Y-89863333D01*
X66851904Y-89910952D01*
X66899523Y-89958571D01*
X66947142Y-90053809D01*
X66947142Y-90291904D01*
X66899523Y-90387142D01*
X66851904Y-90434761D01*
X66756666Y-90482380D01*
X66470952Y-90482380D01*
X66375714Y-90434761D01*
X66328095Y-90387142D01*
X67280476Y-89482380D02*
X67899523Y-89482380D01*
X67566190Y-89863333D01*
X67709047Y-89863333D01*
X67804285Y-89910952D01*
X67851904Y-89958571D01*
X67899523Y-90053809D01*
X67899523Y-90291904D01*
X67851904Y-90387142D01*
X67804285Y-90434761D01*
X67709047Y-90482380D01*
X67423333Y-90482380D01*
X67328095Y-90434761D01*
X67280476Y-90387142D01*
X121430476Y-98054761D02*
X121573333Y-98102380D01*
X121811428Y-98102380D01*
X121906666Y-98054761D01*
X121954285Y-98007142D01*
X122001904Y-97911904D01*
X122001904Y-97816666D01*
X121954285Y-97721428D01*
X121906666Y-97673809D01*
X121811428Y-97626190D01*
X121620952Y-97578571D01*
X121525714Y-97530952D01*
X121478095Y-97483333D01*
X121430476Y-97388095D01*
X121430476Y-97292857D01*
X121478095Y-97197619D01*
X121525714Y-97150000D01*
X121620952Y-97102380D01*
X121859047Y-97102380D01*
X122001904Y-97150000D01*
X122335238Y-97102380D02*
X122573333Y-98102380D01*
X122763809Y-97388095D01*
X122954285Y-98102380D01*
X123192380Y-97102380D01*
X123478095Y-97102380D02*
X124097142Y-97102380D01*
X123763809Y-97483333D01*
X123906666Y-97483333D01*
X124001904Y-97530952D01*
X124049523Y-97578571D01*
X124097142Y-97673809D01*
X124097142Y-97911904D01*
X124049523Y-98007142D01*
X124001904Y-98054761D01*
X123906666Y-98102380D01*
X123620952Y-98102380D01*
X123525714Y-98054761D01*
X123478095Y-98007142D01*
X124478095Y-97197619D02*
X124525714Y-97150000D01*
X124620952Y-97102380D01*
X124859047Y-97102380D01*
X124954285Y-97150000D01*
X125001904Y-97197619D01*
X125049523Y-97292857D01*
X125049523Y-97388095D01*
X125001904Y-97530952D01*
X124430476Y-98102380D01*
X125049523Y-98102380D01*
X110000476Y-98054761D02*
X110143333Y-98102380D01*
X110381428Y-98102380D01*
X110476666Y-98054761D01*
X110524285Y-98007142D01*
X110571904Y-97911904D01*
X110571904Y-97816666D01*
X110524285Y-97721428D01*
X110476666Y-97673809D01*
X110381428Y-97626190D01*
X110190952Y-97578571D01*
X110095714Y-97530952D01*
X110048095Y-97483333D01*
X110000476Y-97388095D01*
X110000476Y-97292857D01*
X110048095Y-97197619D01*
X110095714Y-97150000D01*
X110190952Y-97102380D01*
X110429047Y-97102380D01*
X110571904Y-97150000D01*
X110905238Y-97102380D02*
X111143333Y-98102380D01*
X111333809Y-97388095D01*
X111524285Y-98102380D01*
X111762380Y-97102380D01*
X112048095Y-97102380D02*
X112667142Y-97102380D01*
X112333809Y-97483333D01*
X112476666Y-97483333D01*
X112571904Y-97530952D01*
X112619523Y-97578571D01*
X112667142Y-97673809D01*
X112667142Y-97911904D01*
X112619523Y-98007142D01*
X112571904Y-98054761D01*
X112476666Y-98102380D01*
X112190952Y-98102380D01*
X112095714Y-98054761D01*
X112048095Y-98007142D01*
X113619523Y-98102380D02*
X113048095Y-98102380D01*
X113333809Y-98102380D02*
X113333809Y-97102380D01*
X113238571Y-97245238D01*
X113143333Y-97340476D01*
X113048095Y-97388095D01*
X98570476Y-98054761D02*
X98713333Y-98102380D01*
X98951428Y-98102380D01*
X99046666Y-98054761D01*
X99094285Y-98007142D01*
X99141904Y-97911904D01*
X99141904Y-97816666D01*
X99094285Y-97721428D01*
X99046666Y-97673809D01*
X98951428Y-97626190D01*
X98760952Y-97578571D01*
X98665714Y-97530952D01*
X98618095Y-97483333D01*
X98570476Y-97388095D01*
X98570476Y-97292857D01*
X98618095Y-97197619D01*
X98665714Y-97150000D01*
X98760952Y-97102380D01*
X98999047Y-97102380D01*
X99141904Y-97150000D01*
X99475238Y-97102380D02*
X99713333Y-98102380D01*
X99903809Y-97388095D01*
X100094285Y-98102380D01*
X100332380Y-97102380D01*
X100618095Y-97102380D02*
X101237142Y-97102380D01*
X100903809Y-97483333D01*
X101046666Y-97483333D01*
X101141904Y-97530952D01*
X101189523Y-97578571D01*
X101237142Y-97673809D01*
X101237142Y-97911904D01*
X101189523Y-98007142D01*
X101141904Y-98054761D01*
X101046666Y-98102380D01*
X100760952Y-98102380D01*
X100665714Y-98054761D01*
X100618095Y-98007142D01*
X101856190Y-97102380D02*
X101951428Y-97102380D01*
X102046666Y-97150000D01*
X102094285Y-97197619D01*
X102141904Y-97292857D01*
X102189523Y-97483333D01*
X102189523Y-97721428D01*
X102141904Y-97911904D01*
X102094285Y-98007142D01*
X102046666Y-98054761D01*
X101951428Y-98102380D01*
X101856190Y-98102380D01*
X101760952Y-98054761D01*
X101713333Y-98007142D01*
X101665714Y-97911904D01*
X101618095Y-97721428D01*
X101618095Y-97483333D01*
X101665714Y-97292857D01*
X101713333Y-97197619D01*
X101760952Y-97150000D01*
X101856190Y-97102380D01*
X87140476Y-98054761D02*
X87283333Y-98102380D01*
X87521428Y-98102380D01*
X87616666Y-98054761D01*
X87664285Y-98007142D01*
X87711904Y-97911904D01*
X87711904Y-97816666D01*
X87664285Y-97721428D01*
X87616666Y-97673809D01*
X87521428Y-97626190D01*
X87330952Y-97578571D01*
X87235714Y-97530952D01*
X87188095Y-97483333D01*
X87140476Y-97388095D01*
X87140476Y-97292857D01*
X87188095Y-97197619D01*
X87235714Y-97150000D01*
X87330952Y-97102380D01*
X87569047Y-97102380D01*
X87711904Y-97150000D01*
X88045238Y-97102380D02*
X88283333Y-98102380D01*
X88473809Y-97388095D01*
X88664285Y-98102380D01*
X88902380Y-97102380D01*
X89235714Y-97197619D02*
X89283333Y-97150000D01*
X89378571Y-97102380D01*
X89616666Y-97102380D01*
X89711904Y-97150000D01*
X89759523Y-97197619D01*
X89807142Y-97292857D01*
X89807142Y-97388095D01*
X89759523Y-97530952D01*
X89188095Y-98102380D01*
X89807142Y-98102380D01*
X90283333Y-98102380D02*
X90473809Y-98102380D01*
X90569047Y-98054761D01*
X90616666Y-98007142D01*
X90711904Y-97864285D01*
X90759523Y-97673809D01*
X90759523Y-97292857D01*
X90711904Y-97197619D01*
X90664285Y-97150000D01*
X90569047Y-97102380D01*
X90378571Y-97102380D01*
X90283333Y-97150000D01*
X90235714Y-97197619D01*
X90188095Y-97292857D01*
X90188095Y-97530952D01*
X90235714Y-97626190D01*
X90283333Y-97673809D01*
X90378571Y-97721428D01*
X90569047Y-97721428D01*
X90664285Y-97673809D01*
X90711904Y-97626190D01*
X90759523Y-97530952D01*
X75710476Y-98054761D02*
X75853333Y-98102380D01*
X76091428Y-98102380D01*
X76186666Y-98054761D01*
X76234285Y-98007142D01*
X76281904Y-97911904D01*
X76281904Y-97816666D01*
X76234285Y-97721428D01*
X76186666Y-97673809D01*
X76091428Y-97626190D01*
X75900952Y-97578571D01*
X75805714Y-97530952D01*
X75758095Y-97483333D01*
X75710476Y-97388095D01*
X75710476Y-97292857D01*
X75758095Y-97197619D01*
X75805714Y-97150000D01*
X75900952Y-97102380D01*
X76139047Y-97102380D01*
X76281904Y-97150000D01*
X76615238Y-97102380D02*
X76853333Y-98102380D01*
X77043809Y-97388095D01*
X77234285Y-98102380D01*
X77472380Y-97102380D01*
X77805714Y-97197619D02*
X77853333Y-97150000D01*
X77948571Y-97102380D01*
X78186666Y-97102380D01*
X78281904Y-97150000D01*
X78329523Y-97197619D01*
X78377142Y-97292857D01*
X78377142Y-97388095D01*
X78329523Y-97530952D01*
X77758095Y-98102380D01*
X78377142Y-98102380D01*
X78948571Y-97530952D02*
X78853333Y-97483333D01*
X78805714Y-97435714D01*
X78758095Y-97340476D01*
X78758095Y-97292857D01*
X78805714Y-97197619D01*
X78853333Y-97150000D01*
X78948571Y-97102380D01*
X79139047Y-97102380D01*
X79234285Y-97150000D01*
X79281904Y-97197619D01*
X79329523Y-97292857D01*
X79329523Y-97340476D01*
X79281904Y-97435714D01*
X79234285Y-97483333D01*
X79139047Y-97530952D01*
X78948571Y-97530952D01*
X78853333Y-97578571D01*
X78805714Y-97626190D01*
X78758095Y-97721428D01*
X78758095Y-97911904D01*
X78805714Y-98007142D01*
X78853333Y-98054761D01*
X78948571Y-98102380D01*
X79139047Y-98102380D01*
X79234285Y-98054761D01*
X79281904Y-98007142D01*
X79329523Y-97911904D01*
X79329523Y-97721428D01*
X79281904Y-97626190D01*
X79234285Y-97578571D01*
X79139047Y-97530952D01*
X64280476Y-98054761D02*
X64423333Y-98102380D01*
X64661428Y-98102380D01*
X64756666Y-98054761D01*
X64804285Y-98007142D01*
X64851904Y-97911904D01*
X64851904Y-97816666D01*
X64804285Y-97721428D01*
X64756666Y-97673809D01*
X64661428Y-97626190D01*
X64470952Y-97578571D01*
X64375714Y-97530952D01*
X64328095Y-97483333D01*
X64280476Y-97388095D01*
X64280476Y-97292857D01*
X64328095Y-97197619D01*
X64375714Y-97150000D01*
X64470952Y-97102380D01*
X64709047Y-97102380D01*
X64851904Y-97150000D01*
X65185238Y-97102380D02*
X65423333Y-98102380D01*
X65613809Y-97388095D01*
X65804285Y-98102380D01*
X66042380Y-97102380D01*
X66375714Y-97197619D02*
X66423333Y-97150000D01*
X66518571Y-97102380D01*
X66756666Y-97102380D01*
X66851904Y-97150000D01*
X66899523Y-97197619D01*
X66947142Y-97292857D01*
X66947142Y-97388095D01*
X66899523Y-97530952D01*
X66328095Y-98102380D01*
X66947142Y-98102380D01*
X67280476Y-97102380D02*
X67947142Y-97102380D01*
X67518571Y-98102380D01*
X121430476Y-105674761D02*
X121573333Y-105722380D01*
X121811428Y-105722380D01*
X121906666Y-105674761D01*
X121954285Y-105627142D01*
X122001904Y-105531904D01*
X122001904Y-105436666D01*
X121954285Y-105341428D01*
X121906666Y-105293809D01*
X121811428Y-105246190D01*
X121620952Y-105198571D01*
X121525714Y-105150952D01*
X121478095Y-105103333D01*
X121430476Y-105008095D01*
X121430476Y-104912857D01*
X121478095Y-104817619D01*
X121525714Y-104770000D01*
X121620952Y-104722380D01*
X121859047Y-104722380D01*
X122001904Y-104770000D01*
X122335238Y-104722380D02*
X122573333Y-105722380D01*
X122763809Y-105008095D01*
X122954285Y-105722380D01*
X123192380Y-104722380D01*
X123525714Y-104817619D02*
X123573333Y-104770000D01*
X123668571Y-104722380D01*
X123906666Y-104722380D01*
X124001904Y-104770000D01*
X124049523Y-104817619D01*
X124097142Y-104912857D01*
X124097142Y-105008095D01*
X124049523Y-105150952D01*
X123478095Y-105722380D01*
X124097142Y-105722380D01*
X124954285Y-104722380D02*
X124763809Y-104722380D01*
X124668571Y-104770000D01*
X124620952Y-104817619D01*
X124525714Y-104960476D01*
X124478095Y-105150952D01*
X124478095Y-105531904D01*
X124525714Y-105627142D01*
X124573333Y-105674761D01*
X124668571Y-105722380D01*
X124859047Y-105722380D01*
X124954285Y-105674761D01*
X125001904Y-105627142D01*
X125049523Y-105531904D01*
X125049523Y-105293809D01*
X125001904Y-105198571D01*
X124954285Y-105150952D01*
X124859047Y-105103333D01*
X124668571Y-105103333D01*
X124573333Y-105150952D01*
X124525714Y-105198571D01*
X124478095Y-105293809D01*
X110000476Y-105674761D02*
X110143333Y-105722380D01*
X110381428Y-105722380D01*
X110476666Y-105674761D01*
X110524285Y-105627142D01*
X110571904Y-105531904D01*
X110571904Y-105436666D01*
X110524285Y-105341428D01*
X110476666Y-105293809D01*
X110381428Y-105246190D01*
X110190952Y-105198571D01*
X110095714Y-105150952D01*
X110048095Y-105103333D01*
X110000476Y-105008095D01*
X110000476Y-104912857D01*
X110048095Y-104817619D01*
X110095714Y-104770000D01*
X110190952Y-104722380D01*
X110429047Y-104722380D01*
X110571904Y-104770000D01*
X110905238Y-104722380D02*
X111143333Y-105722380D01*
X111333809Y-105008095D01*
X111524285Y-105722380D01*
X111762380Y-104722380D01*
X112095714Y-104817619D02*
X112143333Y-104770000D01*
X112238571Y-104722380D01*
X112476666Y-104722380D01*
X112571904Y-104770000D01*
X112619523Y-104817619D01*
X112667142Y-104912857D01*
X112667142Y-105008095D01*
X112619523Y-105150952D01*
X112048095Y-105722380D01*
X112667142Y-105722380D01*
X113571904Y-104722380D02*
X113095714Y-104722380D01*
X113048095Y-105198571D01*
X113095714Y-105150952D01*
X113190952Y-105103333D01*
X113429047Y-105103333D01*
X113524285Y-105150952D01*
X113571904Y-105198571D01*
X113619523Y-105293809D01*
X113619523Y-105531904D01*
X113571904Y-105627142D01*
X113524285Y-105674761D01*
X113429047Y-105722380D01*
X113190952Y-105722380D01*
X113095714Y-105674761D01*
X113048095Y-105627142D01*
X98570476Y-105674761D02*
X98713333Y-105722380D01*
X98951428Y-105722380D01*
X99046666Y-105674761D01*
X99094285Y-105627142D01*
X99141904Y-105531904D01*
X99141904Y-105436666D01*
X99094285Y-105341428D01*
X99046666Y-105293809D01*
X98951428Y-105246190D01*
X98760952Y-105198571D01*
X98665714Y-105150952D01*
X98618095Y-105103333D01*
X98570476Y-105008095D01*
X98570476Y-104912857D01*
X98618095Y-104817619D01*
X98665714Y-104770000D01*
X98760952Y-104722380D01*
X98999047Y-104722380D01*
X99141904Y-104770000D01*
X99475238Y-104722380D02*
X99713333Y-105722380D01*
X99903809Y-105008095D01*
X100094285Y-105722380D01*
X100332380Y-104722380D01*
X100665714Y-104817619D02*
X100713333Y-104770000D01*
X100808571Y-104722380D01*
X101046666Y-104722380D01*
X101141904Y-104770000D01*
X101189523Y-104817619D01*
X101237142Y-104912857D01*
X101237142Y-105008095D01*
X101189523Y-105150952D01*
X100618095Y-105722380D01*
X101237142Y-105722380D01*
X102094285Y-105055714D02*
X102094285Y-105722380D01*
X101856190Y-104674761D02*
X101618095Y-105389047D01*
X102237142Y-105389047D01*
X87140476Y-105674761D02*
X87283333Y-105722380D01*
X87521428Y-105722380D01*
X87616666Y-105674761D01*
X87664285Y-105627142D01*
X87711904Y-105531904D01*
X87711904Y-105436666D01*
X87664285Y-105341428D01*
X87616666Y-105293809D01*
X87521428Y-105246190D01*
X87330952Y-105198571D01*
X87235714Y-105150952D01*
X87188095Y-105103333D01*
X87140476Y-105008095D01*
X87140476Y-104912857D01*
X87188095Y-104817619D01*
X87235714Y-104770000D01*
X87330952Y-104722380D01*
X87569047Y-104722380D01*
X87711904Y-104770000D01*
X88045238Y-104722380D02*
X88283333Y-105722380D01*
X88473809Y-105008095D01*
X88664285Y-105722380D01*
X88902380Y-104722380D01*
X89235714Y-104817619D02*
X89283333Y-104770000D01*
X89378571Y-104722380D01*
X89616666Y-104722380D01*
X89711904Y-104770000D01*
X89759523Y-104817619D01*
X89807142Y-104912857D01*
X89807142Y-105008095D01*
X89759523Y-105150952D01*
X89188095Y-105722380D01*
X89807142Y-105722380D01*
X90140476Y-104722380D02*
X90759523Y-104722380D01*
X90426190Y-105103333D01*
X90569047Y-105103333D01*
X90664285Y-105150952D01*
X90711904Y-105198571D01*
X90759523Y-105293809D01*
X90759523Y-105531904D01*
X90711904Y-105627142D01*
X90664285Y-105674761D01*
X90569047Y-105722380D01*
X90283333Y-105722380D01*
X90188095Y-105674761D01*
X90140476Y-105627142D01*
X75710476Y-105674761D02*
X75853333Y-105722380D01*
X76091428Y-105722380D01*
X76186666Y-105674761D01*
X76234285Y-105627142D01*
X76281904Y-105531904D01*
X76281904Y-105436666D01*
X76234285Y-105341428D01*
X76186666Y-105293809D01*
X76091428Y-105246190D01*
X75900952Y-105198571D01*
X75805714Y-105150952D01*
X75758095Y-105103333D01*
X75710476Y-105008095D01*
X75710476Y-104912857D01*
X75758095Y-104817619D01*
X75805714Y-104770000D01*
X75900952Y-104722380D01*
X76139047Y-104722380D01*
X76281904Y-104770000D01*
X76615238Y-104722380D02*
X76853333Y-105722380D01*
X77043809Y-105008095D01*
X77234285Y-105722380D01*
X77472380Y-104722380D01*
X77805714Y-104817619D02*
X77853333Y-104770000D01*
X77948571Y-104722380D01*
X78186666Y-104722380D01*
X78281904Y-104770000D01*
X78329523Y-104817619D01*
X78377142Y-104912857D01*
X78377142Y-105008095D01*
X78329523Y-105150952D01*
X77758095Y-105722380D01*
X78377142Y-105722380D01*
X78758095Y-104817619D02*
X78805714Y-104770000D01*
X78900952Y-104722380D01*
X79139047Y-104722380D01*
X79234285Y-104770000D01*
X79281904Y-104817619D01*
X79329523Y-104912857D01*
X79329523Y-105008095D01*
X79281904Y-105150952D01*
X78710476Y-105722380D01*
X79329523Y-105722380D01*
X64280476Y-105674761D02*
X64423333Y-105722380D01*
X64661428Y-105722380D01*
X64756666Y-105674761D01*
X64804285Y-105627142D01*
X64851904Y-105531904D01*
X64851904Y-105436666D01*
X64804285Y-105341428D01*
X64756666Y-105293809D01*
X64661428Y-105246190D01*
X64470952Y-105198571D01*
X64375714Y-105150952D01*
X64328095Y-105103333D01*
X64280476Y-105008095D01*
X64280476Y-104912857D01*
X64328095Y-104817619D01*
X64375714Y-104770000D01*
X64470952Y-104722380D01*
X64709047Y-104722380D01*
X64851904Y-104770000D01*
X65185238Y-104722380D02*
X65423333Y-105722380D01*
X65613809Y-105008095D01*
X65804285Y-105722380D01*
X66042380Y-104722380D01*
X66375714Y-104817619D02*
X66423333Y-104770000D01*
X66518571Y-104722380D01*
X66756666Y-104722380D01*
X66851904Y-104770000D01*
X66899523Y-104817619D01*
X66947142Y-104912857D01*
X66947142Y-105008095D01*
X66899523Y-105150952D01*
X66328095Y-105722380D01*
X66947142Y-105722380D01*
X67899523Y-105722380D02*
X67328095Y-105722380D01*
X67613809Y-105722380D02*
X67613809Y-104722380D01*
X67518571Y-104865238D01*
X67423333Y-104960476D01*
X67328095Y-105008095D01*
X120795476Y-117104761D02*
X120938333Y-117152380D01*
X121176428Y-117152380D01*
X121271666Y-117104761D01*
X121319285Y-117057142D01*
X121366904Y-116961904D01*
X121366904Y-116866666D01*
X121319285Y-116771428D01*
X121271666Y-116723809D01*
X121176428Y-116676190D01*
X120985952Y-116628571D01*
X120890714Y-116580952D01*
X120843095Y-116533333D01*
X120795476Y-116438095D01*
X120795476Y-116342857D01*
X120843095Y-116247619D01*
X120890714Y-116200000D01*
X120985952Y-116152380D01*
X121224047Y-116152380D01*
X121366904Y-116200000D01*
X121700238Y-116152380D02*
X121938333Y-117152380D01*
X122128809Y-116438095D01*
X122319285Y-117152380D01*
X122557380Y-116152380D01*
X122890714Y-116247619D02*
X122938333Y-116200000D01*
X123033571Y-116152380D01*
X123271666Y-116152380D01*
X123366904Y-116200000D01*
X123414523Y-116247619D01*
X123462142Y-116342857D01*
X123462142Y-116438095D01*
X123414523Y-116580952D01*
X122843095Y-117152380D01*
X123462142Y-117152380D01*
X124081190Y-116152380D02*
X124176428Y-116152380D01*
X124271666Y-116200000D01*
X124319285Y-116247619D01*
X124366904Y-116342857D01*
X124414523Y-116533333D01*
X124414523Y-116771428D01*
X124366904Y-116961904D01*
X124319285Y-117057142D01*
X124271666Y-117104761D01*
X124176428Y-117152380D01*
X124081190Y-117152380D01*
X123985952Y-117104761D01*
X123938333Y-117057142D01*
X123890714Y-116961904D01*
X123843095Y-116771428D01*
X123843095Y-116533333D01*
X123890714Y-116342857D01*
X123938333Y-116247619D01*
X123985952Y-116200000D01*
X124081190Y-116152380D01*
X106825476Y-117104761D02*
X106968333Y-117152380D01*
X107206428Y-117152380D01*
X107301666Y-117104761D01*
X107349285Y-117057142D01*
X107396904Y-116961904D01*
X107396904Y-116866666D01*
X107349285Y-116771428D01*
X107301666Y-116723809D01*
X107206428Y-116676190D01*
X107015952Y-116628571D01*
X106920714Y-116580952D01*
X106873095Y-116533333D01*
X106825476Y-116438095D01*
X106825476Y-116342857D01*
X106873095Y-116247619D01*
X106920714Y-116200000D01*
X107015952Y-116152380D01*
X107254047Y-116152380D01*
X107396904Y-116200000D01*
X107730238Y-116152380D02*
X107968333Y-117152380D01*
X108158809Y-116438095D01*
X108349285Y-117152380D01*
X108587380Y-116152380D01*
X109492142Y-117152380D02*
X108920714Y-117152380D01*
X109206428Y-117152380D02*
X109206428Y-116152380D01*
X109111190Y-116295238D01*
X109015952Y-116390476D01*
X108920714Y-116438095D01*
X109968333Y-117152380D02*
X110158809Y-117152380D01*
X110254047Y-117104761D01*
X110301666Y-117057142D01*
X110396904Y-116914285D01*
X110444523Y-116723809D01*
X110444523Y-116342857D01*
X110396904Y-116247619D01*
X110349285Y-116200000D01*
X110254047Y-116152380D01*
X110063571Y-116152380D01*
X109968333Y-116200000D01*
X109920714Y-116247619D01*
X109873095Y-116342857D01*
X109873095Y-116580952D01*
X109920714Y-116676190D01*
X109968333Y-116723809D01*
X110063571Y-116771428D01*
X110254047Y-116771428D01*
X110349285Y-116723809D01*
X110396904Y-116676190D01*
X110444523Y-116580952D01*
X92855476Y-117104761D02*
X92998333Y-117152380D01*
X93236428Y-117152380D01*
X93331666Y-117104761D01*
X93379285Y-117057142D01*
X93426904Y-116961904D01*
X93426904Y-116866666D01*
X93379285Y-116771428D01*
X93331666Y-116723809D01*
X93236428Y-116676190D01*
X93045952Y-116628571D01*
X92950714Y-116580952D01*
X92903095Y-116533333D01*
X92855476Y-116438095D01*
X92855476Y-116342857D01*
X92903095Y-116247619D01*
X92950714Y-116200000D01*
X93045952Y-116152380D01*
X93284047Y-116152380D01*
X93426904Y-116200000D01*
X93760238Y-116152380D02*
X93998333Y-117152380D01*
X94188809Y-116438095D01*
X94379285Y-117152380D01*
X94617380Y-116152380D01*
X95522142Y-117152380D02*
X94950714Y-117152380D01*
X95236428Y-117152380D02*
X95236428Y-116152380D01*
X95141190Y-116295238D01*
X95045952Y-116390476D01*
X94950714Y-116438095D01*
X96093571Y-116580952D02*
X95998333Y-116533333D01*
X95950714Y-116485714D01*
X95903095Y-116390476D01*
X95903095Y-116342857D01*
X95950714Y-116247619D01*
X95998333Y-116200000D01*
X96093571Y-116152380D01*
X96284047Y-116152380D01*
X96379285Y-116200000D01*
X96426904Y-116247619D01*
X96474523Y-116342857D01*
X96474523Y-116390476D01*
X96426904Y-116485714D01*
X96379285Y-116533333D01*
X96284047Y-116580952D01*
X96093571Y-116580952D01*
X95998333Y-116628571D01*
X95950714Y-116676190D01*
X95903095Y-116771428D01*
X95903095Y-116961904D01*
X95950714Y-117057142D01*
X95998333Y-117104761D01*
X96093571Y-117152380D01*
X96284047Y-117152380D01*
X96379285Y-117104761D01*
X96426904Y-117057142D01*
X96474523Y-116961904D01*
X96474523Y-116771428D01*
X96426904Y-116676190D01*
X96379285Y-116628571D01*
X96284047Y-116580952D01*
X78885476Y-117104761D02*
X79028333Y-117152380D01*
X79266428Y-117152380D01*
X79361666Y-117104761D01*
X79409285Y-117057142D01*
X79456904Y-116961904D01*
X79456904Y-116866666D01*
X79409285Y-116771428D01*
X79361666Y-116723809D01*
X79266428Y-116676190D01*
X79075952Y-116628571D01*
X78980714Y-116580952D01*
X78933095Y-116533333D01*
X78885476Y-116438095D01*
X78885476Y-116342857D01*
X78933095Y-116247619D01*
X78980714Y-116200000D01*
X79075952Y-116152380D01*
X79314047Y-116152380D01*
X79456904Y-116200000D01*
X79790238Y-116152380D02*
X80028333Y-117152380D01*
X80218809Y-116438095D01*
X80409285Y-117152380D01*
X80647380Y-116152380D01*
X81552142Y-117152380D02*
X80980714Y-117152380D01*
X81266428Y-117152380D02*
X81266428Y-116152380D01*
X81171190Y-116295238D01*
X81075952Y-116390476D01*
X80980714Y-116438095D01*
X81885476Y-116152380D02*
X82552142Y-116152380D01*
X82123571Y-117152380D01*
X64915476Y-117104761D02*
X65058333Y-117152380D01*
X65296428Y-117152380D01*
X65391666Y-117104761D01*
X65439285Y-117057142D01*
X65486904Y-116961904D01*
X65486904Y-116866666D01*
X65439285Y-116771428D01*
X65391666Y-116723809D01*
X65296428Y-116676190D01*
X65105952Y-116628571D01*
X65010714Y-116580952D01*
X64963095Y-116533333D01*
X64915476Y-116438095D01*
X64915476Y-116342857D01*
X64963095Y-116247619D01*
X65010714Y-116200000D01*
X65105952Y-116152380D01*
X65344047Y-116152380D01*
X65486904Y-116200000D01*
X65820238Y-116152380D02*
X66058333Y-117152380D01*
X66248809Y-116438095D01*
X66439285Y-117152380D01*
X66677380Y-116152380D01*
X67582142Y-117152380D02*
X67010714Y-117152380D01*
X67296428Y-117152380D02*
X67296428Y-116152380D01*
X67201190Y-116295238D01*
X67105952Y-116390476D01*
X67010714Y-116438095D01*
X68439285Y-116152380D02*
X68248809Y-116152380D01*
X68153571Y-116200000D01*
X68105952Y-116247619D01*
X68010714Y-116390476D01*
X67963095Y-116580952D01*
X67963095Y-116961904D01*
X68010714Y-117057142D01*
X68058333Y-117104761D01*
X68153571Y-117152380D01*
X68344047Y-117152380D01*
X68439285Y-117104761D01*
X68486904Y-117057142D01*
X68534523Y-116961904D01*
X68534523Y-116723809D01*
X68486904Y-116628571D01*
X68439285Y-116580952D01*
X68344047Y-116533333D01*
X68153571Y-116533333D01*
X68058333Y-116580952D01*
X68010714Y-116628571D01*
X67963095Y-116723809D01*
X120795476Y-127264761D02*
X120938333Y-127312380D01*
X121176428Y-127312380D01*
X121271666Y-127264761D01*
X121319285Y-127217142D01*
X121366904Y-127121904D01*
X121366904Y-127026666D01*
X121319285Y-126931428D01*
X121271666Y-126883809D01*
X121176428Y-126836190D01*
X120985952Y-126788571D01*
X120890714Y-126740952D01*
X120843095Y-126693333D01*
X120795476Y-126598095D01*
X120795476Y-126502857D01*
X120843095Y-126407619D01*
X120890714Y-126360000D01*
X120985952Y-126312380D01*
X121224047Y-126312380D01*
X121366904Y-126360000D01*
X121700238Y-126312380D02*
X121938333Y-127312380D01*
X122128809Y-126598095D01*
X122319285Y-127312380D01*
X122557380Y-126312380D01*
X123462142Y-127312380D02*
X122890714Y-127312380D01*
X123176428Y-127312380D02*
X123176428Y-126312380D01*
X123081190Y-126455238D01*
X122985952Y-126550476D01*
X122890714Y-126598095D01*
X124366904Y-126312380D02*
X123890714Y-126312380D01*
X123843095Y-126788571D01*
X123890714Y-126740952D01*
X123985952Y-126693333D01*
X124224047Y-126693333D01*
X124319285Y-126740952D01*
X124366904Y-126788571D01*
X124414523Y-126883809D01*
X124414523Y-127121904D01*
X124366904Y-127217142D01*
X124319285Y-127264761D01*
X124224047Y-127312380D01*
X123985952Y-127312380D01*
X123890714Y-127264761D01*
X123843095Y-127217142D01*
X106825476Y-127264761D02*
X106968333Y-127312380D01*
X107206428Y-127312380D01*
X107301666Y-127264761D01*
X107349285Y-127217142D01*
X107396904Y-127121904D01*
X107396904Y-127026666D01*
X107349285Y-126931428D01*
X107301666Y-126883809D01*
X107206428Y-126836190D01*
X107015952Y-126788571D01*
X106920714Y-126740952D01*
X106873095Y-126693333D01*
X106825476Y-126598095D01*
X106825476Y-126502857D01*
X106873095Y-126407619D01*
X106920714Y-126360000D01*
X107015952Y-126312380D01*
X107254047Y-126312380D01*
X107396904Y-126360000D01*
X107730238Y-126312380D02*
X107968333Y-127312380D01*
X108158809Y-126598095D01*
X108349285Y-127312380D01*
X108587380Y-126312380D01*
X109492142Y-127312380D02*
X108920714Y-127312380D01*
X109206428Y-127312380D02*
X109206428Y-126312380D01*
X109111190Y-126455238D01*
X109015952Y-126550476D01*
X108920714Y-126598095D01*
X110349285Y-126645714D02*
X110349285Y-127312380D01*
X110111190Y-126264761D02*
X109873095Y-126979047D01*
X110492142Y-126979047D01*
X92855476Y-127264761D02*
X92998333Y-127312380D01*
X93236428Y-127312380D01*
X93331666Y-127264761D01*
X93379285Y-127217142D01*
X93426904Y-127121904D01*
X93426904Y-127026666D01*
X93379285Y-126931428D01*
X93331666Y-126883809D01*
X93236428Y-126836190D01*
X93045952Y-126788571D01*
X92950714Y-126740952D01*
X92903095Y-126693333D01*
X92855476Y-126598095D01*
X92855476Y-126502857D01*
X92903095Y-126407619D01*
X92950714Y-126360000D01*
X93045952Y-126312380D01*
X93284047Y-126312380D01*
X93426904Y-126360000D01*
X93760238Y-126312380D02*
X93998333Y-127312380D01*
X94188809Y-126598095D01*
X94379285Y-127312380D01*
X94617380Y-126312380D01*
X95522142Y-127312380D02*
X94950714Y-127312380D01*
X95236428Y-127312380D02*
X95236428Y-126312380D01*
X95141190Y-126455238D01*
X95045952Y-126550476D01*
X94950714Y-126598095D01*
X95855476Y-126312380D02*
X96474523Y-126312380D01*
X96141190Y-126693333D01*
X96284047Y-126693333D01*
X96379285Y-126740952D01*
X96426904Y-126788571D01*
X96474523Y-126883809D01*
X96474523Y-127121904D01*
X96426904Y-127217142D01*
X96379285Y-127264761D01*
X96284047Y-127312380D01*
X95998333Y-127312380D01*
X95903095Y-127264761D01*
X95855476Y-127217142D01*
X78885476Y-127264761D02*
X79028333Y-127312380D01*
X79266428Y-127312380D01*
X79361666Y-127264761D01*
X79409285Y-127217142D01*
X79456904Y-127121904D01*
X79456904Y-127026666D01*
X79409285Y-126931428D01*
X79361666Y-126883809D01*
X79266428Y-126836190D01*
X79075952Y-126788571D01*
X78980714Y-126740952D01*
X78933095Y-126693333D01*
X78885476Y-126598095D01*
X78885476Y-126502857D01*
X78933095Y-126407619D01*
X78980714Y-126360000D01*
X79075952Y-126312380D01*
X79314047Y-126312380D01*
X79456904Y-126360000D01*
X79790238Y-126312380D02*
X80028333Y-127312380D01*
X80218809Y-126598095D01*
X80409285Y-127312380D01*
X80647380Y-126312380D01*
X81552142Y-127312380D02*
X80980714Y-127312380D01*
X81266428Y-127312380D02*
X81266428Y-126312380D01*
X81171190Y-126455238D01*
X81075952Y-126550476D01*
X80980714Y-126598095D01*
X81933095Y-126407619D02*
X81980714Y-126360000D01*
X82075952Y-126312380D01*
X82314047Y-126312380D01*
X82409285Y-126360000D01*
X82456904Y-126407619D01*
X82504523Y-126502857D01*
X82504523Y-126598095D01*
X82456904Y-126740952D01*
X81885476Y-127312380D01*
X82504523Y-127312380D01*
X64915476Y-127264761D02*
X65058333Y-127312380D01*
X65296428Y-127312380D01*
X65391666Y-127264761D01*
X65439285Y-127217142D01*
X65486904Y-127121904D01*
X65486904Y-127026666D01*
X65439285Y-126931428D01*
X65391666Y-126883809D01*
X65296428Y-126836190D01*
X65105952Y-126788571D01*
X65010714Y-126740952D01*
X64963095Y-126693333D01*
X64915476Y-126598095D01*
X64915476Y-126502857D01*
X64963095Y-126407619D01*
X65010714Y-126360000D01*
X65105952Y-126312380D01*
X65344047Y-126312380D01*
X65486904Y-126360000D01*
X65820238Y-126312380D02*
X66058333Y-127312380D01*
X66248809Y-126598095D01*
X66439285Y-127312380D01*
X66677380Y-126312380D01*
X67582142Y-127312380D02*
X67010714Y-127312380D01*
X67296428Y-127312380D02*
X67296428Y-126312380D01*
X67201190Y-126455238D01*
X67105952Y-126550476D01*
X67010714Y-126598095D01*
X68534523Y-127312380D02*
X67963095Y-127312380D01*
X68248809Y-127312380D02*
X68248809Y-126312380D01*
X68153571Y-126455238D01*
X68058333Y-126550476D01*
X67963095Y-126598095D01*
X120795476Y-137424761D02*
X120938333Y-137472380D01*
X121176428Y-137472380D01*
X121271666Y-137424761D01*
X121319285Y-137377142D01*
X121366904Y-137281904D01*
X121366904Y-137186666D01*
X121319285Y-137091428D01*
X121271666Y-137043809D01*
X121176428Y-136996190D01*
X120985952Y-136948571D01*
X120890714Y-136900952D01*
X120843095Y-136853333D01*
X120795476Y-136758095D01*
X120795476Y-136662857D01*
X120843095Y-136567619D01*
X120890714Y-136520000D01*
X120985952Y-136472380D01*
X121224047Y-136472380D01*
X121366904Y-136520000D01*
X121700238Y-136472380D02*
X121938333Y-137472380D01*
X122128809Y-136758095D01*
X122319285Y-137472380D01*
X122557380Y-136472380D01*
X123462142Y-137472380D02*
X122890714Y-137472380D01*
X123176428Y-137472380D02*
X123176428Y-136472380D01*
X123081190Y-136615238D01*
X122985952Y-136710476D01*
X122890714Y-136758095D01*
X124081190Y-136472380D02*
X124176428Y-136472380D01*
X124271666Y-136520000D01*
X124319285Y-136567619D01*
X124366904Y-136662857D01*
X124414523Y-136853333D01*
X124414523Y-137091428D01*
X124366904Y-137281904D01*
X124319285Y-137377142D01*
X124271666Y-137424761D01*
X124176428Y-137472380D01*
X124081190Y-137472380D01*
X123985952Y-137424761D01*
X123938333Y-137377142D01*
X123890714Y-137281904D01*
X123843095Y-137091428D01*
X123843095Y-136853333D01*
X123890714Y-136662857D01*
X123938333Y-136567619D01*
X123985952Y-136520000D01*
X124081190Y-136472380D01*
X107301666Y-137424761D02*
X107444523Y-137472380D01*
X107682619Y-137472380D01*
X107777857Y-137424761D01*
X107825476Y-137377142D01*
X107873095Y-137281904D01*
X107873095Y-137186666D01*
X107825476Y-137091428D01*
X107777857Y-137043809D01*
X107682619Y-136996190D01*
X107492142Y-136948571D01*
X107396904Y-136900952D01*
X107349285Y-136853333D01*
X107301666Y-136758095D01*
X107301666Y-136662857D01*
X107349285Y-136567619D01*
X107396904Y-136520000D01*
X107492142Y-136472380D01*
X107730238Y-136472380D01*
X107873095Y-136520000D01*
X108206428Y-136472380D02*
X108444523Y-137472380D01*
X108635000Y-136758095D01*
X108825476Y-137472380D01*
X109063571Y-136472380D01*
X109492142Y-137472380D02*
X109682619Y-137472380D01*
X109777857Y-137424761D01*
X109825476Y-137377142D01*
X109920714Y-137234285D01*
X109968333Y-137043809D01*
X109968333Y-136662857D01*
X109920714Y-136567619D01*
X109873095Y-136520000D01*
X109777857Y-136472380D01*
X109587380Y-136472380D01*
X109492142Y-136520000D01*
X109444523Y-136567619D01*
X109396904Y-136662857D01*
X109396904Y-136900952D01*
X109444523Y-136996190D01*
X109492142Y-137043809D01*
X109587380Y-137091428D01*
X109777857Y-137091428D01*
X109873095Y-137043809D01*
X109920714Y-136996190D01*
X109968333Y-136900952D01*
X93331666Y-137424761D02*
X93474523Y-137472380D01*
X93712619Y-137472380D01*
X93807857Y-137424761D01*
X93855476Y-137377142D01*
X93903095Y-137281904D01*
X93903095Y-137186666D01*
X93855476Y-137091428D01*
X93807857Y-137043809D01*
X93712619Y-136996190D01*
X93522142Y-136948571D01*
X93426904Y-136900952D01*
X93379285Y-136853333D01*
X93331666Y-136758095D01*
X93331666Y-136662857D01*
X93379285Y-136567619D01*
X93426904Y-136520000D01*
X93522142Y-136472380D01*
X93760238Y-136472380D01*
X93903095Y-136520000D01*
X94236428Y-136472380D02*
X94474523Y-137472380D01*
X94665000Y-136758095D01*
X94855476Y-137472380D01*
X95093571Y-136472380D01*
X95617380Y-136900952D02*
X95522142Y-136853333D01*
X95474523Y-136805714D01*
X95426904Y-136710476D01*
X95426904Y-136662857D01*
X95474523Y-136567619D01*
X95522142Y-136520000D01*
X95617380Y-136472380D01*
X95807857Y-136472380D01*
X95903095Y-136520000D01*
X95950714Y-136567619D01*
X95998333Y-136662857D01*
X95998333Y-136710476D01*
X95950714Y-136805714D01*
X95903095Y-136853333D01*
X95807857Y-136900952D01*
X95617380Y-136900952D01*
X95522142Y-136948571D01*
X95474523Y-136996190D01*
X95426904Y-137091428D01*
X95426904Y-137281904D01*
X95474523Y-137377142D01*
X95522142Y-137424761D01*
X95617380Y-137472380D01*
X95807857Y-137472380D01*
X95903095Y-137424761D01*
X95950714Y-137377142D01*
X95998333Y-137281904D01*
X95998333Y-137091428D01*
X95950714Y-136996190D01*
X95903095Y-136948571D01*
X95807857Y-136900952D01*
X79361666Y-137424761D02*
X79504523Y-137472380D01*
X79742619Y-137472380D01*
X79837857Y-137424761D01*
X79885476Y-137377142D01*
X79933095Y-137281904D01*
X79933095Y-137186666D01*
X79885476Y-137091428D01*
X79837857Y-137043809D01*
X79742619Y-136996190D01*
X79552142Y-136948571D01*
X79456904Y-136900952D01*
X79409285Y-136853333D01*
X79361666Y-136758095D01*
X79361666Y-136662857D01*
X79409285Y-136567619D01*
X79456904Y-136520000D01*
X79552142Y-136472380D01*
X79790238Y-136472380D01*
X79933095Y-136520000D01*
X80266428Y-136472380D02*
X80504523Y-137472380D01*
X80695000Y-136758095D01*
X80885476Y-137472380D01*
X81123571Y-136472380D01*
X81409285Y-136472380D02*
X82075952Y-136472380D01*
X81647380Y-137472380D01*
X65391666Y-137424761D02*
X65534523Y-137472380D01*
X65772619Y-137472380D01*
X65867857Y-137424761D01*
X65915476Y-137377142D01*
X65963095Y-137281904D01*
X65963095Y-137186666D01*
X65915476Y-137091428D01*
X65867857Y-137043809D01*
X65772619Y-136996190D01*
X65582142Y-136948571D01*
X65486904Y-136900952D01*
X65439285Y-136853333D01*
X65391666Y-136758095D01*
X65391666Y-136662857D01*
X65439285Y-136567619D01*
X65486904Y-136520000D01*
X65582142Y-136472380D01*
X65820238Y-136472380D01*
X65963095Y-136520000D01*
X66296428Y-136472380D02*
X66534523Y-137472380D01*
X66725000Y-136758095D01*
X66915476Y-137472380D01*
X67153571Y-136472380D01*
X67963095Y-136472380D02*
X67772619Y-136472380D01*
X67677380Y-136520000D01*
X67629761Y-136567619D01*
X67534523Y-136710476D01*
X67486904Y-136900952D01*
X67486904Y-137281904D01*
X67534523Y-137377142D01*
X67582142Y-137424761D01*
X67677380Y-137472380D01*
X67867857Y-137472380D01*
X67963095Y-137424761D01*
X68010714Y-137377142D01*
X68058333Y-137281904D01*
X68058333Y-137043809D01*
X68010714Y-136948571D01*
X67963095Y-136900952D01*
X67867857Y-136853333D01*
X67677380Y-136853333D01*
X67582142Y-136900952D01*
X67534523Y-136948571D01*
X67486904Y-137043809D01*
X121271666Y-147584761D02*
X121414523Y-147632380D01*
X121652619Y-147632380D01*
X121747857Y-147584761D01*
X121795476Y-147537142D01*
X121843095Y-147441904D01*
X121843095Y-147346666D01*
X121795476Y-147251428D01*
X121747857Y-147203809D01*
X121652619Y-147156190D01*
X121462142Y-147108571D01*
X121366904Y-147060952D01*
X121319285Y-147013333D01*
X121271666Y-146918095D01*
X121271666Y-146822857D01*
X121319285Y-146727619D01*
X121366904Y-146680000D01*
X121462142Y-146632380D01*
X121700238Y-146632380D01*
X121843095Y-146680000D01*
X122176428Y-146632380D02*
X122414523Y-147632380D01*
X122605000Y-146918095D01*
X122795476Y-147632380D01*
X123033571Y-146632380D01*
X123890714Y-146632380D02*
X123414523Y-146632380D01*
X123366904Y-147108571D01*
X123414523Y-147060952D01*
X123509761Y-147013333D01*
X123747857Y-147013333D01*
X123843095Y-147060952D01*
X123890714Y-147108571D01*
X123938333Y-147203809D01*
X123938333Y-147441904D01*
X123890714Y-147537142D01*
X123843095Y-147584761D01*
X123747857Y-147632380D01*
X123509761Y-147632380D01*
X123414523Y-147584761D01*
X123366904Y-147537142D01*
X107301666Y-147584761D02*
X107444523Y-147632380D01*
X107682619Y-147632380D01*
X107777857Y-147584761D01*
X107825476Y-147537142D01*
X107873095Y-147441904D01*
X107873095Y-147346666D01*
X107825476Y-147251428D01*
X107777857Y-147203809D01*
X107682619Y-147156190D01*
X107492142Y-147108571D01*
X107396904Y-147060952D01*
X107349285Y-147013333D01*
X107301666Y-146918095D01*
X107301666Y-146822857D01*
X107349285Y-146727619D01*
X107396904Y-146680000D01*
X107492142Y-146632380D01*
X107730238Y-146632380D01*
X107873095Y-146680000D01*
X108206428Y-146632380D02*
X108444523Y-147632380D01*
X108635000Y-146918095D01*
X108825476Y-147632380D01*
X109063571Y-146632380D01*
X109873095Y-146965714D02*
X109873095Y-147632380D01*
X109635000Y-146584761D02*
X109396904Y-147299047D01*
X110015952Y-147299047D01*
X93331666Y-147584761D02*
X93474523Y-147632380D01*
X93712619Y-147632380D01*
X93807857Y-147584761D01*
X93855476Y-147537142D01*
X93903095Y-147441904D01*
X93903095Y-147346666D01*
X93855476Y-147251428D01*
X93807857Y-147203809D01*
X93712619Y-147156190D01*
X93522142Y-147108571D01*
X93426904Y-147060952D01*
X93379285Y-147013333D01*
X93331666Y-146918095D01*
X93331666Y-146822857D01*
X93379285Y-146727619D01*
X93426904Y-146680000D01*
X93522142Y-146632380D01*
X93760238Y-146632380D01*
X93903095Y-146680000D01*
X94236428Y-146632380D02*
X94474523Y-147632380D01*
X94665000Y-146918095D01*
X94855476Y-147632380D01*
X95093571Y-146632380D01*
X95379285Y-146632380D02*
X95998333Y-146632380D01*
X95665000Y-147013333D01*
X95807857Y-147013333D01*
X95903095Y-147060952D01*
X95950714Y-147108571D01*
X95998333Y-147203809D01*
X95998333Y-147441904D01*
X95950714Y-147537142D01*
X95903095Y-147584761D01*
X95807857Y-147632380D01*
X95522142Y-147632380D01*
X95426904Y-147584761D01*
X95379285Y-147537142D01*
X79361666Y-147584761D02*
X79504523Y-147632380D01*
X79742619Y-147632380D01*
X79837857Y-147584761D01*
X79885476Y-147537142D01*
X79933095Y-147441904D01*
X79933095Y-147346666D01*
X79885476Y-147251428D01*
X79837857Y-147203809D01*
X79742619Y-147156190D01*
X79552142Y-147108571D01*
X79456904Y-147060952D01*
X79409285Y-147013333D01*
X79361666Y-146918095D01*
X79361666Y-146822857D01*
X79409285Y-146727619D01*
X79456904Y-146680000D01*
X79552142Y-146632380D01*
X79790238Y-146632380D01*
X79933095Y-146680000D01*
X80266428Y-146632380D02*
X80504523Y-147632380D01*
X80695000Y-146918095D01*
X80885476Y-147632380D01*
X81123571Y-146632380D01*
X81456904Y-146727619D02*
X81504523Y-146680000D01*
X81599761Y-146632380D01*
X81837857Y-146632380D01*
X81933095Y-146680000D01*
X81980714Y-146727619D01*
X82028333Y-146822857D01*
X82028333Y-146918095D01*
X81980714Y-147060952D01*
X81409285Y-147632380D01*
X82028333Y-147632380D01*
X65391666Y-147584761D02*
X65534523Y-147632380D01*
X65772619Y-147632380D01*
X65867857Y-147584761D01*
X65915476Y-147537142D01*
X65963095Y-147441904D01*
X65963095Y-147346666D01*
X65915476Y-147251428D01*
X65867857Y-147203809D01*
X65772619Y-147156190D01*
X65582142Y-147108571D01*
X65486904Y-147060952D01*
X65439285Y-147013333D01*
X65391666Y-146918095D01*
X65391666Y-146822857D01*
X65439285Y-146727619D01*
X65486904Y-146680000D01*
X65582142Y-146632380D01*
X65820238Y-146632380D01*
X65963095Y-146680000D01*
X66296428Y-146632380D02*
X66534523Y-147632380D01*
X66725000Y-146918095D01*
X66915476Y-147632380D01*
X67153571Y-146632380D01*
X68058333Y-147632380D02*
X67486904Y-147632380D01*
X67772619Y-147632380D02*
X67772619Y-146632380D01*
X67677380Y-146775238D01*
X67582142Y-146870476D01*
X67486904Y-146918095D01*
M02*
