G04 #@! TF.GenerationSoftware,KiCad,Pcbnew,5.1.5+dfsg1-2build2*
G04 #@! TF.CreationDate,2021-04-12T22:06:22+02:00*
G04 #@! TF.ProjectId,calc,63616c63-2e6b-4696-9361-645f70636258,rev?*
G04 #@! TF.SameCoordinates,Original*
G04 #@! TF.FileFunction,Legend,Bot*
G04 #@! TF.FilePolarity,Positive*
%FSLAX46Y46*%
G04 Gerber Fmt 4.6, Leading zero omitted, Abs format (unit mm)*
G04 Created by KiCad (PCBNEW 5.1.5+dfsg1-2build2) date 2021-04-12 22:06:22*
%MOMM*%
%LPD*%
G04 APERTURE LIST*
%ADD10C,0.120000*%
%ADD11C,0.150000*%
G04 APERTURE END LIST*
D10*
X95421267Y-72265000D02*
X95078733Y-72265000D01*
X95421267Y-71245000D02*
X95078733Y-71245000D01*
X73485000Y-36270000D02*
X80185000Y-36270000D01*
X80185000Y-42470000D02*
X73485000Y-42470000D01*
X80185000Y-40570000D02*
X80185000Y-38170000D01*
X73485000Y-40570000D02*
X73485000Y-38170000D01*
X73485000Y-42470000D02*
X73485000Y-42270000D01*
X73485000Y-36270000D02*
X73485000Y-36470000D01*
X80185000Y-36270000D02*
X80185000Y-36470000D01*
X80185000Y-42470000D02*
X80185000Y-42270000D01*
X80295000Y-62200000D02*
X80295000Y-60860000D01*
X79345000Y-62200000D02*
X80295000Y-62200000D01*
X79345000Y-63150000D02*
X79345000Y-62200000D01*
X79345000Y-72420000D02*
X80295000Y-72420000D01*
X79345000Y-71470000D02*
X79345000Y-72420000D01*
X89565000Y-62200000D02*
X88615000Y-62200000D01*
X89565000Y-63150000D02*
X89565000Y-62200000D01*
X89565000Y-72420000D02*
X88615000Y-72420000D01*
X89565000Y-71470000D02*
X89565000Y-72420000D01*
X101613749Y-50430001D02*
X102136253Y-50430001D01*
X101613749Y-51850001D02*
X102136253Y-51850001D01*
X97386253Y-51850001D02*
X96863749Y-51850001D01*
X97386253Y-50430001D02*
X96863749Y-50430001D01*
X96983733Y-54735000D02*
X97326267Y-54735000D01*
X96983733Y-55755000D02*
X97326267Y-55755000D01*
X84193748Y-51995000D02*
X84716252Y-51995000D01*
X84193748Y-53415000D02*
X84716252Y-53415000D01*
X79203733Y-54100000D02*
X79546267Y-54100000D01*
X79203733Y-55120000D02*
X79546267Y-55120000D01*
X124110000Y-52135000D02*
X124110000Y-50135000D01*
X123110000Y-51135000D02*
X125110000Y-51135000D01*
X109760000Y-75485000D02*
X114260000Y-75485000D01*
X109760000Y-52785000D02*
X114260000Y-52785000D01*
X109760000Y-52785000D02*
X109760000Y-75485000D01*
X114260000Y-78685000D02*
X115810000Y-78685000D01*
X114260000Y-75485000D02*
X114260000Y-78685000D01*
X114260000Y-49585000D02*
X115810000Y-49585000D01*
X114260000Y-52785000D02*
X114260000Y-49585000D01*
X121960000Y-49585000D02*
X120410000Y-49585000D01*
X121960000Y-52785000D02*
X121960000Y-49585000D01*
X126460000Y-54585000D02*
X124660000Y-52785000D01*
X124660000Y-52785000D02*
X121960000Y-52785000D01*
X126460000Y-75485000D02*
X126460000Y-54585000D01*
X126460000Y-75485000D02*
X121960000Y-75485000D01*
X121960000Y-78685000D02*
X120410000Y-78685000D01*
X121960000Y-75485000D02*
X121960000Y-78685000D01*
X79546267Y-50040000D02*
X79203733Y-50040000D01*
X79546267Y-49020000D02*
X79203733Y-49020000D01*
X80520000Y-45548733D02*
X80520000Y-45891267D01*
X79500000Y-45548733D02*
X79500000Y-45891267D01*
X82675000Y-56051267D02*
X82675000Y-55708733D01*
X83695000Y-56051267D02*
X83695000Y-55708733D01*
X67773733Y-36320000D02*
X68116267Y-36320000D01*
X67773733Y-37340000D02*
X68116267Y-37340000D01*
X73488733Y-59815000D02*
X73831267Y-59815000D01*
X73488733Y-60835000D02*
X73831267Y-60835000D01*
X88505000Y-39925000D02*
X88505000Y-42625000D01*
X88505000Y-42625000D02*
X89555000Y-42625000D01*
X89555000Y-42625000D02*
X89555000Y-43415000D01*
X100725000Y-39925000D02*
X100725000Y-42625000D01*
X100725000Y-42625000D02*
X99675000Y-42625000D01*
X88505000Y-37605000D02*
X88505000Y-35755000D01*
X88505000Y-35755000D02*
X100725000Y-35755000D01*
X100725000Y-35755000D02*
X100725000Y-37605000D01*
X71583733Y-45210000D02*
X71926267Y-45210000D01*
X71583733Y-46230000D02*
X71926267Y-46230000D01*
X71880000Y-64941267D02*
X71880000Y-64598733D01*
X72900000Y-64941267D02*
X72900000Y-64598733D01*
X83755000Y-47100000D02*
X85155000Y-47100000D01*
X85155000Y-49420000D02*
X83255000Y-49420000D01*
X77725000Y-56350000D02*
X80575000Y-56350000D01*
X77725000Y-57950000D02*
X77725000Y-56350000D01*
X80575000Y-57950000D02*
X77725000Y-57950000D01*
X92538733Y-60450000D02*
X92881267Y-60450000D01*
X92538733Y-61470000D02*
X92881267Y-61470000D01*
X73488733Y-56640000D02*
X73831267Y-56640000D01*
X73488733Y-57660000D02*
X73831267Y-57660000D01*
X78911267Y-77980000D02*
X78568733Y-77980000D01*
X78911267Y-76960000D02*
X78568733Y-76960000D01*
X120650000Y-43815000D02*
X120650000Y-42545000D01*
X119380000Y-43815000D02*
X120650000Y-43815000D01*
X111380000Y-41502071D02*
X111380000Y-41105000D01*
X112140000Y-41502071D02*
X112140000Y-41105000D01*
X111380000Y-32445000D02*
X111380000Y-38445000D01*
X112140000Y-32445000D02*
X111380000Y-32445000D01*
X112140000Y-38445000D02*
X112140000Y-32445000D01*
X113030000Y-41105000D02*
X113030000Y-38445000D01*
X113920000Y-41502071D02*
X113920000Y-41105000D01*
X114680000Y-41502071D02*
X114680000Y-41105000D01*
X113920000Y-32445000D02*
X113920000Y-38445000D01*
X114680000Y-32445000D02*
X113920000Y-32445000D01*
X114680000Y-38445000D02*
X114680000Y-32445000D01*
X115570000Y-41105000D02*
X115570000Y-38445000D01*
X116460000Y-41502071D02*
X116460000Y-41105000D01*
X117220000Y-41502071D02*
X117220000Y-41105000D01*
X116460000Y-32445000D02*
X116460000Y-38445000D01*
X117220000Y-32445000D02*
X116460000Y-32445000D01*
X117220000Y-38445000D02*
X117220000Y-32445000D01*
X118110000Y-41105000D02*
X118110000Y-38445000D01*
X119000000Y-41435000D02*
X119000000Y-41105000D01*
X119760000Y-41435000D02*
X119760000Y-41105000D01*
X119100000Y-38445000D02*
X119100000Y-32445000D01*
X119220000Y-38445000D02*
X119220000Y-32445000D01*
X119340000Y-38445000D02*
X119340000Y-32445000D01*
X119460000Y-38445000D02*
X119460000Y-32445000D01*
X119580000Y-38445000D02*
X119580000Y-32445000D01*
X119700000Y-38445000D02*
X119700000Y-32445000D01*
X119000000Y-32445000D02*
X119000000Y-38445000D01*
X119760000Y-32445000D02*
X119000000Y-32445000D01*
X119760000Y-38445000D02*
X119760000Y-32445000D01*
X120710000Y-38445000D02*
X120710000Y-41105000D01*
X110430000Y-38445000D02*
X120710000Y-38445000D01*
X110430000Y-41105000D02*
X110430000Y-38445000D01*
X120710000Y-41105000D02*
X110430000Y-41105000D01*
D11*
X95892857Y-70682142D02*
X95940476Y-70729761D01*
X96083333Y-70777380D01*
X96178571Y-70777380D01*
X96321428Y-70729761D01*
X96416666Y-70634523D01*
X96464285Y-70539285D01*
X96511904Y-70348809D01*
X96511904Y-70205952D01*
X96464285Y-70015476D01*
X96416666Y-69920238D01*
X96321428Y-69825000D01*
X96178571Y-69777380D01*
X96083333Y-69777380D01*
X95940476Y-69825000D01*
X95892857Y-69872619D01*
X94940476Y-70777380D02*
X95511904Y-70777380D01*
X95226190Y-70777380D02*
X95226190Y-69777380D01*
X95321428Y-69920238D01*
X95416666Y-70015476D01*
X95511904Y-70063095D01*
X93988095Y-70777380D02*
X94559523Y-70777380D01*
X94273809Y-70777380D02*
X94273809Y-69777380D01*
X94369047Y-69920238D01*
X94464285Y-70015476D01*
X94559523Y-70063095D01*
X78694523Y-43724761D02*
X78551666Y-43772380D01*
X78313571Y-43772380D01*
X78218333Y-43724761D01*
X78170714Y-43677142D01*
X78123095Y-43581904D01*
X78123095Y-43486666D01*
X78170714Y-43391428D01*
X78218333Y-43343809D01*
X78313571Y-43296190D01*
X78504047Y-43248571D01*
X78599285Y-43200952D01*
X78646904Y-43153333D01*
X78694523Y-43058095D01*
X78694523Y-42962857D01*
X78646904Y-42867619D01*
X78599285Y-42820000D01*
X78504047Y-42772380D01*
X78265952Y-42772380D01*
X78123095Y-42820000D01*
X77789761Y-42772380D02*
X77551666Y-43772380D01*
X77361190Y-43058095D01*
X77170714Y-43772380D01*
X76932619Y-42772380D01*
X76123095Y-43105714D02*
X76123095Y-43772380D01*
X76361190Y-42724761D02*
X76599285Y-43439047D01*
X75980238Y-43439047D01*
X75123095Y-42772380D02*
X75599285Y-42772380D01*
X75646904Y-43248571D01*
X75599285Y-43200952D01*
X75504047Y-43153333D01*
X75265952Y-43153333D01*
X75170714Y-43200952D01*
X75123095Y-43248571D01*
X75075476Y-43343809D01*
X75075476Y-43581904D01*
X75123095Y-43677142D01*
X75170714Y-43724761D01*
X75265952Y-43772380D01*
X75504047Y-43772380D01*
X75599285Y-43724761D01*
X75646904Y-43677142D01*
X76507380Y-66548095D02*
X77316904Y-66548095D01*
X77412142Y-66595714D01*
X77459761Y-66643333D01*
X77507380Y-66738571D01*
X77507380Y-66929047D01*
X77459761Y-67024285D01*
X77412142Y-67071904D01*
X77316904Y-67119523D01*
X76507380Y-67119523D01*
X76602619Y-67548095D02*
X76555000Y-67595714D01*
X76507380Y-67690952D01*
X76507380Y-67929047D01*
X76555000Y-68024285D01*
X76602619Y-68071904D01*
X76697857Y-68119523D01*
X76793095Y-68119523D01*
X76935952Y-68071904D01*
X77507380Y-67500476D01*
X77507380Y-68119523D01*
X102041667Y-53242381D02*
X102517858Y-53242381D01*
X102517858Y-52242381D01*
X101803572Y-52242381D02*
X101184524Y-52242381D01*
X101517858Y-52623334D01*
X101375001Y-52623334D01*
X101279762Y-52670953D01*
X101232143Y-52718572D01*
X101184524Y-52813810D01*
X101184524Y-53051905D01*
X101232143Y-53147143D01*
X101279762Y-53194762D01*
X101375001Y-53242381D01*
X101660715Y-53242381D01*
X101755953Y-53194762D01*
X101803572Y-53147143D01*
X97291667Y-49942381D02*
X97767858Y-49942381D01*
X97767858Y-48942381D01*
X97005953Y-49037620D02*
X96958334Y-48990001D01*
X96863096Y-48942381D01*
X96625001Y-48942381D01*
X96529762Y-48990001D01*
X96482143Y-49037620D01*
X96434524Y-49132858D01*
X96434524Y-49228096D01*
X96482143Y-49370953D01*
X97053572Y-49942381D01*
X96434524Y-49942381D01*
X97321666Y-57032142D02*
X97369285Y-57079761D01*
X97512142Y-57127380D01*
X97607380Y-57127380D01*
X97750238Y-57079761D01*
X97845476Y-56984523D01*
X97893095Y-56889285D01*
X97940714Y-56698809D01*
X97940714Y-56555952D01*
X97893095Y-56365476D01*
X97845476Y-56270238D01*
X97750238Y-56175000D01*
X97607380Y-56127380D01*
X97512142Y-56127380D01*
X97369285Y-56175000D01*
X97321666Y-56222619D01*
X96988333Y-56127380D02*
X96321666Y-56127380D01*
X96750238Y-57127380D01*
X84621666Y-54807380D02*
X85097857Y-54807380D01*
X85097857Y-53807380D01*
X83764523Y-54807380D02*
X84335952Y-54807380D01*
X84050238Y-54807380D02*
X84050238Y-53807380D01*
X84145476Y-53950238D01*
X84240714Y-54045476D01*
X84335952Y-54093095D01*
X79541666Y-56397142D02*
X79589285Y-56444761D01*
X79732142Y-56492380D01*
X79827380Y-56492380D01*
X79970238Y-56444761D01*
X80065476Y-56349523D01*
X80113095Y-56254285D01*
X80160714Y-56063809D01*
X80160714Y-55920952D01*
X80113095Y-55730476D01*
X80065476Y-55635238D01*
X79970238Y-55540000D01*
X79827380Y-55492380D01*
X79732142Y-55492380D01*
X79589285Y-55540000D01*
X79541666Y-55587619D01*
X79208333Y-55492380D02*
X78589285Y-55492380D01*
X78922619Y-55873333D01*
X78779761Y-55873333D01*
X78684523Y-55920952D01*
X78636904Y-55968571D01*
X78589285Y-56063809D01*
X78589285Y-56301904D01*
X78636904Y-56397142D01*
X78684523Y-56444761D01*
X78779761Y-56492380D01*
X79065476Y-56492380D01*
X79160714Y-56444761D01*
X79208333Y-56397142D01*
X112738571Y-49224285D02*
X112786190Y-49367142D01*
X112833809Y-49414761D01*
X112929047Y-49462380D01*
X113071904Y-49462380D01*
X113167142Y-49414761D01*
X113214761Y-49367142D01*
X113262380Y-49271904D01*
X113262380Y-48890952D01*
X112262380Y-48890952D01*
X112262380Y-49224285D01*
X112310000Y-49319523D01*
X112357619Y-49367142D01*
X112452857Y-49414761D01*
X112548095Y-49414761D01*
X112643333Y-49367142D01*
X112690952Y-49319523D01*
X112738571Y-49224285D01*
X112738571Y-48890952D01*
X112262380Y-49748095D02*
X112262380Y-50319523D01*
X113262380Y-50033809D02*
X112262380Y-50033809D01*
X113262380Y-51176666D02*
X113262380Y-50605238D01*
X113262380Y-50890952D02*
X112262380Y-50890952D01*
X112405238Y-50795714D01*
X112500476Y-50700476D01*
X112548095Y-50605238D01*
X77001666Y-49887142D02*
X77049285Y-49934761D01*
X77192142Y-49982380D01*
X77287380Y-49982380D01*
X77430238Y-49934761D01*
X77525476Y-49839523D01*
X77573095Y-49744285D01*
X77620714Y-49553809D01*
X77620714Y-49410952D01*
X77573095Y-49220476D01*
X77525476Y-49125238D01*
X77430238Y-49030000D01*
X77287380Y-48982380D01*
X77192142Y-48982380D01*
X77049285Y-49030000D01*
X77001666Y-49077619D01*
X76049285Y-49982380D02*
X76620714Y-49982380D01*
X76335000Y-49982380D02*
X76335000Y-48982380D01*
X76430238Y-49125238D01*
X76525476Y-49220476D01*
X76620714Y-49268095D01*
X80367142Y-43013333D02*
X80414761Y-42965714D01*
X80462380Y-42822857D01*
X80462380Y-42727619D01*
X80414761Y-42584761D01*
X80319523Y-42489523D01*
X80224285Y-42441904D01*
X80033809Y-42394285D01*
X79890952Y-42394285D01*
X79700476Y-42441904D01*
X79605238Y-42489523D01*
X79510000Y-42584761D01*
X79462380Y-42727619D01*
X79462380Y-42822857D01*
X79510000Y-42965714D01*
X79557619Y-43013333D01*
X79557619Y-43394285D02*
X79510000Y-43441904D01*
X79462380Y-43537142D01*
X79462380Y-43775238D01*
X79510000Y-43870476D01*
X79557619Y-43918095D01*
X79652857Y-43965714D01*
X79748095Y-43965714D01*
X79890952Y-43918095D01*
X80462380Y-43346666D01*
X80462380Y-43965714D01*
X84972142Y-55713333D02*
X85019761Y-55665714D01*
X85067380Y-55522857D01*
X85067380Y-55427619D01*
X85019761Y-55284761D01*
X84924523Y-55189523D01*
X84829285Y-55141904D01*
X84638809Y-55094285D01*
X84495952Y-55094285D01*
X84305476Y-55141904D01*
X84210238Y-55189523D01*
X84115000Y-55284761D01*
X84067380Y-55427619D01*
X84067380Y-55522857D01*
X84115000Y-55665714D01*
X84162619Y-55713333D01*
X84400714Y-56570476D02*
X85067380Y-56570476D01*
X84019761Y-56332380D02*
X84734047Y-56094285D01*
X84734047Y-56713333D01*
X68111666Y-38617142D02*
X68159285Y-38664761D01*
X68302142Y-38712380D01*
X68397380Y-38712380D01*
X68540238Y-38664761D01*
X68635476Y-38569523D01*
X68683095Y-38474285D01*
X68730714Y-38283809D01*
X68730714Y-38140952D01*
X68683095Y-37950476D01*
X68635476Y-37855238D01*
X68540238Y-37760000D01*
X68397380Y-37712380D01*
X68302142Y-37712380D01*
X68159285Y-37760000D01*
X68111666Y-37807619D01*
X67206904Y-37712380D02*
X67683095Y-37712380D01*
X67730714Y-38188571D01*
X67683095Y-38140952D01*
X67587857Y-38093333D01*
X67349761Y-38093333D01*
X67254523Y-38140952D01*
X67206904Y-38188571D01*
X67159285Y-38283809D01*
X67159285Y-38521904D01*
X67206904Y-38617142D01*
X67254523Y-38664761D01*
X67349761Y-38712380D01*
X67587857Y-38712380D01*
X67683095Y-38664761D01*
X67730714Y-38617142D01*
X73826666Y-62112142D02*
X73874285Y-62159761D01*
X74017142Y-62207380D01*
X74112380Y-62207380D01*
X74255238Y-62159761D01*
X74350476Y-62064523D01*
X74398095Y-61969285D01*
X74445714Y-61778809D01*
X74445714Y-61635952D01*
X74398095Y-61445476D01*
X74350476Y-61350238D01*
X74255238Y-61255000D01*
X74112380Y-61207380D01*
X74017142Y-61207380D01*
X73874285Y-61255000D01*
X73826666Y-61302619D01*
X72969523Y-61207380D02*
X73160000Y-61207380D01*
X73255238Y-61255000D01*
X73302857Y-61302619D01*
X73398095Y-61445476D01*
X73445714Y-61635952D01*
X73445714Y-62016904D01*
X73398095Y-62112142D01*
X73350476Y-62159761D01*
X73255238Y-62207380D01*
X73064761Y-62207380D01*
X72969523Y-62159761D01*
X72921904Y-62112142D01*
X72874285Y-62016904D01*
X72874285Y-61778809D01*
X72921904Y-61683571D01*
X72969523Y-61635952D01*
X73064761Y-61588333D01*
X73255238Y-61588333D01*
X73350476Y-61635952D01*
X73398095Y-61683571D01*
X73445714Y-61778809D01*
X94948333Y-44072380D02*
X94948333Y-44786666D01*
X94995952Y-44929523D01*
X95091190Y-45024761D01*
X95234047Y-45072380D01*
X95329285Y-45072380D01*
X94519761Y-44167619D02*
X94472142Y-44120000D01*
X94376904Y-44072380D01*
X94138809Y-44072380D01*
X94043571Y-44120000D01*
X93995952Y-44167619D01*
X93948333Y-44262857D01*
X93948333Y-44358095D01*
X93995952Y-44500952D01*
X94567380Y-45072380D01*
X93948333Y-45072380D01*
X71921666Y-47602380D02*
X72255000Y-47126190D01*
X72493095Y-47602380D02*
X72493095Y-46602380D01*
X72112142Y-46602380D01*
X72016904Y-46650000D01*
X71969285Y-46697619D01*
X71921666Y-46792857D01*
X71921666Y-46935714D01*
X71969285Y-47030952D01*
X72016904Y-47078571D01*
X72112142Y-47126190D01*
X72493095Y-47126190D01*
X70969285Y-47602380D02*
X71540714Y-47602380D01*
X71255000Y-47602380D02*
X71255000Y-46602380D01*
X71350238Y-46745238D01*
X71445476Y-46840476D01*
X71540714Y-46888095D01*
X74272380Y-64603333D02*
X73796190Y-64270000D01*
X74272380Y-64031904D02*
X73272380Y-64031904D01*
X73272380Y-64412857D01*
X73320000Y-64508095D01*
X73367619Y-64555714D01*
X73462857Y-64603333D01*
X73605714Y-64603333D01*
X73700952Y-64555714D01*
X73748571Y-64508095D01*
X73796190Y-64412857D01*
X73796190Y-64031904D01*
X73367619Y-64984285D02*
X73320000Y-65031904D01*
X73272380Y-65127142D01*
X73272380Y-65365238D01*
X73320000Y-65460476D01*
X73367619Y-65508095D01*
X73462857Y-65555714D01*
X73558095Y-65555714D01*
X73700952Y-65508095D01*
X74272380Y-64936666D01*
X74272380Y-65555714D01*
X85216904Y-49712380D02*
X85216904Y-50521904D01*
X85169285Y-50617142D01*
X85121666Y-50664761D01*
X85026428Y-50712380D01*
X84835952Y-50712380D01*
X84740714Y-50664761D01*
X84693095Y-50617142D01*
X84645476Y-50521904D01*
X84645476Y-49712380D01*
X83645476Y-50712380D02*
X84216904Y-50712380D01*
X83931190Y-50712380D02*
X83931190Y-49712380D01*
X84026428Y-49855238D01*
X84121666Y-49950476D01*
X84216904Y-49998095D01*
X79851190Y-58926190D02*
X79851190Y-59402380D01*
X80184523Y-58402380D02*
X79851190Y-58926190D01*
X79517857Y-58402380D01*
X78660714Y-59402380D02*
X79232142Y-59402380D01*
X78946428Y-59402380D02*
X78946428Y-58402380D01*
X79041666Y-58545238D01*
X79136904Y-58640476D01*
X79232142Y-58688095D01*
X92876666Y-62747142D02*
X92924285Y-62794761D01*
X93067142Y-62842380D01*
X93162380Y-62842380D01*
X93305238Y-62794761D01*
X93400476Y-62699523D01*
X93448095Y-62604285D01*
X93495714Y-62413809D01*
X93495714Y-62270952D01*
X93448095Y-62080476D01*
X93400476Y-61985238D01*
X93305238Y-61890000D01*
X93162380Y-61842380D01*
X93067142Y-61842380D01*
X92924285Y-61890000D01*
X92876666Y-61937619D01*
X92305238Y-62270952D02*
X92400476Y-62223333D01*
X92448095Y-62175714D01*
X92495714Y-62080476D01*
X92495714Y-62032857D01*
X92448095Y-61937619D01*
X92400476Y-61890000D01*
X92305238Y-61842380D01*
X92114761Y-61842380D01*
X92019523Y-61890000D01*
X91971904Y-61937619D01*
X91924285Y-62032857D01*
X91924285Y-62080476D01*
X91971904Y-62175714D01*
X92019523Y-62223333D01*
X92114761Y-62270952D01*
X92305238Y-62270952D01*
X92400476Y-62318571D01*
X92448095Y-62366190D01*
X92495714Y-62461428D01*
X92495714Y-62651904D01*
X92448095Y-62747142D01*
X92400476Y-62794761D01*
X92305238Y-62842380D01*
X92114761Y-62842380D01*
X92019523Y-62794761D01*
X91971904Y-62747142D01*
X91924285Y-62651904D01*
X91924285Y-62461428D01*
X91971904Y-62366190D01*
X92019523Y-62318571D01*
X92114761Y-62270952D01*
X73826666Y-58937142D02*
X73874285Y-58984761D01*
X74017142Y-59032380D01*
X74112380Y-59032380D01*
X74255238Y-58984761D01*
X74350476Y-58889523D01*
X74398095Y-58794285D01*
X74445714Y-58603809D01*
X74445714Y-58460952D01*
X74398095Y-58270476D01*
X74350476Y-58175238D01*
X74255238Y-58080000D01*
X74112380Y-58032380D01*
X74017142Y-58032380D01*
X73874285Y-58080000D01*
X73826666Y-58127619D01*
X73350476Y-59032380D02*
X73160000Y-59032380D01*
X73064761Y-58984761D01*
X73017142Y-58937142D01*
X72921904Y-58794285D01*
X72874285Y-58603809D01*
X72874285Y-58222857D01*
X72921904Y-58127619D01*
X72969523Y-58080000D01*
X73064761Y-58032380D01*
X73255238Y-58032380D01*
X73350476Y-58080000D01*
X73398095Y-58127619D01*
X73445714Y-58222857D01*
X73445714Y-58460952D01*
X73398095Y-58556190D01*
X73350476Y-58603809D01*
X73255238Y-58651428D01*
X73064761Y-58651428D01*
X72969523Y-58603809D01*
X72921904Y-58556190D01*
X72874285Y-58460952D01*
X79382857Y-76397142D02*
X79430476Y-76444761D01*
X79573333Y-76492380D01*
X79668571Y-76492380D01*
X79811428Y-76444761D01*
X79906666Y-76349523D01*
X79954285Y-76254285D01*
X80001904Y-76063809D01*
X80001904Y-75920952D01*
X79954285Y-75730476D01*
X79906666Y-75635238D01*
X79811428Y-75540000D01*
X79668571Y-75492380D01*
X79573333Y-75492380D01*
X79430476Y-75540000D01*
X79382857Y-75587619D01*
X78430476Y-76492380D02*
X79001904Y-76492380D01*
X78716190Y-76492380D02*
X78716190Y-75492380D01*
X78811428Y-75635238D01*
X78906666Y-75730476D01*
X79001904Y-75778095D01*
X77811428Y-75492380D02*
X77716190Y-75492380D01*
X77620952Y-75540000D01*
X77573333Y-75587619D01*
X77525714Y-75682857D01*
X77478095Y-75873333D01*
X77478095Y-76111428D01*
X77525714Y-76301904D01*
X77573333Y-76397142D01*
X77620952Y-76444761D01*
X77716190Y-76492380D01*
X77811428Y-76492380D01*
X77906666Y-76444761D01*
X77954285Y-76397142D01*
X78001904Y-76301904D01*
X78049523Y-76111428D01*
X78049523Y-75873333D01*
X78001904Y-75682857D01*
X77954285Y-75587619D01*
X77906666Y-75540000D01*
X77811428Y-75492380D01*
X121102380Y-37826666D02*
X121816666Y-37826666D01*
X121959523Y-37779047D01*
X122054761Y-37683809D01*
X122102380Y-37540952D01*
X122102380Y-37445714D01*
X122102380Y-38826666D02*
X122102380Y-38255238D01*
X122102380Y-38540952D02*
X121102380Y-38540952D01*
X121245238Y-38445714D01*
X121340476Y-38350476D01*
X121388095Y-38255238D01*
M02*
